<svg width="27" height="27" viewBox="0 0 27 27" fill="none" xmlns="http://www.w3.org/2000/svg">
<path d="M26.5077 13.2416C26.52 20.5432 20.5997 26.5028 13.3299 26.5126C5.98165 26.5224 0.00491008 20.6095 3.06083e-06 13.325C-0.00490395 5.93996 5.89087 0.00982624 13.2465 1.2204e-05C20.5751 -0.00980183 26.4954 5.9007 26.5077 13.2416ZM21.6424 13.2367C21.608 12.005 21.5958 10.7513 21.532 9.49754C21.3995 6.90909 19.7262 5.11312 17.1476 5.00517C14.564 4.89721 11.9707 4.90948 9.38712 5.00271C7.08327 5.08613 5.49095 6.53616 5.08612 8.72714C4.98062 9.30126 4.94137 9.89746 4.93646 10.4814C4.91683 12.324 4.92174 14.169 4.934 16.0116C4.93646 16.5195 4.98062 17.0298 5.04441 17.5352C5.29467 19.5152 6.55577 20.9235 8.50141 21.3701C9.03136 21.4927 9.58831 21.5541 10.133 21.5614C12.1915 21.5835 14.25 21.5786 16.3109 21.5663C16.7599 21.5639 17.2138 21.5271 17.6579 21.451C19.579 21.1174 20.8499 20.0329 21.3553 18.1265C21.4657 17.7143 21.5197 17.2776 21.5369 16.8507C21.5884 15.6534 21.608 14.4585 21.6424 13.2367Z" fill="white"/>
<path d="M21.642 13.2363C21.6076 14.4581 21.588 15.653 21.5365 16.8478C21.5169 17.2747 21.4629 17.7115 21.3549 18.1237C20.8495 20.03 19.5786 21.1145 17.6575 21.4482C17.2159 21.5242 16.7595 21.561 16.3105 21.5635C14.252 21.5757 12.1911 21.5806 10.1326 21.5586C9.58791 21.5537 9.03342 21.4899 8.501 21.3672C6.55537 20.9206 5.29672 19.5123 5.04401 17.5324C4.98022 17.0269 4.93606 16.5166 4.9336 16.0087C4.92133 14.1661 4.91643 12.3211 4.93606 10.4785C4.94096 9.89213 4.98022 9.29838 5.08572 8.72426C5.49055 6.53573 7.08042 5.08326 9.38672 4.99984C11.9703 4.9066 14.5636 4.89679 17.1472 5.00229C19.7258 5.11025 21.3991 6.90621 21.5316 9.49466C21.5954 10.7509 21.6076 12.0071 21.642 13.2363ZM20.1257 13.2682C20.1086 13.2682 20.0889 13.2682 20.0717 13.2682C20.0717 12.3653 20.0791 11.4648 20.0693 10.5619C20.0644 10.1694 20.0349 9.77927 19.9981 9.38916C19.8534 7.83364 18.9922 6.87186 17.4686 6.56518C17.2772 6.52592 17.0809 6.49893 16.8871 6.49648C14.7697 6.4744 12.6548 6.45722 10.5374 6.44741C10.1645 6.44495 9.79155 6.47685 9.42107 6.50875C7.79194 6.65596 6.79581 7.58829 6.55046 9.19043C6.5063 9.47994 6.4695 9.77436 6.46704 10.0663C6.45968 12.1837 6.45723 14.3011 6.46704 16.4185C6.4695 16.7889 6.51611 17.1619 6.5799 17.5274C6.80563 18.8082 7.65454 19.6694 8.93282 19.9196C9.25913 19.9834 9.59281 20.0325 9.92404 20.0374C11.6292 20.0595 13.3344 20.084 15.0396 20.0717C15.8812 20.0644 16.7301 20.0447 17.5569 19.9123C18.8205 19.7086 19.6178 18.9284 19.9 17.6648C19.9687 17.3606 20.0104 17.0466 20.0227 16.735C20.0668 15.5794 20.0938 14.4238 20.1257 13.2682Z" fill="#FF6363"/>
<path d="M20.1261 13.268C20.0942 14.4236 20.0672 15.5792 20.023 16.7348C20.0108 17.0464 19.9691 17.3605 19.9004 17.6647C19.6182 18.9283 18.8208 19.7085 17.5573 19.9121C16.7304 20.0471 15.8791 20.0667 15.04 20.0716C13.3348 20.0839 11.6296 20.0618 9.9244 20.0373C9.59318 20.0324 9.2595 19.9833 8.93318 19.9195C7.65491 19.6692 6.80845 18.8081 6.58027 17.5273C6.51648 17.1618 6.46986 16.7888 6.46741 16.4183C6.4576 14.301 6.46005 12.1836 6.46741 10.0662C6.46741 9.77424 6.50667 9.47982 6.55083 9.19031C6.79618 7.58571 7.79231 6.65583 9.42144 6.50862C9.79192 6.47428 10.1648 6.44483 10.5378 6.44729C12.6552 6.4571 14.7701 6.47673 16.8875 6.49636C17.0813 6.49881 17.2776 6.52825 17.4689 6.56505C18.9926 6.87174 19.8562 7.83352 19.9985 9.38904C20.0353 9.77915 20.0648 10.1717 20.0697 10.5618C20.0795 11.4623 20.0721 12.3651 20.0721 13.268C20.0917 13.2656 20.1089 13.2656 20.1261 13.268ZM17.5401 13.2312C17.5327 10.844 15.6264 8.96459 13.2219 8.97195C10.8715 8.97931 8.96508 10.893 8.96263 13.246C8.96018 15.6111 10.9034 17.5543 13.2661 17.5519C15.6362 17.547 17.545 15.6185 17.5401 13.2312ZM17.6873 7.79917C17.1328 7.81144 16.6961 8.27024 16.7083 8.82474C16.7206 9.37678 17.177 9.8135 17.7339 9.80123C18.2884 9.78896 18.7251 9.33261 18.7129 8.77812C18.7006 8.22363 18.2418 7.78445 17.6873 7.79917Z" fill="white"/>
<path d="M17.5404 13.2314C17.5477 15.6186 15.6389 17.5471 13.2663 17.5495C10.9036 17.5544 8.96044 15.6088 8.96289 13.2436C8.96535 10.8907 10.8742 8.97943 13.2222 8.96961C15.6266 8.96471 17.533 10.8441 17.5404 13.2314ZM13.2713 10.4883C11.7403 10.4834 10.4865 11.72 10.4792 13.2436C10.4718 14.755 11.7329 16.0259 13.2467 16.0333C14.7728 16.0406 16.0192 14.7991 16.0265 13.2682C16.0314 11.7274 14.8047 10.4908 13.2713 10.4883Z" fill="#FF6363"/>
<path d="M17.6876 7.80006C18.2421 7.78779 18.7009 8.22451 18.7107 8.77901C18.723 9.3335 18.2863 9.78985 17.7318 9.80212C17.1748 9.81439 16.7185 9.37766 16.7062 8.82562C16.6964 8.27113 17.1356 7.81232 17.6876 7.80006Z" fill="#FF6363"/>
<path d="M13.2706 10.4889C14.8065 10.4938 16.0308 11.7279 16.0259 13.2687C16.021 14.7997 14.7722 16.0412 13.2461 16.0338C11.7323 16.0265 10.4712 14.7556 10.4785 13.2442C10.4835 11.7206 11.7372 10.484 13.2706 10.4889Z" fill="white"/>
</svg>
