<svg width="27" height="27" viewBox="0 0 27 27" fill="none" xmlns="http://www.w3.org/2000/svg">
<path d="M6.86724e-06 13.2661C-0.00735366 5.93751 5.90315 0.0122865 13.2391 1.89989e-05C20.5604 -0.0122485 26.5053 5.91788 26.5151 13.2416C26.5249 20.5555 20.58 26.5126 13.2661 26.5126C5.93504 26.5151 0.00736739 20.5948 6.86724e-06 13.2661ZM13.5851 11.2346C13.2514 11.2101 12.9423 11.2076 12.6405 11.161C10.2851 10.7905 8.30759 9.71591 6.69808 7.9592C6.59994 7.85124 6.48463 7.76046 6.33497 7.62307C5.50813 9.4264 5.88843 10.923 7.18633 12.2945C6.76433 12.1743 6.33987 12.0541 5.85653 11.9167C5.96694 13.6293 6.8453 14.7039 8.37874 15.3099C8.36402 15.3516 8.34929 15.3909 8.33457 15.4326C7.94692 15.4326 7.55927 15.4326 7.10292 15.4326C7.69176 16.9341 8.75413 17.6653 10.2311 17.9401C9.73062 18.2762 9.25219 18.5853 8.73204 18.7914C8.20945 19 7.6525 19.1496 7.09556 19.2478C6.55578 19.3435 6.00129 19.3435 5.4517 19.3876C5.6259 19.5766 5.80992 19.687 5.99884 19.7851C7.71875 20.6733 9.55151 21.0119 11.4702 20.8548C13.8231 20.6635 15.884 19.7876 17.5549 18.0971C19.5029 16.1269 20.5236 13.7446 20.5678 10.9672C20.5727 10.609 20.6487 10.3563 20.9505 10.1183C21.3455 9.80178 21.6718 9.40186 22.0202 9.02893C22.0988 8.94551 22.1356 8.82283 22.2067 8.69034C21.6399 8.84491 21.1394 8.97986 20.6365 9.1148C21.0732 8.52841 21.6081 8.0647 21.7921 7.29184C21.2866 7.49303 20.8352 7.66968 20.3887 7.85124C19.9446 8.0328 19.5937 8.00336 19.1693 7.67214C17.0813 6.0381 14.0144 7.26486 13.59 9.8852C13.5262 10.3023 13.5851 10.739 13.5851 11.2346Z" fill="white"/>
<path d="M13.5855 11.2349C13.5855 10.7393 13.5266 10.3026 13.5953 9.8855C14.0198 7.26515 17.0867 6.0384 19.1746 7.67244C19.5991 8.00366 19.9499 8.0331 20.394 7.85154C20.8405 7.66998 21.292 7.49333 21.7974 7.29214C21.6109 8.065 21.0785 8.52871 20.6418 9.1151C21.1448 8.98016 21.6453 8.84276 22.212 8.69064C22.1409 8.82313 22.1041 8.94581 22.0256 9.02923C21.6796 9.40216 21.3509 9.80208 20.9558 10.1186C20.6565 10.359 20.5805 10.6093 20.5731 10.9675C20.5289 13.7473 19.5083 16.1272 17.5602 18.0974C15.8893 19.7879 13.8284 20.6638 11.4755 20.8551C9.55684 21.0122 7.72407 20.6711 6.00416 19.7854C5.81524 19.6873 5.63123 19.5769 5.45703 19.3879C6.00662 19.3462 6.56111 19.3462 7.10088 19.2481C7.65783 19.1475 8.21232 19.0003 8.73737 18.7917C9.25751 18.5832 9.73595 18.274 10.2365 17.9404C8.75945 17.668 7.69708 16.9344 7.10824 15.4329C7.56459 15.4329 7.95225 15.4329 8.3399 15.4329C8.35462 15.3912 8.36935 15.3519 8.38407 15.3102C6.85063 14.7042 5.97227 13.6271 5.86186 11.917C6.3452 12.0544 6.76721 12.1746 7.19166 12.2948C5.89376 10.9233 5.51346 9.42669 6.3403 7.62337C6.48996 7.76076 6.60527 7.85154 6.70341 7.9595C8.31291 9.71621 10.2904 10.7908 12.6458 11.1613C12.9427 11.2079 13.2518 11.2104 13.5855 11.2349Z" fill="#FF6363"/>
</svg>
