<?xml version="1.0" encoding="UTF-8"?>
<svg id="icon" xmlns="http://www.w3.org/2000/svg" viewBox="0 0 100 100">
  <path d="M36.45,18.71c-1.1.1-2.02-.04-2.73-.95-.92-1.19-1.15-6.52,1.25-6.66l57.31.11c2.27.71,2.18,8.69-1.92,7.5l.02,57.87c.19.54-.91,1.48-1.24,1.48h-5.58c-.38,2.93.51,7.16,0,9.93-.07.36-.2.64-.54.83l-39.01.08c-.59-.2-.67-.6-.75-1.16-.39-2.92.31-6.67.01-9.68h-5.58c-.07,0-.88-.54-.97-.66l-.26-18.11c-2.1-.05-3.72-1.37-5.16-2.73v31.44c0,.08-.42.74-.54.82H14.39c-.11-.06-.53-1-.53-1.09v-15.93c-3.84,1.45-7.01-.7-7.36-4.75s-.35-11.57.01-15.52c.48-5.31,4.72-7.84,9.8-7.22-4.75-4.74-1.92-13.42,4.76-14.16,8.1-.89,12.31,8.1,7.22,14.16,3.11.16,5.85,1.58,8.17,3.54v-29.13ZM91.17,13.54h-55.54v2.72h55.54v-2.72ZM87.9,18.71h-49v29.4c3.57-1.44,6.93-5.57,10.76-2.19,2.32,2.04,2.17,5.29,0,7.36l-10.76,6.12v16.2h5.04c1.08-1.81,2.6-3.65,4.76-4.09-5.81-5.94-1.63-15.05,6.87-13.81,6.33.92,8.32,9.79,3.47,13.81,1.34-.44,3.9,3.07,4.45,2.98,1.32-1.09,2.4-2.83,4.26-2.98-5.68-5.48-2-14.6,6.14-13.89,6.87.6,9.14,9.39,4.21,13.89,2.16.43,3.68,2.28,4.76,4.09h5.04V18.71ZM20.58,32.66c-5.8,1.18-5.66,10.76.78,11.62,8.94,1.19,9.05-13.62-.78-11.62ZM28.83,64.72v-11.57c0-.09.55-.59.74-.64,1.42-.4,3.21,2.41,4.3,3.22,1.69,1.26,3,1.64,5.02.95,1.57-.53,7.14-3.75,8.53-4.81,2.98-2.25,1.16-5.61-1.92-4.64-1.79.56-6.81,4.43-8.11,4.44-.94,0-1.62-1.23-2.31-1.8-1.73-1.43-3.57-2.81-5.89-3.1s-15.03-.37-16.91.18-3.13,2.41-3.34,4.28c-.57,5.08.43,11.15,0,16.34.33,2.75,3.89,3.13,4.9.53l.06-14.36c.41-1.84,2.39-1.3,2.39-.6v11.57h12.52ZM53.27,59.88c-6.8.74-6.22,11.27.73,11.11,7.53-.17,6.82-11.93-.73-11.11ZM72.33,59.88c-8.09.88-5.26,13.75,2.7,10.61,5.89-2.33,3.4-11.28-2.7-10.61ZM28.83,67.17h-12.52v19.33h5.17v-12.93c0-.2.86-.84,1.21-.69.28-.02.97.56.97.69v12.93h5.17v-19.33ZM62.31,86.5v-7.49c0-2.4-2.3-5.29-4.76-5.59-1.56-.19-6.81-.16-8.19.26s-3.66,2.61-3.66,3.96v8.85h16.61ZM81.1,86.5v-8.85c0-1.36-2.35-3.56-3.66-3.96-1.38-.43-6.63-.45-8.19-.26-2.27.28-4.76,3.09-4.76,5.32v7.76h16.61Z"/>
  <path d="M77.19,29.42c3.37,3.5,3.66,9.08.78,12.98l-13.95,13.84c-.58.15-1.03-.33-1.45-.64-2.21-1.68-12.27-11.8-13.56-13.94-5.77-9.61,5.84-19.77,14.74-13.2,4.12-2.94,9.87-2.74,13.42.96ZM61.32,51.01c.76.73,1.8,1.38,2.49,2.27l12.34-12.43c4.29-6.18-1.78-14.16-8.85-11.57-1.06.39-2.78,1.97-3.48,1.98-1.14.02-1.46-.9-2.23-1.34-7.26-4.15-14.81,4.07-10.39,10.66,1.75,2.62,7.59,8.01,10.12,10.43Z"/>
  <path d="M54.28,41.04c-.24-.07-.68-.93-.67-1.23.04-1.74,4-1.09,5.14-1.25.33-.92,1.92-5.27,2.48-5.56.42-.22.95-.21,1.37,0,.65.33,2.73,6.88,3.27,8.04.8-.34.65-1.36,1.21-1.92.84-.83,6.03-.82,6.38.19.97,2.83-4.28,1.28-4.84,1.76-.3,1.26-1.87,6.59-3.69,4.03-1.13-1.58-2.01-5.93-2.88-7.88l-2.31,3.81c-1.39-.26-4.27.36-5.44,0Z"/>
</svg>