<?xml version="1.0" encoding="UTF-8"?>
<svg id="icon" xmlns="http://www.w3.org/2000/svg" viewBox="0 0 100 100">
  <path d="M40.87,26.33c.84.03,2.33-.31,2.63.72.21.73.2,6.77.07,7.74-.31,2.35-7.08,1.79-7.47.47-.18-.61-.19-7.21-.04-7.99.3-1.61,2.33-.45,2.64-1.39.05-1.87.07-3.74.05-5.61-.01-1.15-.76-2.03.25-3.15.47-.52,2.4-1.15,3.16-1.47,6.07-2.53,12.4-4.55,18.51-6.98l1.9.12c6.18,2.87,13.56,4.56,19.63,7.47.86.41,2.08,1.04,2.15,2.16.16,2.67-5.22,3.23-6.99,4.3v10.43s-1.06,1.08-1.06,1.08c2.62,3.65-1.35,5.89-4.48,6.64l-3.29,4.88c2.53,5.18,9.71,5.08,13.28,8.99,2.14,2.34,4.99,7.48,5.84,10.53,1.6,5.76-.44,8.4-6.14,9.29s-13.13-.07-19.01.04c-3.64.07-9.5-.27-12.88.27-.92.15-2.2,1.46-3.13,1.97-3.18,1.72-6.92,2.16-10.44,1.38-1-.22-3.67-1.51-4.21-1.31-.2.08-1.06,1.18-1.09,1.34-.15.73,1.02,1.29-.05,2.91-.8,1.21-4.89,5.06-6.17,6.17-1.92,1.67-5.26,4.4-7.91,3.88-.49-.1-4.28-3.82-4.5-4.35-.33-.8-.29-1.79-.08-2.62.63-2.43,7.6-10.12,9.79-11.67.43-.31.97-.64,1.52-.65,1.31-.03,1.48,1.24,2.93-.81-6.98-14.04,7.76-27.88,21.34-19.99,1.41-.83,3.22-1.46,4.52-2.44.76-.57,2.73-2.34,2.3-3.32-.09-.21-2.47-3.58-2.67-3.79-2.07-2.16-7.59-2.31-4.44-7.5-.86.06-1.68.05-1.87-.95-.36-1.92.47-9.33-.14-10.33l-4.43-1.6v5.1ZM81.38,18.81c-.31-.58-1.22-.76-1.81-1-5.97-2.44-12.12-4.55-18.18-6.78l-19.18,7.12-.8.67,19.94,7.45,20.04-7.45ZM74.94,23.64l-13.55,5.12-13.55-5.12v8.05h27.1v-8.05ZM41.14,28.74h-2.68v5.1h2.68v-5.1ZM71.72,34.11h-20.12c.69,2.72,1.51,5.45,3.05,7.82,1.21,1.86,2.7,2.52,2.45,5.06l4.02,4.56,4.83-5.37c-.09-1.88,1.47-2.65,2.4-4.04.66-.99,4-7.39,3.37-8.03ZM73.07,37.86c1.39-.32,2.33-1.36.94-2.41l-.94,2.41ZM65.82,55.84c.02-1.43,2.69-5.15,2.38-6.24-.11-.39-.81-.71-.77-1.27l-4.55,4.96c.68.33,2.26,3.14,2.94,2.55ZM55.89,48.87c-.33-.24-1.59,1-1.6,1.47l2.54,5.78,2.56-2.82-3.5-4.43ZM37.31,51.35c-15.22,2.07-13.32,26.79,3.93,24.86,15.48-1.74,13.58-27.23-3.93-24.86ZM51.6,72.48c2.36.26,4.81-.23,7.1-.28,6.76-.16,14.44.77,20.94.28,2.55-.19,6.41-.8,6.29-4.11-.11-2.94-4.23-10.65-6.42-12.65l-9.23-4.44-3.36,7.61-1.62.46,1.3,8.41c-.1.27-4.36,2.98-4.87,3.19-.42.17-.53.23-.99.09-.61-.17-4.6-3-4.77-3.57-.39-1.31,1.42-7.72,1.01-8.12-.05-.04-.71,0-1.05-.15-.98-.47-2.64-5.73-3.44-7.03-.62-1-1.42-.17-2.4.4-.17.1-.53.01-.34.46.11.26,1.69,1.85,2.09,2.47,3.46,5.3,3.17,11.74-.22,16.98ZM61.13,55.05c-.62.54-1.01.88-1.26,1.69-.85,2.81-.74,6.53-1.56,9.44.07.77,2.14,1.79,2.81,2.29.73-.51,3.01-1.45,3.09-2.29-.92-2.75-.75-6.96-1.74-9.53-.26-.68-.86-1.1-1.35-1.6ZM27.62,73.3l-.97.92,2.27,2.27.92-1.16-2.22-2.03ZM23.29,74.36l-3.62,3.62,5.73,5.21,3.39-3.33-5.5-5.5ZM18.19,79.73c-1.68,1.63-3.33,3.59-4.11,5.82l3.34,3.51c1.12.22,5.21-3.06,5.98-4.14l-5.21-5.19Z"/>
  <path d="M37.86,52.97c14.93-1.78,16.68,20.18,2.84,21.63-14.57,1.53-16.45-20.01-2.84-21.63ZM37.85,55.38c-10.43,1.53-8.65,18.49,3.08,16.76,10.32-1.51,8.72-18.5-3.08-16.76Z"/>
</svg>