<?xml version="1.0" encoding="UTF-8"?>
<svg id="icon" xmlns="http://www.w3.org/2000/svg" viewBox="0 0 100 100">
  <path d="M9.76,56.53c.65,3.66,5.53.4,6.07,3.53.71,8.58-.72,18.17.05,26.63.28,3.02,3.94,3.3,5.02.99.44-.94.05-2.45,1.53-2.45s1.02,1.5,1.5,2.48c1.03,2.06,4.23,1.91,4.98-.29l.11-27.64c.66-2.85,5.52.92,6.08-4.06-.4-7.13.53-14.83,0-21.89-.29-3.89-2.2-6.82-6.31-7.3-2.9-.34-9.57-.32-12.51-.03-9.51.94-5.76,12.91-6.59,19.29-.18.6-.82.81-1.4.73-.63-.08-.84-.69-.92-1.23-.4-2.59-.25-9.75-.03-12.53.37-4.7,3.83-8.29,8.55-8.66-.28-.96-1.18-1.54-1.65-2.49-3.75-7.64,3.62-15.65,11.59-12.66,4.36,1.64,6.96,7.07,5.21,11.48l-2.07,3.66c2.93.13,5.51,1.85,7.07,4.27.37,0,1.58-1.67,2.14-2.13,1.47-1.23,3.52-2.15,5.46-2.14-5.28-5.26-2.36-14.99,5.21-15.74,9-.89,13.59,9.24,7.6,15.74,1.94,0,4,.92,5.46,2.14.55.46,1.77,2.13,2.14,2.13,1.56-2.42,4.14-4.14,7.07-4.27l-2.07-3.66c-3.73-16.53,21.91-15.67,17.03.6l-1.87,3.06c4.71.37,8.18,3.96,8.55,8.66.08,1,.16,5.09-.06,5.83-.39,1.27-2.35.8-2.35.32v-6.14c0-2.28-2.29-4.99-4.39-5.75-2.39-.86-11.32-.78-14.16-.53-4.21.36-6.45,2.98-6.79,7.08-.6,7.17.42,15.13.02,22.39.62,4.58,5.41,1.02,6.06,3.82l.05,27.17c.31,2.7,4.13,3.01,5.1.55.35-.88-.02-2.06,1.24-2.24,1.7-.24,1.27,1.62,1.83,2.6,1.05,1.87,3.98,1.76,4.79-.23l.18-27.57c.63-3.41,5.61.76,6.08-4.32.36-3.81-.29-8.14,0-12.01l.37-.7c.5-.42,1.58-.26,1.85.35.08,4.13.49,8.8.19,12.89-.24,3.29-2.67,5-5.88,4.92v25.48c-.48,4.81-5.68,6.56-9.16,3.38-3.65,3.24-9,1.31-9.26-3.63v-25.23c-1.8.14-3.23-.56-4.62-1.58-1.23,1.3-2.98,1.59-4.71,1.58v12.67c0,.84-2.4.84-2.4,0v-14.41c0-.12.26-.43.34-.6,1.22-1.12,4.84.99,5.47-2.13-.39-7.73.73-16.34.07-23.96-.21-2.47-1.78-4.84-4.13-5.74-2.2-.84-12.22-.77-14.88-.45-3.4.41-5.79,2.76-6.09,6.19-.64,7.42.51,15.72,0,23.24.41,4.3,4.28,1.58,5.55,2.85l.27.66.05,26.64c-.2,2.68,3.38,4.18,4.94,1.99.57-.8.3-2.82,1.62-2.95,1.93-.18.74,3.48,3.52,3.97,1.26.22,3.27-.95,3.27-2.22v-8.27c0-.84,2.4-.84,2.4,0v9.07c0,.4-1.1,2.18-1.47,2.53-2.03,1.95-5.58,1.8-7.51-.25-3.32,2.93-8.46,1.78-9.17-2.82v-26.02c-1.88.08-3.44-.45-4.9-1.58-1.17,1.19-2.79,1.65-4.44,1.58v25.23c-.2,3.64-3.11,5.84-6.68,5.08-.99-.21-2.11-1.39-2.52-1.39-.48,0-1.06.8-1.55,1.03-3.48,1.66-7.38-.64-7.65-4.46v-25.48c-1.94.55-5.87-1.94-5.87-3.87v-6.67c0-.84,2.4-.84,2.4,0,0,1.62-.25,4.44,0,5.87ZM21.44,10.84c-8.14,1.12-6.98,13.65,1.25,13.28,9.07-.41,7.94-14.54-1.25-13.28ZM49.19,10.84c-8.38,1.02-7.08,13.75,1.26,13.28,8.79-.5,7.92-14.39-1.26-13.28ZM76.67,10.84c-8.06,1.11-6.99,13.65,1.25,13.28,9.09-.41,7.99-14.55-1.25-13.28Z"/>
  <path d="M30.84,41.59c-.23.81-2.04,1.02-2.35-.05-.14-.47.09-1.07-.19-1.41l-1.96,2.22c4.11,6.56-4.19,13.79-10.05,8.73-6.28-5.42.98-15.19,8.07-10.72l2.21-1.96c-1.76.04-2.88-.89-1.73-2.53h5.34s.67.62.67.67c0,1.13.23,4.26,0,5.07ZM19.83,41.79c-5.29.87-3.99,9.3,1.52,8.46,5.38-.82,4.35-9.42-1.52-8.46Z"/>
  <path d="M51.41,46.02l-.03,3.18c1.1-.16,2.35.12,2.37,1.4-.3,1.29-1.3,1.02-2.37,1,.7,3.98-3.36,4-2.67,0-3.27.56-3.08-2.8,0-2.4l-.03-3.18c-8.95-2.2-4.67-15.29,3.84-11.98,5.7,2.22,4.87,10.86-1.12,11.98ZM49.18,36.18c-4.19.75-3.77,7.46.78,7.57,5.38.13,5.12-8.63-.78-7.57Z"/>
  <path d="M78.54,33.78c.77.8.11,6.61.32,8.03,7.86,2.03,6.22,13.57-1.99,12.72-7.05-.73-7.38-11.14-.43-12.58.29-1.36-.4-7.5.37-8.17.31-.27,1.4-.35,1.74,0ZM76.66,44.45c-4.33.9-3.4,7.99,1.24,7.67,5.37-.38,4.48-8.86-1.24-7.67Z"/>
</svg>