<?xml version="1.0" encoding="UTF-8"?>
<svg id="icon" xmlns="http://www.w3.org/2000/svg" viewBox="0 0 100 100">
  <path d="M17.22,72.09c-2.04-2.14-3.66-4.46-4.28-7.42s-.86-17.69.14-20.27c.33-.85,1.04-1.35,1.37-2.15-6.74-5.11-.89-15.58,6.91-12.16,4.92,2.16,5.48,9.41.83,11.99.69.85,1.35,1.5,1.67,2.6.22.78.18,2.34.32,2.58.11.2,3.48,2.16,3.96,2.24,3.84.6,10.1-.77,13.62.15,2,.52,3.69,3.4,2.75,5.38h11.02c-.95-1.98.75-4.86,2.75-5.38,3.59-.94,10.01.44,13.91-.14.5-.31,3.57-2.06,3.67-2.24.14-.24.09-1.8.32-2.58.32-1.1.98-1.75,1.67-2.6-4.69-2.56-4.07-9.83.83-11.99,7.8-3.43,13.65,7.05,6.91,12.16.33.8,1.04,1.3,1.37,2.15,1,2.58.78,17.22.14,20.27s-2.24,5.28-4.28,7.42h3.99c1.1,0,3.18-2.21,3.14-3.47l.08-21.13c.74-1.48,2.18-1.31,2.69.22l-.06,21.41c-.07,2.29-3.37,5.72-5.57,5.72h-7.85v16.11c0,.97-5.14.89-5.87.43-.14-.09-.46-.6-.46-.71v-15.84c-1.34.07-2.35-.46-3.09.91-1.99,3.68-2.58,10.61-4.33,14.67-.19.44-.43.82-.85,1.08h-29.19l-.85-1.08-4.43-14.85c-.58-1.13-1.93-.65-2.99-.73v15.84c0,.11-.32.62-.46.71-.73.45-5.87.54-5.87-.43v-16.11h-7.85c-2.2,0-5.5-3.43-5.57-5.72l-.06-21.41c.51-1.53,1.95-1.7,2.69-.22l.08,21.13c-.04,1.26,2.04,3.47,3.14,3.47h3.99ZM17.99,32.21c-6.21.65-3.94,10.55,2.18,7.98,4.31-1.81,2.48-8.47-2.18-7.98ZM81.06,32.21c-6.14.85-3.84,10.52,2.18,7.99,4.53-1.9,2.36-8.62-2.18-7.99ZM38.43,88.89v-7.85c0-.59-2.28-7.05-2.71-8.04-1.67-3.88-3.84-6.4-8.21-6.94-1.71-.21-3.16.4-4.65-.86-2.48-2.1-1.16-6.87-1.56-9.74-2.81-1.72-6.76-4.62-3.68-8.18,1.2-1.39,2.25-1.08,3.72-1.78-1.25-2.37-4.72-2.64-5.71.07-.73,2.01-.53,12.91-.36,15.64.34,5.45,3.16,10.2,9,10.83,4.29.47,6.86-1.49,8.84,3.55,1.58,4.02,2.31,8.89,3.79,13.01l1.52.27ZM61.57,88.89l1.52-.27c1.47-4.12,2.21-8.99,3.79-13.01,1.98-5.05,4.55-3.09,8.84-3.55,5.84-.63,8.66-5.39,9-10.83.17-2.73.37-13.63-.36-15.64-1.02-2.81-4.99-2.48-5.71.34,3.94-.58,6.29,4.16,3.58,7.02-.64.68-3.35,1.99-3.53,2.53-.4,2.87.92,7.64-1.56,9.74-1.49,1.26-2.94.65-4.65.86-4.37.54-6.54,3.06-8.21,6.94-.42.98-2.71,7.44-2.71,8.04v7.85ZM19.78,51.08l6.41,3.92h14.58c1.52-.47,1.55-2.24,0-2.73l-13.7-.07c-1.93-.53-4.95-4.05-6.89-3.47-.95.29-.94,1.69-.39,2.35ZM80.22,51.08c.55-.66.56-2.06-.39-2.35-1.76-.53-5.07,2.94-6.89,3.47l-13.7.07c-1.55.49-1.52,2.27,0,2.74h14.58c.4-.08,6.16-3.63,6.41-3.93ZM29.89,57.77h-4.54c-.22,0-.76-.74-1.24-.55v5.1c0,.3.45.75.8.84,1.33.37,3.36.13,4.99.52,2.75.66,4.82,2.34,6.44,4.57l2.08,3.56v-9.92h-7.57c-1.15,0-1.04-3.31-.96-4.13ZM75.89,57.22c-.48-.19-1.02.55-1.24.55h-4.54c.07.83.18,4.13-.96,4.13h-7.57v9.92l2.08-3.56c1.62-2.24,3.69-3.91,6.44-4.57,1.64-.39,3.66-.15,4.99-.52.35-.1.8-.54.8-.84v-5.1ZM67.35,57.77h-34.71v1.38h34.71v-1.38ZM58.81,61.9h-17.63v26.99h17.63v-26.99ZM24.38,74.85h-.83v14.05h.83v-14.05ZM76.44,74.85h-.83v14.05h.83v-14.05Z"/>
  <path d="M47.42,28.75c-2.49,2.33-10.88.66-14.31,1.26-1.17.35-3.63,4.46-4.88,5.04-3.36,1.54-1.78-4.63-2.21-5.08-2.69-.06-4.58-1.26-4.91-4.04-.35-2.95-.36-10.51-.03-13.47.25-2.24,1.5-3.61,3.71-4,6.41.44,13.53-.56,19.85,0,2.47.22,3.78,1.53,3.99,3.99.29,3.34.34,10.5-.01,13.78-.1.88-.55,1.92-1.2,2.52ZM28.79,30.23l3.45-3.02c3.75-.33,8.18.42,11.84,0,1.03-.12,1.66-.45,1.8-1.51.35-2.66.27-10.21,0-12.98-.1-1.03-.13-1.37-1.24-1.51-6.1.48-13.04-.59-19.03,0-1.25.12-1.63.52-1.78,1.8-.45,3.96.3,8.83.07,12.89,1.42,2.92,5.82-.83,4.9,4.33Z"/>
  <path d="M62.07,8.53c8.44-.31,14.63,7.56,12.87,15.65-.23,1.05-1.76,3.91-1.78,4.24-.07,1.39,2.41,5.83.8,6.63-1.34.67-5.8-1.45-7.59-1.53-5.06-.21-7.2,1.36-11.84-2.46-8.97-7.38-3.98-22.1,7.54-22.52ZM71.21,31.88c.15-.15-.74-2.4-.8-2.91-.25-2.04,1.02-2.72,1.55-4.46,2.26-7.42-3.91-14.55-11.56-12.94-11.26,2.38-10.3,20.48,3.79,19.49.72-.05,1.36-.52,1.93-.52.7,0,4.89,1.54,5.09,1.34Z"/>
  <path d="M41.95,21.2c.8.81.44,2.25-.89,2.43-3.81.51-8.74-.41-12.68-.01-1.34-.25-1.37-2.52.54-2.77,2.56-.33,8.91-.22,11.59,0,.43.04,1.13.05,1.44.35Z"/>
  <path d="M28.1,17.28c-1.43-1.6-.52-2.6,1.36-2.77,3.72-.34,8.02.22,11.8.08,1.63.31.98,2.69.33,2.69h-13.5Z"/>
  <path d="M68.66,17.07c.94.93.26,2.26-1.17,2.41-3.19.34-6.93-.24-10.19,0-1.65-.54-1.67-2.19,0-2.74,1.76.25,10.53-.49,11.36.33Z"/>
  <path d="M68.66,23.41c.78.78.18,2.2-.9,2.41-1.2.23-9.25.22-10.45,0-1.61-.3-1.65-2.34,0-2.74,1.75.25,10.53-.49,11.36.33Z"/>
</svg>