<?xml version="1.0" encoding="UTF-8"?>
<svg id="icon" xmlns="http://www.w3.org/2000/svg" viewBox="0 0 100 100">
  <path d="M45.93,65.16c-6.53-1.11-11.19-6.26-13.19-12.35-.49-1.49.16-1.91-1.97-2.13-2.28-.23-11.77-.28-13.57.36-2.08.74-3.22,2.59-3.47,4.73s.41,6.21-.08,7.84c-.39,1.28-2.39,1.19-2.66-.51-.25-1.55-.18-5.98-.02-7.63.42-4.19,3.73-7.35,7.92-7.52-.3-.94-.93-1.7-1.3-2.66-2.28-6-.23-11.66,6.36-12.91.49-1.28.36-2.41.9-3.74,1.1-2.7,4.25-4.74,7.15-4.73-.78-2.07-1.93-3.9-2.15-6.18-1.18-12.09,17.17-12.95,15.81.58-.21,2.11-1.33,3.75-2.18,5.6,2.68-.15,4.72,1.4,6.46,3.26,2.01-1.65,3.8-3.47,6.65-3.26-.7-1.64-1.78-3.09-2.06-4.9-2.36-14.99,19.05-13.46,15.25.75-.4,1.49-1.27,2.71-1.71,4.16,2.9-.01,6.06,2.03,7.15,4.73.54,1.33.41,2.46.9,3.74,6.58,1.3,8.65,6.88,6.36,12.91-.37.96-1,1.72-1.3,2.66,4.42.17,7.53,3.43,7.92,7.79.11,1.21.17,7.24-.19,7.99-.46.95-1.95.99-2.4.06-.51-1.05.03-6.11-.14-7.78-.31-3.14-2.15-5.07-5.31-5.34s-8.47-.25-11.49,0c-2.35.19-1.68.46-2.23,2.14-1.6,4.86-4.96,9.45-9.91,11.26-.31.34,1.1,1.27,1.27,1.31.37.08,1.76-.65,2.95-.48,1.44.21,2.24,1.72,2.81,1.85.41.1,1.23-.27,1.86-.26,1.87.05,3.42,1.65,3.66,3.47.4,2.97.26,11.51-.74,14.23-1.53,4.16-5.67,6.85-10.01,7.2-6.71.53-12.02.28-15.94-5.66-1.87-2.83-4.65-7.53-6.11-10.55-.31-.64-.78-1.49-.75-2.21.16-3.78,6.04-4,8.31-1.8.53.52.67,1.3,1.23,1.64v-7.65ZM37.13,11.15c-6.94.86-4.87,11.54-.56,12.43,4.88,1.01,6.96-4.52,6.34-8.52-.37-2.37-3.48-4.2-5.78-3.91ZM58.59,12.54c-3.66,3.41-.49,13.19,5.48,10.81,2.27-.91,3.58-4.97,3.46-7.22-.26-4.5-5.64-6.65-8.93-3.58ZM32,48.23c.05-7.54,4.52-14.54,11.68-17.15.9-.33,3.92-.86,4.18-1.01.82-.5-.95-2.14-1.39-2.45-2.53-1.74-13.54-1.72-16.37-.56-2.4.98-3.42,3.35-2.96,5.83,5.28,1.86,6.54,7.3,4.65,12.25-.33.86-1.18,1.81-1.41,2.41-.27.68,1.27.28,1.63.68ZM72.93,32.89c.46-2.52-.7-5-3.15-5.91s-11.46-.91-14.07-.25c-1.64.41-2.98,1.26-3.74,2.83-.07.73,2.38.87,3.18,1.12,7.85,2.45,12.8,9.33,12.91,17.55.36-.4,1.9,0,1.63-.68-.24-.6-1.09-1.55-1.41-2.41-1.89-4.95-.63-10.39,4.65-12.25ZM63.41,55.33c3.9-7.54,1.36-16.71-6.1-20.81-11.93-6.54-25.77,4.89-21.83,17.74l1.43,3.07c.88-3.22,4.18-5.21,7.38-5.46-.41-1.19-1.27-2.19-1.65-3.4-4.67-14.63,17.32-16.44,15.19-1.78-.28,1.95-1.25,3.45-2.06,5.17,2.32.13,4.6,1.32,6.12,3.03l1.52,2.43ZM24.3,35.17c-8.37.83-4.72,14.99,1.97,12.37,5.11-2.01,4.93-13.05-1.97-12.37ZM74.83,35.17c-7.83.78-4.7,15.09,2.24,12.37,4.98-1.95,5.08-13.1-2.24-12.37ZM48.59,37.36c-7.76,1.58-2.18,17.11,4.31,11.41,4.23-3.72,2.89-12.88-4.31-11.41ZM45.93,62.43v-4.51c0-.07.48-1.15.59-1.32,1.19-1.97,4.12-2.46,5.95-1.12.47.35,1.66,1.96,1.66,2.44v4.51c1.54-.12,6.13-2.58,6.69-3.83.31-.68.01-1.54-.21-2.24-.69-2.13-2.52-3.47-4.73-3.73-2.68-.32-8.15-.25-10.91-.04-2.85.21-6.39,2.3-5.87,5.6.22,1.4,5.29,4.21,6.83,4.25ZM62.05,73.22c-.23-1.07,0-3.63,0-4.92,0-.79-2.04-.88-2.46,0v5.19c0,.95-1.96,1.72-2.6.41-.67-1.38.94-7.55-1.6-7.32-2.37.22-.67,5.53-1.47,7.25-.52,1.12-1.73.98-2.4.07-.7-4.76.48-10.5-.16-15.15-.26-1.85-2.76-1.7-2.71.25l-.13,19.81c-.32.65-1.48.72-2.05.41-.63-.35-2.66-4.82-3.46-5.8-1.02-1.26-2.5-1.02-3.92-.62l7.1,12.43c2.86,3.91,8.8,3.86,13.21,3.38,4.08-.44,7.25-3.46,7.74-7.55.27-2.23.39-8.43.06-10.56-.26-1.69-1.91-1.64-2.16-.28-.21,1.11.43,3.46-.75,4.19-.89.55-2.09-.35-2.27-1.19Z"/>
  <path d="M29.34,57.04c.77-.77,2.18-.18,2.39.9.15.81.1,5.54-.25,6.02-.72,1-2.25.59-2.47-.57-.16-.82-.11-5.91.33-6.35Z"/>
  <path d="M70.73,57.04c.44.44.49,5.52.33,6.35-.22,1.16-1.76,1.57-2.47.57-.35-.48-.4-5.21-.25-6.02.2-1.08,1.61-1.67,2.39-.9Z"/>
  <path d="M19.92,57.04c.44.44.49,5.52.33,6.35-.28,1.44-2.3,1.6-2.67-.05-.18-.78-.2-4.6-.05-5.4.2-1.08,1.61-1.67,2.39-.9Z"/>
  <path d="M80.15,57.04c.77-.77,2.18-.18,2.39.9.15.8.12,4.62-.05,5.4-.37,1.65-2.39,1.5-2.67.05-.16-.82-.11-5.91.33-6.35Z"/>
</svg>