<?xml version="1.0" encoding="UTF-8"?>
<svg id="icon" xmlns="http://www.w3.org/2000/svg" viewBox="0 0 100 100">
  <path d="M49.97,35.4h12.05V10.63c0-.76,1.64-2.13,2.54-2.01,7.73.57,16.5-.74,24.11,0,1.63.16,2.58.84,2.8,2.55-.69,7.67.89,16.89,0,24.37-.11.94-1.05,2.54-2.01,2.54h-39.49v7.5c3.58,1.22,6.62,4.39,8.08,7.85.37.88,1.29,3.51,1.29,4.33v9.77h2.68v-24.76c0-.76,1.64-2.13,2.54-2.01,7.73.57,16.5-.74,24.11,0,1.63.16,2.58.84,2.8,2.55-.57,7.74.74,16.5,0,24.11-.18,1.84-.95,2.63-2.81,2.81h-29.33c.61,4.9-3.15,8.62-8.03,8.02.41,3.83-.57,7.59-4.95,8.03-7.96-.51-16.78.69-24.64.01-4.59-.4-5.6-3.97-5.21-8.04-4.13.46-7.68-2.02-8.04-6.28-.3-3.56-.27-9.82,0-13.41.43-5.78,4.11-10.86,9.39-13.15.38-7.13-.55-14.84,0-21.9,1.11-14.34,19.33-20.18,28.51-8.97,1.49,1.82,3.61,6.12,3.61,8.44v12.45ZM47.02,22.55c-1.54-10.23-13.82-14.85-21.81-8.02-2.26,1.94-4.32,5.04-4.29,8.03,1.11-.79,2.93-.25,3.87-.68.22-.1,3.45-2.9,3.6-3.09.45-.55.5-1.45.84-2.1,2.49-4.78,10.13-2.81,10.01,2.65l-2.65-.03c-2.44-7.29-8.96,1.99-2.85,2.71,4.21.5,9.13-.78,13.26.53ZM88.79,11.3h-24.09v24.09h2.68c-.34-3.63,1.31-7.86,4.82-9.37-.68-1.61-1.8-2.33-2.07-4.21-1.32-9.34,12.34-10.53,13.28-2.04.3,2.75-.87,4.05-2.11,6.26,3.51,1.51,5.15,5.74,4.82,9.38h2.68V11.3ZM75.86,16.72c-4.86.87-3.85,8.91,1.75,7.91,4.86-.87,3.85-8.91-1.75-7.91ZM41.94,24.69h-8.97c-1.44,0-3.24-1.86-4.04-2.93-3.87,1.87-3.72,9.77-2.3,13.02s2.32,1.31,4.76,2.2c1.36.5,1.98,2.23,2.44,2.39,1.62.55,5.02-1.39,6.11-2.63.67-.76,2.01-3.23,2.01-4.15v-7.9ZM23.46,24.69c-3.53-.62-3.7,5.9-2.13,7.35.34.31,1.74,1.15,1.86.29.35-2.47-.4-5.17.27-7.63ZM44.61,32.72c2.86-.14,2.91-2.98,2.69-5.23-.17-1.69-.93-2.69-2.69-2.8v8.03ZM83.43,35.4c.84-10.66-14.22-10.66-13.39,0h13.39ZM20.52,34.86c-.27,2.17.25,4.83,2.95,4.43.73-1.39,1.99-2.08.66-3.62-.29-.33-2.92-.51-3.61-.81ZM47.29,34.86l-3.48.66c-.58,1.01-1.1,2.06-1.88,2.94-1.36,1.54-3.17,1.59-1.83,3.99,1.13,2.02,5.13,1.59,7.19,2.04v-9.64ZM30.9,39.74c-.53-.53-4.49-.61-4.85.27-1.04,2.55,2.85,2.39,4.4,1.96.87-.24,1.01-1.67.45-2.23ZM24.54,43.96c-.66-2.04-2.15-2.02-4.01-2.41v2.94s4.01-.54,4.01-.54ZM41.94,46.37c-2.54.14-4.6-2.43-4.82-4.82l-3.3.58c-.8.81-1.1,1.81-2.25,2.3-.9.38-1.6.18-2.29.39-.74.23-1.95,2-3.4,1.69.44.74.86,2.1,1.75,2.27,2.1-.35,12.01.58,13.13-.24.19-.14,1.31-2.05,1.18-2.16ZM88.79,43.43h-24.09v24.09h2.68c-.34-3.63,1.31-7.86,4.82-9.37-.68-1.61-1.8-2.33-2.07-4.21-1.32-9.34,12.34-10.53,13.28-2.04.3,2.75-.87,4.05-2.11,6.26,3.51,1.51,5.15,5.74,4.82,9.38h2.68v-24.09ZM28.82,56.81c-.87-1.17-5.47-9.87-6.27-9.89-2.07-.07-6.01,2.01-7.53,3.46s-3.87,5.47-3.87,7.64v4.15h5.35c.08-1.47-.39-3.56.82-4.67.11-.1,1.12-.68,1.19-.68h10.31ZM56.66,62.17v-4.15c0-2.17-2.29-6.12-3.87-7.64s-5.4-3.53-7.53-3.46c-.8.03-5.4,8.72-6.27,9.89h10.31c.07,0,1.08.58,1.19.68,1.2,1.11.74,3.2.82,4.67h5.35ZM75.86,48.85c-4.86.87-3.85,8.91,1.75,7.91,4.86-.87,3.85-8.91-1.75-7.91ZM38.99,51.46h-10.17c.81,1.03,2.55,5.14,3.62,5.35.73.14,3.1.16,3.62-.38.99-1.02,1.94-3.75,2.93-4.97ZM48.63,59.49h-29.45v18.74h29.45v-18.74ZM83.43,67.52c.84-10.66-14.22-10.66-13.39,0h13.39ZM16.51,64.84h-5.35v7.63c0,1.93,3.58,3.7,5.35,3.08v-5.35h-2.68s0-2.52,0-2.52l2.68-.15v-2.68ZM56.66,64.84h-5.35v2.68s2.68.15,2.68.15v2.52s-2.68,0-2.68,0v5.35c1.78.62,5.35-1.15,5.35-3.08v-7.63ZM48.63,80.91h-29.45c.11,1.76,1.11,2.53,2.8,2.69,7.68.74,16.55-.57,24.36-.03,1.37-.25,2.26-1.25,2.29-2.66Z"/>
  <rect x="8.47" y="88.94" width="82.99" height="2.68"/>
  <rect x="64.69" y="78.23" width="24.09" height="2.68"/>
  <rect x="62.02" y="72.88" width="13.39" height="2.68"/>
  <rect x="78.08" y="72.88" width="13.39" height="2.68"/>
  <rect x="70.05" y="83.58" width="2.68" height="2.68"/>
  <rect x="75.4" y="83.58" width="2.68" height="2.68"/>
  <rect x="80.75" y="83.58" width="2.68" height="2.68"/>
  <path d="M33.03,64.91c5.6-1.01,6.61,7.03,1.75,7.91-5.6,1.01-6.61-7.03-1.75-7.91ZM34.91,67.86c-1.83-1.83-3.74,2.44-.89,2.33,1.25-.05,1.59-1.62.89-2.33Z"/>
  <path d="M31.2,32.2c1.03,2.58,4.42,2.4,5.53-.04.52.28,2.29.8,2.23,1.44-1.5,2.96-5.23,4.05-8.09,2.28-.57-.35-2.53-2.1-1.79-2.76.22-.2,1.96-1.03,2.12-.92Z"/>
  <path d="M30.9,27.7c.7.7.36,2.28-.89,2.33-2.85.11-.94-4.16.89-2.33Z"/>
  <path d="M38.93,27.7c.7.7.36,2.28-.89,2.33-2.85.11-.94-4.16.89-2.33Z"/>
</svg>