<?xml version="1.0" encoding="UTF-8"?>
<svg id="icon" xmlns="http://www.w3.org/2000/svg" viewBox="0 0 100 100">
  <path d="M92.96,68.88c-.63.6-4.21,1.98-5.14,2.08-2.33.24-2.66-.52-3.96-2.2l-2.09.83c-.07.9-.04,1.65-.5,2.48-.36.65-2.07,1.79-2.11,1.92-.29,1.07.16,1.87-.72,3.18-1.2,1.81-3.09,1.42-3.49,1.75-.15.12-.27,2.17-1.75,3.2-1.15.8-2.44.56-2.77.77-.12.08-1.13,2.52-1.16,2.66-.37,2,.59,3.85-2.2,4.89l-58.03.07c-1.54.04-3.01-1.43-2.97-2.97V12.45c-.04-1.54,1.43-3.01,2.97-2.97h48.18s1.81.46,1.81.46c2.49,3.11,7.34,6.36,9.52,9.46.25.36.5.67.57,1.12l.25,30.35c2.13.55,4.08,2.15,6.4,1.55,2.97-.77-.45-3.79,2.27-5.66.56-.38,3.77-1.67,4.45-1.78,1.87-.32,2.99-.07,3.9,1.63,2.95,5.53,4.52,13.22,7.38,18.96.38,1.09,0,2.54-.82,3.32ZM56.51,12.32H8.92v75.35h57.51l-.28-.99c-1.06.02-2.2-.98-3.11-.56-.41.19-.63.77-1.35.93-1.33.31-3.13.11-4.19-.79-.42-.35-.78-1.17-.97-1.28-.1-.06-1.55.17-2.3.02-1.48-.31-2.13-1.66-2.74-1.82s-1.29.3-2.13.19c-1-.13-2.48-1.36-2.63-1.36H15.01c-1.05,0-.88-2.83.57-2.83h29.89c-.36-.59-1.32-.58-1.97-1.01-1.71-1.13-1.88-3.06-1.71-4.94H15.01c-1.05,0-.88-2.83.57-2.83h27.34c-.19-1.89-.56-2.56-2.42-3.1-.94,2.36-2.55,2.73-4.82,1.98s-5.36-1.97-4.94-4.83h-15.72c-.74,0-1.44-2.44.87-2.82l15.8-.06,2.74-5.62H15.58c-1.44,0-1.62-2.83-.57-2.83h20.4c2.63-3.02,2.63-11,8.07-9.2,3.07,1.02,6.58,2.7,4.56,6.48,2.93,2.92,6.25.43,9.47.43,1.48,0,3.7,1.21,4.51,1.15.98-.06,3.05-1.65,4.41-1.41v-28.19l-.42-.42h-8.22c-.39,0-1.27-1.72-1.27-2.12v-7.51ZM64.16,19.12l-4.53-4.53v4.53h4.53ZM45.73,48.04l-3.81-1.69-8.33,18.92,4.19,1.4,7.95-18.64ZM86.86,68.09c.47.29,4.21-1.01,4.17-1.75l-7.32-18.49c-.43-.27-4.25.87-3.92,1.93l7.08,18.31ZM59.06,53.97c-2.52-.8-5.28.88-7.76.82-1.69-.04-3.02-1.27-4.68-1.37l-4.82,11.14c1.34,1.15,3.16,1.12,3.38,3.29,1.96-.91,4.56-.94,5.95.99.37.52.54,1.47.6,1.52.18.15,2.47.19,3.55,1.27.31.31.58,1.18.72,1.26.37.21,1.93.03,2.98.57s1.58,1.88,2.08,2.19c.16.1,1.94-.02,2.75.35,1.65.76,3.95,2.92,5.91,3.72,1.85.75,3.09-.55,2.12-1.83-.81-1.07-6.04-3.09-7.53-4.37s-.2-2.89,1.35-2.49c1.96.73,8.05,5.27,9.69,5.05,1.17-.16,1.27-1.48.57-2.26l-7.14-4.05c-.59-.84-.47-2.29.7-2.43,2.01-.23,6.1,3.73,7.89,3.92,1.22.12,1.96-.86,1.39-1.99-.53-1.07-9.05-5.05-10.55-6.16-2.86-.6-7.38,2.71-10.71,2.77-2.13.04-6.78-2.17-6.64-4.66.08-1.46,4.45-3.2,5.51-4.42l2.7-2.82ZM78.6,54.25c-.94.11-1.49.89-2.47,1.07-3.68.68-5.39-1.6-8.47-1.89-4.06-.38-6.73,3.14-9.45,5.5l-3.68,2.83c3.23,3.06,7.72-.87,11.31-1.43,2.57-.4,3.43.15,5.59,1.24,2.98,1.5,6.04,3.52,8.89,5.3l2.51-.74-4.23-11.87ZM47.07,70.16c-.8.28-4.43,6.64-.67,5.87.37-.1,2.62-3.66,2.71-4.14.24-1.31-.74-2.18-2.04-1.73ZM51.89,73.27c-.43.13-3.01,4.43-3.18,5.05-.57,2.04,1.07,2.99,2.26,1.69.19-.21,2.59-4.74,2.66-5.02.25-.97-.78-2.01-1.73-1.73ZM56.15,81.93c.26-.21,2.24-4.01,2.3-4.38.15-.88-.29-1.31-1.01-1.73-1.22-.49-3.57,4.45-3.63,5.03-.13,1.17,1.34,1.91,2.34,1.08ZM61.23,78.66c-.29.1-2.24,3.75-2.33,4.2-.29,1.35,1.3,1.9,2.31,1.16.28-.2,1.96-3.21,2.05-3.63.27-1.38-.67-2.19-2.02-1.73ZM67.19,81.53c-.11-.13-.87-.64-1.05-.52-.26.52-1.52,2.16-.86,2.57,1.54.7,3.06-.65,1.9-2.05Z"/>
  <path d="M32.08,16.93c.46.44.41,1.66,1.09,2.17.16.12,2.06.86,2.26.87.87.06,1.5-.89,2.75-.51.32.1,3.06,2.85,3.29,3.25.66,1.18-.64,1.81-.48,3,.03.23.79,2.01.94,2.18.59.68,1.93.51,2.21,1.2s.33,4.12.18,4.89c-.26,1.36-2.07,1.23-2.48,1.63-.1.1-.89,2.4-.89,2.63.02.73.94,1.55.7,2.41-.1.38-2.75,3.18-3.12,3.4-1.44.85-2.5-.6-3.3-.45-.15.03-1.98.88-2.11.99-.76.62-.49,1.86-1.62,2.35-.78.33-3.42.33-4.3.19-1.81-.28-1.18-1.91-2.16-2.66-.11-.09-2.04-.94-2.15-.95-.75-.07-1.5,1.1-2.72.74-.22-.07-3.18-2.92-3.34-3.2-.78-1.33.6-2.21.52-3.08-.01-.14-.96-2.2-1.07-2.31-.58-.56-1.87-.33-2.34-1.34-.33-.71-.32-3.47-.19-4.31.29-1.87,2.05-1.4,2.67-2.15.08-.1.87-2.27.88-2.4.03-.88-.99-1.47-.62-2.7.13-.41,2.65-3.08,3-3.24,1.45-.66,2.27.48,3.23.42.16-.01,2.1-.73,2.24-.83.56-.37.46-2.2,1.52-2.52.73-.22,4.9-.17,5.4.3ZM30.13,19.44h-1.9c-.28.61-.49,1.53-1.02,1.96-.37.3-4.35,1.72-4.75,1.64-.78-.14-.96-.92-2.07-.26-1.43.85.11,1.95.02,2.88-.04.5-1.78,4.38-2.15,4.63-1.02.69-2.15.2-1.64,2.38.81.33,1.68.57,2.18,1.36.14.22,1.56,3.56,1.59,3.76.14.81-.87,1.77-.45,2.44,1.11,1.76,1.78.24,3.26.43.55.07,3.95,1.59,4.26,1.99.41.52.46,1.25.91,1.7,2.19.55,1.75-1.44,2.66-2.12.41-.31,4.1-1.61,4.63-1.56.78.08,1.3.77,2.02.3,1.54-1-.02-2.04.18-3.21.07-.39,1.87-4.27,2.11-4.43,1.16-.78,1.93-.11,1.49-2.55-.76-.09-1.5-.37-1.96-1.02-.34-.48-1.73-3.99-1.65-4.47.14-.75.94-1.02.26-2.07-.84-1.29-1.41-.35-2.21-.18-.88.18-4.81-1.46-5.29-2.24-.26-.42-.29-.92-.48-1.36Z"/>
  <path d="M49,35.55h11.33c.72,0,1.67,2.57-1.4,2.85-1.65.15-8.44.22-9.74-.2-.21-.07-.42-.12-.61-.23-.64-.55-.32-1.99.43-2.41Z"/>
  <path d="M60.34,26.77c.43.12.87,1.07.72,1.54-.09.63-.76,1.1-1.35,1.23-1.5.33-7.56.23-9.3.08-.43-.04-1.89-.35-2.06-.63-.32-.52.12-2.22.66-2.22h11.33Z"/>
  <path d="M49,46.88c-1.03-.29-1.03-2.27.41-2.7.94-.29,9.21-.31,10.29-.07.58.13,1.26.6,1.35,1.23.21.42-.41,1.54-.72,1.54h-11.33Z"/>
  <path d="M42.11,50.24c-.73-.46-.26-2.91,1.37-2.09,1.49.75.13,3.03-1.37,2.09Z"/>
  <path d="M81.51,49.51c1.22-1.22,3.3,1.18,1.34,2.06-1.07.48-2.23-1.16-1.34-2.06Z"/>
  <path d="M27.55,24.01c11.47-1.67,12.64,14.71,2.45,15.76-10.5,1.08-11.81-14.39-2.45-15.76ZM27.82,26.84c-5.91,1.09-4.64,11.16,2.13,10.06s5.16-11.41-2.13-10.06Z"/>
</svg>