<?xml version="1.0" encoding="UTF-8"?>
<svg id="icon" xmlns="http://www.w3.org/2000/svg" viewBox="0 0 100 100">
  <path d="M43.62,12.42c2.47.58,7.26-1.38,7.59,2.21l11.95.05c1.73.63,3.31,2.27,3.14,4.22,2.18-.63,4.25-1.66,6.55-1.87,10.63-.96,19.38,7.63,18.57,18.3-.55,7.29-7.17,10.95-5.64,19.28,1.02,5.5.78,10.06-2.07,14.99-.73,1.27-2.1,2.55-2.65,3.77-1.52,3.39.15,9.27,1.33,12.7.67,1.93,3.24,4.98-.18,5.29-6.44.58-13.77-.44-20.31-.04-1.43-.04-1.21-1.64-1.63-2.64-2.52-6.02-7.98-.58-11.61-3.09-1.75-1.21-.6-3.53-1.52-3.83l-34.99-.03c-1.94-.23-3.55-2.24-3.61-4.14V19.28c-.05-2.09,1.16-3.94,3.15-4.61l11.94-.04c.47-3.57,4.91-1.66,7.47-2.2,2.83-5.17,9.86-5.42,12.53-.01ZM48.38,20.77v-5.21l-.4-.4h-5.88c-1.2-1.86-1.86-4.03-4.55-4.03-2.99,0-3.33,2.2-4.81,4.03h-6.01v5.61h21.65ZM23.78,17.29h-11.36c-.6,0-1.4,1.34-1.22,1.99v57.77s.81,1.86.81,1.86l34.06.15.42-1.62H13.76c-.44,0-1.07-1.77-.95-2.26.94-17.55-1.22-36.35,0-53.75.04-.53.28-2.53.95-2.53h10.02v-1.6ZM62.68,17.29h-11.63v1.6h10.02c.98,0,1.08,2.74.94,3.48,1.67-.92,1.96-1.94,1.6-3.87-.07-.36-.68-1.14-.93-1.21ZM82.58,53.1c.25-2.25.61-4.39,1.35-6.54,2.16-6.34,6.19-8.4,4.42-16.18-3.04-13.42-22.49-14.46-27.08-1.4-2.79,7.93,1.13,10.19,3.61,16.57.94,2.41,1.48,4.98,1.67,7.55h16.02ZM23.78,21.57h-7.89l-.4.4v52.4l.4.4h29.81l.29-1.7c-1.73-.75-2.92-2.27-2.16-4.18h-7.62c-.51,0-1.25-1.92-.07-2.48,1.79-.84,7.42.26,9.65-.24.49-.17,1.62-2.25,1.51-2.9h-10.56c-1.36,0-1.53-2.67-.53-2.67h10.96c.76-.88.28-2.38.43-3.58.18-1.42.68-2.8,1.04-4.18h-12.16c-.4,0-1.38-1.59-.8-2.14l.59-.48,13.54-.1,2.05-3.17h-15.64c-.63,0-1.26-2.3.32-2.61l18.11-.08,4.85-2.65.08-.36c-2.2-4.12-2.17-7.99-1.12-12.43.12-.52.88-1.81.88-2.06v-5.21h-8.29l-.33,1.54c-.33.24-.74.29-1.14.33-7.52.81-16.41-.61-24.08.02-1.44.48-1.59-1.8-1.72-1.89ZM63.08,88.67h17.38c-1.6-4.95-4.02-11.3-1.83-16.4.72-1.68,2.33-3.08,3.22-4.8,1.1-2.13,1.82-4.73,1.82-7.13-1.8,0-.74,1.9-1.32,3.36-.44,1.11-1.75,1.51-2.02,1.99-.54.91.09,2.93-1.41,4.28-1.61,1.46-6.35,1.53-8.06.38-2.36-1.57-1.23-3.24-2.03-4.66-.12-.21-.99-.65-1.34-1.06-1.43-1.64-.6-3.39-.97-3.98-.2-.32-1.56-.37-2.22-2.19-.89-2.42-.33-6.45-1.12-9.57-.23-.9-1.45-4.84-2.35-4.86-5.27,1.96-9.95,7.6-10.54,13.27-.22,2.11.23,4.44-.15,6.53-.42,2.3-2.51,4.46-3.88,6.27,2.3,1.12,2.82,2.43,2.25,4.96,5.07,1.41.45,3.42.45,3.86,1.34.75,1.05,3.87,1.43,4.43.52.77,3.42-.21,4.3-.28,4.3-.35,7.32,1.34,8.42,5.61ZM66.96,55.79c-.68,0-.38,2.44.53,2.41l14.58-.13c.66-.39.71-2.28.13-2.28h-15.24ZM79.92,60.87h-10.69c0,.79-.24,2.07.72,2.35.6.17,8.66.17,9.25,0,.96-.28.72-1.56.72-2.35ZM71.9,65.95c-.58,2.84,1.73,2.64,3.89,2.42s1.9-2.42,1.32-2.42h-5.21Z"/>
  <path d="M21.58,58.26c1.6-.25,7.56-.27,8.89.33.86.38,1.23,1.21,1.34,2.13.2,1.71.2,6.32,0,8.03-.08.71-.69,1.85-1.35,2.13s-8.12.28-9.22.15c-1.48-.17-2.1-1.12-2.27-2.55-.18-1.6-.23-6.48.02-8,.21-1.3,1.37-2.03,2.6-2.22ZM29.13,61.13h-7.49v7.22h7.49v-7.22Z"/>
  <path d="M21.04,42.22c1.21-.22,8.45-.23,9.36.14.79.32,1.31,1.23,1.41,2.06.17,1.42.17,8.03-.25,9.11s-1.26,1.34-2.29,1.45c-1.49.17-7.14.21-8.43-.13-1.13-.29-1.74-1.28-1.87-2.41-.19-1.57-.21-6.49.02-8.01.18-1.14.9-2.02,2.05-2.23ZM29.13,44.83h-7.49v7.49h7.49v-7.49Z"/>
  <path d="M31.18,38.06c-.3.33-.92.58-1.37.63-1.19.14-8.45.18-9.31-.07-.44-.13-1.11-.95-1.28-1.39-.45-1.14-.39-6.82-.26-8.32.11-1.25.58-2.62,2-2.81,1.8-.24,6.72-.18,8.59,0,.9.09,1.71.56,2.05,1.42.37.91.35,7.59.21,8.89-.06.49-.3,1.29-.63,1.65ZM29.13,28.79h-7.49v7.22h7.49v-7.22Z"/>
  <path d="M35.88,30.59c-.48-.48-.51-1.87.2-2.21l18.85-.13c1.51.57,1.09,2.55-.52,2.69-5.55-.38-11.65.45-17.13,0-.41-.03-1.1-.05-1.39-.34Z"/>
  <path d="M36.21,36.54c-1.04-.29-.89-2.8.55-2.65,5.5.34,11.69-.53,17.11-.04,1.83.17,2.71,1.13,1.32,2.69h-18.98Z"/>
  <path d="M76.92,21.37c.33.32.32,1.17.79,1.55,1.47,1.18,2.33-.21,3.29.09.38.12,2.38,1.98,2.53,2.31.43.93-.27,1.83-.02,2.95.36,1.58,1.49.95,1.99,1.77.38.62.41,2.41.29,3.15-.26,1.65-1.67,1.34-2.15,2.4-.55,1.21.4,2.24-.11,3.36-.09.2-1.74,1.82-2.01,1.99-1.37.89-1.56-.32-2.94-.01-1.56.34-1.16,1.8-1.92,2.12-.64.27-2.55.27-3.26.16-1.38-.22-1.1-1.02-1.75-1.73-1.33-1.45-2.34.11-3.4-.32-.3-.12-2.51-2.24-2.62-2.49-.49-1.08,1.06-2.04-.28-3.45-.46-.48-1.46-.57-1.67-1.27-.14-.47-.15-2.89-.05-3.42.22-1.13,1.96-.99,2.28-2.54.18-.86-.71-1.47-.29-2.4.08-.16,2.39-2.48,2.55-2.55,1.02-.47,1.45.72,2.81.16,1.14-.47.96-1.47,1.57-1.91.57-.41,3.85-.41,4.36.09ZM75.1,23.71c-.85-.58-1.16,1.1-1.51,1.35-.12.09-2.57,1.15-2.76,1.2-.85.22-1.6-.37-2.15-.03-.64.41.26,1.02.22,1.57-.01.16-1.07,2.81-1.2,3.05-.36.67-1.44.48-1.43,1.27,0,.7.96.53,1.41,1.27.6,1.01,1.56,3.35.74,4.34.59.84,1.39.05,2.21.18.14.02,2.55.99,2.69,1.08.73.43.53,1.43,1.38,1.56.53.08.59-1.04,1.4-1.55,1.18-.73,2.99-1.19,4.35-.99.43-.27-.1-1.3.05-2.08.1-.52,1.15-2.67,1.56-3,.27-.21,1-.34,1.07-.54.28-.87-.59-.69-1.07-1.07-1.01-.82-1.96-3.91-1.35-5.21-1.5.37-3.27-.12-4.62-.86-.88-.49-.93-1.49-1.01-1.54Z"/>
  <path d="M37.08,12.79c1.91-.51,2.57,2.5.67,2.86s-2.28-2.43-.67-2.86Z"/>
  <path d="M73.17,26.18c6.91-1.17,10.39,7.23,4.86,11.01-4.75,3.25-10.86-1.44-9.26-6.86.56-1.89,2.41-3.82,4.4-4.16ZM73.7,28.85c-3.22.67-3.35,5.66-.2,6.49,5.81,1.54,6.1-7.72.2-6.49Z"/>
</svg>