<?xml version="1.0" encoding="UTF-8"?>
<svg id="icon" xmlns="http://www.w3.org/2000/svg" viewBox="0 0 100 100">
  <path d="M63.46,35.23v16.13h10.75v16.13h13.71c-8.8,18.68-29.49,28.26-49.58,22.56-11.55-3.28-21.12-11.77-26.23-22.56h16.4v-21.51h10.75v-10.75h24.2ZM60.77,37.92h-18.82v8.07h5.38v21.51h8.07v-16.13h5.38v-13.44ZM44.64,48.67h-13.44v18.82h13.44v-18.82ZM71.53,54.05h-13.44v13.44h13.44v-13.44ZM37.11,70.18h-20.43c1.76,3.01,3.99,5.75,6.59,8.07h15.73l-1.88-8.07ZM60.23,70.18h-20.43l1.89,8.05,16.5.03,2.04-8.08ZM83.35,70.18h-20.43l-1.88,8.07h15.73c2.54-2.39,4.86-5.01,6.59-8.07ZM40.07,80.93h-13.71l4.22,2.9c4.17,2.23,8.81,4.24,13.52,4.49-1.84-2.08-3.18-4.76-4.03-7.39ZM57.01,80.93h-13.98c.66,2.76,3.88,8.18,7.12,8.08,3.06-.1,6.24-5.39,6.86-8.08ZM73.68,80.93h-13.71c-.85,2.64-2.2,5.32-4.03,7.39,4.72-.25,9.35-2.26,13.52-4.49l4.22-2.9Z"/>
  <path d="M21.47,8.42c20.02-2.13,22.18,28.13,2.87,29.49-19.39,1.36-21.65-27.49-2.87-29.49ZM32.55,30.39c5.03-5.66,2.64-14.9-4.07-18.11-11.54-5.53-22.63,8.04-14.89,18.11.96-2.28,2.9-3.77,4.97-4.97-5.69-5.56.8-14.65,7.88-10.84,4.19,2.26,4.38,7.69,1.26,10.97,2.06.89,4.15,2.67,4.84,4.84ZM22.25,16.47c-4.88.88-3.87,8.95,1.76,7.94,4.88-.88,3.87-8.95-1.76-7.94ZM30.63,32.77c-1.81-7.36-12.9-7.43-15.04-.13,4.61,3.44,10.35,3.39,15.04.13Z"/>
  <path d="M75.23,8.42c20.02-2.13,22.18,28.13,2.87,29.49-19.39,1.36-21.65-27.49-2.87-29.49ZM86.31,30.39c5.03-5.66,2.64-14.9-4.07-18.11-11.54-5.53-22.63,8.04-14.89,18.11.96-2.28,2.9-3.77,4.97-4.97-5.69-5.56.8-14.65,7.88-10.84,4.19,2.26,4.38,7.69,1.26,10.97,2.06.89,4.15,2.67,4.84,4.84ZM76.02,16.47c-4.88.88-3.87,8.95,1.76,7.94,4.88-.88,3.87-8.95-1.76-7.94ZM84.39,32.77c-1.81-7.36-12.9-7.43-15.04-.13,4.61,3.44,10.35,3.39,15.04.13Z"/>
  <path d="M84.16,48.67h-12.64v-2.69h12.64l-4-4.22c-.17-.64,1.32-2.1,1.93-1.93l7.43,7.4-7.43,7.6c-4.56-1.68.8-3.95,2.07-6.15Z"/>
  <path d="M51.36,15.87v11.29h-2.69v-11.29l-4.22,4c-.64.17-2.1-1.32-1.93-1.93l7.4-7.43,7.6,7.43c-1.68,4.56-3.95-.8-6.15-2.07Z"/>
  <path d="M15.87,45.98h9.95v2.69h-9.95l4,4.22c.17.64-1.32,2.1-1.93,1.93l-7.43-7.4,7.43-7.6c4.56,1.68-.8,3.95-2.07,6.15Z"/>
  <rect x="48.67" y="29.85" width="2.69" height="2.69"/>
  <rect x="50.02" y="51.36" width="2.69" height="2.69"/>
  <rect x="55.39" y="45.98" width="2.69" height="2.69"/>
  <rect x="50.02" y="56.73" width="2.69" height="2.69"/>
  <rect x="50.02" y="45.98" width="2.69" height="2.69"/>
  <rect x="50.02" y="62.11" width="2.69" height="2.69"/>
  <rect x="44.64" y="40.6" width="2.69" height="2.69"/>
  <rect x="55.39" y="40.6" width="2.69" height="2.69"/>
  <rect x="50.02" y="40.6" width="2.69" height="2.69"/>
  <rect x="39.26" y="51.36" width="2.69" height="2.69"/>
  <rect x="33.89" y="56.73" width="2.69" height="2.69"/>
  <rect x="39.26" y="56.73" width="2.69" height="2.69"/>
  <rect x="39.26" y="62.11" width="2.69" height="2.69"/>
  <rect x="33.89" y="51.36" width="2.69" height="2.69"/>
  <rect x="33.89" y="62.11" width="2.69" height="2.69"/>
  <rect x="60.77" y="56.73" width="2.69" height="2.69"/>
  <rect x="66.15" y="56.73" width="2.69" height="2.69"/>
  <rect x="60.77" y="62.11" width="2.69" height="2.69"/>
  <rect x="66.15" y="62.11" width="2.69" height="2.69"/>
</svg>