<?xml version="1.0" encoding="UTF-8"?>
<svg id="icon" xmlns="http://www.w3.org/2000/svg" viewBox="0 0 100 100">
  <path d="M44.51,8.31l11.18.08,3.92,9.33,6.27,2.65,9.36-3.96c1.07.16,7.27,6.93,8.27,8.27l-3.96,9.18,2.52,6.3c.57.75,7.26,2.61,8.7,3.48.21.13.5.23.64.44.73,1.01.07,9.64.11,11.52l-9.33,3.92-2.65,6.27,3.96,9.36c-.16,1.07-6.93,7.27-8.27,8.27l-9.18-3.96-6.3,2.52c-.75.57-2.61,7.26-3.48,8.7-.13.21-.23.5-.44.64-1.01.73-9.64.07-11.52.11l-3.92-9.33-6.26-2.65-9.36,3.96c-1.07-.16-7.27-6.93-8.27-8.27l3.96-9.18-2.52-6.3c-.57-.75-7.26-2.61-8.7-3.48-.21-.13-.5-.23-.64-.44-.73-1.01-.07-9.64-.11-11.52l9.33-3.92,2.65-6.27-3.96-9.36c.16-1.07,6.93-7.27,8.27-8.27l9.18,3.96,6.3-2.52c.75-.56,2.61-7.26,3.48-8.7.21-.34.35-.71.78-.84ZM54.29,10.46h-8.58l-3.54,9.04-7.52,3.32c-.41.15-.76.02-1.15-.08-2.31-.56-5.51-2.68-7.85-3.55h-.53s-5.92,6.02-5.92,6.02l3.76,8.89-3.03,7.54c-.72,1.28-9.32,3.61-9.45,4.14l.05,8.44,9.04,3.54,3.32,7.52c.15.41.02.76-.08,1.15-.56,2.31-2.68,5.51-3.55,7.85v.53s6.02,5.92,6.02,5.92l8.89-3.76,7.54,3.03c1.28.72,3.61,9.32,4.14,9.45l8.44-.05,3.54-9.04,7.52-3.32c.41-.15.76-.02,1.15.08,2.31.56,5.51,2.68,7.85,3.55h.53s5.92-6.02,5.92-6.02l-3.76-8.89,3.03-7.54c.72-1.28,9.32-3.61,9.45-4.14l-.05-8.44-9.04-3.54-3.32-7.52c-.15-.41-.02-.76.08-1.15.56-2.31,2.68-5.51,3.55-7.85v-.53s-6.02-5.92-6.02-5.92l-8.89,3.76-7.54-3.03c-.38-.19-.56-.5-.77-.86-.69-1.19-2.85-8.29-3.23-8.54Z"/>
  <path d="M40.26,68.59c.39,1.11,2.35,2.04,1.58,3.32-1.52,1.11-3.05,3.11-4.57,4.11-.33.22-.63.48-1.07.31l-14.08-15.73c-.07-.34.11-.55.27-.81.34-.57,4.55-4.3,5.08-4.41,1.66-.33,2.12,2.44,3.58,2.66.62-.44.08-10.84.27-12.58.46-4.24,4.72-8.03,8.93-8.25-5.81-4.68-.85-13.82,6.22-11.22,4.75,1.75,5.31,8.04,1.63,11.22,3.11.37,6.1,2.18,7.62,4.96.35.64,1.31,2.99,1.31,3.56v6.9c2.24-.05,4.78-.38,5.69,2.16l.36-.03c4.91-2.98,11.05-11.83,17.35-7,.62.48,1.74,1.54,1.29,2.35l-19.69,18.48h-21.78ZM46.93,34.95c3.91-3.67-1.89-9.54-5.6-6-3.9,3.71,1.7,9.66,5.6,6ZM54.6,52.63v-6.9c0-1.89-2.59-4.69-4.27-5.47-1.81-.85-9.38-.91-11.38-.43-2.4.58-5.46,3.98-5.46,6.44v9.06l5.68-3.66c3.07-1.6,6.92-2.2,10.11-.63.68.34,1.88,1.42,2.26,1.53.87.25,2.12-.05,3.05.06ZM60.15,61.02h-12.99c-.56,0-1.13-1.99.6-2.38l12.25-.2c1.48-1.03,1.07-3.57-.93-3.6-2.31-.03-5.17.54-7.56.2-1.98-.28-3.38-2.67-6.25-2.68-4.39-.02-10.08,4.48-12.83,7.67l5.8,6.12,22.94-.05,17.38-16.17c.3-.3.12-.46-.15-.67-.8-.63-2.98-.49-3.93-.16-1.37.49-8.71,6.4-10.13,7.72-1.24,1.14-2.57,3.87-4.19,4.2ZM27.45,58.33l-2.32,2.26,11.49,12.87,2.57-2.29-11.73-12.83Z"/>
  <path d="M63.45,24.53c1.92-.56,2.57,4.41,3.61,5.5,1.19.84,6.03.04,6.43,1.42.58,1.94-3.86,3.62-4.23,4.87-.47,1.45,2.17,6.24.3,6.79-2.02-.07-3.86-1.99-5.67-2.89-1.24.28-5.84,4.61-6.54,2.2-.32-1.1,1.1-4.58,1.21-5.9-.14-1.04-5.13-3.27-4.45-5.07.41-1.38,5.25-.59,6.43-1.42.82-.95,1.82-5.18,2.91-5.5ZM64.06,29.09c-.61-.11-.43.03-.6.34-.38.69-.83,2.69-1.56,3.04l-3.52.41c2.57,2.37,3.31,2.87,1.89,6.49,1.29-.17,2.36-1.72,3.65-1.65.81.04,3.09,1.94,3.38,1.65-.11-1.34-1.36-3.13-.39-4.31.53-.64,1.9-1.23,2.28-2.18-2.04-.65-3.13.57-4.29-1.52-.35-.64-.59-1.56-.85-2.26Z"/>
</svg>