<svg xmlns="http://www.w3.org/2000/svg" data-name="Layer 1" viewBox="0 0 100 100"><path d="m71.28 15.7 1.56 2.43c4.42.47 9.64-.47 13.96.04.55.07 2.05.78 2.05 1.24v40.76h2.75V17.49c0-.47-1.29-1.6-1.84-1.73-1.84-.41-6.62.5-7.79-.45-.83-.68-.53-1.9.43-2.08 1.15-.21 6.98-.15 8.17.06 1.89.34 3.17 2.12 3.47 3.94l.02 53.51c-.1.94-.7 2.36-1.37 3.02-.23.22-1.94 1.23-2.06 1.23h-23.2v9.06c1.46-.14 2.86.06 3.85 1.23 1.11 1.32 1.49 5.51-.35 6.25l-41.18.15c-2.34-.49-1.91-5.02-.75-6.4.99-1.17 2.39-1.37 3.85-1.23v-9.06H9.66c-.12 0-1.83-1.01-2.06-1.23-.31-.3-1.37-2.15-1.37-2.47v-16.2c0-.87 2.47-.87 2.47 0v5.08h2.75V19.41c0-.26 1.54-1.43 2.05-1.24h26.09c.65-.11 1.58-1.76 1.78-2.46H10.48c-.51 0-1.99 1.6-1.79 2.33l-.24 32.42c-1 .87-2.29.22-2.22-1.12.68-10.18-.91-21.55-.01-31.58.23-2.55 1.65-4.29 4.26-4.53 10.43-.98 22.35.77 32.94 0 6.5-5.11 14.72-6.74 22.2-2.4.63.37 3.14 2.42 3.35 2.42h8.24c.92 0 .54 2.47-.27 2.47h-5.63Zm-17.63-4.58c-17.43 2.08-17.51 29.87 1.03 31.49 23.07 2.02 23.31-34.4-1.03-31.49Zm-14.76 9.8H13.91v39.25h32.67V50.7c0-.7 1.66-1.66 2.35-1.77 2.74-.42 11.35-.31 14.27-.03.86.08 2.87.82 2.87 1.8v9.47h20.31V20.92H73.75c1.38 3.69 1.31 7.78.14 11.53-.34 1.1-1.95 3.74-1.75 4.47l10.12 10.22c2.28 3.33-1.07 7.12-4.68 5.77l-11.11-10.8c-6.87 4.71-16.09 3.87-22.37-1.42-1.95 11.67-18.38 13.89-23.39 3.21C15.54 32.88 27 22.15 37.78 27.24c.2-2.13.19-4.34 1.1-6.31Zm.56 23.33c.57.4 1.7-2.18 1.85-2.67.22-.71.61-2.56.54-3.2-.07-.57-1.77-2.73-2.17-3.55-1.08-2.25-.61-3.9-3.06-5.17-5.08-2.64-11.69-.41-13.77 4.99-1.33 3.45-.75 6.45.96 9.6.38.08.35.06.57-.17 1.15-1.22 1.94-2.65 3.52-3.53-3.87-4.64 1.2-11.11 6.7-8.32 2.95 1.49 3.71 6.04 1.29 8.32 1.39 1 3.05 1.92 3.57 3.7Zm-8.04-10.1c-4.22.74-1.99 7.65 2.08 5.12 2.64-1.64.86-5.64-2.08-5.12Zm38.91 4.62-1.78 1.78 9.72 9.76c1.39.87 2.69-.42 1.81-1.81l-9.76-9.72ZM31.14 42.4c-1.77.22-6.46 2.92-4.14 4.55s5.85 1.58 8.32.72c.88-.3 2.75-.98 2.27-1.97-1.12-2.33-3.93-3.61-6.45-3.3Zm32.46 9.27H49.05v14.55H63.6V51.67ZM46.58 67.18c-.25-1.08.18-2.93 0-4.12l-.41-.41H9.11l-.41.41v7.41c0 .77 1.4 2.19 2.33 2.07l78.94-.13c.61-.16 1.63-1.38 1.63-1.94v-7.41l-.41-.41H66.48l-.41.41v4.12c0 .71-1.59 1.46-2.32 1.53-4.78.45-10.26-.38-15.13 0-.65.07-1.93-1.01-2.05-1.52ZM41.91 75h-6.59v9.06h29.65V75h-6.59c-.61 1.89-.28 4.82-2.54 5.55-1.36.44-8.5.39-10.23.23-3.48-.34-2.95-3.13-3.69-5.78Zm13.73 0H44.66c.08.77.21 2.98 1.01 3.25.59.2 7.51.18 8.48.06.23-.03.47 0 .67-.15l.82-3.16Zm14 14c.09-.97.07-1.78-.83-2.33H31.49c-.9.54-.92 1.35-.83 2.33h38.98Z"/><path d="M21.39 53.93c.31-.31 1-.31 1.43-.35 4.39-.37 14.13-.48 18.41 0 2.17.25 2.17 2.51 0 2.75-5.69.65-12.58-.5-18.4 0-1.25.08-2.45-1.4-1.44-2.41ZM54.48 13.59c18.41-2.22 20.48 25.35 2.67 26.54-16.87 1.13-19.26-24.54-2.67-26.54Zm.82 2.47c-9.91 1.05-13.21 13.79-5.14 19.53 5.6 3.99 14.02 1.32 16.23-5.15 2.54-7.41-3.25-15.22-11.09-14.39ZM54.19 59.97c1.06-.2 5.31-.28 5.97.49s.13 1.99-.82 2.18c-.63.12-5.18.11-5.71-.05-1.3-.39-1.25-2.28.56-2.62ZM53.63 55.29c.99-.3 5.27-.42 4.9 1.34-.22 1.44-3.97 1.31-4.9 1.02-1.14-.35-1.14-2.02 0-2.37Z"/><path d="M61.05 22.62c1.55-.47 2.13.44 1.58 1.86-1.02.94-5.27 6.57-6.08 6.82-.51.15-.95.11-1.44-.09-.52-.21-4.51-3.45-4.64-3.89-.24-.85.67-1.74 1.43-1.67 1 .1 2.76 2.33 3.85 2.67.76-.13 4.28-5.38 5.31-5.69Z"/></svg>