<svg width="27" height="27" viewBox="0 0 27 27" fill="none" xmlns="http://www.w3.org/2000/svg">
<path d="M11.3944 13.5604C10.2296 13.5604 9.13485 13.5604 8.06008 13.5604C7.92511 14.0384 7.89761 16.7152 8.01759 17.5128C9.10985 17.5128 10.2171 17.5128 11.3594 17.5128C11.3594 20.6978 11.3594 23.8049 11.3594 27C8.9049 26.6201 6.76035 25.6339 4.89075 24.0565C1.97387 21.596 0.321725 18.4361 0.0392856 14.6195C-0.528094 6.99151 5.1207 0.611333 12.4216 0.042753C20.205 -0.563565 26.5636 5.35873 26.976 12.7478C27.4434 21.0978 20.9773 26.3534 15.7059 26.9472C15.581 26.5119 15.5285 18.9392 15.646 17.5933C16.1384 17.4448 16.6582 17.548 17.1656 17.5279C17.663 17.5102 18.1629 17.5228 18.7253 17.5228C18.9977 16.2397 19.1452 14.9541 19.3527 13.5906C18.0979 13.5302 16.8907 13.5981 15.6085 13.5478C15.6085 13.1402 15.6085 12.7629 15.6085 12.388C15.6085 11.9452 15.601 11.5024 15.611 11.0596C15.6435 9.70359 16.3558 8.97651 17.698 8.94129C18.2729 8.92619 18.8503 8.93877 19.5151 8.93877C19.5226 7.81167 19.5251 6.73489 19.5101 5.58264C19.0902 5.52226 18.6853 5.44427 18.2754 5.40653C17.2206 5.30841 16.1634 5.22036 15.1111 5.44678C13.1865 5.85938 11.8943 7.17768 11.5293 9.13249C11.4444 9.58534 11.4069 10.0508 11.3994 10.5112C11.3819 11.4949 11.3944 12.4786 11.3944 13.5604Z" fill="white"/>
</svg>
