<svg width="27" height="27" viewBox="0 0 27 27" fill="none" xmlns="http://www.w3.org/2000/svg">
<path d="M13.2616 26.5102C5.94527 26.5151 0.0593044 20.6144 0.000420209 13.3251C-0.0560105 6.33258 5.57724 0.0270639 13.2494 7.53318e-05C20.5633 -0.0244597 26.5228 5.94738 26.5179 13.2515C26.513 20.5826 20.5927 26.5029 13.2616 26.5102ZM14.4148 20.4648C14.4148 20.2268 14.4148 20.0379 14.4148 19.8465C14.4148 18.2959 14.3951 16.7453 14.4221 15.1971C14.4319 14.6941 14.5031 14.174 14.6577 13.698C14.8957 12.9644 15.6268 12.5915 16.5101 12.643C17.2657 12.6872 17.7515 13.0969 17.9233 13.9017C18.0092 14.3016 18.0411 14.7162 18.046 15.126C18.0582 16.6962 18.0509 18.264 18.0533 19.8342C18.0533 20.0428 18.0729 20.2489 18.0828 20.455C19.1844 20.455 20.2149 20.455 21.2699 20.455C21.2871 20.3274 21.314 20.2342 21.314 20.1409C21.314 18.1389 21.3459 16.1392 21.2944 14.1372C21.2748 13.4011 21.1349 12.6504 20.9288 11.9438C20.6148 10.8642 19.8444 10.1846 18.7452 9.93188C18.2913 9.82883 17.8129 9.79203 17.3467 9.78221C16.3089 9.76013 15.4403 10.1601 14.7288 10.9133C14.616 11.0335 14.4957 11.1439 14.2676 11.3696C14.2676 10.8446 14.2676 10.4692 14.2676 10.1085C13.5757 9.99076 11.6546 10.0079 11.2277 10.1232C11.105 10.7759 11.1369 20.0207 11.2718 20.4648C12.2753 20.4648 13.2911 20.4648 14.4148 20.4648ZM9.10784 20.4623C9.11029 16.9759 9.11029 13.5361 9.10784 10.0717C7.99149 10.0717 6.96101 10.0717 5.94035 10.0717C5.81768 10.6851 5.83731 19.9839 5.96244 20.4623C6.96838 20.4623 7.98168 20.4623 9.10784 20.4623ZM7.48362 8.59471C8.54844 8.59717 9.38753 7.75316 9.37281 6.6957C9.36054 5.67013 8.51654 4.83103 7.49588 4.82858C6.4556 4.82613 5.58215 5.70693 5.59687 6.74231C5.61159 7.76297 6.4556 8.59226 7.48362 8.59471Z" fill="white"/>
<path d="M14.4146 20.4651C13.2909 20.4651 12.2751 20.4651 11.2692 20.4651C11.1343 20.021 11.1024 10.7762 11.225 10.1235C11.652 10.0082 13.573 9.99103 14.2649 10.1088C14.2649 10.467 14.2649 10.8449 14.2649 11.3699C14.4931 11.1442 14.6133 11.0338 14.7262 10.9136C15.4377 10.1603 16.3063 9.7604 17.3441 9.78248C17.8127 9.7923 18.2887 9.8291 18.7426 9.93215C19.8418 10.1824 20.6122 10.8645 20.9262 11.944C21.1323 12.6531 21.2746 13.4014 21.2918 14.1375C21.3409 16.1371 21.3114 18.1391 21.3114 20.1412C21.3114 20.2344 21.2869 20.3277 21.2673 20.4552C20.2122 20.4552 19.1818 20.4552 18.0802 20.4552C18.0703 20.2491 18.0507 20.0406 18.0507 19.8345C18.0483 18.2643 18.0581 16.6965 18.0433 15.1262C18.0409 14.7165 18.0065 14.3018 17.9207 13.9019C17.7489 13.0972 17.2631 12.6874 16.5074 12.6433C15.6242 12.5918 14.893 12.9671 14.655 13.6983C14.5005 14.1743 14.4293 14.6944 14.4195 15.1974C14.3901 16.7455 14.4097 18.2962 14.4122 19.8468C14.4146 20.0357 14.4146 20.2271 14.4146 20.4651Z" fill="#FF6363"/>
<path d="M9.10744 20.4627C7.98128 20.4627 6.96797 20.4627 5.96204 20.4627C5.83691 19.9843 5.81973 10.6855 5.93995 10.0721C6.96061 10.0721 7.99109 10.0721 9.10744 10.0721C9.10989 13.5389 9.10989 16.9763 9.10744 20.4627Z" fill="#FF6363"/>
<path d="M7.48356 8.59451C6.45308 8.59206 5.60908 7.76277 5.59681 6.74211C5.58454 5.70673 6.45553 4.82592 7.49582 4.82837C8.51648 4.83083 9.36048 5.66993 9.37275 6.69549C9.38747 7.75296 8.54838 8.59696 7.48356 8.59451Z" fill="#FF6363"/>
</svg>
