<svg width="27" height="27" viewBox="0 0 27 27" fill="none" xmlns="http://www.w3.org/2000/svg">
<path d="M26.5102 13.2416C26.5298 20.5702 20.6119 26.5052 13.2784 26.5126C5.98904 26.52 0.0122867 20.6168 1.91172e-05 13.4011C-0.0122484 5.97184 5.88108 0.00491007 13.2392 3.05321e-06C20.5678 -0.00490396 26.493 5.9056 26.5102 13.2416ZM13.2612 19.4833C15.0081 19.422 16.755 19.3729 18.497 19.2944C19.0441 19.2699 19.5937 19.1987 20.1261 19.0785C20.9113 18.9018 21.4363 18.3915 21.6841 17.626C21.7798 17.3291 21.8412 17.0175 21.8804 16.7084C22.165 14.461 22.1724 12.2111 21.8976 9.95879C21.6694 8.08186 20.9947 7.43904 19.103 7.28692C16.2643 7.05629 13.4207 7.01949 10.5771 7.11518C9.32335 7.15689 8.06716 7.21822 6.82323 7.36789C5.51797 7.52491 4.89477 8.20453 4.68622 9.50244C4.3599 11.5487 4.37954 13.6072 4.52184 15.6657C4.55619 16.1735 4.61998 16.6814 4.71321 17.1819C4.92176 18.3253 5.60383 18.9877 6.74226 19.1644C7.16917 19.2306 7.59853 19.2821 8.0279 19.2993C9.77234 19.368 11.5192 19.422 13.2612 19.4833Z" fill="white"/>
<path d="M13.2612 19.4828C11.5168 19.4215 9.77233 19.3675 8.02789 19.2964C7.59853 19.2792 7.16671 19.2277 6.74225 19.1614C5.60137 18.9848 4.92175 18.3223 4.71321 17.179C4.62243 16.6785 4.55863 16.1706 4.52183 15.6627C4.38198 13.6042 4.36235 11.5457 4.68621 9.49951C4.89231 8.2016 5.51796 7.52443 6.82322 7.36495C8.06715 7.21529 9.3258 7.15395 10.5771 7.11224C13.4207 7.01655 16.2643 7.05336 19.103 7.28399C20.9971 7.43856 21.6694 8.07892 21.8976 9.95586C22.1724 12.2057 22.165 14.4556 21.8804 16.7055C21.8411 17.0146 21.7798 17.3262 21.6841 17.6231C21.4363 18.391 20.9113 18.8989 20.1261 19.0755C19.5937 19.1958 19.0417 19.2669 18.497 19.2915C16.755 19.3724 15.0106 19.4215 13.2612 19.4828ZM11.5487 15.859C13.0748 14.9905 14.542 14.1661 16.0435 13.2485C14.5052 12.3627 13.0551 11.5261 11.5487 10.6576C11.5487 12.4314 11.5487 14.1023 11.5487 15.859Z" fill="#FF6363"/>
<path d="M11.5488 15.86C11.5488 14.1033 11.5488 12.4324 11.5488 10.661C13.0553 11.5296 14.5078 12.3662 16.0437 13.2519C14.5421 14.1671 13.0749 14.9915 11.5488 15.86Z" fill="white"/>
</svg>
