<?xml version="1.0" encoding="iso-8859-1"?>
<!-- Generator: Adobe Illustrator 19.0.0, SVG Export Plug-In . SVG Version: 6.00 Build 0)  -->
<svg version="1.1" id="Capa_1" xmlns="http://www.w3.org/2000/svg" xmlns:xlink="http://www.w3.org/1999/xlink" x="0px" y="0px"
	 viewBox="0 0 497.694 497.694" style="enable-background:new 0 0 497.694 497.694;" xml:space="preserve">
<g>
	<g>
		<g>
			<path d="M90.729,400.565c29.365,0,53.459-24.094,53.459-53.459c0-29.365-23.341-52.706-53.459-52.706
				c-29.365,0-53.459,24.094-53.459,53.459C37.271,377.224,61.365,400.565,90.729,400.565z M90.729,309.459
				c21.082,0,38.4,17.318,38.4,38.4c0,21.082-17.318,38.4-38.4,38.4c-21.082,0-38.4-18.071-38.4-39.153
				C52.329,326.023,69.647,309.459,90.729,309.459z"/>
			<path d="M143.435,402.071H38.024c-21.082,0-37.647,17.318-37.647,37.647v50.447c0,4.518,3.012,7.529,7.529,7.529h166.4
				c4.518,0,7.529-3.012,7.529-7.529v-50.447C181.835,418.635,164.518,402.071,143.435,402.071z M15.435,482.635v-42.918
				c0-12.8,10.541-22.588,22.588-22.588h105.412c12.8,0,22.588,10.541,22.588,22.588v42.918H15.435z"/>
			<path d="M353.506,347.106c0,29.365,24.094,53.459,53.459,53.459c29.365,0,53.459-24.094,53.459-53.459
				c0-29.365-24.094-52.706-53.459-52.706C376.847,294.4,353.506,318.494,353.506,347.106z M445.365,347.106
				c0,21.082-17.318,38.4-38.4,38.4c-21.082,0-38.4-17.318-38.4-38.4c0-21.082,17.318-37.647,38.4-37.647
				C428.047,309.459,445.365,326.776,445.365,347.106z"/>
			<path d="M459.671,402.071H354.259c-21.082,0-37.647,17.318-37.647,37.647v50.447c0,4.518,3.012,7.529,7.529,7.529h165.647
				c4.518,0,7.529-3.012,7.529-7.529v-50.447C497.318,418.635,480,402.071,459.671,402.071z M330.918,482.635v-42.918
				c0-12.8,10.541-22.588,22.588-22.588h105.412c12.8,0,22.588,10.541,22.588,22.588v42.918H330.918z"/>
			<path d="M345.976,293.647c2.259,0,4.518-0.753,6.024-2.259l24.094-24.094c3.012-3.012,3.012-6.776,0.753-9.788l-19.576-25.6
				c7.529-12.047,12.8-24.847,15.812-38.4l31.624-4.518c3.765-0.753,6.776-3.765,6.776-7.529v-35.388
				c0-3.765-3.012-6.776-6.776-7.529l-31.624-4.518c-3.012-13.553-8.282-26.353-15.812-38.4l19.576-24.847
				c2.259-3.012,2.259-7.529-0.753-10.541L352,36.141c-3.012-3.012-6.776-3.012-9.788-0.753l-25.6,19.576
				c-12.047-7.529-24.094-12.8-37.647-15.812l-4.518-32.376C273.694,3.012,270.682,0,266.918,0h-34.635
				c-3.765,0-6.776,3.012-7.529,6.776l-4.518,32.376c-13.553,3.012-26.353,8.282-37.647,15.812l-25.6-19.576
				c-3.012-2.259-7.529-2.259-9.788,0.753l-25.6,24.847c-3.012,3.012-3.012,6.776-0.753,9.788l19.576,25.6
				c-7.529,12.047-12.8,24.847-15.812,38.4l-31.624,4.518c-3.765,0.753-6.776,3.765-6.776,7.529v34.635
				c0,3.765,3.012,6.776,6.776,7.529l31.624,4.518c3.012,13.553,8.282,26.353,15.812,38.4l-19.576,24.847
				c-2.259,3.012-2.259,7.529,0.753,9.788l24.847,24.847c3.012,3.012,6.776,3.012,9.788,0.753l25.6-19.576
				c12.047,7.529,24.094,12.8,37.647,15.812L224,320.753c0.753,3.765,3.765,6.776,7.529,6.776h34.635
				c3.765,0,6.776-3.012,7.529-6.776l4.518-32.376c13.553-3.012,26.353-8.282,37.647-15.812l24.847,19.576
				C342.212,292.894,344.471,293.647,345.976,293.647z M312.094,256.753c-12.8,9.035-27.106,14.306-42.165,17.318
				c-3.012,0.753-5.271,3.012-6.024,6.776l-3.765,30.871h-21.835l-4.518-30.871c-0.753-3.012-3.012-6.023-6.023-6.776
				c-15.059-3.012-29.365-9.035-42.165-17.318c-3.012-1.506-6.023-1.506-9.035,0l-24.847,18.824l-15.059-15.812l18.824-24.094
				c2.259-3.012,2.259-6.776,0-9.788c-8.282-12.8-14.306-27.106-17.318-42.165c-0.753-3.012-3.012-5.271-6.023-6.024l-30.871-3.765
				v-21.835l30.871-3.765c3.012-0.753,6.023-3.012,6.023-6.023c3.012-15.059,9.035-29.365,17.318-42.165
				c1.506-3.012,1.506-6.023,0-9.035l-18.824-24.847l15.059-15.812l24.094,18.823c2.259,2.259,6.776,2.259,9.788,0
				c12.8-8.282,26.353-14.306,41.412-17.318c3.765,0.753,6.776-2.259,6.776-5.271l4.518-30.871h21.835l3.765,30.871
				c0.753,3.012,3.012,6.024,6.023,6.776c15.059,3.012,29.365,9.035,42.165,17.318c3.012,1.506,6.023,1.506,9.035,0l24.847-18.823
				l15.059,15.812l-18.824,24.847c-2.259,2.259-2.259,6.023,0,9.035c9.035,12.8,14.306,27.106,17.318,42.165
				c0.753,3.012,3.012,5.271,6.024,6.023l30.871,3.765v21.835l-30.871,3.765c-3.012,0.753-6.024,3.012-6.024,6.024
				c-3.012,15.059-9.035,29.365-17.318,42.165c-1.506,3.012-1.506,6.024,0,9.035l18.824,24.847l-15.059,15.812l-24.847-18.824
				C318.118,255.247,314.353,255.247,312.094,256.753z"/>
			<path d="M248.847,82.071c-45.176,0-81.318,36.894-81.318,81.318s36.141,82.071,81.318,82.071s81.318-36.894,81.318-81.318
				S294.023,82.071,248.847,82.071z M248.847,230.4c-36.894,0-66.259-30.118-66.259-66.259s30.118-66.259,66.259-66.259
				s66.259,30.118,66.259,66.259S285.741,230.4,248.847,230.4z"/>
			<path d="M284.235,134.776l-54.212,48.188l-15.059-25.6c-2.259-3.765-6.776-4.518-10.541-3.012
				c-3.765,2.259-4.518,6.776-3.012,10.541l19.576,33.882c1.506,2.259,3.012,3.012,5.271,3.765c0.753,0,0.753,0,1.506,0
				c1.506,0,3.765-0.753,5.271-2.259l60.988-54.212c3.012-3.012,3.765-7.529,0.753-10.541
				C291.765,132.518,287.247,131.765,284.235,134.776z"/>
		</g>
	</g>
</g>
<g>
</g>
<g>
</g>
<g>
</g>
<g>
</g>
<g>
</g>
<g>
</g>
<g>
</g>
<g>
</g>
<g>
</g>
<g>
</g>
<g>
</g>
<g>
</g>
<g>
</g>
<g>
</g>
<g>
</g>
</svg>
