<svg clip-rule="evenodd" fill-rule="evenodd" height="512" image-rendering="optimizeQuality" shape-rendering="geometricPrecision" text-rendering="geometricPrecision" viewBox="0 0 512 512" width="512" xmlns="http://www.w3.org/2000/svg"><g id="Layer_x0020_1"><g id="_284731304"><g><g id="_270057840"><path d="m306 393h-144c-3 0-6-3-6-6s3-6 6-6h138v-204c0-4-3-7-8-7h-34v141c0 3-3 6-6 6h-192c-3 0-6-3-6-6v-141h-34c-4 0-8 3-8 7v196c0 5 4 8 8 8h30c3 0 6 3 6 6s-3 6-6 6h-30c-11 0-20-9-20-20v-196c0-10 9-19 20-19h40c4 0 6 2 6 6v141h180v-141c0-4 3-6 6-6h40c11 0 20 9 20 19v210c0 3-3 6-6 6z"/></g><g id="_270060192"><path d="m505 393h-42c-4 0-6-3-6-6s2-6 6-6h37v-11h-12c-3 0-6-2-6-6v-53c-1 0-2-1-3-2-8-4-19-11-26-21-11-16-21-37-28-51-2-5-5-11-6-14h-107v158h41c3 0 6 3 6 6s-3 6-6 6h-47c-3 0-6-3-6-6v-170c0-1 1-3 2-4s2-2 4-2h115c5 0 7 4 15 20 6 14 16 35 27 50 5 8 15 14 22 18 4 2 7 4 8 6 1 1 1 2 1 3v50h11c4 0 7 4 7 8v20c0 4-3 7-7 7z"/></g><g id="_270060840"><path d="m408 448c-34 0-61-27-61-61 0-33 27-61 61-61 33 0 61 28 61 61 0 34-28 61-61 61zm0-110c-27 0-49 22-49 49s22 49 49 49 49-22 49-49-22-49-49-49z"/></g><g id="_270061176"><path d="m408 418c-17 0-31-14-31-31s14-31 31-31 31 14 31 31-14 31-31 31zm0-50c-11 0-19 9-19 19s8 19 19 19c10 0 19-8 19-19 0-10-9-19-19-19z"/></g><g id="_270060816"><path d="m107 448c-34 0-61-27-61-61 0-33 27-61 61-61 33 0 61 28 61 61 0 34-28 61-61 61zm0-110c-27 0-49 22-49 49s22 49 49 49 49-22 49-49-22-49-49-49z"/></g><g id="_270060960"><path d="m107 418c-17 0-31-14-31-31s14-31 31-31 31 14 31 31-14 31-31 31zm0-50c-11 0-19 9-19 19s8 19 19 19c10 0 19-8 19-19 0-10-9-19-19-19z"/></g><g id="_270060936"><path d="m471 303h-136c-4 0-6-2-6-6v-80h12v74h130c4 0 6 3 6 6 0 4-2 6-6 6z"/></g><g id="_270061104"><path d="m462 448h-409c-4 0-6-3-6-6 0-4 2-6 6-6h409c3 0 6 2 6 6 0 3-3 6-6 6z"/></g><g id="_270060600"><path d="m306 317h-300c-3 0-6-3-6-6s3-6 6-6h300c3 0 6 3 6 6s-3 6-6 6z"/></g><g id="_270060504"><path d="m252 317h-192c-3 0-6-3-6-6v-241c0-3 3-6 6-6h154c3 0 6 3 6 6v28h32c3 0 6 3 6 6v207c0 3-3 6-6 6zm-186-12h180v-195h-32c-4 0-6-3-6-6v-28h-142z"/></g><g id="_270060672"><path d="m252 110h-38c-4 0-6-3-6-6v-34c0-2 1-4 3-5s5-1 7 1l38 34c2 1 2 4 1 6 0 2-3 4-5 4zm-32-12h16l-16-14z"/></g><g id="_270061656"><path d="m219 146h-125c-3 0-6-3-6-6 0-4 3-6 6-6h125c3 0 6 2 6 6 0 3-3 6-6 6z"/></g><g id="_270061512"><path d="m219 169h-125c-3 0-6-3-6-6 0-4 3-6 6-6h125c3 0 6 2 6 6 0 3-3 6-6 6z"/></g><g id="_270061968"><path d="m156 292c-31 0-56-25-56-55s25-55 56-55 57 25 57 55-26 55-57 55zm0-98c-25 0-44 19-44 43s19 43 44 43 45-19 45-43-20-43-45-43z"/></g><g id="_270060768"><path d="m148 257c-1 0-3-1-4-2l-12-12c-3-3-3-6 0-9 2-2 6-2 8 0l8 8 24-23c2-3 6-3 8 0 3 2 3 6 0 8l-27 28c-2 1-3 2-5 2z"/></g></g></g></g></svg>