<svg id="Icon_Set_Artwork" enable-background="new 0 0 600 600" viewBox="0 0 600 600" xmlns="http://www.w3.org/2000/svg"><g><path d="m504.67 142.24h-12.23c-3.6-23.37-23.97-41.33-48.5-41.33-23.54 0-43.26 16.56-47.98 38.56-4.72-22-24.44-38.56-47.98-38.56s-43.26 16.56-47.98 38.56c-4.72-22-24.44-38.56-47.98-38.56s-43.26 16.56-47.98 38.56c-4.72-22-24.44-38.56-47.98-38.56-24.52 0-44.9 17.96-48.5 41.33h-12.23c-12.13 0-22 9.87-22 22v71.33 241.51c0 12.13 9.87 22 22 22h336.24.01c.33 0 .67-.02 1-.05.09-.01.18-.03.27-.04.24-.03.47-.06.71-.11.12-.03.25-.06.37-.09.2-.05.4-.09.59-.15.12-.04.24-.09.36-.13.19-.07.38-.13.57-.21.11-.05.22-.11.33-.16.19-.09.38-.17.56-.27.11-.06.22-.13.33-.2.18-.1.35-.2.53-.32.13-.09.25-.19.38-.29.14-.11.29-.2.42-.32.26-.22.51-.45.74-.69l85.08-87.29c.31-.32.59-.66.85-1.01.06-.09.13-.17.19-.26.25-.35.48-.72.67-1.1.02-.03.03-.07.05-.11.18-.35.33-.72.47-1.09.04-.1.07-.19.1-.29.13-.4.25-.82.33-1.24.01-.04.01-.08.02-.12.07-.38.11-.77.13-1.17.01-.11.01-.21.02-.32 0-.09.01-.18.01-.28v-166.19-71.33c.01-12.14-9.86-22.01-21.99-22.01zm-60.73-21.33c13.44 0 24.77 9.07 28.08 21.33h-56.16c3.31-12.26 14.64-21.33 28.08-21.33zm-95.96 0c13.44 0 24.77 9.07 28.08 21.33h-56.16c3.31-12.26 14.64-21.33 28.08-21.33zm-95.96 0c13.44 0 24.77 9.07 28.08 21.33h-56.16c3.31-12.26 14.64-21.33 28.08-21.33zm-95.96 0c13.44 0 24.77 9.07 28.08 21.33h-56.16c3.31-12.26 14.64-21.33 28.08-21.33zm-62.73 43.33c0-1.08.92-2 2-2h86.83c-4.73 9.53-14.65 16.11-26.1 16.11h-10v20h10c22.66 0 41.77-15.34 47.38-36.11h74.68c-4.73 9.53-14.65 16.11-26.1 16.11h-10v20h10c22.66 0 41.77-15.34 47.38-36.11h74.68c-4.73 9.53-14.65 16.11-26.1 16.11h-10v20h10c22.66 0 41.77-15.34 47.38-36.11h74.68c-4.73 9.53-14.65 16.11-26.1 16.11h-10v20h10c22.66 0 41.77-15.34 47.38-36.11h13.34c1.08 0 2 .92 2 2v61.33h-413.33zm0 312.85v-231.51h413.33v146.22h-63.08c-12.13 0-22 9.87-22 22v65.29h-326.25c-1.08 0-2-.92-2-2zm399.63-65.3-51.37 52.71v-50.71c0-1.08.92-2 2-2z"/><path d="m252.73 297.01c-35.06 0-49.02 20.76-49.02 64.72 0 44.31 12.21 65.94 47.27 65.94 35.24 0 48.49-21.28 48.49-66.81.01-42.75-11.33-63.85-46.74-63.85zm-1.05 107.8c-10.12 0-13.08-10.81-13.08-42.91s3.84-41.52 13.61-41.52 12.56 9.77 12.56 41.34c-.01 32.62-3.32 43.09-13.09 43.09z"/><path d="m363.32 344.98c-11.16 0-19.01 3.66-24.42 8.37l2.79-27.39h47.27v-26.69h-70.12l-4.54 68.9 20.93 8.37c3.84-4.01 9.42-7.85 16.05-7.85 5.93 0 13.08 2.27 13.08 16.22 0 12.39-6.63 18.84-15.35 18.84-9.24 0-14.13-5.06-15.18-15l-27.91 4.88c3.14 25.82 21.8 34.02 42.56 34.02 26.69 0 47.8-15.7 47.8-44.13.01-26.51-13.59-38.54-32.96-38.54z"/></g></svg>