<svg id="Layer_1" enable-background="new 0 0 1024 1024" viewBox="0 0 1024 1024" xmlns="http://www.w3.org/2000/svg"><g><path d="m364.46 326.61c1.11.59 2.33.89 3.54.89 1.46 0 2.91-.42 4.16-1.26l46.11-30.74h22.23v32.13c0 17.58 14.3 31.87 31.87 31.87h133.36l46.11 30.74c1.25.84 2.71 1.26 4.16 1.26 1.21 0 2.43-.29 3.54-.89 2.44-1.3 3.96-3.85 3.96-6.61v-167.63c0-17.58-14.3-31.87-31.87-31.87h-48.13v-32.13c0-17.58-14.3-31.87-31.87-31.87h-159.26c-17.58 0-31.87 14.3-31.87 31.87v167.63c0 2.77 1.52 5.31 3.96 6.61zm267.17-127.11c9.3 0 16.87 7.57 16.87 16.87v153.61l-36.34-24.23c-1.23-.82-2.68-1.26-4.16-1.26h-135.63c-9.3 0-16.87-7.57-16.87-16.87v-32.12h96.13c17.58 0 31.87-14.3 31.87-31.87v-64.13zm-256.13-47.13c0-9.3 7.57-16.87 16.87-16.87h159.25c9.3 0 16.87 7.57 16.87 16.87v39.63 71.63c0 9.3-7.57 16.87-16.87 16.87h-103.62-32c-1.48 0-2.93.44-4.16 1.26l-36.34 24.23z"/><path d="m224 391.5c48.25 0 87.5-39.25 87.5-87.5s-39.25-87.5-87.5-87.5-87.5 39.25-87.5 87.5 39.25 87.5 87.5 87.5zm0-160c39.98 0 72.5 32.52 72.5 72.5s-32.52 72.5-72.5 72.5-72.5-32.52-72.5-72.5 32.52-72.5 72.5-72.5z"/><path d="m800 391.5c48.25 0 87.5-39.25 87.5-87.5s-39.25-87.5-87.5-87.5-87.5 39.25-87.5 87.5 39.25 87.5 87.5 87.5zm0-160c39.98 0 72.5 32.52 72.5 72.5s-32.52 72.5-72.5 72.5-72.5-32.52-72.5-72.5 32.52-72.5 72.5-72.5z"/><path d="m816 406.33c-48.25 0-87.5 39.25-87.5 87.5v66.67h-433v-66.67c0-48.25-39.25-87.5-87.5-87.5s-87.5 39.25-87.5 87.5v176 32.42c0 .59.03 1.17.04 1.75h-.04v192h15v-156.03c10.05 10.67 24.29 17.36 40.08 17.36h128.87c4.44 0 8.05 3.61 8.05 8.05v111.45c0 14.71 11.96 26.67 26.67 26.67h41.66c14.71 0 26.67-11.96 26.67-26.67v-149.55c0-35.81-29.14-64.95-64.95-64.95h-47.05v-86.83h209v313h-56.5v15h128v-15h-56.5v-313h209v86.83h-47.05c-35.81 0-64.95 29.14-64.95 64.95v149.55c0 14.71 11.96 26.67 26.67 26.67h41.66c14.71 0 26.67-11.96 26.67-26.67v-111.45c0-4.44 3.61-8.05 8.05-8.05h128.87c15.78 0 30.03-6.68 40.08-17.36v156.03h15v-192h-.04c.02-.58.04-1.16.04-1.75v-32.42-176c0-48.25-39.25-87.5-87.5-87.5zm-423.5 320.95v149.55c0 6.43-5.23 11.67-11.67 11.67h-41.66c-6.43 0-11.67-5.23-11.67-11.67v-111.45c0-12.71-10.34-23.05-23.05-23.05h-128.87c-22.1 0-40.08-17.98-40.08-40.08v-24.92h152.5 54.55c27.54 0 49.95 22.41 49.95 49.95zm-257-64.95v-168.5c0-39.98 32.52-72.5 72.5-72.5s72.5 32.52 72.5 72.5v168.5zm608-168.5c0-39.98 32.52-72.5 72.5-72.5s72.5 32.52 72.5 72.5v168.5h-145zm104.92 248.5h-128.87c-12.71 0-23.05 10.34-23.05 23.05v111.45c0 6.43-5.23 11.67-11.67 11.67h-41.66c-6.43 0-11.67-5.23-11.67-11.67v-149.55c0-27.54 22.41-49.95 49.95-49.95h54.55 152.5v24.92c0 22.1-17.98 40.08-40.08 40.08z"/></g></svg>