<svg id="Layer_1" viewBox="0 0 512 512" xmlns="http://www.w3.org/2000/svg" data-name="Layer 1"><path d="m378.2858 387.8346c8.742-1.3447 16.4057-5.9036 21.5774-12.8332l46.126-61.7873c5.5351-7.4154 7.7675-16.502 6.2899-25.5847-1.4776-9.0866-6.4856-17.0578-14.1014-22.4444l-86.1259-60.8973c-28.722-20.3147-163.3761-20.3108-192.098 0l-86.1279 60.8973c-15.7607 11.1464-19.2651 32.6892-7.8135 48.0292l46.128 61.7834c5.1717 6.9335 12.8354 11.4923 21.5774 12.8371 8.74 1.3486 17.48-.684 24.5986-5.717 3.9936-2.8216 7.2204-6.4088 9.5287-10.5168v36.0433c0 13.6921 11.4476 24.8346 25.5171 24.8346h24.0677l-3.1212 22.4056c-.2915 2.0909.621 4.1663 2.3742 5.4061 1.7492 1.2359 4.0635 1.438 6.0164.5247l33.3026-15.612 33.3026 15.612c.8107.3809 1.6853.5713 2.5559.5713 1.222 0 2.4361-.3731 3.4624-1.096 1.7532-1.2398 2.6637-3.3152 2.3722-5.4061l-3.12-22.4056h24.0664c14.0694 0 25.5191-11.1426 25.5191-24.8346v-36.0394c2.2684 4.0264 5.4592 7.6369 9.5247 10.5129 7.1166 5.033 15.8426 7.0734 24.6006 5.717zm-210.4406-47.2635c-.6609-1.1659-1.3998-2.2969-2.2164-3.3929l-25.7248-34.4576c-.611-.82-.8586-1.8266-.6929-2.841.1637-1.0105.7188-1.8966 1.5615-2.4912l27.0726-19.1448v62.3276zm90.7126 93.1085c-.8067-.3809-1.6813-.5713-2.5559-.5713s-1.7492.1904-2.5559.5713l-25.9963 12.188 3.8758-27.8272c.2416-1.7295-.3395-3.4706-1.5795-4.7299l-19.944-20.2952 28.3945-5.0097c1.7652-.3109 3.2867-1.3875 4.1354-2.9226l13.6701-24.7297 13.6661 24.7297c.8506 1.5352 2.3722 2.6117 4.1374 2.9226l28.3945 5.0097-19.944 20.2952c-1.238 1.2592-1.8171 3.0004-1.5775 4.7299l3.8778 27.8272-25.9983-12.188zm87.8152-96.5014c-.8187 1.0999-1.5575 2.2308-2.2125 3.389v-62.3237l27.0726 19.1448c1.7492 1.2359 2.1366 3.63.8666 5.3323l-25.7268 34.4576zm9.5287 6.7392 25.7268-34.4615c5.0878-6.8169 3.5263-16.3932-3.4744-21.3407l-36.4216-25.7557c-1.7931-1.2631-4.1613-1.438-6.1342-.4703-1.9728.9794-3.2188 2.9498-3.2188 5.1068v140.648c0 7.3727-6.1621 13.3695-13.738 13.3695h-25.6631l-.2474-1.7761 25.547-26.0006c1.4976-1.5235 2.0128-3.7271 1.3418-5.7326-.6669-2.0054-2.4161-3.4901-4.5487-3.8671l-36.3737-6.4166-17.5099-31.6826c-1.0264-1.8539-3.0192-3.0159-5.1857-3.0159s-4.1593 1.1621-5.1857 3.0159l-17.5119 31.6826-36.3737 6.4166c-2.1326.377-3.8798 1.8616-4.5507 3.8671-.6689 2.0054-.1538 4.2091 1.3458 5.7326l25.549 26.0006-.2474 1.7761h-25.6651c-7.5759 0-13.74-5.9968-13.74-13.3695v-140.648c0-2.1531-1.242-4.1274-3.2148-5.1068-1.9688-.9794-4.339-.789-6.1362.4703l-36.4216 25.7557c-3.3866 2.3941-5.615 5.9347-6.2719 9.9727-.6569 4.0342.3375 8.0722 2.7975 11.3719l25.7248 34.4576c3.3247 4.45 4.6625 9.9222 3.772 15.406-.8926 5.4877-3.9037 10.2875-8.4784 13.5211-4.5747 3.2374-10.1977 4.5472-15.8326 3.6727-5.635-.8706-10.5691-3.801-13.8917-8.2549l-46.128-61.7873c-7.6358-10.2253-5.2975-24.5859 5.2077-32.0169l86.1279-60.8973c24.1553-17.085 154.1009-17.0811 178.2502 0l86.1259 60.8973c10.5072 7.431 12.8434 21.7915 5.2077 32.0169l-46.126 61.7912c-3.3227 4.45-8.2548 7.3804-13.8937 8.251-5.627.8706-11.254-.4353-15.8306-3.6727-9.4928-6.712-11.6054-19.6889-4.7085-28.9271zm-99.8998-160.8888c33.2906 0 60.3752-26.3581 60.3752-58.7559s-27.0846-58.7559-60.3752-58.7559-60.3732 26.3581-60.3732 58.7559 27.0826 58.7559 60.3732 58.7559zm0-106.0466c26.797 0 48.5941 21.2124 48.5941 47.2907s-21.7971 47.2907-48.5941 47.2907-48.5961-21.2124-48.5961-47.2907 21.801-47.2907 48.5961-47.2907zm-108.9014 349.3483-24.5047-4.3218-11.7991-21.3485c-1.0264-1.8539-3.0192-3.0159-5.1857-3.0159s-4.1593 1.1621-5.1857 3.0159l-11.7991 21.3485-24.5047 4.3218c-2.1326.377-3.8798 1.8616-4.5507 3.8671-.6689 2.0054-.1538 4.2091 1.3458 5.7326l17.2124 17.5164-3.3446 24.0185c-.2915 2.0909.621 4.1663 2.3742 5.4061 1.0244.7229 2.2384 1.096 3.4605 1.096.8706 0 1.7452-.1904 2.5559-.5713l22.436-10.5168 22.436 10.5168c1.9549.9133 4.2632.7112 6.0164-.5247 1.7552-1.2398 2.6657-3.3152 2.3742-5.4061l-3.3466-24.0185 17.2144-17.5164c1.4976-1.5235 2.0148-3.7271 1.3458-5.7326-.6709-2.0054-2.4181-3.4901-4.5507-3.8671zm-24.4808 21.1891c-1.24 1.2592-1.8211 3.0004-1.5795 4.7299l2.2564 16.1989-15.1297-7.0928c-1.6134-.7618-3.4984-.7618-5.1118 0l-15.1297 7.0928 2.2544-16.1989c.2416-1.7295-.3395-3.4706-1.5795-4.7299l-11.6054-11.811 16.5235-2.9149c1.7632-.3109 3.2867-1.3875 4.1354-2.9226l7.9572-14.3955 7.9572 14.3955c.8486 1.5352 2.3722 2.6117 4.1354 2.9226l16.5235 2.9149zm329.8112-17.3221c-.6669-2.0054-2.4161-3.4901-4.5487-3.8671l-24.5047-4.3218-11.7971-21.3485c-1.0264-1.8539-3.0192-3.0159-5.1877-3.0159s-4.1613 1.1621-5.1877 3.0159l-11.7971 21.3485-24.5047 4.3218c-2.1326.377-3.8818 1.8616-4.5487 3.8671-.6709 2.0054-.1558 4.2091 1.3418 5.7326l17.2124 17.5164-3.3426 24.0185c-.2915 2.0909.619 4.1663 2.3722 5.4061 1.7572 1.2359 4.0655 1.438 6.0184.5247l22.436-10.5168 22.436 10.5168c.8107.3809 1.6853.5713 2.5559.5713 1.222 0 2.4361-.3731 3.4624-1.096 1.7532-1.2398 2.6637-3.3152 2.3722-5.4061l-3.3426-24.0185 17.2124-17.5164c1.4976-1.5235 2.0128-3.7271 1.3418-5.7326zm-29.0295 17.3221c-1.238 1.2592-1.8171 3.0004-1.5775 4.7299l2.2564 16.1989-15.1317-7.0928c-.8067-.3809-1.6813-.5713-2.5559-.5713s-1.7492.1904-2.5559.5713l-15.1317 7.0928 2.2564-16.1989c.2396-1.7295-.3395-3.4706-1.5775-4.7299l-11.6094-11.811 16.5255-2.9149c1.7652-.3109 3.2867-1.3875 4.1374-2.9226l7.9552-14.3955 7.9552 14.3955c.8506 1.5352 2.3722 2.6117 4.1374 2.9226l16.5255 2.9149zm-226.1933-410.8909c-1.6254-2.74-.6609-6.2456 2.1565-7.8274 2.8155-1.5818 6.4197-.6413 8.0431 2.0987l13.2248 22.2968c1.6254 2.74.6609 6.2456-2.1565 7.8274-.9265.5208-1.9389.7695-2.9373.7695-2.0367 0-4.0156-1.0299-5.1058-2.8682zm-39.307 32.526c1.6234-2.74 5.2216-3.6844 8.0451-2.0987l22.9073 12.872c2.8155 1.5818 3.7799 5.0874 2.1545 7.8274-1.0903 1.8383-3.0711 2.8682-5.1058 2.8682-.9984 0-2.0108-.2487-2.9393-.7695l-22.9073-12.872c-2.8155-1.5818-3.7799-5.0874-2.1545-7.8274zm-15.1757 55.1181c0-3.1636 2.6358-5.7326 5.8886-5.7326h26.4516c3.2528 0 5.8886 2.569 5.8886 5.7326s-2.6358 5.7326-5.8886 5.7326h-26.4516c-3.2528 0-5.8886-2.569-5.8886-5.7326zm48.2826 36.5174c1.6254 2.74.6609 6.2456-2.1545 7.8274l-22.9073 12.872c-.9285.5208-1.9409.7695-2.9393.7695-2.0347 0-4.0156-1.0299-5.1058-2.8682-1.6254-2.74-.6609-6.2456 2.1545-7.8274l22.9073-12.872c2.8175-1.5857 6.4197-.6413 8.0451 2.0987zm129.9856 0c1.6294-2.7439 5.2396-3.6727 8.0431-2.0987l22.9073 12.872c2.8195 1.5818 3.7819 5.0874 2.1565 7.8274-1.0903 1.8383-3.0711 2.8682-5.1038 2.8682-1.0024 0-2.0128-.2487-2.9393-.7695l-22.9073-12.872c-2.8195-1.5818-3.7819-5.0874-2.1565-7.8274zm15.9424-42.25h26.4536c3.2508 0 5.8906 2.569 5.8906 5.7326s-2.6398 5.7326-5.8906 5.7326h-26.4536c-3.2508 0-5.8906-2.569-5.8906-5.7326s2.6398-5.7326 5.8906-5.7326zm-15.9424-30.7848c-1.6254-2.74-.6629-6.2456 2.1565-7.8274l22.9073-12.872c2.7995-1.5818 6.4137-.649 8.0431 2.0987 1.6254 2.74.6629 6.2456-2.1565 7.8274l-22.9073 12.872c-.9265.5208-1.9369.7695-2.9393.7695-2.0327 0-4.0136-1.0299-5.1038-2.8682zm-29.6245-34.5586 13.2268-22.2968c1.6294-2.7439 5.2396-3.6727 8.0431-2.0987 2.8195 1.5818 3.7819 5.0874 2.1565 7.8274l-13.2268 22.2968c-1.0903 1.8383-3.0711 2.8682-5.1038 2.8682-1.0024 0-2.0128-.2487-2.9393-.7695-2.8195-1.5818-3.7819-5.0874-2.1565-7.8274z"/></svg>