<?xml version="1.0"?>
<svg xmlns="http://www.w3.org/2000/svg" viewBox="0 0 72 72"><g id="Layer_25" data-name="Layer 25"><path d="M68,39a.99943.99943,0,0,0-1,1V64H51a.99943.99943,0,0,0-1,1,2,2,0,0,1-4,0,.99943.99943,0,0,0-1-1H29V40a1,1,0,0,0-2,0V65a.99943.99943,0,0,0,1,1H44.127a4.00009,4.00009,0,0,0,7.7461,0H68a.99943.99943,0,0,0,1-1V40A.99943.99943,0,0,0,68,39Z"/><path d="M31,37V61a.99943.99943,0,0,0,1,1H64a.99943.99943,0,0,0,1-1V37a.99943.99943,0,0,0-1-1H52a4.98137,4.98137,0,0,0-4,2.03094A4.98137,4.98137,0,0,0,44,36H32A.99943.99943,0,0,0,31,37Zm21,1H63V60H49V41A3.00328,3.00328,0,0,1,52,38ZM33,38H44a3.00328,3.00328,0,0,1,3,3V60H33Z"/><path d="M25,43H8a3.00328,3.00328,0,0,1-3-3V8A3.00328,3.00328,0,0,1,8,5H36a3.00328,3.00328,0,0,1,3,3V34a1,1,0,0,0,2,0V8a5.00588,5.00588,0,0,0-5-5H8A5.00588,5.00588,0,0,0,3,8V40a5.00588,5.00588,0,0,0,5,5H25a1,1,0,0,0,0-2Z"/><path d="M30,14a3,3,0,0,0,0-6H14a3,3,0,0,0,0,6ZM13,11a1.00067,1.00067,0,0,1,1-1H30a1,1,0,0,1,0,2H14A1.00067,1.00067,0,0,1,13,11Z"/><path d="M14,17a.99943.99943,0,0,0-1-1H9a.99943.99943,0,0,0-1,1v4a.99943.99943,0,0,0,1,1h4a.99943.99943,0,0,0,1-1Zm-2,3H10V18h2Z"/><path d="M14,25a.99943.99943,0,0,0-1-1H9a.99943.99943,0,0,0-1,1v4a.99943.99943,0,0,0,1,1h4a.99943.99943,0,0,0,1-1Zm-2,3H10V26h2Z"/><path d="M13,32H9a.99943.99943,0,0,0-1,1v4a.99943.99943,0,0,0,1,1h4a.99943.99943,0,0,0,1-1V33A.99943.99943,0,0,0,13,32Zm-1,4H10V34h2Z"/><path d="M35,17H17a1,1,0,0,0,0,2H35a1,1,0,0,0,0-2Z"/><path d="M35,20H17a1,1,0,0,0,0,2H35a1,1,0,0,0,0-2Z"/><path d="M35,25H17a1,1,0,0,0,0,2H35a1,1,0,0,0,0-2Z"/><path d="M35,28H17a1,1,0,0,0,0,2H35a1,1,0,0,0,0-2Z"/><path d="M36,34a.99943.99943,0,0,0-1-1H17a1,1,0,0,0,0,2H35A.99943.99943,0,0,0,36,34Z"/><path d="M17,36a1,1,0,0,0,0,2H28a1,1,0,0,0,0-2Z"/></g></svg>
