<svg id="Layer_1" viewBox="0 0 512 512" xmlns="http://www.w3.org/2000/svg" data-name="Layer 1"><path d="m353.369 233.249c-41.721 0-75.662 33.941-75.662 75.661s33.941 75.662 75.662 75.662 75.661-33.941 75.661-75.662-33.941-75.661-75.661-75.661zm0 137.323c-34.001 0-61.662-27.661-61.662-61.662s27.661-61.661 61.662-61.661 61.661 27.661 61.661 61.661-27.661 61.662-61.661 61.662zm147.882 53.558s-43.371-43.372-43.371-43.372c-3.065-3.064-7.153-4.481-11.175-4.283l-9.45-9.451c11.47-16.505 18.205-36.537 18.205-58.114 0-46.932-31.836-86.562-75.044-98.446v-38.436c5.745-3.781 9.309-10.197 9.309-17.462v-52.944c0-11.561-9.405-20.966-20.966-20.966h-35.361s-.006 0-.01 0h-39.958v-8.415c0-13.116-10.67-23.787-23.786-23.787h-94.08c-13.116 0-23.786 10.671-23.786 23.787v8.415h-39.958s-.006 0-.01 0h-35.361c-11.561 0-20.966 9.405-20.966 20.966v52.944c0 7.265 3.563 13.681 9.309 17.462v123.602l-52.161 13.976c-5.082 1.361-8.632 5.988-8.632 11.25s3.55 9.888 8.632 11.249l.362.097v40.949c0 3.866 3.134 7 7 7s7-3.134 7-7v-37.198l20.214 5.416v44.437c0 2.458 1.29 4.736 3.397 6.002 21.182 12.714 46.162 19.434 72.24 19.434s51.06-6.72 72.24-19.434c2.107-1.266 3.397-3.544 3.397-6.002v-44.437l34.575-9.265c2.578-.69 4.758-2.222 6.285-4.249h13.711c8.908 47.269 50.5 83.142 100.319 83.142 21.578 0 41.609-6.735 58.114-18.205l9.45 9.451c-.198 4.022 1.218 8.11 4.282 11.175l43.372 43.372c4.503 4.502 10.417 6.753 16.331 6.753s11.829-2.251 16.332-6.753c9.004-9.005 9.004-23.657 0-32.662zm-382.434-329.473h207.568v19.503c0 1.26-.756 2.246-1.973 2.572l-101.812 27.28-101.812-27.281c-1.217-.326-1.973-1.312-1.973-2.572v-19.503zm46.958-22.415c0-5.305 4.481-9.787 9.786-9.787h94.08c5.305 0 9.786 4.482 9.786 9.787v8.415h-113.652zm-96.295 29.381c0-3.841 3.125-6.966 6.966-6.966h28.371v19.503c0 7.648 4.964 14.117 12.351 16.095l103.622 27.766c.593.159 1.202.239 1.812.239s1.219-.08 1.812-.239l103.623-27.766c7.387-1.979 12.35-8.447 12.35-16.095v-19.503h28.371c3.841 0 6.966 3.125 6.966 6.966v52.944c0 3.247-2.026 5.888-5.163 6.729l-111.88 29.977c-2.296-4.74-7.142-8.024-12.752-8.024h-46.653c-5.611 0-10.456 3.284-12.751 8.024l-111.879-29.977c-3.137-.84-5.163-3.481-5.163-6.729v-52.944zm176.623 95.8v21.527c0 .08-.096.176-.176.176h-46.653c-.08 0-.175-.096-.175-.176v-21.527c0-.08.095-.175.175-.175h46.653c.08 0 .176.095.176.175zm-61.624 184.345c-18.263 10.136-39.484 15.476-61.638 15.476s-43.374-5.34-61.638-15.476v-36.645l54.114 14.5c2.566.688 5.045 1.031 7.523 1.031s4.958-.344 7.524-1.031l54.113-14.5v36.645zm-57.736-35.669c-2.733.731-5.066.731-7.802 0l-94.205-25.241 94.205-25.242c2.736-.732 5.069-.731 7.802 0l94.204 25.241zm112.597-32.241c-1.526-2.027-3.707-3.56-6.285-4.25l-102.688-27.516c-5.132-1.375-9.914-1.375-15.048 0l-36.529 9.788v-114.98l106.311 28.485v13.565c0 7.816 6.358 14.176 14.175 14.176h46.653c7.816 0 14.176-6.359 14.176-14.176v-13.565l106.311-28.485v30.752c-4.272-.547-8.626-.83-13.045-.83-56.292 0-102.089 45.797-102.089 102.089 0 1.659.043 3.308.122 4.947h-12.062zm25.94-4.947c0-48.572 39.517-88.089 88.089-88.089s88.089 39.517 88.089 88.089-39.517 88.089-88.089 88.089-88.089-39.517-88.089-88.089zm163.162 69.104 5.65 5.65-5.97 5.97-5.649-5.649c2.071-1.908 4.062-3.899 5.97-5.97zm62.908 68.877c-3.544 3.546-9.316 3.548-12.862 0l-43.372-43.372c-.289-.288-.288-.794 0-1.081l11.782-11.78c.146-.147.344-.221.54-.221s.395.073.542.221l43.371 43.37c3.546 3.547 3.546 9.317 0 12.863z"/></svg>