<svg height="512" viewBox="0 0 32 32" width="512" xmlns="http://www.w3.org/2000/svg"><g id="_x31_3"><circle cx="25" cy="19" r="3"/><circle cx="7" cy="19" r="3"/><path d="m21 9.0332031-4.2119141 1.8046875c-.2495117.1074219-.5151367.1621094-.7880859.1621094s-.5385742-.0546875-.7890625-.1625977l-4.2109375-1.8046264v1.9672241c0 .3789063.2138672.7250977.5527344.8945313l4 2c.140625.0703125.2939453.1054687.4472656.1054687s.3066406-.0351563.4472656-.1054688l4-2c.3388672-.1694335.5527344-.5156249.5527344-.8945312z"/><path d="m23.394043 5.0810547-7-3c-.2519531-.1083984-.5361328-.1083984-.7880859 0l-7 3c-.3676758.1572266-.6059571.519043-.6059571.9189453s.2382813.7617188.605957.9189453l7 3c.1259766.0541992.2597657.0810547.394043.0810547s.2680664-.0268555.394043-.0810547l5.605957-2.4025268v5.4835815c0 .5522461.4477539 1 1 1s1-.4477539 1-1v-7c0-.3999023-.2382812-.7617187-.605957-.9189453z"/><path d="m11.1431885 22.9073486c-.545105-.5581665-1.3031616-.9073486-2.1431885-.9073486h-2-2c-1.6542969 0-3 1.3457031-3 3v1c0 .5527344.4472656 1 1 1h6c0-1.6935425.8510742-3.1876831 2.1431885-4.0926514z"/><path d="m27 22h-2-2c-.8400269 0-1.5980835.3491821-2.1431885.9073486 1.2921143.9049683 2.1431885 2.3991089 2.1431885 4.0926514h6c.5527344 0 1-.4472656 1-1v-1c0-1.6542969-1.3457031-3-3-3z"/><path d="m21 30h-10c-.5522852 0-1-.4477158-1-1v-2c0-2.2091389 1.7908611-4 4-4h4c2.2091389 0 4 1.7908611 4 4v2c0 .5522842-.4477158 1-1 1z"/><circle cx="16" cy="19" r="4"/></g></svg>