<?xml version="1.0"?>
<svg xmlns="http://www.w3.org/2000/svg" viewBox="0 0 64 64" width="512" height="512"><g id="Checklist"><path d="M55,0H9A1,1,0,0,0,8,1V63a1,1,0,0,0,1,1H55a1,1,0,0,0,1-1V1A1,1,0,0,0,55,0ZM45,2V6H38a1,1,0,0,0-1,1A5,5,0,0,1,27,7a1,1,0,0,0-1-1H19V2ZM17,2V7a1,1,0,0,0,1,1h7.0713A7.0006,7.0006,0,0,0,38.9287,8H46a1,1,0,0,0,1-1V2h3V58H14V2ZM54,62H10V2h2V59a1,1,0,0,0,1,1H51a1,1,0,0,0,1-1V2h2Z"/><path d="M32,10a3,3,0,1,0-3-3A3.0033,3.0033,0,0,0,32,10Zm0-4a1,1,0,1,1-1,1A1.0009,1.0009,0,0,1,32,6Z"/><path d="M18,28h8a1,1,0,0,0,1-1V25a1,1,0,0,0-2,0v1H19V20h5a1,1,0,0,0,0-2H18a1,1,0,0,0-1,1v8A1,1,0,0,0,18,28Z"/><path d="M21.707,21.293a1,1,0,0,0-1.414,1.414l2,2a.9995.9995,0,0,0,1.414,0l5-5a1,1,0,0,0-1.414-1.414L23,22.5859Z"/><path d="M18,41h8a1,1,0,0,0,1-1V38a1,1,0,0,0-2,0v1H19V33h5a1,1,0,0,0,0-2H18a1,1,0,0,0-1,1v8A1,1,0,0,0,18,41Z"/><path d="M27.293,31.293,23,35.5859,21.707,34.293a1,1,0,0,0-1.414,1.414l2,2a.9995.9995,0,0,0,1.414,0l5-5a1,1,0,0,0-1.414-1.414Z"/><path d="M18,54h8a1,1,0,0,0,1-1V51a1,1,0,0,0-2,0v1H19V46h5a1,1,0,0,0,0-2H18a1,1,0,0,0-1,1v8A1,1,0,0,0,18,54Z"/><path d="M27.293,44.293,23,48.5859,21.707,47.293a1,1,0,0,0-1.414,1.414l2,2a.9995.9995,0,0,0,1.414,0l5-5a1,1,0,0,0-1.414-1.414Z"/><path d="M32,22H46a1,1,0,0,0,0-2H32a1,1,0,0,0,0,2Z"/><path d="M32,26h5a1,1,0,0,0,0-2H32a1,1,0,0,0,0,2Z"/><path d="M32,35H46a1,1,0,0,0,0-2H32a1,1,0,0,0,0,2Z"/><path d="M32,39h5a1,1,0,0,0,0-2H32a1,1,0,0,0,0,2Z"/><path d="M32,48H46a1,1,0,0,0,0-2H32a1,1,0,0,0,0,2Z"/><path d="M32,52h5a1,1,0,0,0,0-2H32a1,1,0,0,0,0,2Z"/></g></svg>
