<svg clip-rule="evenodd" fill-rule="evenodd" height="512" image-rendering="optimizeQuality" shape-rendering="geometricPrecision" text-rendering="geometricPrecision" viewBox="0 0 1707 1707" width="512" xmlns="http://www.w3.org/2000/svg"><g id="Layer_x0020_1"><g id="_561398448"><g><path d="m1572 1707h-1196c-54 0-98-45-98-99v-71c0-11 9-20 20-20h86c31 0 57-26 57-58 0-31-26-57-57-57h-86c-11 0-20-9-20-20v-451c0-11 9-20 20-20h86c31 0 57-26 57-58 0-31-26-57-57-57h-86c-11 0-20-9-20-20v-451c0-11 9-20 20-20h86c31 0 57-26 57-58s-26-57-57-57h-86c-11 0-20-9-20-20v-68c0-56 45-102 102-102h1192c11 0 20 9 20 20v1667c0 11-9 20-20 20zm-1254-150v51c0 32 26 59 58 59h1176v-1627h-1172c-34 0-62 28-62 62v48h66c53 0 97 43 97 97s-44 98-97 98h-66v411h66c53 0 97 43 97 97s-44 98-97 98h-66v411h66c53 0 97 44 97 97 0 54-44 98-97 98z"/></g><g><path d="m608 1707c-11 0-20-9-20-20v-1667c0-11 9-20 20-20s20 9 20 20v1667c0 11-9 20-20 20z"/></g><g><path d="m384 345h-172c-54 0-98-44-98-98s44-97 98-97h172c53 0 97 43 97 97s-44 98-97 98zm-172-155c-32 0-58 25-58 57s26 58 58 58h172c31 0 57-26 57-58s-26-57-57-57z"/></g><g><path d="m384 951h-172c-54 0-98-44-98-98s44-97 98-97h172c53 0 97 43 97 97s-44 98-97 98zm-172-155c-32 0-58 26-58 57 0 32 26 58 58 58h172c31 0 57-26 57-58 0-31-26-57-57-57z"/></g><g><path d="m384 1557h-172c-54 0-98-44-98-98 0-53 44-97 98-97h172c53 0 97 44 97 97 0 54-44 98-97 98zm-172-155c-32 0-58 26-58 57 0 32 26 58 58 58h172c31 0 57-26 57-58 0-31-26-57-57-57z"/></g><g><path d="m1460 642h-740c-11 0-20-9-20-20v-448c0-11 9-20 20-20h740c11 0 20 9 20 20v448c0 11-9 20-20 20zm-720-40h700v-408h-700z"/></g><g><path d="m1493 791h-740c-11 0-20-9-20-20s9-20 20-20h740c11 0 20 9 20 20s-9 20-20 20z"/></g><g><path d="m1493 972h-740c-11 0-20-9-20-20s9-20 20-20h740c11 0 20 9 20 20s-9 20-20 20z"/></g><g><path d="m1493 1153h-740c-11 0-20-9-20-20s9-20 20-20h740c11 0 20 9 20 20s-9 20-20 20z"/></g><g><path d="m1493 1334h-740c-11 0-20-9-20-20s9-20 20-20h740c11 0 20 9 20 20s-9 20-20 20z"/></g><g><path d="m1493 1516h-740c-11 0-20-9-20-20 0-12 9-20 20-20h740c11 0 20 8 20 20 0 11-9 20-20 20z"/></g><g><g><path d="m865 534c-3 0-5 0-7-1-10-3-16-15-12-25l72-209c3-8 11-13 19-13s16 5 19 13l78 208c3 11-2 22-12 26-11 4-22-1-26-12l-58-156-54 156c-3 8-11 13-19 13z"/></g><g><path d="m989 464h-100c-11 0-20-9-20-20s9-20 20-20h100c11 0 20 9 20 20s-9 20-20 20z"/></g><g><path d="m1148 450h-88c-11 0-20-9-20-20s9-20 20-20h88c11 0 20 9 20 20s-9 20-20 20z"/></g><g><path d="m1294 534h-130c-7 0-14-4-17-10-4-7-3-15 1-21l122-177h-92c-11 0-20-9-20-20s9-20 20-20h130c7 0 14 4 18 11 3 6 3 14-2 20l-122 177h92c11 0 20 9 20 20s-9 20-20 20z"/></g></g></g></g></svg>