<?xml version="1.0" encoding="UTF-8"?>
<svg id="Layer_1" data-name="Layer 1" xmlns="http://www.w3.org/2000/svg" viewBox="0 0 2400 1800">
  <defs>
    <style>
      .cls-1 {
        fill: #fff;
      }
    </style>
  </defs>
  <rect class="cls-1" width="2400" height="1800"/>
  <path d="M246.03,1426.22c30.76-19.66,63.69-36.19,99.29-44.95,27.73-6.82,56.18-8.45,84.63-6.86,57.36,3.19,116.31,18.79,173.76,9.33,28.77-4.74,55.92-19.6,65.84-48.48,7.88-22.92.5-50.06-23.68-59.08-21.79-8.13-49.02.86-62.23,19.81-16.87,24.22-11.17,58.24,5.03,81.18,18.37,26.02,49.58,39.72,79.75,46.52,34.01,7.67,69.54,8.24,103.88,2.42,35.28-5.98,69.5-18.86,99.71-38.07,30.31-19.27,56.32-44.32,85.47-65.17,32.84-23.49,69.02-37.22,109.06-42.34,37.89-4.84,78.5-5.78,115.67,4.06,35.29,9.34,67.48,30.48,83.42,64.27,14.73,31.22,10.03,66.76-14.43,91.54-45.92,46.5-125.72,42.86-174.77,3.72-24.24-19.34-42.56-49.33-39.76-81.26,2.68-30.53,23.53-60.01,51.47-72.63,14.38-6.49,30.04-7.56,45.09-2.85-.73-.96-1.47-1.93-2.2-2.89-3.5,34.82-35.13,58.27-54.06,85.09-8.16,11.57-14.73,24.66-15.37,39.05-.8,17.91,8.1,34.14,20.77,46.27,27.18,26.03,68.19,34.22,104.29,26.29,35.8-7.86,65.54-31.95,79.67-65.87,14.1-33.83,12.49-73.9-5.34-106.05-16.87-30.42-43.89-51.62-74.79-66.57-26.93-13.02-56.52-21.68-81.12-39.11-31.86-22.57-43.29-59.88-41.08-97.76,5.4-92.6,75.07-161.34,141.45-218.04,28.56-24.4,59.65-46.63,84.85-74.67,24.34-27.09,38.25-59.25,43.67-95.16,6.22-41.17,2.67-83.77-14.98-121.84-17.04-36.76-46.08-67.73-82.11-86.35-69.02-35.66-156.32-23.96-202.44,41.86-20.34,29.03-30.73,65.65-25.19,100.95,6.15,39.19,52.95,93.09,16.62,129.07-28.28,28-76.77,18.74-108.08,1.81-33.19-17.95-57.97-48.29-73.81-82.11-33.71-71.95-26.02-155.37,13.58-223.28,40.69-69.79,110.96-121.26,188.97-141.35,92.64-23.86,195.06-20.37,280.85,24.86,41.71,21.99,84.53,51.22,114.32,88.23,29.11,36.17,47.7,81.74,56.85,127.03,17.74,87.88-4.74,179.75-52.23,254.75-24.6,38.85-56.04,71.7-90.03,102.4-31.69,28.62-65.99,55.18-94.25,87.35-19.23,21.89-37.32,49.58-31.74,80.12,4.8,26.25,26.39,45.61,18.42,73.97-10.68,38.01-46.99,63.98-86.66,55.65-17.21-3.61-33.49-14.52-40.12-31.31-3.7-9.37-5.08-22.62,2.77-30.45,10.46-10.42,26.82-3.19,37.16,3.44,33.59,21.55,50.44,59.65,64.01,95.61,13.22,35.04,24.31,71.89,45.83,103,46.45,67.17,132.37,99.98,211.51,79.26,38.75-10.15,73.98-31.7,100.37-61.84,1.05-1.2,1.23-3.06,0-4.24-11.48-10.98-27.38-3.83-35.39,7.81-10.27,14.94-4.05,32.06,8.72,43.3,16.58,14.59,40.64,20.61,61.43,26.06,25.93,6.8,52.68,11.02,79.51,11.51,27.7.5,55.62-3.09,81.94-11.91,23.73-7.96,45.84-19.95,67.39-32.54,45.45-26.55,89.63-53.6,143.08-59.53,57.32-6.36,115.97,7.86,163.68,40.29,3.2,2.18,6.21-3.02,3.03-5.18-71.98-48.93-166.51-55.69-245.06-18.71-43.13,20.3-81.3,50.32-126.12,67.17-48.7,18.31-102.1,17.64-152.35,6.4-23.79-5.32-53.37-11.32-72.29-27.8-9.26-8.07-15.92-20.25-10.04-32.27,4.83-9.87,18.35-19.8,28.22-10.36v-4.24c-61.46,70.2-166.38,86.74-245.77,37.4-36.84-22.9-62.46-56.49-79.4-95.98-15.23-35.51-25.06-73.45-43.87-107.39-8.55-15.43-19.16-29.95-32.63-41.45-12.3-10.5-30.06-22.86-47.14-17.95-15.43,4.43-19.47,21.32-16.48,35.39,3.21,15.06,14.11,27.8,27.36,35.22,26.54,14.86,62.15,10.24,85.43-8.74,23.4-19.07,36.84-53.58,25.1-82.28-4.85-11.86-12.07-22.7-15.1-35.29-3.88-16.13-.1-32.65,7.48-47.1,18.23-34.76,51.61-61.29,80.6-86.71,34.9-30.61,70.49-60.98,99.62-97.34,26.79-33.44,48.43-70.92,63.41-111.09,30.47-81.74,30.02-171.08-4.29-251.53-18.62-43.67-46.35-78.27-83.52-107.54-37.16-29.26-79.13-55.13-124.71-68.79-42.94-12.87-88.31-19.11-133.12-17.17-45.05,1.95-91.68,9.93-133.73,26.54-71.95,28.42-134.28,83.34-167.47,153.67-32.23,68.29-33.45,148.39,1.61,215.94,16.3,31.4,40.66,59.33,72.03,76.29,29.66,16.04,67.59,23.66,99.18,8.46,15.13-7.28,26.72-20.4,30.15-37.06,4.19-20.38-3.86-40.57-11.75-58.99-9.03-21.1-18.01-41.41-18.57-64.72-.48-20.28,4.17-40.57,12.71-58.94,17.38-37.38,50.04-66.41,90.07-77.07,41.85-11.14,87.56-2.78,124.73,18.69,81.65,47.16,108.74,152.3,76.75,238.16-13.53,36.29-41.06,63.01-70.03,87.49-30.36,25.65-61.4,50.29-89.95,78.01-31.39,30.49-61.27,63.97-79.54,104.17-17.21,37.9-27.16,82.65-16.57,123.79,7.67,29.78,27.1,51.83,53.63,66.6,27.82,15.49,58.83,24.28,86.25,40.62,33.55,20,60.57,52.26,66.63,91.7,6.48,42.14-10.47,87.64-47.05,110.98-35.32,22.54-83.71,23.82-119.57,1.77-19.03-11.7-35.81-31.09-34.2-54.72,1.17-17.21,11.72-32.15,22.25-45.11,19.11-23.53,43.93-46.1,47.13-77.99.13-1.33-1.03-2.53-2.2-2.89-54.32-16.98-106.73,38.8-104.38,91.38,2.66,59.43,62.24,99.92,116.61,106.53,52.59,6.4,119.66-19.99,131.6-76.99,6.11-29.16-5.01-58.92-23.81-81.17-22.38-26.48-55.04-40.62-88.66-46.32-36.25-6.14-74.53-4.7-110.74,1.08-37.06,5.92-70.52,19.74-101,41.57-29.57,21.18-55.95,46.67-86.84,66.03-32.87,20.6-70.41,33.68-108.91,38.35-61.83,7.5-172.21-5.01-178.99-85.64-1.45-17.24,3.81-35.46,17.82-46.43,11.42-8.94,27.25-12.98,41.48-9.63,37.62,8.87,31.82,56.03,9.25,77.35-26.1,24.65-67.79,23.53-101.16,21.87-28.58-1.43-56.91-5.42-85.34-8.48-27.25-2.93-54.7-4.67-82.04-1.86-29.66,3.06-58.36,11.32-85.5,23.58-17.8,8.04-34.77,17.68-51.21,28.19-3.24,2.07-.24,7.27,3.03,5.18h0Z"/>
</svg>