<?xml version="1.0" encoding="UTF-8"?>
<svg xmlns="http://www.w3.org/2000/svg" viewBox="0 0 3300 2200">
  <defs>
    <style>
      .cls-1 {
        fill: #fff;
      }
    </style>
  </defs>
  <g id="background">
    <rect class="cls-1" width="3300" height="2200"/>
  </g>
  <g id="objects">
    <g>
      <g>
        <path d="M919.7,847.97c-2.21-101.74,18.71-203.98,62.74-295.87,41.33-86.23,103-162.02,177.87-221.37,73.74-58.44,160.22-100.71,252.05-121.53,94.12-21.34,193.05-20.5,287.02,1.22,92.25,21.33,179.44,62.71,253.43,121.9,69.79,55.84,127.53,126.51,169.64,205.27,42.35,79.2,69,166.87,76.22,256.47,7.44,92.3-5.75,185.91-36.5,273.16-30.83,87.47-79.43,168.81-142.78,236.63-65.25,69.87-147.94,128.42-241.98,150.93-23.17,5.55-46.83,8.6-70.65,9.1-.98.02-4.08.15-4.27,1.61-2.38,18.3-4.76,36.6-7.14,54.9-1.6,12.33-3.21,24.67-4.81,37-.88,6.74-1.33,13.82-3.13,20.39-2.51,9.18-7.8,17.44-14.99,23.67-8.76,7.58-18.79,10.16-30.04,11.28-26.61,2.63-53.21,5.27-79.82,7.9-12.93,1.28-27.34,4.47-40.27,2.27-11.26-1.91-19-10.14-23.37-20.26-7.44-17.25-7.39-37.9-9.47-56.35-9.13-80.89-19.32-161.66-29.59-242.41-2.27-17.84-6.98-36.56,1.3-53.55,3.92-8.04,10.11-15.14,17.62-20.01,9.12-5.9,18.58-7.32,29.23-7.51,42.55-.77,85.08-5.21,126.74-14.03,81.68-17.28,161.07-52.85,220.4-112.76,63.96-64.58,100.4-155.33,98.16-246.28-2.03-82.73-36.43-163.76-92.3-224.49-57.78-62.82-137.19-100.02-221.89-107.92-85.44-7.97-173.12,13.97-242.29,65.32-66,48.99-113.77,121.87-133.19,201.67-4.79,19.68-7.75,39.74-8.96,59.95l1.74-1.26c.16-.03,1.25,0-.17.03-1.15.02-2.43.46-3.56.66-4.28.77-8.58,1.46-12.88,2.1-16.08,2.42-32.25,4.24-48.44,5.68-60.6,5.41-121.69,5.54-182.4,2.15-31.7-1.77-63.27-4.91-94.86-7.92-1-.1-5.84-.18-5.78,1.6.07,1.87,4.49,2.11,5.57,2.21,108.85,10.37,218.94,16.11,327.64.44,7.61-1.1,15.23-2.26,22.76-3.83.5-.1,1.69-.55,1.74-1.26,4.99-83.37,41.36-163.46,99.32-223.39,61.61-63.71,146.19-100.17,234.79-101.84,89.08-1.67,176.49,32.35,239.66,95.38,59.21,59.08,96.88,139.88,101.72,223.57,5.31,91.92-29.36,184.64-92.79,251.19-59.48,62.41-140.52,98.99-224.01,116.3-21.45,4.45-43.16,7.62-64.96,9.77-21.51,2.12-43.13,1.6-64.61,3.42-17.02,1.45-33.07,10.12-42.28,24.74-10.12,16.05-7.77,32.65-5.5,50.46,10.27,80.57,20.44,161.16,29.65,241.86,2.08,18.19,2.75,37.19,7.07,55.01,4.54,18.74,15.62,32.21,35.39,35.13,10.32,1.53,20.72.49,31.03-.53,13.53-1.34,27.06-2.68,40.58-4.02,13.53-1.34,27.06-2.68,40.58-4.02,10.94-1.08,22.61-1.13,33.14-4.55,16.67-5.41,29.86-18.8,34.17-35.91,1.67-6.62,2.13-13.69,3-20.45,3.22-24.72,6.43-49.44,9.65-74.16.73-5.59,1.45-11.18,2.18-16.77-1.42.54-2.85,1.07-4.27,1.61,97.9-2.04,189.23-46.53,263.52-108.19,73.27-60.8,132.01-138.82,172.77-224.71,40.4-85.11,63.53-178.5,65.96-272.76,2.37-92.19-15.84-184.16-51.72-269.05-35.58-84.19-88.27-161.22-154.36-224.4-68.03-65.03-149.94-114.17-239.23-143.9-91.33-30.42-189.04-41.2-284.8-31.36s-187.48,41.1-268.99,91.35c-80.9,49.88-151.1,117.46-202.84,197.28-56.01,86.41-89.53,186.73-98.97,289.14-2.34,25.33-3.16,50.78-2.61,76.21.06,2.9,11.41,3.18,11.35.62Z"/>
        <path d="M1448.4,1232.87c-16.46,21.91-17.75,49.79-14.96,76.09,3.28,31,10.01,61.79,15.36,92.49,11.78,67.49,23.55,134.99,35.33,202.48,1.98,11.34,2.95,24.31,11.79,32.74,9.48,9.04,20.97,7.79,32.85,5.51,30.04-5.77,60.69-8.11,91.1-11.09,24.52-2.4,49.53-2.81,66.49-23.34,9.74-11.8,12.4-25.63,13.24-40.37,1.65-28.67,3.29-57.35,4.94-86.02l-1.57,1.2c91.11,3.74,177.64-36.53,248.82-90.6,74.92-56.91,138.31-131.37,182.78-214.27,47.28-88.13,68.54-188.43,67.35-288.08-1.18-99.28-24.04-197.88-64.71-288.35-38.41-85.46-92.32-163.88-159.2-229.56-69.58-68.34-153.23-121.85-244.96-155.15-94.2-34.2-196.38-47.48-295.99-34.87-92.93,11.77-182.62,45.96-260.44,98-79.18,52.95-145.35,124.04-191.37,207.5-47.44,86.03-73.92,183.7-76.11,281.93-.54,24.11.44,48.23,2.82,72.22.34,3.41,4.88,6.38,8.09,6.55,37.11,1.96,74.23,3.91,111.34,5.87,58.64,3.09,117.28,6.18,175.91,9.27,13.62.72,27.23,1.44,40.85,2.15.55.03,1-.15,1.36-.55,21.62-51.44,44.47-102.5,70.14-152.06,26.17-50.53,55.58-104.28,102.3-138.64,88.27-64.93,213.91-67.56,313.17-28.59,49.81,19.55,95.4,50.15,131.07,90.17,38.34,43.02,65.51,95.42,80.17,151.06,14.94,56.74,18.17,118.96,1.58,175.71-16.24,55.57-54.25,98.64-101.71,130.37-49.23,32.91-105.36,55.96-160.59,76.62-59.93,22.41-121.53,40.35-184.11,53.62-16.48,3.5-33.03,6.66-49.64,9.51-4.62.79,3.34,8.3,6.51,7.76,94.9-16.29,187.89-42.93,276.87-79.75,75.14-31.1,157.63-69.53,200.76-142.37,43.99-74.3,39.24-171.18,12.93-250.7-25.73-77.76-76.28-146.34-144.71-191.67-64.32-42.61-141.71-65.46-218.93-63.3-40.01,1.12-80.16,8.96-117.26,24.12-40.95,16.74-75.77,42.97-102.44,78.32-25.61,33.95-45.85,72.08-64.77,110.05-18.81,37.75-36.22,76.22-52.83,114.98-1.8,4.19-3.58,8.38-5.36,12.58-.3.72-1.64,5.29-1.21,5.03-.48.3-2.05-.17-2.6-.14-4.31.28-8.94-.47-13.25-.7-17.07-.9-34.13-1.8-51.2-2.7-49.61-2.61-99.21-5.23-148.82-7.84-35.45-1.87-70.91-3.74-106.36-5.61l-5.67-.3c2.7,2.18,5.39,4.37,8.09,6.55-9.6-96.65,4.77-195.22,40.89-285.35,35.24-87.95,91.01-166.78,162.68-228.79,69.72-60.31,153.34-104.58,242.44-128.24,95.22-25.28,195.93-25.43,291.79-3.35,96.28,22.18,186.9,66.45,263.74,128.52,72.65,58.68,132.77,132.41,177.71,214.14,46.7,84.94,77.18,178.95,87.49,275.4,10.48,98.02.46,199.1-35.17,291.37-33.38,86.44-89.45,164.48-156.17,228.34-65.4,62.6-146.53,115.87-237.02,131.83-20.97,3.7-42.27,5.13-63.55,4.26-.73-.03-1.53.4-1.57,1.2-1.36,23.69-2.72,47.37-4.08,71.06-.51,8.81-.52,17.83-1.67,26.59-2.95,22.41-20.11,40.97-42.15,45.87-14.25,3.17-29.62,3.42-44.14,4.82-14.24,1.38-28.49,2.76-42.7,4.44-12.49,1.48-24.97,3.18-37.34,5.5-7.46,1.4-18.1,4.92-23.39-2.31-3.47-4.75-3.89-13.04-4.87-18.63-10.95-62.74-21.89-125.48-32.84-188.22-5.96-34.16-12.99-68.34-17.62-102.71-3.8-28.26-4.39-59.04,13.54-82.91,2.05-2.73-7.11-9.47-9.22-6.65h0Z"/>
        <path d="M1576.85,1724.7c-24.29,11.23-46.91,26.6-65.04,46.4-17.4,19.01-30.7,41.99-35.78,67.42-4.75,23.74-2.46,49.08,7.17,71.35,4.73,10.93,11.29,21.09,19.52,29.71,9.21,9.64,20.51,16.95,32.73,22.2,13.3,5.72,27.42,9.17,41.65,11.64,7.11,1.24,14.27,2.24,21.43,3.17,7.43.97,14.87,1.97,22.34,2.57,15.94,1.28,32.7.36,47.34-6.69,11.49-5.53,20.4-14.64,26.3-25.89,5.7-10.86,8.72-23,10.35-35.1,1.78-13.24,1.92-26.78,1.05-40.09-1.83-27.83-9.07-55.8-24.11-79.51-7.06-11.12-15.73-21.15-26.03-29.39-10.02-8.01-21.34-14.27-33.42-18.58-25.71-9.18-54.4-7.9-78.96,4.18-22.04,10.84-38.24,30.25-49.15,51.89-11.57,22.94-18.19,48.65-21.05,74.11-1.6,14.24-1.75,28.86,1.47,42.89s9.64,25.92,19.32,35.94c20.74,21.45,50.82,29.54,79.49,33.42,8.19,1.11,16.41,1.96,24.63,2.78,7.19.72,14.39,1.41,21.61,1.77,15.42.77,30.98-.04,45.84-4.51,13.92-4.18,26.25-11.96,35.44-23.26,8.3-10.2,13.74-22.52,17.04-35.17,6.46-24.71,5.32-51.15-1.89-75.56-7.21-24.45-20.57-47.14-38.69-65.1-18.76-18.59-42.61-31.26-68.31-37.17-27.61-6.34-56.7-4.95-83.8,3.09-12.87,3.82-25.32,9.3-36.72,16.4-.35.22-1.51.86-1.35,1.52s1.48.73,1.89.75c2.5.1,5.66-.52,7.82-1.87,2.83-1.76,5.72-3.43,8.67-4.98.64-.34,1.28-.67,1.93-1,.39-.2.78-.39,1.17-.58,1.28-.64-.79.37.5-.24,1.44-.68,2.88-1.35,4.34-1.99s2.93-1.25,4.41-1.84c.74-.29,1.48-.57,2.23-.86.81-.32-1.18.43.14-.05.54-.2,1.09-.39,1.63-.59,1.5-.53,3.01-1.03,4.53-1.51.69-.22,1.38-.43,2.07-.64.42-.12.83-.25,1.25-.37.23-.07,1.68-.51.21-.07,3.18-.96,6.46-1.68,9.71-2.35.28-.06.57-.12.85-.17-1.51.27-.04.01.22-.04.78-.15,1.57-.29,2.35-.42,1.64-.28,3.29-.54,4.94-.77.86-.12,1.72-.23,2.59-.34.29-.03.58-.07.86-.1-1.27.15.18-.02.37-.04,1.73-.18,3.46-.33,5.2-.45,1.52-.11,3.04-.19,4.56-.25.8-.03,1.59-.06,2.39-.08-.09,0,1.34-.03.72-.02-.3,0-.21,0,.28,0,.29,0,.58,0,.87,0,25.74-.11,51.59,6.37,73.98,19.54,21.51,12.65,39.16,31.25,51.43,52.92,12.14,21.44,19.16,45.86,19.78,70.52.63,24.93-4.99,51.84-21.04,71.56-1.98,2.43-4.13,4.71-6.45,6.82-2.12,1.93-4.77,4.03-6.89,5.42-1.39.91-2.82,1.77-4.28,2.56-.67.36-1.34.72-2.02,1.06.77-.38-.57.27-.58.27-.48.22-.96.44-1.45.65-.76.33-1.53.65-2.3.95-.15.06-1.56.57-.41.16-.28.1-.57.2-.85.3-.85.3-1.71.58-2.58.84-.29.09-.58.17-.87.26-.63.18-.58.17.15-.04-.29.08-.58.16-.88.24-.73.19-1.47.37-2.2.55-.44.1-.89.2-1.33.3-.24.05-1.75.38-.3.07-1.64.35-3.3.59-4.96.83-.45.06-.91.12-1.37.18-.14.02-1.66.19-.47.06-.76.08-1.53.16-2.3.23-1.85.16-3.7.28-5.56.36-.78.03-1.55.06-2.33.08-.47.01-.93.02-1.4.03.82-.01-.71,0-.69,0-1.72,0-3.44,0-5.17-.05-3.61-.08-7.22-.27-10.83-.52-15-1.04-30.08-2.55-44.94-4.83-14.76-2.27-29.52-5.65-43.15-11.9-11.79-5.41-22.83-12.84-31.48-22.57-9.02-10.14-14.62-22.7-17.18-35.96-2.68-13.85-2.26-28.15-.53-42.09,1.57-12.66,4.15-25.22,7.69-37.47,6.58-22.76,16.76-45.54,33.02-63.09,3.93-4.24,8.21-8.17,12.82-11.66,2.42-1.83,4.07-2.96,6.54-4.47,1.21-.74,2.44-1.45,3.69-2.14.57-.31,1.14-.62,1.72-.91.35-.18.7-.35,1.04-.53.47-.23.47-.23,0,0,.24-.11.47-.23.71-.34,1.25-.59,2.51-1.15,3.79-1.67.68-.28,1.36-.55,2.04-.81,1.3-.51-1.06.36.26-.1.39-.13.77-.27,1.16-.41.71-.24,1.42-.48,2.14-.7.32-.1.65-.2.98-.3.31-.09,1.6-.58.11-.04,1.5-.54,3.17-.82,4.73-1.15.26-.06.53-.1.79-.16-1.54.4-.21.05.11-.01.66-.12,1.33-.23,1.99-.34.8-.12,1.6-.24,2.4-.34.04,0,1.36-.16.52-.07-.78.09.79-.08.93-.09,1.47-.14,2.95-.24,4.43-.3.67-.03,1.35-.05,2.02-.06-1.02.02.32,0,.44,0,.54,0,1.08,0,1.62.01,11.73.19,23.44,2.71,34.58,7.21,11.54,4.66,22.29,11.26,31.72,19.37,20.19,17.37,33.18,41.77,40.1,67.24,3.6,13.23,5.63,26.86,6.38,40.54.72,12.97.49,26.13-1.35,39.01-1.68,11.75-4.83,23.51-10.54,33.98-2.68,4.91-5.94,9.57-9.93,13.51-1.99,1.97-4.14,3.72-6.41,5.36-1.01.73.56-.35-.48.33-.22.14-.43.28-.65.42-.66.42-1.32.82-2,1.2-.62.35-1.24.68-1.87,1.01-1.36.71.74-.31-.65.32-.5.23-1,.46-1.51.67-.36.15-.73.3-1.09.45-1.43.6.98-.32-.48.19-.74.26-1.48.51-2.23.74-.22.07-1.71.56-.35.11-.44.14-.91.24-1.36.35-.3.07-.61.15-.91.22-.26.06-2.26.53-.82.19-.76.18-1.55.28-2.32.4-.47.07-.93.14-1.4.2-.12.02-1.68.2-.52.07-1.81.2-3.64.33-5.46.41-.4.02-.8.03-1.2.04.05,0-1.52.04-.74.02-.8.01-1.61,0-2.41,0-1.94-.02-3.87-.09-5.8-.19-3.56-.19-7.11-.51-10.65-.89-13.92-1.5-27.88-3.33-41.62-6.01s-27.09-6.34-39.56-12.43c-11.4-5.57-21.73-13.11-30.12-22.66-15.48-17.63-23.8-40.92-25.52-64.13-.87-11.8-.1-23.79,2.47-35.35s7.31-23.59,13.27-34.36c12.33-22.25,30.41-40.84,51.13-55.43,4.78-3.36,9.87-6.58,15.13-9.61,2.72-1.57,5.48-3.07,8.27-4.51,1.39-.72,2.79-1.43,4.2-2.12-.69.34-.03.02.09-.04.38-.18.77-.37,1.15-.55.77-.37,1.54-.73,2.32-1.08.86-.4,3.83-2.04,1.46-2.66s-5.63.28-7.7,1.23h0Z"/>
        <path d="M967.27,756.93c12.53-48.25,30.48-95.03,53.16-139.41,22.63-44.3,49.95-86.14,81.17-124.86,31.23-38.72,66.32-74.38,104.66-106.09,38.22-31.61,79.59-59.42,123.41-82.68,43.82-23.26,90.22-41.87,138.05-55.07,5.65-1.56,11.33-3.03,17.02-4.43,2.11-.52,5.03-2.07,4.03-4.74-.92-2.44-4.68-3.37-6.96-2.8-49.11,12.13-96.79,29.67-142.09,52.19-45.04,22.39-87.71,49.39-127.24,80.49s-75.97,66.12-108.54,104.46c-32.5,38.27-61.16,79.84-85.24,123.9-24.13,44.16-43.59,90.9-57.55,139.25-1.69,5.84-3.29,11.71-4.82,17.6-.68,2.63,1.51,4.35,3.91,4.84,2.04.42,6.35-.02,7.03-2.63h0Z"/>
        <path d="M996.48,828.66h72.07c23.93,0,47.86,0,71.79,0,13.5,0,27,0,40.5,0,1.93,0,5.15-1.37,4.39-3.81-.81-2.58-4.49-3.12-6.71-3.12h-72.07c-23.93,0-47.86,0-71.79,0h-40.5c-1.93,0-5.15,1.37-4.39,3.81.81,2.58,4.49,3.12,6.71,3.12h0Z"/>
        <path d="M1547.63,1591.9c18.55-1.31,37.1-2.61,55.65-3.92,5.26-.37,10.52-.74,15.78-1.11,2.53-.18,5.58-2.51,6.06-5.06.53-2.82-2.13-3.6-4.35-3.45-18.55,1.31-37.1,2.61-55.65,3.92-5.26.37-10.52.74-15.78,1.11-2.53.18-5.58,2.51-6.06,5.06-.53,2.82,2.13,3.6,4.35,3.45h0Z"/>
        <path d="M1604.53,1776.19c-18.2-1.51-37.06,4.1-51.59,15.14-15.07,11.44-25.11,28.25-28.44,46.86-1.91,10.65-1.48,21.55,1.09,32.04.65,2.65,4.03,4.91,6.71,4.04,3.01-.97,3.86-3.85,3.17-6.68-.12-.5-.24-1.01-.36-1.51-.04-.18-.25-1.1-.09-.37.15.68,0-.05-.03-.16-.2-1.09-.39-2.18-.55-3.28-.3-2.12-.5-4.25-.6-6.39-.05-1.03-.08-2.06-.08-3.1,0-.52,0-1.03.01-1.55,0-.22.01-.44.01-.66.03-1.43-.05.67,0-.15.12-2.14.3-4.27.6-6.39.29-2.12.68-4.23,1.16-6.32.23-1.01.48-2.01.76-3.01.14-.5.28-.99.43-1.49-.02.07-.26.81-.07.24.12-.35.22-.7.34-1.05,1.35-4.06,3.05-8.01,5.1-11.77.49-.91,1.01-1.8,1.54-2.69.12-.2.86-1.39.58-.94-.32.5.08-.11.12-.18.21-.31.41-.61.62-.92,1.2-1.77,2.49-3.48,3.86-5.13s2.79-3.19,4.29-4.68c.67-.67,1.36-1.32,2.06-1.96.43-.39.87-.78,1.3-1.16-.84.74.4-.32.64-.52,3.28-2.67,6.79-5.04,10.49-7.09,1.79-.99,3.62-1.89,5.47-2.74.91-.41.13-.06-.05.02.2-.08.4-.17.6-.25.47-.2.94-.39,1.42-.57,1.02-.4,2.04-.78,3.08-1.13,4.49-1.54,9.11-2.58,13.81-3.25.21-.03.98-.11-.03,0,.29-.03.58-.06.87-.09.58-.06,1.16-.11,1.74-.15,1.23-.09,2.47-.15,3.71-.18,2.41-.05,4.81.03,7.21.23,2.85.24,5.1-2.73,4.79-5.41-.36-3.04-2.61-5.37-5.67-5.62h0Z"/>
      </g>
      <g>
        <path d="M171.43,1275.76c-1.44-66.5,12.23-133.33,41.01-193.39,27.02-56.37,67.32-105.9,116.27-144.7s104.73-65.83,164.75-79.44c61.52-13.95,126.19-13.4,187.61.8,60.3,13.94,117.29,40.99,165.65,79.68,45.62,36.5,83.36,82.69,110.89,134.17,27.68,51.77,45.1,109.07,49.82,167.64,4.86,60.33-3.76,121.52-23.86,178.55-20.15,57.18-51.92,110.34-93.33,154.68-42.65,45.67-96.7,83.94-158.17,98.66-15.14,3.63-30.61,5.62-46.18,5.95-.64.01-2.67.1-2.79,1.05-1.56,11.96-3.11,23.92-4.67,35.88-1.05,8.06-2.1,16.13-3.15,24.19-.57,4.4-.87,9.03-2.05,13.33-1.64,6-5.1,11.4-9.8,15.47-5.72,4.96-12.28,6.64-19.64,7.37-17.39,1.72-34.78,3.44-52.17,5.17-8.45.84-17.87,2.92-26.32,1.49-7.36-1.25-12.42-6.63-15.28-13.25-4.86-11.27-4.83-24.77-6.19-36.83-5.97-52.87-12.63-105.67-19.34-158.45-1.48-11.66-4.56-23.89.85-35,2.56-5.26,6.61-9.9,11.52-13.08,5.96-3.86,12.15-4.79,19.11-4.91,27.82-.5,55.62-3.41,82.84-9.17,53.39-11.3,105.28-34.54,144.07-73.71,41.81-42.21,65.62-101.53,64.16-160.98-1.33-54.07-23.81-107.04-60.33-146.74-37.77-41.06-89.67-65.38-145.04-70.54-55.85-5.21-113.16,9.13-158.38,42.7-43.14,32.02-74.37,79.66-87.06,131.82-3.13,12.86-5.07,25.98-5.86,39.19l1.13-.82c.1-.02.82,0-.11.02-.75.02-1.59.3-2.33.43-2.8.5-5.61.95-8.42,1.38-10.51,1.58-21.08,2.77-31.66,3.72-39.61,3.54-79.54,3.62-119.23,1.41-20.72-1.16-41.35-3.21-62.01-5.18-.65-.06-3.82-.12-3.78,1.04.04,1.22,2.93,1.38,3.64,1.45,71.15,6.78,143.11,10.53,214.16.29,4.97-.72,9.96-1.48,14.88-2.5.32-.07,1.11-.36,1.13-.82,3.26-54.5,27.03-106.84,64.92-146.02,40.27-41.64,95.56-65.48,153.47-66.57,58.23-1.09,115.36,21.14,156.66,62.34,38.7,38.62,63.33,91.43,66.49,146.13,3.47,60.08-19.19,120.69-60.65,164.19-38.88,40.79-91.85,64.71-146.42,76.02-14.02,2.91-28.21,4.98-42.46,6.39-14.06,1.38-28.19,1.04-42.23,2.24-11.13.95-21.61,6.62-27.64,16.17-6.61,10.49-5.08,21.34-3.6,32.98,6.72,52.66,13.36,105.34,19.38,158.09,1.36,11.89,1.8,24.31,4.62,35.96,2.97,12.25,10.21,21.05,23.13,22.96,6.75,1,13.54.32,20.29-.34,8.84-.87,17.69-1.75,26.53-2.63,8.84-.88,17.69-1.75,26.53-2.63,7.15-.71,14.78-.74,21.67-2.97,10.9-3.54,19.51-12.29,22.34-23.48,1.09-4.33,1.39-8.95,1.96-13.36,2.1-16.16,4.2-32.31,6.31-48.47.48-3.65.95-7.31,1.43-10.96-.93.35-1.86.7-2.79,1.05,63.99-1.33,123.69-30.42,172.25-70.72,47.89-39.74,86.29-90.74,112.93-146.88,26.41-55.64,41.53-116.68,43.11-178.29,1.55-60.26-10.36-120.38-33.81-175.86-23.26-55.03-57.7-105.38-100.9-146.68-44.47-42.51-98.01-74.63-156.37-94.06-59.7-19.88-123.57-26.93-186.16-20.5-62.26,6.4-122.55,26.87-175.82,59.71-52.88,32.61-98.76,76.78-132.58,128.95-36.61,56.48-58.52,122.05-64.69,189-1.53,16.56-2.07,33.19-1.71,49.82.04,1.9,7.46,2.08,7.42.4Z"/>
        <path d="M517.01,1527.35c-10.76,14.32-11.6,32.55-9.78,49.74,2.15,20.26,6.54,40.39,10.04,60.45,7.7,44.12,15.4,88.24,23.09,132.35,1.29,7.41,1.93,15.89,7.7,21.4,6.2,5.91,13.71,5.09,21.47,3.6,19.64-3.77,39.67-5.3,59.55-7.25,16.03-1.57,32.38-1.83,43.46-15.26,6.37-7.71,8.1-16.76,8.65-26.39,1.08-18.74,2.15-37.48,3.23-56.23l-1.03.79c59.56,2.45,116.12-23.88,162.64-59.22,48.97-37.2,90.4-85.87,119.48-140.06,30.9-57.6,44.8-123.17,44.03-188.31-.77-64.9-15.72-129.34-42.3-188.48-25.11-55.86-60.34-107.12-104.06-150.05-45.48-44.67-100.16-79.65-160.12-101.42-61.57-22.36-128.36-31.04-193.47-22.79-60.75,7.69-119.37,30.04-170.23,64.06-51.75,34.61-95.01,81.08-125.09,135.63-31.01,56.23-48.32,120.07-49.75,184.28-.35,15.76.29,31.52,1.84,47.21.22,2.23,3.19,4.17,5.29,4.28,24.26,1.28,48.52,2.56,72.78,3.84,38.33,2.02,76.66,4.04,114.99,6.06,8.9.47,17.8.94,26.7,1.41.36.02.65-.1.89-.36,14.13-33.62,29.07-67,45.85-99.39s36.33-68.16,66.87-90.62c57.7-42.44,139.82-44.16,204.71-18.69,32.56,12.78,62.36,32.78,85.67,58.94,25.06,28.12,42.82,62.37,52.4,98.74,9.77,37.09,11.88,77.76,1.03,114.85-10.61,36.32-35.46,64.48-66.49,85.21-32.18,21.51-68.87,36.58-104.97,50.08-39.17,14.65-79.44,26.37-120.35,35.05-10.77,2.28-21.59,4.35-32.45,6.21-3.02.52,2.18,5.43,4.26,5.07,62.03-10.65,122.82-28.06,180.98-52.13,49.12-20.33,103.03-45.45,131.23-93.06,28.76-48.57,25.65-111.89,8.45-163.87-16.82-50.83-49.86-95.65-94.59-125.29-42.04-27.85-92.63-42.78-143.1-41.37-26.16.73-52.4,5.85-76.65,15.77-26.77,10.94-49.53,28.08-66.96,51.19-16.74,22.19-29.97,47.12-42.34,71.93s-23.67,49.82-34.53,75.16c-1.17,2.74-2.34,5.48-3.5,8.22-.2.47-1.07,3.46-.79,3.29-.32.19-1.34-.11-1.7-.09-2.82.19-5.84-.31-8.66-.46-11.16-.59-22.31-1.18-33.47-1.76-32.43-1.71-64.85-3.42-97.28-5.13-23.17-1.22-46.35-2.44-69.52-3.66-1.24-.07-2.47-.13-3.71-.2,1.76,1.43,3.52,2.86,5.29,4.28-6.28-63.17,3.12-127.61,26.72-186.52,23.03-57.49,59.49-109.02,106.34-149.55,45.57-39.42,100.23-68.36,158.47-83.82,62.24-16.52,128.07-16.62,190.73-2.19,62.93,14.5,122.17,43.44,172.39,84.01,47.49,38.36,86.78,86.55,116.16,139.97,30.53,55.52,50.45,116.97,57.19,180.02,6.85,64.07.3,130.14-22.99,190.45-21.82,56.5-58.47,107.51-102.08,149.25-42.75,40.92-95.78,75.74-154.93,86.17-13.71,2.42-27.63,3.36-41.54,2.78-.48-.02-1,.26-1.03.79-.89,15.48-1.78,30.97-2.67,46.45-.33,5.76-.34,11.65-1.09,17.38-1.93,14.65-13.15,26.78-27.55,29.98-9.32,2.07-19.36,2.23-28.85,3.15-9.31.9-18.62,1.8-27.91,2.9-8.17.97-16.32,2.08-24.41,3.59-4.88.91-11.83,3.22-15.29-1.51-2.27-3.11-2.54-8.52-3.18-12.18-7.16-41.01-14.31-82.02-21.47-123.03-3.9-22.33-8.49-44.67-11.51-67.14-2.48-18.47-2.87-38.59,8.85-54.19,1.34-1.78-4.64-6.19-6.03-4.35h0Z"/>
        <path d="M600.97,1848.84c-15.88,7.34-30.66,17.39-42.51,30.33-11.37,12.42-20.07,27.44-23.39,44.07-3.1,15.52-1.61,32.08,4.69,46.64,3.09,7.14,7.38,13.78,12.76,19.42,6.02,6.3,13.41,11.08,21.4,14.51,8.7,3.74,17.93,5.99,27.23,7.61,4.65.81,9.33,1.46,14.01,2.07,4.86.63,9.72,1.29,14.61,1.68,10.42.84,21.37.23,30.94-4.37,7.51-3.62,13.33-9.57,17.19-16.92,3.73-7.1,5.7-15.04,6.77-22.94,1.16-8.65,1.26-17.5.68-26.21-1.2-18.19-5.93-36.47-15.76-51.97-4.61-7.27-10.28-13.83-17.01-19.21-6.55-5.23-13.95-9.33-21.84-12.15-16.8-6-35.56-5.16-51.61,2.73-14.41,7.09-25,19.77-32.13,33.92-7.56,15-11.89,31.8-13.76,48.44-1.05,9.31-1.15,18.86.96,28.04,2.04,8.86,6.3,16.95,12.63,23.49,13.56,14.02,33.22,19.31,51.96,21.85,5.35.72,10.73,1.28,16.1,1.82,4.7.47,9.41.92,14.13,1.16,10.08.5,20.25-.03,29.96-2.95,9.1-2.73,17.16-7.82,23.16-15.2,5.42-6.67,8.98-14.72,11.14-22.99,4.22-16.15,3.47-33.43-1.23-49.39-4.72-15.98-13.45-30.81-25.29-42.55-12.26-12.15-27.85-20.44-44.65-24.29-18.04-4.14-37.06-3.24-54.78,2.02-8.41,2.5-16.55,6.08-24,10.72-.23.14-.98.57-.88.99s.97.48,1.24.49c1.63.06,3.7-.34,5.11-1.22,1.85-1.15,3.74-2.24,5.67-3.26.42-.22.84-.44,1.26-.65.25-.13.51-.25.76-.38.84-.42-.52.24.33-.16.94-.44,1.88-.88,2.84-1.3s1.91-.82,2.88-1.2c.48-.19.97-.37,1.45-.56.53-.21-.77.28.09-.04.36-.13.71-.26,1.07-.38.98-.35,1.97-.68,2.96-.99.45-.14.9-.28,1.36-.42.27-.08.54-.16.82-.24.15-.04,1.1-.33.14-.04,2.08-.63,4.22-1.09,6.35-1.53.18-.04.37-.08.56-.11-.99.18-.03,0,.15-.02.51-.1,1.02-.19,1.54-.28,1.07-.18,2.15-.35,3.23-.5.56-.08,1.13-.15,1.69-.22.19-.02.38-.04.56-.07-.83.1.12-.01.24-.02,1.13-.12,2.26-.22,3.4-.29.99-.07,1.99-.12,2.98-.16.52-.02,1.04-.04,1.56-.05-.06,0,.88-.02.47-.01-.2,0-.13,0,.18,0,.19,0,.38,0,.57,0,16.83-.07,33.72,4.17,48.36,12.77,14.06,8.27,25.6,20.42,33.62,34.59s12.52,29.97,12.93,46.09c.41,16.29-3.26,33.88-13.75,46.78-1.29,1.59-2.7,3.08-4.22,4.46-1.38,1.26-3.12,2.63-4.5,3.55-.91.6-1.84,1.15-2.8,1.68-.44.24-.88.47-1.32.69.5-.25-.37.17-.38.18-.31.15-.63.29-.95.43-.5.22-1,.42-1.5.62-.1.04-1.02.38-.27.11-.19.07-.37.13-.56.2-.56.19-1.12.38-1.69.55-.19.06-.38.11-.57.17-.41.12-.38.11.1-.02-.19.05-.38.1-.57.15-.48.13-.96.24-1.44.36-.29.07-.58.13-.87.2-.15.03-1.14.25-.2.05-1.07.23-2.16.39-3.24.54-.3.04-.59.08-.89.12-.09.01-1.09.12-.31.04-.5.05-1,.1-1.5.15-1.21.11-2.42.18-3.63.24-.51.02-1.02.04-1.52.05-.31,0-.61.02-.92.02.54,0-.47,0-.45,0-1.13,0-2.25,0-3.38-.03-2.36-.06-4.72-.18-7.08-.34-9.8-.68-19.66-1.67-29.38-3.16-9.65-1.48-19.3-3.69-28.2-7.78-7.71-3.54-14.92-8.39-20.58-14.75-5.89-6.63-9.56-14.84-11.23-23.5-1.75-9.05-1.48-18.4-.35-27.51,1.03-8.27,2.71-16.49,5.03-24.49,4.3-14.87,10.95-29.77,21.58-41.24,2.57-2.77,5.37-5.34,8.38-7.62,1.58-1.2,2.66-1.93,4.27-2.92.79-.48,1.6-.95,2.41-1.4.37-.2.75-.4,1.12-.6.23-.12.46-.23.68-.35.31-.15.31-.15,0,0,.15-.07.31-.15.46-.22.82-.38,1.64-.75,2.47-1.09.44-.18.89-.36,1.33-.53.85-.33-.69.24.17-.06.25-.09.5-.18.76-.27.46-.16.93-.31,1.4-.46.21-.07.42-.13.64-.19.2-.06,1.05-.38.07-.03.98-.35,2.07-.54,3.09-.75.17-.04.35-.06.52-.11-1.01.26-.14.03.07,0,.43-.08.87-.15,1.3-.22.52-.08,1.04-.16,1.57-.22.03,0,.89-.1.34-.04-.51.06.51-.05.61-.06.96-.09,1.93-.16,2.9-.2.44-.02.88-.03,1.32-.04-.66.01.21,0,.29,0,.35,0,.7,0,1.06,0,7.66.13,15.32,1.77,22.6,4.71s14.57,7.36,20.74,12.66c13.2,11.36,21.69,27.31,26.21,43.95,2.35,8.65,3.68,17.56,4.17,26.5.47,8.48.32,17.08-.88,25.5-1.1,7.68-3.15,15.37-6.89,22.21-1.75,3.21-3.88,6.25-6.49,8.83-1.3,1.28-2.71,2.43-4.19,3.5-.66.48.37-.23-.32.22-.14.09-.28.18-.42.27-.43.27-.86.53-1.31.78-.4.23-.81.45-1.22.66-.89.46.49-.2-.42.21-.33.15-.66.3-.99.44-.24.1-.48.19-.71.29-.93.39.64-.21-.31.12-.48.17-.97.33-1.46.48-.14.04-1.12.37-.23.07-.29.09-.59.16-.89.23-.2.05-.4.1-.6.14-.17.04-1.47.34-.53.12-.5.12-1.01.18-1.52.26-.31.05-.61.09-.92.13-.08.01-1.1.13-.34.05-1.19.13-2.38.22-3.57.27-.26.01-.52.02-.78.03.03,0-1,.02-.48.02-.52,0-1.05,0-1.57,0-1.27-.01-2.53-.06-3.79-.13-2.33-.13-4.65-.34-6.96-.58-9.1-.98-18.22-2.18-27.2-3.93-8.88-1.73-17.71-4.14-25.86-8.13-7.45-3.64-14.21-8.57-19.69-14.81-10.12-11.52-15.56-26.75-16.68-41.92-.57-7.72-.07-15.55,1.62-23.11,1.75-7.86,4.78-15.42,8.68-22.46,8.06-14.54,19.88-26.7,33.42-36.23,3.12-2.2,6.45-4.3,9.89-6.28,1.78-1.02,3.58-2.01,5.41-2.95.91-.47,1.82-.93,2.74-1.38-.45.22-.02.01.06-.03.25-.12.5-.24.75-.36.5-.24,1.01-.48,1.51-.71.56-.26,2.51-1.33.95-1.74s-3.68.18-5.03.81h0Z"/>
        <path d="M202.52,1216.25c8.19-31.54,19.92-62.12,34.75-91.13,14.79-28.96,32.65-56.31,53.06-81.62,20.41-25.31,43.35-48.62,68.41-69.34s52.03-38.84,80.67-54.04c28.64-15.2,58.97-27.37,90.23-36,3.69-1.02,7.41-1.98,11.13-2.9,1.38-.34,3.29-1.35,2.63-3.1-.6-1.6-3.06-2.2-4.55-1.83-32.1,7.93-63.27,19.39-92.88,34.11-29.44,14.63-57.33,32.28-83.17,52.61s-49.66,43.22-70.94,68.28c-21.25,25.01-39.98,52.19-55.72,80.99-15.77,28.87-28.49,59.41-37.62,91.02-1.1,3.82-2.15,7.65-3.15,11.5-.45,1.72.99,2.84,2.56,3.16,1.33.27,4.15-.02,4.59-1.72h0Z"/>
        <path d="M221.61,1263.14h47.11c15.64,0,31.28,0,46.92,0,8.82,0,17.65,0,26.47,0,1.26,0,3.37-.89,2.87-2.49-.53-1.69-2.93-2.04-4.38-2.04h-120.51c-1.26,0-3.37.89-2.87,2.49.53,1.69,2.93,2.04,4.38,2.04h0Z"/>
        <path d="M581.87,1762.03c12.12-.85,24.25-1.71,36.37-2.56,3.44-.24,6.88-.48,10.32-.73,1.65-.12,3.65-1.64,3.96-3.31.34-1.84-1.39-2.36-2.84-2.25-12.12.85-24.25,1.71-36.37,2.56-3.44.24-6.88.48-10.32.73-1.65.12-3.65,1.64-3.96,3.31-.34,1.84,1.39,2.36,2.84,2.25h0Z"/>
        <path d="M619.07,1882.49c-11.9-.99-24.22,2.68-33.72,9.89-9.85,7.48-16.42,18.46-18.59,30.63-1.25,6.96-.97,14.08.71,20.94.42,1.73,2.63,3.21,4.39,2.64,1.97-.64,2.52-2.51,2.07-4.36-.08-.33-.16-.66-.23-.99-.03-.12-.16-.72-.06-.24.1.45,0-.03-.02-.1-.13-.71-.26-1.42-.36-2.14-.2-1.38-.33-2.78-.4-4.18-.03-.67-.05-1.35-.05-2.02,0-.34,0-.68,0-1.01,0-.14,0-.29,0-.43.02-.93-.03.44,0-.1.08-1.4.2-2.79.39-4.18s.45-2.77.76-4.13c.15-.66.32-1.31.5-1.97.09-.33.19-.65.28-.97-.01.04-.17.53-.05.16.08-.23.15-.46.22-.69.88-2.66,1.99-5.24,3.33-7.69.32-.59.66-1.18,1.01-1.76.08-.13.57-.91.38-.61-.21.33.05-.08.08-.12.13-.2.27-.4.4-.6.79-1.16,1.63-2.28,2.52-3.35s1.82-2.09,2.8-3.06c.44-.44.89-.86,1.34-1.28.28-.26.57-.51.85-.76-.55.48.26-.21.42-.34,2.14-1.74,4.44-3.29,6.86-4.63,1.17-.65,2.36-1.24,3.58-1.79.59-.27.09-.04-.03.01.13-.06.26-.11.4-.17.31-.13.62-.25.93-.38.67-.26,1.34-.51,2.01-.74,2.94-1,5.95-1.69,9.03-2.12.13-.02.64-.07-.02,0,.19-.02.38-.04.57-.06.38-.04.76-.07,1.14-.1.81-.06,1.62-.1,2.42-.12,1.57-.03,3.14.02,4.71.15,1.87.15,3.34-1.78,3.13-3.54-.24-1.99-1.71-3.51-3.71-3.67h0Z"/>
      </g>
      <g>
        <path d="M2291.35,1275.76c-1.44-66.5,12.23-133.33,41.01-193.39,27.02-56.37,67.32-105.9,116.27-144.7,48.2-38.2,104.73-65.83,164.75-79.44s126.19-13.4,187.61.8c60.3,13.94,117.29,40.99,165.65,79.68,45.62,36.5,83.36,82.69,110.89,134.17,27.68,51.77,45.1,109.07,49.82,167.64,4.86,60.33-3.76,121.52-23.86,178.55-20.15,57.18-51.92,110.34-93.33,154.68-42.65,45.67-96.7,83.94-158.17,98.66-15.14,3.63-30.61,5.62-46.18,5.95-.64.01-2.67.1-2.79,1.05-1.56,11.96-3.11,23.92-4.67,35.88-1.05,8.06-2.1,16.13-3.15,24.19-.57,4.4-.87,9.03-2.05,13.33-1.64,6-5.1,11.4-9.8,15.47-5.72,4.96-12.28,6.64-19.64,7.37-17.39,1.72-34.78,3.44-52.17,5.17-8.45.84-17.87,2.92-26.32,1.49-7.36-1.25-12.42-6.63-15.28-13.25-4.86-11.27-4.83-24.77-6.19-36.83-5.97-52.87-12.63-105.67-19.34-158.45-1.48-11.66-4.56-23.89.85-35,2.56-5.26,6.61-9.9,11.52-13.08,5.96-3.86,12.15-4.79,19.11-4.91,27.82-.5,55.62-3.41,82.84-9.17,53.39-11.3,105.28-34.54,144.07-73.71,41.81-42.21,65.62-101.53,64.16-160.98-1.33-54.07-23.81-107.04-60.33-146.74-37.77-41.06-89.67-65.38-145.04-70.54-55.85-5.21-113.16,9.13-158.38,42.7-43.14,32.02-74.37,79.66-87.06,131.82-3.13,12.86-5.07,25.98-5.86,39.19l1.13-.82c.1-.02.82,0-.11.02-.75.02-1.59.3-2.33.43-2.8.5-5.61.95-8.42,1.38-10.51,1.58-21.08,2.77-31.66,3.72-39.61,3.54-79.54,3.62-119.23,1.41-20.72-1.16-41.35-3.21-62.01-5.18-.65-.06-3.82-.12-3.78,1.04.04,1.22,2.93,1.38,3.64,1.45,71.15,6.78,143.11,10.53,214.16.29,4.97-.72,9.96-1.48,14.88-2.5.32-.07,1.11-.36,1.13-.82,3.26-54.5,27.03-106.84,64.92-146.02,40.27-41.64,95.56-65.48,153.47-66.57,58.23-1.09,115.36,21.14,156.66,62.34,38.7,38.62,63.33,91.43,66.49,146.13,3.47,60.08-19.19,120.69-60.65,164.19-38.88,40.79-91.85,64.71-146.42,76.02-14.02,2.91-28.21,4.98-42.46,6.39-14.06,1.38-28.19,1.04-42.23,2.24-11.13.95-21.61,6.62-27.64,16.17-6.61,10.49-5.08,21.34-3.6,32.98,6.72,52.66,13.36,105.34,19.38,158.09,1.36,11.89,1.8,24.31,4.62,35.96,2.97,12.25,10.21,21.05,23.13,22.96,6.75,1,13.54.32,20.29-.34,8.84-.87,17.69-1.75,26.53-2.63,8.84-.88,17.69-1.75,26.53-2.63,7.15-.71,14.78-.74,21.67-2.97,10.9-3.54,19.51-12.29,22.34-23.48,1.09-4.33,1.39-8.95,1.96-13.36,2.1-16.16,4.2-32.31,6.31-48.47.48-3.65.95-7.31,1.43-10.96-.93.35-1.86.7-2.79,1.05,63.99-1.33,123.69-30.42,172.25-70.72,47.89-39.74,86.29-90.74,112.93-146.88,26.41-55.64,41.53-116.68,43.11-178.29,1.55-60.26-10.36-120.38-33.81-175.86-23.26-55.03-57.7-105.38-100.9-146.68-44.47-42.51-98.01-74.63-156.37-94.06-59.7-19.88-123.57-26.93-186.16-20.5-62.26,6.4-122.55,26.87-175.82,59.71-52.88,32.61-98.76,76.78-132.58,128.95-36.61,56.48-58.52,122.05-64.69,189-1.53,16.56-2.07,33.19-1.71,49.82.04,1.9,7.46,2.08,7.42.4Z"/>
        <path d="M2636.93,1527.35c-10.76,14.32-11.6,32.55-9.78,49.74,2.15,20.26,6.54,40.39,10.04,60.45,7.7,44.12,15.4,88.24,23.09,132.35,1.29,7.41,1.93,15.89,7.7,21.4,6.2,5.91,13.71,5.09,21.47,3.6,19.64-3.77,39.67-5.3,59.55-7.25,16.03-1.57,32.38-1.83,43.46-15.26,6.37-7.71,8.1-16.76,8.65-26.39,1.08-18.74,2.15-37.48,3.23-56.23l-1.03.79c59.56,2.45,116.12-23.88,162.64-59.22,48.97-37.2,90.4-85.87,119.48-140.06,30.9-57.6,44.8-123.17,44.03-188.31-.77-64.9-15.72-129.34-42.3-188.48-25.11-55.86-60.34-107.12-104.06-150.05-45.48-44.67-100.16-79.65-160.12-101.42-61.57-22.36-128.36-31.04-193.47-22.79-60.75,7.69-119.37,30.04-170.23,64.06-51.75,34.61-95.01,81.08-125.09,135.63-31.01,56.23-48.32,120.07-49.75,184.28-.35,15.76.29,31.52,1.84,47.21.22,2.23,3.19,4.17,5.29,4.28,24.26,1.28,48.52,2.56,72.78,3.84,38.33,2.02,76.66,4.04,114.99,6.06,8.9.47,17.8.94,26.7,1.41.36.02.65-.1.89-.36,14.13-33.62,29.07-67,45.85-99.39,17.11-33.03,36.33-68.16,66.87-90.62,57.7-42.44,139.82-44.16,204.71-18.69,32.56,12.78,62.36,32.78,85.67,58.94,25.06,28.12,42.82,62.37,52.4,98.74,9.77,37.09,11.88,77.76,1.03,114.85-10.61,36.32-35.46,64.48-66.49,85.21-32.18,21.51-68.87,36.58-104.97,50.08-39.17,14.65-79.44,26.37-120.35,35.05-10.77,2.28-21.59,4.35-32.45,6.21-3.02.52,2.18,5.43,4.26,5.07,62.03-10.65,122.82-28.06,180.98-52.13,49.12-20.33,103.03-45.45,131.23-93.06,28.76-48.57,25.65-111.89,8.45-163.87-16.82-50.83-49.86-95.65-94.59-125.29-42.04-27.85-92.63-42.78-143.1-41.37-26.16.73-52.4,5.85-76.65,15.77-26.77,10.94-49.53,28.08-66.96,51.19-16.74,22.19-29.97,47.12-42.34,71.93s-23.67,49.82-34.53,75.16c-1.17,2.74-2.34,5.48-3.5,8.22-.2.47-1.07,3.46-.79,3.29-.32.19-1.34-.11-1.7-.09-2.82.19-5.84-.31-8.66-.46-11.16-.59-22.31-1.18-33.47-1.76-32.43-1.71-64.85-3.42-97.28-5.13-23.17-1.22-46.35-2.44-69.52-3.66-1.24-.07-2.47-.13-3.71-.2,1.76,1.43,3.52,2.86,5.29,4.28-6.28-63.17,3.12-127.61,26.72-186.52,23.03-57.49,59.49-109.02,106.34-149.55,45.57-39.42,100.23-68.36,158.47-83.82,62.24-16.52,128.07-16.62,190.73-2.19,62.93,14.5,122.17,43.44,172.39,84.01,47.49,38.36,86.78,86.55,116.16,139.97,30.53,55.52,50.45,116.97,57.19,180.02,6.85,64.07.3,130.14-22.99,190.45-21.82,56.5-58.47,107.51-102.08,149.25-42.75,40.92-95.78,75.74-154.93,86.17-13.71,2.42-27.63,3.36-41.54,2.78-.48-.02-1,.26-1.03.79-.89,15.48-1.78,30.97-2.67,46.45-.33,5.76-.34,11.65-1.09,17.38-1.93,14.65-13.15,26.78-27.55,29.98-9.32,2.07-19.36,2.23-28.85,3.15-9.31.9-18.62,1.8-27.91,2.9-8.17.97-16.32,2.08-24.41,3.59-4.88.91-11.83,3.22-15.29-1.51-2.27-3.11-2.54-8.52-3.18-12.18-7.16-41.01-14.31-82.02-21.47-123.03-3.9-22.33-8.49-44.67-11.51-67.14-2.48-18.47-2.87-38.59,8.85-54.19,1.34-1.78-4.64-6.19-6.03-4.35h0Z"/>
        <path d="M2720.89,1848.84c-15.88,7.34-30.66,17.39-42.51,30.33-11.37,12.42-20.07,27.44-23.39,44.07-3.1,15.52-1.61,32.08,4.69,46.64,3.09,7.14,7.38,13.78,12.76,19.42,6.02,6.3,13.41,11.08,21.4,14.51,8.7,3.74,17.93,5.99,27.23,7.61,4.65.81,9.33,1.46,14.01,2.07,4.86.63,9.72,1.29,14.61,1.68,10.42.84,21.37.23,30.94-4.37,7.51-3.62,13.33-9.57,17.19-16.92,3.73-7.1,5.7-15.04,6.77-22.94,1.16-8.65,1.26-17.5.68-26.21-1.2-18.19-5.93-36.47-15.76-51.97-4.61-7.27-10.28-13.83-17.01-19.21s-13.95-9.33-21.84-12.15c-16.8-6-35.56-5.16-51.61,2.73-14.41,7.09-25,19.77-32.13,33.92-7.56,15-11.89,31.8-13.76,48.44-1.05,9.31-1.15,18.86.96,28.04,2.04,8.86,6.3,16.95,12.63,23.49,13.56,14.02,33.22,19.31,51.96,21.85,5.35.72,10.73,1.28,16.1,1.82,4.7.47,9.41.92,14.13,1.16,10.08.5,20.25-.03,29.96-2.95,9.1-2.73,17.16-7.82,23.16-15.2,5.42-6.67,8.98-14.72,11.14-22.99,4.22-16.15,3.47-33.43-1.23-49.39-4.72-15.98-13.45-30.81-25.29-42.55-12.26-12.15-27.85-20.44-44.65-24.29-18.04-4.14-37.06-3.24-54.78,2.02-8.41,2.5-16.55,6.08-24,10.72-.23.14-.98.57-.88.99s.97.48,1.24.49c1.63.06,3.7-.34,5.11-1.22,1.85-1.15,3.74-2.24,5.67-3.26.42-.22.84-.44,1.26-.65.25-.13.51-.25.76-.38.84-.42-.52.24.33-.16.94-.44,1.88-.88,2.84-1.3s1.91-.82,2.88-1.2c.48-.19.97-.37,1.45-.56.53-.21-.77.28.09-.04.36-.13.71-.26,1.07-.38.98-.35,1.97-.68,2.96-.99.45-.14.9-.28,1.36-.42.27-.08.54-.16.82-.24.15-.04,1.1-.33.14-.04,2.08-.63,4.22-1.09,6.35-1.53.18-.04.37-.08.56-.11-.99.18-.03,0,.15-.02.51-.1,1.02-.19,1.54-.28,1.07-.18,2.15-.35,3.23-.5.56-.08,1.13-.15,1.69-.22.19-.02.38-.04.56-.07-.83.1.12-.01.24-.02,1.13-.12,2.26-.22,3.4-.29.99-.07,1.99-.12,2.98-.16.52-.02,1.04-.04,1.56-.05-.06,0,.88-.02.47-.01-.2,0-.13,0,.18,0,.19,0,.38,0,.57,0,16.83-.07,33.72,4.17,48.36,12.77,14.06,8.27,25.6,20.42,33.62,34.59,7.94,14.02,12.52,29.97,12.93,46.09.41,16.29-3.26,33.88-13.75,46.78-1.29,1.59-2.7,3.08-4.22,4.46-1.38,1.26-3.12,2.63-4.5,3.55-.91.6-1.84,1.15-2.8,1.68-.44.24-.88.47-1.32.69.5-.25-.37.17-.38.18-.31.15-.63.29-.95.43-.5.22-1,.42-1.5.62-.1.04-1.02.38-.27.11-.19.07-.37.13-.56.2-.56.19-1.12.38-1.69.55-.19.06-.38.11-.57.17-.41.12-.38.11.1-.02-.19.05-.38.1-.57.15-.48.13-.96.24-1.44.36-.29.07-.58.13-.87.2-.15.03-1.14.25-.2.05-1.07.23-2.16.39-3.24.54-.3.04-.59.08-.89.12-.09.01-1.09.12-.31.04-.5.05-1,.1-1.5.15-1.21.11-2.42.18-3.63.24-.51.02-1.02.04-1.52.05-.31,0-.61.02-.92.02.54,0-.47,0-.45,0-1.13,0-2.25,0-3.38-.03-2.36-.06-4.72-.18-7.08-.34-9.8-.68-19.66-1.67-29.38-3.16-9.65-1.48-19.3-3.69-28.2-7.78-7.71-3.54-14.92-8.39-20.58-14.75-5.89-6.63-9.56-14.84-11.23-23.5-1.75-9.05-1.48-18.4-.35-27.51,1.03-8.27,2.71-16.49,5.03-24.49,4.3-14.87,10.95-29.77,21.58-41.24,2.57-2.77,5.37-5.34,8.38-7.62,1.58-1.2,2.66-1.93,4.27-2.92.79-.48,1.6-.95,2.41-1.4.37-.2.75-.4,1.12-.6.23-.12.46-.23.68-.35.31-.15.31-.15,0,0,.15-.07.31-.15.46-.22.82-.38,1.64-.75,2.47-1.09.44-.18.89-.36,1.33-.53.85-.33-.69.24.17-.06.25-.09.5-.18.76-.27.46-.16.93-.31,1.4-.46.21-.07.42-.13.64-.19.2-.06,1.05-.38.07-.03.98-.35,2.07-.54,3.09-.75.17-.04.35-.06.52-.11-1.01.26-.14.03.07,0,.43-.08.87-.15,1.3-.22.52-.08,1.04-.16,1.57-.22.03,0,.89-.1.34-.04-.51.06.51-.05.61-.06.96-.09,1.93-.16,2.9-.2.44-.02.88-.03,1.32-.04-.66.01.21,0,.29,0,.35,0,.7,0,1.06,0,7.66.13,15.32,1.77,22.6,4.71s14.57,7.36,20.74,12.66c13.2,11.36,21.69,27.31,26.21,43.95,2.35,8.65,3.68,17.56,4.17,26.5.47,8.48.32,17.08-.88,25.5-1.1,7.68-3.15,15.37-6.89,22.21-1.75,3.21-3.88,6.25-6.49,8.83-1.3,1.28-2.71,2.43-4.19,3.5-.66.48.37-.23-.32.22-.14.09-.28.18-.42.27-.43.27-.86.53-1.31.78-.4.23-.81.45-1.22.66-.89.46.49-.2-.42.21-.33.15-.66.3-.99.44-.24.1-.48.19-.71.29-.93.39.64-.21-.31.12-.48.17-.97.33-1.46.48-.14.04-1.12.37-.23.07-.29.09-.59.16-.89.23-.2.05-.4.1-.6.14-.17.04-1.47.34-.53.12-.5.12-1.01.18-1.52.26-.31.05-.61.09-.92.13-.08.01-1.1.13-.34.05-1.19.13-2.38.22-3.57.27-.26.01-.52.02-.78.03.03,0-1,.02-.48.02-.52,0-1.05,0-1.57,0-1.27-.01-2.53-.06-3.79-.13-2.33-.13-4.65-.34-6.96-.58-9.1-.98-18.22-2.18-27.2-3.93-8.88-1.73-17.71-4.14-25.86-8.13-7.45-3.64-14.21-8.57-19.69-14.81-10.12-11.52-15.56-26.75-16.68-41.92-.57-7.72-.07-15.55,1.62-23.11,1.75-7.86,4.78-15.42,8.68-22.46,8.06-14.54,19.88-26.7,33.42-36.23,3.12-2.2,6.45-4.3,9.89-6.28,1.78-1.02,3.58-2.01,5.41-2.95.91-.47,1.82-.93,2.74-1.38-.45.22-.02.01.06-.03.25-.12.5-.24.75-.36.5-.24,1.01-.48,1.51-.71.56-.26,2.51-1.33.95-1.74s-3.68.18-5.03.81h0Z"/>
        <path d="M2322.44,1216.25c8.19-31.54,19.92-62.12,34.75-91.13,14.79-28.96,32.65-56.31,53.06-81.62,20.41-25.31,43.35-48.62,68.41-69.34,24.98-20.66,52.03-38.84,80.67-54.04,28.64-15.2,58.97-27.37,90.23-36,3.69-1.02,7.41-1.98,11.13-2.9,1.38-.34,3.29-1.35,2.63-3.1-.6-1.6-3.06-2.2-4.55-1.83-32.1,7.93-63.27,19.39-92.88,34.11-29.44,14.63-57.33,32.28-83.17,52.61-25.84,20.33-49.66,43.22-70.94,68.28-21.25,25.01-39.98,52.19-55.72,80.99-15.77,28.87-28.49,59.41-37.62,91.02-1.1,3.82-2.15,7.65-3.15,11.5-.45,1.72.99,2.84,2.56,3.16,1.33.27,4.15-.02,4.59-1.72h0Z"/>
        <path d="M2341.53,1263.14h47.11c15.64,0,31.28,0,46.92,0,8.82,0,17.65,0,26.47,0,1.26,0,3.37-.89,2.87-2.49-.53-1.69-2.93-2.04-4.38-2.04h-120.51c-1.26,0-3.37.89-2.87,2.49.53,1.69,2.93,2.04,4.38,2.04h0Z"/>
        <path d="M2701.79,1762.03c12.12-.85,24.25-1.71,36.37-2.56,3.44-.24,6.88-.48,10.32-.73,1.65-.12,3.65-1.64,3.96-3.31.34-1.84-1.39-2.36-2.84-2.25-12.12.85-24.25,1.71-36.37,2.56-3.44.24-6.88.48-10.32.73-1.65.12-3.65,1.64-3.96,3.31-.34,1.84,1.39,2.36,2.84,2.25h0Z"/>
        <path d="M2738.99,1882.49c-11.9-.99-24.22,2.68-33.72,9.89-9.85,7.48-16.42,18.46-18.59,30.63-1.25,6.96-.97,14.08.71,20.94.42,1.73,2.63,3.21,4.39,2.64,1.97-.64,2.52-2.51,2.07-4.36-.08-.33-.16-.66-.23-.99-.03-.12-.16-.72-.06-.24.1.45,0-.03-.02-.1-.13-.71-.26-1.42-.36-2.14-.2-1.38-.33-2.78-.4-4.18-.03-.67-.05-1.35-.05-2.02,0-.34,0-.68,0-1.01,0-.14,0-.29,0-.43.02-.93-.03.44,0-.1.08-1.4.2-2.79.39-4.18s.45-2.77.76-4.13c.15-.66.32-1.31.5-1.97.09-.33.19-.65.28-.97-.01.04-.17.53-.05.16.08-.23.15-.46.22-.69.88-2.66,1.99-5.24,3.33-7.69.32-.59.66-1.18,1.01-1.76.08-.13.57-.91.38-.61-.21.33.05-.08.08-.12.13-.2.27-.4.4-.6.79-1.16,1.63-2.28,2.52-3.35.88-1.06,1.82-2.09,2.8-3.06.44-.44.89-.86,1.34-1.28.28-.26.57-.51.85-.76-.55.48.26-.21.42-.34,2.14-1.74,4.44-3.29,6.86-4.63,1.17-.65,2.36-1.24,3.58-1.79.59-.27.09-.04-.03.01.13-.06.26-.11.4-.17.31-.13.62-.25.93-.38.67-.26,1.34-.51,2.01-.74,2.94-1,5.95-1.69,9.03-2.12.13-.02.64-.07-.02,0,.19-.02.38-.04.57-.06.38-.04.76-.07,1.14-.1.81-.06,1.62-.1,2.42-.12,1.57-.03,3.14.02,4.71.15,1.87.15,3.34-1.78,3.13-3.54-.24-1.99-1.71-3.51-3.71-3.67h0Z"/>
      </g>
    </g>
  </g>
</svg>