<svg width="115" height="127" viewBox="0 0 115 127" fill="none" xmlns="http://www.w3.org/2000/svg">
<g filter="url(#filter0_d_1557_325)">
<path d="M10.1748 59.5139C10.0153 53.1568 11.1115 46.8315 13.399 40.9098C15.6865 34.988 19.1192 29.5893 23.4954 25.0307C27.8715 20.4722 33.1028 16.8458 38.8819 14.3648C44.661 11.8837 50.8712 10.598 57.1477 10.5831C63.4242 10.5683 69.6403 11.8247 75.4307 14.2784C81.2212 16.7321 86.4691 20.3338 90.8662 24.8716C95.2633 29.4094 98.7208 34.7919 101.036 40.7028C103.35 46.6137 104.476 52.9337 104.345 59.2914L102.647 59.2557C102.773 53.1272 101.688 47.0351 99.4568 41.3374C97.2255 35.6397 93.8927 30.4513 89.6542 26.0771C85.4157 21.7029 80.357 18.2312 74.7754 15.866C69.1938 13.5007 63.2018 12.2897 57.1517 12.304C51.1015 12.3183 45.1153 13.5576 39.5446 15.9492C33.9739 18.3408 28.9312 21.8364 24.7129 26.2305C20.4946 30.6247 17.1857 35.8288 14.9807 41.537C12.7756 47.2452 11.719 53.3423 11.8727 59.4702L10.1748 59.5139Z" fill="black"/>
</g>
<path d="M9.00153 58.5C9.00153 71.6282 14.0856 84.2187 23.1354 93.5018C32.1852 102.785 44.4593 108 57.2576 108C70.0559 108 82.33 102.785 91.3798 93.5018C100.43 84.2187 105.514 71.6282 105.514 58.5L101.551 58.5C101.551 70.5502 96.8845 82.1068 88.5778 90.6276C80.2712 99.1484 69.005 103.935 57.2576 103.935C45.5102 103.935 34.244 99.1483 25.9374 90.6276C17.6307 82.1068 12.9641 70.5502 12.9641 58.5H9.00153Z" fill="#E1E1E1"/>
<path d="M29.6743 59V51.7273H34.4044V52.8317H30.9918V54.8061H34.1594V55.9105H30.9918V57.8956H34.4328V59H29.6743ZM36.9772 55.804V59H35.6917V53.5455H36.9204V54.4723H36.9843C37.1098 54.1669 37.3098 53.9242 37.5844 53.7443C37.8614 53.5644 38.2035 53.4744 38.6107 53.4744C38.9871 53.4744 39.315 53.5549 39.5944 53.7159C39.8761 53.8769 40.0939 54.1101 40.2478 54.4155C40.404 54.7209 40.481 55.0914 40.4786 55.527V59H39.1931V55.7259C39.1931 55.3613 39.0984 55.076 38.909 54.87C38.722 54.6641 38.4628 54.5611 38.1313 54.5611C37.9064 54.5611 37.7064 54.6108 37.5312 54.7102C37.3584 54.8073 37.2222 54.9482 37.1228 55.1328C37.0257 55.3175 36.9772 55.5412 36.9772 55.804ZM43.8096 59.0959C43.3811 59.0959 42.9976 58.9858 42.659 58.7656C42.3205 58.5455 42.053 58.2259 41.8565 57.8068C41.66 57.3878 41.5617 56.8788 41.5617 56.2798C41.5617 55.6738 41.6611 55.1624 41.86 54.7457C42.0612 54.3267 42.3323 54.0107 42.6732 53.7976C43.0141 53.5821 43.3941 53.4744 43.8131 53.4744C44.1327 53.4744 44.3955 53.5289 44.6015 53.6378C44.8075 53.7443 44.9708 53.8733 45.0915 54.0249C45.2123 54.174 45.3058 54.3149 45.3721 54.4474H45.4254V51.7273H46.7144V59H45.4502V58.1406H45.3721C45.3058 58.2732 45.2099 58.4141 45.0844 58.5632C44.959 58.71 44.7933 58.8355 44.5873 58.9396C44.3813 59.0438 44.1221 59.0959 43.8096 59.0959ZM44.1683 58.0412C44.4405 58.0412 44.6725 57.9678 44.8643 57.821C45.056 57.6719 45.2016 57.4647 45.3011 57.1996C45.4005 56.9344 45.4502 56.6255 45.4502 56.2727C45.4502 55.92 45.4005 55.6134 45.3011 55.353C45.204 55.0926 45.0596 54.8902 44.8678 54.7457C44.6784 54.6013 44.4452 54.5291 44.1683 54.5291C43.8818 54.5291 43.6427 54.6037 43.4509 54.7528C43.2592 54.902 43.1147 55.108 43.0177 55.3707C42.9206 55.6335 42.8721 55.9342 42.8721 56.2727C42.8721 56.6136 42.9206 56.9179 43.0177 57.1854C43.1171 57.4505 43.2627 57.66 43.4545 57.8139C43.6486 57.9654 43.8865 58.0412 44.1683 58.0412ZM51.3904 55.4418V56.5H48.1162V55.4418H51.3904ZM55.4662 53.5455V54.5398H52.3305V53.5455H55.4662ZM53.1047 52.2386H54.3902V57.3594C54.3902 57.5322 54.4162 57.6648 54.4683 57.7571C54.5228 57.8471 54.5938 57.9086 54.6814 57.9418C54.769 57.9749 54.866 57.9915 54.9726 57.9915C55.0531 57.9915 55.1265 57.9856 55.1928 57.9737C55.2614 57.9619 55.3135 57.9512 55.349 57.9418L55.5656 58.9467C55.497 58.9704 55.3987 58.9964 55.2709 59.0249C55.1454 59.0533 54.9915 59.0698 54.8092 59.0746C54.4873 59.084 54.1973 59.0355 53.9392 58.929C53.6812 58.8201 53.4764 58.652 53.3249 58.4247C53.1757 58.1974 53.1023 57.9134 53.1047 57.5724V52.2386ZM58.862 59.1065C58.3293 59.1065 57.8676 58.9893 57.477 58.755C57.0864 58.5206 56.7834 58.1927 56.5679 57.7713C56.3549 57.3499 56.2483 56.8575 56.2483 56.294C56.2483 55.7306 56.3549 55.237 56.5679 54.8132C56.7834 54.3894 57.0864 54.0604 57.477 53.826C57.8676 53.5916 58.3293 53.4744 58.862 53.4744C59.3946 53.4744 59.8563 53.5916 60.2469 53.826C60.6375 54.0604 60.9394 54.3894 61.1524 54.8132C61.3679 55.237 61.4756 55.7306 61.4756 56.294C61.4756 56.8575 61.3679 57.3499 61.1524 57.7713C60.9394 58.1927 60.6375 58.5206 60.2469 58.755C59.8563 58.9893 59.3946 59.1065 58.862 59.1065ZM58.8691 58.0767C59.1579 58.0767 59.3994 57.9974 59.5935 57.8388C59.7876 57.6778 59.932 57.4624 60.0267 57.1925C60.1238 56.9226 60.1723 56.6219 60.1723 56.2905C60.1723 55.9567 60.1238 55.6548 60.0267 55.3849C59.932 55.1127 59.7876 54.8961 59.5935 54.7351C59.3994 54.5741 59.1579 54.4936 58.8691 54.4936C58.5731 54.4936 58.3269 54.5741 58.1304 54.7351C57.9363 54.8961 57.7907 55.1127 57.6936 55.3849C57.5989 55.6548 57.5516 55.9567 57.5516 56.2905C57.5516 56.6219 57.5989 56.9226 57.6936 57.1925C57.7907 57.4624 57.9363 57.6778 58.1304 57.8388C58.3269 57.9974 58.5731 58.0767 58.8691 58.0767ZM65.8728 55.4418V56.5H62.5986V55.4418H65.8728ZM67.2817 59V51.7273H72.0118V52.8317H68.5992V54.8061H71.7668V55.9105H68.5992V57.8956H72.0402V59H67.2817ZM74.5846 55.804V59H73.2991V53.5455H74.5278V54.4723H74.5917C74.7172 54.1669 74.9172 53.9242 75.1919 53.7443C75.4689 53.5644 75.8109 53.4744 76.2181 53.4744C76.5946 53.4744 76.9225 53.5549 77.2018 53.7159C77.4835 53.8769 77.7013 54.1101 77.8552 54.4155C78.0115 54.7209 78.0884 55.0914 78.086 55.527V59H76.8005V55.7259C76.8005 55.3613 76.7058 55.076 76.5164 54.87C76.3294 54.6641 76.0702 54.5611 75.7387 54.5611C75.5138 54.5611 75.3138 54.6108 75.1386 54.7102C74.9658 54.8073 74.8297 54.9482 74.7302 55.1328C74.6332 55.3175 74.5846 55.5412 74.5846 55.804ZM81.417 59.0959C80.9885 59.0959 80.605 58.9858 80.2664 58.7656C79.9279 58.5455 79.6604 58.2259 79.4639 57.8068C79.2674 57.3878 79.1691 56.8788 79.1691 56.2798C79.1691 55.6738 79.2686 55.1624 79.4674 54.7457C79.6687 54.3267 79.9397 54.0107 80.2806 53.7976C80.6216 53.5821 81.0015 53.4744 81.4206 53.4744C81.7402 53.4744 82.0029 53.5289 82.2089 53.6378C82.4149 53.7443 82.5782 53.8733 82.699 54.0249C82.8197 54.174 82.9132 54.3149 82.9795 54.4474H83.0328V51.7273H84.3218V59H83.0576V58.1406H82.9795C82.9132 58.2732 82.8173 58.4141 82.6919 58.5632C82.5664 58.71 82.4007 58.8355 82.1947 58.9396C81.9887 59.0438 81.7295 59.0959 81.417 59.0959ZM81.7757 58.0412C82.0479 58.0412 82.2799 57.9678 82.4717 57.821C82.6635 57.6719 82.8091 57.4647 82.9085 57.1996C83.0079 56.9344 83.0576 56.6255 83.0576 56.2727C83.0576 55.92 83.0079 55.6134 82.9085 55.353C82.8114 55.0926 82.667 54.8902 82.4752 54.7457C82.2859 54.6013 82.0527 54.5291 81.7757 54.5291C81.4892 54.5291 81.2501 54.6037 81.0583 54.7528C80.8666 54.902 80.7222 55.108 80.6251 55.3707C80.528 55.6335 80.4795 55.9342 80.4795 56.2727C80.4795 56.6136 80.528 56.9179 80.6251 57.1854C80.7245 57.4505 80.8701 57.66 81.0619 57.8139C81.256 57.9654 81.4939 58.0412 81.7757 58.0412ZM33.7807 72V64.7273H38.5108V65.8317H35.0982V67.8061H38.2658V68.9105H35.0982V70.8956H38.5393V72H33.7807ZM40.8493 66.5455L41.9501 68.5589L43.0687 66.5455H44.4288L42.7846 69.2727L44.4572 72H43.1042L41.9501 70.0362L40.8067 72H39.443L41.105 69.2727L39.4856 66.5455H40.8493ZM47.6328 72.1065C47.086 72.1065 46.6137 71.9929 46.2159 71.7656C45.8206 71.536 45.5164 71.2116 45.3033 70.7926C45.0902 70.3712 44.9837 69.8752 44.9837 69.3047C44.9837 68.7436 45.0902 68.2512 45.3033 67.8274C45.5187 67.4013 45.8194 67.0698 46.2053 66.8331C46.5912 66.594 47.0445 66.4744 47.5654 66.4744C47.9015 66.4744 48.2188 66.5289 48.5171 66.6378C48.8177 66.7443 49.0829 66.91 49.3125 67.1349C49.5445 67.3598 49.7268 67.6463 49.8594 67.9943C49.992 68.34 50.0583 68.7519 50.0583 69.2301V69.6243H45.5874V68.7578H48.826C48.8236 68.5116 48.7704 68.2926 48.6662 68.1009C48.562 67.9067 48.4164 67.754 48.2294 67.6428C48.0448 67.5315 47.8293 67.4759 47.5831 67.4759C47.3203 67.4759 47.0895 67.5398 46.8906 67.6676C46.6918 67.7931 46.5367 67.9588 46.4254 68.1648C46.3165 68.3684 46.2609 68.5921 46.2585 68.8359V69.5923C46.2585 69.9096 46.3165 70.1818 46.4325 70.4091C46.5485 70.634 46.7107 70.8068 46.9191 70.9276C47.1274 71.0459 47.3712 71.1051 47.6506 71.1051C47.8376 71.1051 48.0069 71.0791 48.1584 71.027C48.3099 70.9725 48.4413 70.8932 48.5526 70.7891C48.6638 70.6849 48.7479 70.5559 48.8047 70.402L50.005 70.5369C49.9292 70.8542 49.7848 71.1312 49.5717 71.3679C49.361 71.6023 49.0912 71.7846 48.7621 71.9148C48.433 72.0426 48.0566 72.1065 47.6328 72.1065ZM53.5251 72.1065C52.9805 72.1065 52.513 71.987 52.1224 71.7479C51.7341 71.5088 51.4346 71.1785 51.2239 70.7571C51.0156 70.3333 50.9114 69.8456 50.9114 69.294C50.9114 68.7401 51.0179 68.2512 51.231 67.8274C51.4441 67.4013 51.7447 67.0698 52.133 66.8331C52.5236 66.594 52.9853 66.4744 53.5179 66.4744C53.9607 66.4744 54.3525 66.5561 54.6934 66.7195C55.0367 66.8804 55.3101 67.1089 55.5137 67.4048C55.7173 67.6984 55.8333 68.0417 55.8617 68.4347H54.633C54.5833 68.1719 54.4649 67.9529 54.2779 67.7777C54.0932 67.6001 53.8458 67.5114 53.5357 67.5114C53.2729 67.5114 53.0421 67.5824 52.8432 67.7244C52.6444 67.8641 52.4893 68.0653 52.378 68.3281C52.2691 68.5909 52.2147 68.9058 52.2147 69.2727C52.2147 69.6444 52.2691 69.964 52.378 70.2315C52.4869 70.4967 52.6396 70.7015 52.8361 70.8459C53.035 70.9879 53.2682 71.0589 53.5357 71.0589C53.7251 71.0589 53.8944 71.0234 54.0435 70.9524C54.195 70.879 54.3217 70.7737 54.4235 70.6364C54.5253 70.4991 54.5951 70.3321 54.633 70.1357H55.8617C55.8309 70.5215 55.7173 70.8636 55.5208 71.1619C55.3243 71.4579 55.0568 71.6899 54.7182 71.858C54.3797 72.0237 53.982 72.1065 53.5251 72.1065ZM60.3938 69.706V66.5455H61.6793V72H60.4329V71.0305H60.3761C60.253 71.3359 60.0506 71.5857 59.7688 71.7798C59.4895 71.974 59.145 72.071 58.7355 72.071C58.378 72.071 58.0619 71.9917 57.7873 71.8331C57.515 71.6721 57.302 71.4389 57.1481 71.1335C56.9942 70.8258 56.9173 70.4541 56.9173 70.0185V66.5455H58.2028V69.8196C58.2028 70.1652 58.2975 70.4399 58.4869 70.6435C58.6763 70.8471 58.9249 70.9489 59.2326 70.9489C59.422 70.9489 59.6055 70.9027 59.783 70.8104C59.9606 70.718 60.1062 70.5807 60.2198 70.3984C60.3358 70.2138 60.3938 69.983 60.3938 69.706ZM65.725 66.5455V67.5398H62.5893V66.5455H65.725ZM63.3635 65.2386H64.649V70.3594C64.649 70.5322 64.675 70.6648 64.7271 70.7571C64.7816 70.8471 64.8526 70.9086 64.9402 70.9418C65.0278 70.9749 65.1248 70.9915 65.2314 70.9915C65.3119 70.9915 65.3853 70.9856 65.4515 70.9737C65.5202 70.9619 65.5723 70.9512 65.6078 70.9418L65.8244 71.9467C65.7558 71.9704 65.6575 71.9964 65.5297 72.0249C65.4042 72.0533 65.2503 72.0698 65.068 72.0746C64.7461 72.084 64.456 72.0355 64.198 71.929C63.9399 71.8201 63.7352 71.652 63.5836 71.4247C63.4345 71.1974 63.3611 70.9134 63.3635 70.5724V65.2386ZM66.8001 72V66.5455H68.0856V72H66.8001ZM67.4464 65.7713C67.2428 65.7713 67.0676 65.7038 66.9208 65.5689C66.774 65.4316 66.7007 65.267 66.7007 65.0753C66.7007 64.8812 66.774 64.7166 66.9208 64.5817C67.0676 64.4444 67.2428 64.3757 67.4464 64.3757C67.6524 64.3757 67.8275 64.4444 67.972 64.5817C68.1187 64.7166 68.1921 64.8812 68.1921 65.0753C68.1921 65.267 68.1187 65.4316 67.972 65.5689C67.8275 65.7038 67.6524 65.7713 67.4464 65.7713ZM71.7868 72.1065C71.2541 72.1065 70.7925 71.9893 70.4018 71.755C70.0112 71.5206 69.7082 71.1927 69.4927 70.7713C69.2797 70.3499 69.1731 69.8575 69.1731 69.294C69.1731 68.7306 69.2797 68.237 69.4927 67.8132C69.7082 67.3894 70.0112 67.0604 70.4018 66.826C70.7925 66.5916 71.2541 66.4744 71.7868 66.4744C72.3194 66.4744 72.7811 66.5916 73.1717 66.826C73.5623 67.0604 73.8642 67.3894 74.0773 67.8132C74.2927 68.237 74.4004 68.7306 74.4004 69.294C74.4004 69.8575 74.2927 70.3499 74.0773 70.7713C73.8642 71.1927 73.5623 71.5206 73.1717 71.755C72.7811 71.9893 72.3194 72.1065 71.7868 72.1065ZM71.7939 71.0767C72.0827 71.0767 72.3242 70.9974 72.5183 70.8388C72.7124 70.6778 72.8568 70.4624 72.9515 70.1925C73.0486 69.9226 73.0971 69.6219 73.0971 69.2905C73.0971 68.9567 73.0486 68.6548 72.9515 68.3849C72.8568 68.1127 72.7124 67.8961 72.5183 67.7351C72.3242 67.5741 72.0827 67.4936 71.7939 67.4936C71.4979 67.4936 71.2517 67.5741 71.0552 67.7351C70.8611 67.8961 70.7155 68.1127 70.6184 68.3849C70.5237 68.6548 70.4764 68.9567 70.4764 69.2905C70.4764 69.6219 70.5237 69.9226 70.6184 70.1925C70.7155 70.4624 70.8611 70.6778 71.0552 70.8388C71.2517 70.9974 71.4979 71.0767 71.7939 71.0767ZM76.777 68.804V72H75.4915V66.5455H76.7202V67.4723H76.7841C76.9096 67.1669 77.1096 66.9242 77.3842 66.7443C77.6612 66.5644 78.0033 66.4744 78.4105 66.4744C78.7869 66.4744 79.1148 66.5549 79.3942 66.7159C79.6759 66.8769 79.8937 67.1101 80.0476 67.4155C80.2039 67.7209 80.2808 68.0914 80.2784 68.527V72H78.9929V68.7259C78.9929 68.3613 78.8982 68.076 78.7088 67.87C78.5218 67.6641 78.2626 67.5611 77.9311 67.5611C77.7062 67.5611 77.5062 67.6108 77.331 67.7102C77.1582 67.8073 77.022 67.9482 76.9226 68.1328C76.8255 68.3175 76.777 68.5412 76.777 68.804Z" fill="#020817"/>
<g filter="url(#filter1_d_1557_325)">
<circle cx="13" cy="13" r="13" transform="matrix(-1 0 0 1 71 91)" fill="white"/>
</g>
<g filter="url(#filter2_d_1557_325)">
<circle cx="57.7285" cy="104.271" r="12.1875" fill="#FF4A4A"/>
<circle cx="57.7285" cy="104.271" r="10.6875" stroke="#FFC1C1" stroke-width="3"/>
</g>
<g clip-path="url(#clip0_1557_325)">
<path d="M63.8377 102.917C64.1359 104.435 63.9234 106.012 63.2356 107.387C62.5479 108.762 61.4265 109.85 60.0584 110.471C58.6903 111.093 57.1583 111.208 55.7178 110.8C54.2773 110.391 53.0153 109.483 52.1425 108.226C51.2696 106.97 50.8385 105.441 50.9211 103.894C51.0038 102.348 51.5951 100.878 52.5965 99.7288C53.5979 98.5798 54.9488 97.8216 56.4241 97.5806C57.8993 97.3395 59.4096 97.6303 60.7031 98.4043" stroke="white" stroke-linecap="round" stroke-linejoin="round"/>
<path d="M55.4795 103.594L57.4382 105.625L63.9672 98.8545" stroke="white" stroke-linecap="round" stroke-linejoin="round"/>
</g>
<defs>
<filter id="filter0_d_1557_325" x="0.15918" y="0.583008" width="114.196" height="68.9307" filterUnits="userSpaceOnUse" color-interpolation-filters="sRGB">
<feFlood flood-opacity="0" result="BackgroundImageFix"/>
<feColorMatrix in="SourceAlpha" type="matrix" values="0 0 0 0 0 0 0 0 0 0 0 0 0 0 0 0 0 0 127 0" result="hardAlpha"/>
<feOffset/>
<feGaussianBlur stdDeviation="5"/>
<feComposite in2="hardAlpha" operator="out"/>
<feColorMatrix type="matrix" values="0 0 0 0 0 0 0 0 0 0 0 0 0 0 0 0 0 0 0.25 0"/>
<feBlend mode="normal" in2="BackgroundImageFix" result="effect1_dropShadow_1557_325"/>
<feBlend mode="normal" in="SourceGraphic" in2="effect1_dropShadow_1557_325" result="shape"/>
</filter>
<filter id="filter1_d_1557_325" x="41" y="91" width="34" height="34" filterUnits="userSpaceOnUse" color-interpolation-filters="sRGB">
<feFlood flood-opacity="0" result="BackgroundImageFix"/>
<feColorMatrix in="SourceAlpha" type="matrix" values="0 0 0 0 0 0 0 0 0 0 0 0 0 0 0 0 0 0 127 0" result="hardAlpha"/>
<feOffset dy="4"/>
<feGaussianBlur stdDeviation="2"/>
<feComposite in2="hardAlpha" operator="out"/>
<feColorMatrix type="matrix" values="0 0 0 0 0 0 0 0 0 0 0 0 0 0 0 0 0 0 0.25 0"/>
<feBlend mode="normal" in2="BackgroundImageFix" result="effect1_dropShadow_1557_325"/>
<feBlend mode="normal" in="SourceGraphic" in2="effect1_dropShadow_1557_325" result="shape"/>
</filter>
<filter id="filter2_d_1557_325" x="35.541" y="82.084" width="44.375" height="44.375" filterUnits="userSpaceOnUse" color-interpolation-filters="sRGB">
<feFlood flood-opacity="0" result="BackgroundImageFix"/>
<feColorMatrix in="SourceAlpha" type="matrix" values="0 0 0 0 0 0 0 0 0 0 0 0 0 0 0 0 0 0 127 0" result="hardAlpha"/>
<feOffset/>
<feGaussianBlur stdDeviation="5"/>
<feComposite in2="hardAlpha" operator="out"/>
<feColorMatrix type="matrix" values="0 0 0 0 0 0 0 0 0 0 0 0 0 0 0 0 0 0 0.2 0"/>
<feBlend mode="normal" in2="BackgroundImageFix" result="effect1_dropShadow_1557_325"/>
<feBlend mode="normal" in="SourceGraphic" in2="effect1_dropShadow_1557_325" result="shape"/>
</filter>
<clipPath id="clip0_1557_325">
<rect width="15.6696" height="16.25" fill="white" transform="translate(49.6035 96.1465)"/>
</clipPath>
</defs>
</svg>
