<svg width="215" height="194" viewBox="0 0 215 194" fill="none" xmlns="http://www.w3.org/2000/svg">
<g filter="url(#filter0_d_1388_304)">
<path d="M98.4539 183.118C87.0708 183.411 75.7446 181.397 65.1409 177.196C54.5373 172.994 44.8701 166.689 36.7074 158.651C28.5447 150.613 22.0513 141.004 17.6086 130.389C13.1659 119.774 10.8637 108.367 10.8371 96.8385C10.8106 85.3099 13.0603 73.8923 17.454 63.2565C21.8477 52.6207 28.2969 42.9813 36.4224 34.9048C44.548 26.8283 54.186 20.4776 64.7702 16.2259C75.3544 11.9742 86.6712 9.90728 98.0556 10.1466L97.9917 13.2656C87.0178 13.035 76.1091 15.0274 65.9066 19.1257C55.7041 23.2241 46.4136 29.3458 38.5811 37.131C30.7486 44.9163 24.532 54.208 20.2968 64.4603C16.0615 74.7125 13.8929 85.7184 13.9185 96.8312C13.9441 107.944 16.1633 118.94 20.4458 129.172C24.7282 139.404 30.9875 148.666 38.8558 156.414C46.7241 164.162 56.0427 170.24 66.264 174.29C76.4852 178.341 87.403 180.281 98.3756 179.999L98.4539 183.118Z" fill="black"/>
</g>
<path d="M96.6361 185.272C120.144 185.272 142.689 175.934 159.311 159.311C175.934 142.689 185.272 120.144 185.272 96.6361C185.272 73.1284 175.934 50.5834 159.311 33.9609C142.689 17.3384 120.144 8 96.6361 8V15.2784C118.214 15.2784 138.907 23.85 154.165 39.1076C169.422 54.3651 177.994 75.0587 177.994 96.6361C177.994 118.214 169.422 138.907 154.165 154.165C138.907 169.422 118.214 177.994 96.6361 177.994V185.272Z" fill="#E1E1E1"/>
<g filter="url(#filter1_d_1388_304)">
<circle cx="182.5" cy="100.5" r="26.5" fill="white"/>
</g>
<path d="M44.6672 81V68.6364H46.9069V73.8704H52.636V68.6364H54.8817V81H52.636V75.7479H46.9069V81H44.6672ZM59.8893 81.1871C59.3017 81.1871 58.7725 81.0825 58.3016 80.8732C57.8348 80.6599 57.4645 80.346 57.1908 79.9315C56.9212 79.5169 56.7864 79.0058 56.7864 78.3981C56.7864 77.8749 56.8829 77.4422 57.0761 77.1001C57.2693 76.758 57.5329 76.4844 57.867 76.2791C58.201 76.0739 58.5773 75.9189 58.9959 75.8143C59.4185 75.7056 59.8551 75.6271 60.3059 75.5788C60.8492 75.5225 61.2899 75.4722 61.628 75.4279C61.966 75.3796 62.2115 75.3072 62.3645 75.2106C62.5214 75.11 62.5999 74.955 62.5999 74.7457V74.7095C62.5999 74.2547 62.4651 73.9026 62.1954 73.6531C61.9258 73.4035 61.5374 73.2788 61.0303 73.2788C60.495 73.2788 60.0704 73.3955 59.7565 73.6289C59.4466 73.8623 59.2373 74.138 59.1287 74.456L57.0882 74.1662C57.2492 73.6027 57.5148 73.1319 57.8851 72.7536C58.2553 72.3712 58.7081 72.0855 59.2434 71.8963C59.7787 71.7031 60.3703 71.6065 61.0182 71.6065C61.465 71.6065 61.9097 71.6589 62.3524 71.7635C62.7951 71.8681 63.1996 72.0412 63.5658 72.2827C63.9321 72.5201 64.2259 72.8441 64.4472 73.2546C64.6726 73.6651 64.7853 74.1783 64.7853 74.794V81H62.6844V79.7262H62.612C62.4792 79.9838 62.292 80.2253 62.0506 80.4506C61.8131 80.672 61.5133 80.8511 61.1511 80.9879C60.7929 81.1207 60.3723 81.1871 59.8893 81.1871ZM60.4568 79.5813C60.8955 79.5813 61.2758 79.4948 61.5978 79.3217C61.9198 79.1446 62.1673 78.9112 62.3403 78.6214C62.5174 78.3317 62.606 78.0157 62.606 77.6737V76.581C62.5375 76.6373 62.4208 76.6896 62.2558 76.7379C62.0948 76.7862 61.9137 76.8285 61.7125 76.8647C61.5113 76.9009 61.312 76.9331 61.1148 76.9613C60.9176 76.9895 60.7466 77.0136 60.6017 77.0337C60.2757 77.078 59.9839 77.1504 59.7263 77.2511C59.4688 77.3517 59.2655 77.4925 59.1166 77.6737C58.9677 77.8507 58.8932 78.0801 58.8932 78.3619C58.8932 78.7643 59.0401 79.0682 59.3339 79.2734C59.6277 79.4787 60.002 79.5813 60.4568 79.5813ZM71.0275 81.1811C70.1018 81.1811 69.307 80.9779 68.6429 80.5714C67.9829 80.1649 67.4737 79.6035 67.1155 78.8871C66.7614 78.1667 66.5843 77.3376 66.5843 76.3999C66.5843 75.4581 66.7654 74.627 67.1276 73.9066C67.4898 73.1822 68.001 72.6187 68.661 72.2163C69.3251 71.8098 70.1099 71.6065 71.0154 71.6065C71.768 71.6065 72.4341 71.7454 73.0136 72.0231C73.5972 72.2968 74.062 72.6851 74.4082 73.1882C74.7543 73.6873 74.9515 74.2708 74.9998 74.9389H72.911C72.8265 74.4922 72.6253 74.1199 72.3073 73.8221C71.9934 73.5202 71.5728 73.3693 71.0456 73.3693C70.5989 73.3693 70.2065 73.4901 69.8684 73.7315C69.5303 73.969 69.2667 74.3111 69.0775 74.7578C68.8924 75.2045 68.7998 75.7398 68.7998 76.3636C68.7998 76.9955 68.8924 77.5388 69.0775 77.9936C69.2627 78.4444 69.5223 78.7925 69.8563 79.038C70.1944 79.2795 70.5908 79.4002 71.0456 79.4002C71.3676 79.4002 71.6553 79.3398 71.9089 79.2191C72.1664 79.0943 72.3818 78.9152 72.5548 78.6818C72.7279 78.4484 72.8466 78.1647 72.911 77.8306H74.9998C74.9475 78.4866 74.7543 79.0682 74.4202 79.5753C74.0862 80.0784 73.6314 80.4728 73.0559 80.7585C72.4804 81.0402 71.8042 81.1811 71.0275 81.1811ZM78.7864 78.0902L78.7804 75.4521H79.1305L82.4629 71.7273H85.0166L80.9175 76.2912H80.4647L78.7864 78.0902ZM76.7943 81V68.6364H78.9796V81H76.7943ZM82.6139 81L79.5954 76.7802L81.0684 75.2408L85.2278 81H82.6139ZM89.1413 81.1871C88.5537 81.1871 88.0245 81.0825 87.5536 80.8732C87.0867 80.6599 86.7165 80.346 86.4428 79.9315C86.1731 79.5169 86.0383 79.0058 86.0383 78.3981C86.0383 77.8749 86.1349 77.4422 86.3281 77.1001C86.5213 76.758 86.7849 76.4844 87.1189 76.2791C87.453 76.0739 87.8293 75.9189 88.2478 75.8143C88.6704 75.7056 89.1071 75.6271 89.5578 75.5788C90.1012 75.5225 90.5419 75.4722 90.8799 75.4279C91.218 75.3796 91.4635 75.3072 91.6164 75.2106C91.7734 75.11 91.8519 74.955 91.8519 74.7457V74.7095C91.8519 74.2547 91.717 73.9026 91.4474 73.6531C91.1777 73.4035 90.7894 73.2788 90.2823 73.2788C89.747 73.2788 89.3224 73.3955 89.0085 73.6289C88.6986 73.8623 88.4893 74.138 88.3806 74.456L86.3402 74.1662C86.5011 73.6027 86.7668 73.1319 87.137 72.7536C87.5073 72.3712 87.9601 72.0855 88.4953 71.8963C89.0306 71.7031 89.6222 71.6065 90.2702 71.6065C90.7169 71.6065 91.1617 71.6589 91.6044 71.7635C92.0471 71.8681 92.4515 72.0412 92.8178 72.2827C93.184 72.5201 93.4778 72.8441 93.6992 73.2546C93.9246 73.6651 94.0372 74.1783 94.0372 74.794V81H91.9364V79.7262H91.8639C91.7311 79.9838 91.544 80.2253 91.3025 80.4506C91.0651 80.672 90.7652 80.8511 90.403 80.9879C90.0448 81.1207 89.6242 81.1871 89.1413 81.1871ZM89.7088 79.5813C90.1474 79.5813 90.5278 79.4948 90.8497 79.3217C91.1717 79.1446 91.4192 78.9112 91.5923 78.6214C91.7694 78.3317 91.8579 78.0157 91.8579 77.6737V76.581C91.7895 76.6373 91.6728 76.6896 91.5078 76.7379C91.3468 76.7862 91.1657 76.8285 90.9644 76.8647C90.7632 76.9009 90.564 76.9331 90.3668 76.9613C90.1696 76.9895 89.9985 77.0136 89.8536 77.0337C89.5277 77.078 89.2359 77.1504 88.9783 77.2511C88.7207 77.3517 88.5175 77.4925 88.3686 77.6737C88.2197 77.8507 88.1452 78.0801 88.1452 78.3619C88.1452 78.7643 88.2921 79.0682 88.5859 79.2734C88.8797 79.4787 89.254 79.5813 89.7088 79.5813ZM100.865 71.7273V73.4176H95.5344V71.7273H100.865ZM96.8505 69.5057H99.0358V78.2109C99.0358 78.5047 99.0801 78.7301 99.1686 78.8871C99.2612 79.04 99.3819 79.1446 99.5309 79.201C99.6798 79.2573 99.8448 79.2855 100.026 79.2855C100.163 79.2855 100.287 79.2754 100.4 79.2553C100.517 79.2352 100.605 79.2171 100.666 79.201L101.034 80.9094C100.917 80.9497 100.75 80.994 100.533 81.0423C100.32 81.0906 100.058 81.1187 99.7482 81.1268C99.2008 81.1429 98.7078 81.0604 98.2691 80.8793C97.8304 80.6941 97.4823 80.4084 97.2247 80.022C96.9712 79.6357 96.8464 79.1527 96.8505 78.5732V69.5057ZM105.077 75.5668V81H102.892V68.6364H105.029V73.3029H105.138C105.355 72.7797 105.691 72.3672 106.146 72.0653C106.605 71.7595 107.188 71.6065 107.897 71.6065C108.54 71.6065 109.102 71.7414 109.581 72.011C110.06 72.2807 110.43 72.6751 110.692 73.1942C110.957 73.7134 111.09 74.3473 111.09 75.0959V81H108.905V75.4339C108.905 74.8101 108.744 74.3252 108.422 73.979C108.104 73.6289 107.657 73.4538 107.082 73.4538C106.695 73.4538 106.349 73.5384 106.043 73.7074C105.741 73.8724 105.504 74.1119 105.331 74.4258C105.162 74.7397 105.077 75.12 105.077 75.5668ZM117.362 81.1811C116.457 81.1811 115.672 80.9819 115.008 80.5835C114.344 80.185 113.829 79.6276 113.463 78.9112C113.1 78.1948 112.919 77.3577 112.919 76.3999C112.919 75.442 113.1 74.6029 113.463 73.8825C113.829 73.162 114.344 72.6026 115.008 72.2042C115.672 71.8058 116.457 71.6065 117.362 71.6065C118.268 71.6065 119.053 71.8058 119.717 72.2042C120.381 72.6026 120.894 73.162 121.256 73.8825C121.622 74.6029 121.806 75.442 121.806 76.3999C121.806 77.3577 121.622 78.1948 121.256 78.9112C120.894 79.6276 120.381 80.185 119.717 80.5835C119.053 80.9819 118.268 81.1811 117.362 81.1811ZM117.375 79.4304C117.866 79.4304 118.276 79.2956 118.606 79.0259C118.936 78.7522 119.182 78.386 119.343 77.9272C119.508 77.4684 119.59 76.9573 119.59 76.3938C119.59 75.8263 119.508 75.3132 119.343 74.8544C119.182 74.3916 118.936 74.0233 118.606 73.7496C118.276 73.476 117.866 73.3391 117.375 73.3391C116.871 73.3391 116.453 73.476 116.119 73.7496C115.789 74.0233 115.541 74.3916 115.376 74.8544C115.215 75.3132 115.135 75.8263 115.135 76.3938C115.135 76.9573 115.215 77.4684 115.376 77.9272C115.541 78.386 115.789 78.7522 116.119 79.0259C116.453 79.2956 116.871 79.4304 117.375 79.4304ZM125.846 75.5668V81H123.66V71.7273H125.749V73.3029H125.858C126.071 72.7837 126.411 72.3712 126.878 72.0653C127.349 71.7595 127.931 71.6065 128.623 71.6065C129.263 71.6065 129.82 71.7434 130.295 72.017C130.774 72.2907 131.144 72.6871 131.406 73.2063C131.671 73.7255 131.802 74.3554 131.798 75.0959V81H129.613V75.4339C129.613 74.8142 129.452 74.3292 129.13 73.979C128.812 73.6289 128.371 73.4538 127.808 73.4538C127.426 73.4538 127.085 73.5384 126.788 73.7074C126.494 73.8724 126.262 74.1119 126.093 74.4258C125.928 74.7397 125.846 75.12 125.846 75.5668ZM141.883 79.0199V70.6648H143.779V79.0199H141.883ZM138.653 75.7901V73.8945H147.008V75.7901H138.653ZM70.5898 94.8182C70.5898 96.1503 70.3403 97.2913 69.8412 98.2411C69.3462 99.1869 68.6701 99.9113 67.8128 100.414C66.9596 100.917 65.9917 101.169 64.909 101.169C63.8264 101.169 62.8565 100.917 61.9992 100.414C61.146 99.9073 60.4699 99.1809 59.9708 98.2351C59.4758 97.2853 59.2283 96.1463 59.2283 94.8182C59.2283 93.486 59.4758 92.3471 59.9708 91.4013C60.4699 90.4515 61.146 89.725 61.9992 89.2219C62.8565 88.7189 63.8264 88.4673 64.909 88.4673C65.9917 88.4673 66.9596 88.7189 67.8128 89.2219C68.6701 89.725 69.3462 90.4515 69.8412 91.4013C70.3403 92.3471 70.5898 93.486 70.5898 94.8182ZM68.338 94.8182C68.338 93.8804 68.1911 93.0896 67.8973 92.4457C67.6076 91.7977 67.2051 91.3087 66.6899 90.9787C66.1748 90.6446 65.5812 90.4776 64.909 90.4776C64.2369 90.4776 63.6433 90.6446 63.1282 90.9787C62.613 91.3087 62.2085 91.7977 61.9147 92.4457C61.625 93.0896 61.4801 93.8804 61.4801 94.8182C61.4801 95.7559 61.625 96.5488 61.9147 97.1967C62.2085 97.8407 62.613 98.3297 63.1282 98.6637C63.6433 98.9937 64.2369 99.1587 64.909 99.1587C65.5812 99.1587 66.1748 98.9937 66.6899 98.6637C67.2051 98.3297 67.6076 97.8407 67.8973 97.1967C68.1911 96.5488 68.338 95.7559 68.338 94.8182ZM78.5208 97.1001V91.7273H80.7062V101H78.5872V99.3519H78.4906C78.2814 99.8711 77.9372 100.296 77.4583 100.626C76.9834 100.956 76.3978 101.121 75.7016 101.121C75.0939 101.121 74.5566 100.986 74.0897 100.716C73.6269 100.443 73.2647 100.046 73.0031 99.527C72.7415 99.0038 72.6107 98.3719 72.6107 97.6314V91.7273H74.796V97.2933C74.796 97.8809 74.957 98.3478 75.279 98.6939C75.601 99.04 76.0235 99.2131 76.5467 99.2131C76.8687 99.2131 77.1806 99.1346 77.4825 98.9776C77.7843 98.8207 78.0318 98.5872 78.225 98.2773C78.4222 97.9634 78.5208 97.571 78.5208 97.1001ZM87.5838 91.7273V93.4176H82.2532V91.7273H87.5838ZM83.5692 89.5057H85.7546V98.2109C85.7546 98.5047 85.7988 98.7301 85.8874 98.8871C85.98 99.04 86.1007 99.1446 86.2496 99.201C86.3985 99.2573 86.5635 99.2855 86.7446 99.2855C86.8815 99.2855 87.0062 99.2754 87.1189 99.2553C87.2356 99.2352 87.3242 99.2171 87.3845 99.201L87.7528 100.909C87.6361 100.95 87.4691 100.994 87.2517 101.042C87.0384 101.091 86.7768 101.119 86.4669 101.127C85.9196 101.143 85.4266 101.06 84.9879 100.879C84.5492 100.694 84.2011 100.408 83.9435 100.022C83.6899 99.6357 83.5652 99.1527 83.5692 98.5732V89.5057ZM93.3566 101.181C92.4309 101.181 91.6361 100.978 90.972 100.571C90.312 100.165 89.8028 99.6035 89.4446 98.8871C89.0905 98.1667 88.9134 97.3376 88.9134 96.3999C88.9134 95.4581 89.0945 94.627 89.4567 93.9066C89.8189 93.1822 90.3301 92.6187 90.9901 92.2163C91.6542 91.8098 92.439 91.6065 93.3445 91.6065C94.0971 91.6065 94.7632 91.7454 95.3427 92.0231C95.9263 92.2968 96.3911 92.6851 96.7373 93.1882C97.0834 93.6873 97.2806 94.2708 97.3289 94.9389H95.2401C95.1556 94.4922 94.9544 94.1199 94.6364 93.8221C94.3225 93.5202 93.9019 93.3693 93.3747 93.3693C92.928 93.3693 92.5356 93.4901 92.1975 93.7315C91.8594 93.969 91.5958 94.3111 91.4066 94.7578C91.2215 95.2045 91.129 95.7398 91.129 96.3636C91.129 96.9955 91.2215 97.5388 91.4066 97.9936C91.5918 98.4444 91.8514 98.7925 92.1854 99.038C92.5235 99.2795 92.9199 99.4002 93.3747 99.4002C93.6967 99.4002 93.9844 99.3398 94.238 99.2191C94.4955 99.0943 94.7109 98.9152 94.8839 98.6818C95.057 98.4484 95.1757 98.1647 95.2401 97.8306H97.3289C97.2766 98.4866 97.0834 99.0682 96.7493 99.5753C96.4153 100.078 95.9605 100.473 95.385 100.759C94.8095 101.04 94.1333 101.181 93.3566 101.181ZM103.168 101.181C102.263 101.181 101.478 100.982 100.814 100.583C100.15 100.185 99.6345 99.6276 99.2682 98.9112C98.906 98.1948 98.7249 97.3577 98.7249 96.3999C98.7249 95.442 98.906 94.6029 99.2682 93.8825C99.6345 93.162 100.15 92.6026 100.814 92.2042C101.478 91.8058 102.263 91.6065 103.168 91.6065C104.074 91.6065 104.858 91.8058 105.523 92.2042C106.187 92.6026 106.7 93.162 107.062 93.8825C107.428 94.6029 107.611 95.442 107.611 96.3999C107.611 97.3577 107.428 98.1948 107.062 98.9112C106.7 99.6276 106.187 100.185 105.523 100.583C104.858 100.982 104.074 101.181 103.168 101.181ZM103.18 99.4304C103.671 99.4304 104.082 99.2956 104.412 99.0259C104.742 98.7522 104.987 98.386 105.148 97.9272C105.313 97.4684 105.396 96.9573 105.396 96.3938C105.396 95.8263 105.313 95.3132 105.148 94.8544C104.987 94.3916 104.742 94.0233 104.412 93.7496C104.082 93.476 103.671 93.3391 103.18 93.3391C102.677 93.3391 102.259 93.476 101.924 93.7496C101.594 94.0233 101.347 94.3916 101.182 94.8544C101.021 95.3132 100.94 95.8263 100.94 96.3938C100.94 96.9573 101.021 97.4684 101.182 97.9272C101.347 98.386 101.594 98.7522 101.924 99.0259C102.259 99.2956 102.677 99.4304 103.18 99.4304ZM109.466 101V91.7273H111.555V93.3029H111.664C111.857 92.7717 112.177 92.3571 112.623 92.0593C113.07 91.7575 113.603 91.6065 114.223 91.6065C114.851 91.6065 115.38 91.7595 115.811 92.0653C116.246 92.3672 116.551 92.7797 116.729 93.3029H116.825C117.03 92.7878 117.377 92.3772 117.864 92.0714C118.355 91.7615 118.936 91.6065 119.608 91.6065C120.461 91.6065 121.158 91.8762 121.697 92.4155C122.236 92.9548 122.506 93.7416 122.506 94.7759V101H120.314V95.114C120.314 94.5385 120.162 94.1179 119.856 93.8523C119.55 93.5826 119.176 93.4478 118.733 93.4478C118.206 93.4478 117.793 93.6128 117.495 93.9428C117.201 94.2688 117.055 94.6934 117.055 95.2166V101H114.911V95.0234C114.911 94.5445 114.767 94.1622 114.477 93.8764C114.191 93.5907 113.817 93.4478 113.354 93.4478C113.04 93.4478 112.754 93.5283 112.497 93.6893C112.239 93.8462 112.034 94.0696 111.881 94.3594C111.728 94.6451 111.652 94.9792 111.652 95.3615V101H109.466ZM128.828 101.181C127.898 101.181 127.095 100.988 126.419 100.602C125.747 100.211 125.23 99.6598 124.868 98.9474C124.506 98.2311 124.325 97.3879 124.325 96.418C124.325 95.4641 124.506 94.627 124.868 93.9066C125.234 93.1822 125.745 92.6187 126.401 92.2163C127.057 91.8098 127.828 91.6065 128.713 91.6065C129.285 91.6065 129.824 91.6991 130.331 91.8842C130.842 92.0653 131.293 92.3471 131.684 92.7294C132.078 93.1117 132.388 93.5987 132.613 94.1903C132.839 94.7779 132.951 95.4782 132.951 96.2912V96.9613H125.351V95.4883H130.856C130.852 95.0697 130.762 94.6974 130.585 94.3714C130.408 94.0414 130.16 93.7818 129.842 93.5927C129.528 93.4035 129.162 93.3089 128.744 93.3089C128.297 93.3089 127.904 93.4176 127.566 93.6349C127.228 93.8482 126.965 94.13 126.776 94.4801C126.59 94.8262 126.496 95.2066 126.492 95.6211V96.907C126.492 97.4463 126.59 97.9091 126.788 98.2955C126.985 98.6778 127.26 98.9716 127.615 99.1768C127.969 99.3781 128.383 99.4787 128.858 99.4787C129.176 99.4787 129.464 99.4344 129.722 99.3459C129.979 99.2533 130.202 99.1185 130.392 98.9414C130.581 98.7643 130.724 98.545 130.82 98.2834L132.861 98.5128C132.732 99.0521 132.486 99.523 132.124 99.9254C131.766 100.324 131.307 100.634 130.748 100.855C130.188 101.072 129.548 101.181 128.828 101.181ZM56.6784 121V108.636H61.3148C62.2646 108.636 63.0615 108.801 63.7054 109.131C64.3534 109.461 64.8424 109.924 65.1724 110.52C65.5065 111.112 65.6735 111.802 65.6735 112.591C65.6735 113.383 65.5044 114.072 65.1664 114.655C64.8323 115.235 64.3393 115.683 63.6873 116.001C63.0353 116.315 62.2344 116.472 61.2846 116.472H57.9824V114.613H60.9828C61.5382 114.613 61.993 114.536 62.3471 114.384C62.7013 114.227 62.9629 113.999 63.1319 113.701C63.305 113.4 63.3915 113.029 63.3915 112.591C63.3915 112.152 63.305 111.778 63.1319 111.468C62.9589 111.154 62.6953 110.916 62.3411 110.755C61.9869 110.59 61.5301 110.508 60.9707 110.508H58.9181V121H56.6784ZM63.0655 115.398L66.1262 121H63.627L60.6206 115.398H63.0655ZM71.6108 121.181C70.6811 121.181 69.8782 120.988 69.2021 120.602C68.5299 120.211 68.0128 119.66 67.6506 118.947C67.2884 118.231 67.1072 117.388 67.1072 116.418C67.1072 115.464 67.2884 114.627 67.6506 113.907C68.0168 113.182 68.5279 112.619 69.1839 112.216C69.84 111.81 70.6107 111.607 71.4961 111.607C72.0676 111.607 72.6069 111.699 73.114 111.884C73.6251 112.065 74.0759 112.347 74.4663 112.729C74.8607 113.112 75.1706 113.599 75.396 114.19C75.6213 114.778 75.734 115.478 75.734 116.291V116.961H68.1335V115.488H73.6392C73.6352 115.07 73.5446 114.697 73.3675 114.371C73.1905 114.041 72.9429 113.782 72.625 113.593C72.3111 113.404 71.9448 113.309 71.5263 113.309C71.0795 113.309 70.6871 113.418 70.3491 113.635C70.011 113.848 69.7474 114.13 69.5582 114.48C69.3731 114.826 69.2785 115.207 69.2745 115.621V116.907C69.2745 117.446 69.3731 117.909 69.5703 118.295C69.7675 118.678 70.0432 118.972 70.3974 119.177C70.7515 119.378 71.1661 119.479 71.641 119.479C71.9589 119.479 72.2467 119.434 72.5043 119.346C72.7618 119.253 72.9852 119.118 73.1744 118.941C73.3635 118.764 73.5064 118.545 73.603 118.283L75.6435 118.513C75.5147 119.052 75.2692 119.523 74.907 119.925C74.5488 120.324 74.09 120.634 73.5305 120.855C72.9711 121.072 72.3312 121.181 71.6108 121.181ZM77.5828 124.477V111.727H79.732V113.261H79.8588C79.9714 113.035 80.1304 112.796 80.3357 112.542C80.5409 112.285 80.8186 112.065 81.1688 111.884C81.5189 111.699 81.9656 111.607 82.509 111.607C83.2253 111.607 83.8713 111.79 84.4468 112.156C85.0264 112.518 85.4852 113.055 85.8232 113.768C86.1653 114.476 86.3364 115.345 86.3364 116.376C86.3364 117.394 86.1694 118.259 85.8353 118.972C85.5013 119.684 85.0465 120.227 84.471 120.602C83.8954 120.976 83.2435 121.163 82.515 121.163C81.9838 121.163 81.5431 121.074 81.1929 120.897C80.8428 120.72 80.5611 120.507 80.3477 120.257C80.1385 120.004 79.9755 119.764 79.8588 119.539H79.7682V124.477H77.5828ZM79.7259 116.364C79.7259 116.963 79.8105 117.489 79.9795 117.939C80.1526 118.39 80.4001 118.742 80.722 118.996C81.048 119.245 81.4424 119.37 81.9053 119.37C82.3882 119.37 82.7927 119.241 83.1187 118.984C83.4447 118.722 83.6902 118.366 83.8552 117.915C84.0242 117.46 84.1088 116.943 84.1088 116.364C84.1088 115.788 84.0262 115.277 83.8612 114.83C83.6962 114.384 83.4507 114.033 83.1247 113.78C82.7987 113.526 82.3923 113.4 81.9053 113.4C81.4384 113.4 81.042 113.522 80.716 113.768C80.39 114.013 80.1425 114.357 79.9735 114.8C79.8084 115.243 79.7259 115.764 79.7259 116.364ZM92.2526 121.181C91.347 121.181 90.5622 120.982 89.8982 120.583C89.2341 120.185 88.719 119.628 88.3527 118.911C87.9905 118.195 87.8094 117.358 87.8094 116.4C87.8094 115.442 87.9905 114.603 88.3527 113.882C88.719 113.162 89.2341 112.603 89.8982 112.204C90.5622 111.806 91.347 111.607 92.2526 111.607C93.1581 111.607 93.9429 111.806 94.607 112.204C95.271 112.603 95.7842 113.162 96.1464 113.882C96.5126 114.603 96.6958 115.442 96.6958 116.4C96.6958 117.358 96.5126 118.195 96.1464 118.911C95.7842 119.628 95.271 120.185 94.607 120.583C93.9429 120.982 93.1581 121.181 92.2526 121.181ZM92.2646 119.43C92.7557 119.43 93.1662 119.296 93.4962 119.026C93.8262 118.752 94.0717 118.386 94.2327 117.927C94.3977 117.468 94.4802 116.957 94.4802 116.394C94.4802 115.826 94.3977 115.313 94.2327 114.854C94.0717 114.392 93.8262 114.023 93.4962 113.75C93.1662 113.476 92.7557 113.339 92.2646 113.339C91.7616 113.339 91.343 113.476 91.009 113.75C90.6789 114.023 90.4314 114.392 90.2664 114.854C90.1054 115.313 90.0249 115.826 90.0249 116.394C90.0249 116.957 90.1054 117.468 90.2664 117.927C90.4314 118.386 90.6789 118.752 91.009 119.026C91.343 119.296 91.7616 119.43 92.2646 119.43ZM98.5506 121V111.727H100.67V113.273H100.766C100.935 112.737 101.225 112.325 101.635 112.035C102.05 111.741 102.523 111.594 103.054 111.594C103.175 111.594 103.31 111.6 103.459 111.613C103.612 111.621 103.738 111.635 103.839 111.655V113.665C103.746 113.633 103.599 113.605 103.398 113.581C103.201 113.552 103.01 113.538 102.825 113.538C102.426 113.538 102.068 113.625 101.75 113.798C101.436 113.967 101.189 114.202 101.008 114.504C100.827 114.806 100.736 115.154 100.736 115.549V121H98.5506ZM110.419 111.727V113.418H105.089V111.727H110.419ZM106.405 109.506H108.59V118.211C108.59 118.505 108.634 118.73 108.723 118.887C108.815 119.04 108.936 119.145 109.085 119.201C109.234 119.257 109.399 119.286 109.58 119.286C109.717 119.286 109.842 119.275 109.954 119.255C110.071 119.235 110.16 119.217 110.22 119.201L110.588 120.909C110.472 120.95 110.305 120.994 110.087 121.042C109.874 121.091 109.612 121.119 109.302 121.127C108.755 121.143 108.262 121.06 107.823 120.879C107.385 120.694 107.037 120.408 106.779 120.022C106.525 119.636 106.401 119.153 106.405 118.573V109.506ZM112.247 121V111.727H114.432V121H112.247ZM113.346 110.411C112.999 110.411 112.702 110.297 112.452 110.067C112.203 109.834 112.078 109.554 112.078 109.228C112.078 108.898 112.203 108.618 112.452 108.389C112.702 108.155 112.999 108.039 113.346 108.039C113.696 108.039 113.994 108.155 114.239 108.389C114.489 108.618 114.613 108.898 114.613 109.228C114.613 109.554 114.489 109.834 114.239 110.067C113.994 110.297 113.696 110.411 113.346 110.411ZM118.865 115.567V121H116.68V111.727H118.768V113.303H118.877C119.09 112.784 119.43 112.371 119.897 112.065C120.368 111.759 120.95 111.607 121.642 111.607C122.282 111.607 122.839 111.743 123.314 112.017C123.793 112.291 124.163 112.687 124.425 113.206C124.691 113.725 124.821 114.355 124.817 115.096V121H122.632V115.434C122.632 114.814 122.471 114.329 122.149 113.979C121.831 113.629 121.39 113.454 120.827 113.454C120.445 113.454 120.104 113.538 119.807 113.707C119.513 113.872 119.281 114.112 119.112 114.426C118.947 114.74 118.865 115.12 118.865 115.567ZM131.072 124.67C130.287 124.67 129.613 124.564 129.049 124.35C128.486 124.141 128.033 123.859 127.691 123.505C127.349 123.151 127.111 122.759 126.979 122.328L128.947 121.851C129.035 122.032 129.164 122.211 129.333 122.388C129.502 122.57 129.729 122.719 130.015 122.835C130.305 122.956 130.669 123.016 131.108 123.016C131.728 123.016 132.241 122.865 132.647 122.564C133.054 122.266 133.257 121.775 133.257 121.091V119.334H133.148C133.036 119.559 132.871 119.791 132.653 120.028C132.44 120.266 132.156 120.465 131.802 120.626C131.452 120.787 131.011 120.867 130.48 120.867C129.768 120.867 129.122 120.7 128.542 120.366C127.967 120.028 127.508 119.525 127.166 118.857C126.828 118.185 126.659 117.344 126.659 116.333C126.659 115.315 126.828 114.456 127.166 113.756C127.508 113.051 127.969 112.518 128.548 112.156C129.128 111.79 129.774 111.607 130.486 111.607C131.029 111.607 131.476 111.699 131.826 111.884C132.18 112.065 132.462 112.285 132.671 112.542C132.881 112.796 133.04 113.035 133.148 113.261H133.269V111.727H135.424V121.151C135.424 121.944 135.235 122.6 134.857 123.119C134.478 123.638 133.961 124.027 133.305 124.284C132.649 124.542 131.905 124.67 131.072 124.67ZM131.09 119.153C131.552 119.153 131.947 119.04 132.273 118.815C132.599 118.589 132.846 118.265 133.015 117.843C133.184 117.42 133.269 116.913 133.269 116.321C133.269 115.738 133.184 115.227 133.015 114.788C132.85 114.349 132.605 114.009 132.279 113.768C131.957 113.522 131.561 113.4 131.09 113.4C130.603 113.4 130.196 113.526 129.87 113.78C129.544 114.033 129.299 114.382 129.134 114.824C128.969 115.263 128.886 115.762 128.886 116.321C128.886 116.889 128.969 117.386 129.134 117.812C129.303 118.235 129.55 118.565 129.876 118.803C130.206 119.036 130.611 119.153 131.09 119.153Z" fill="#020817"/>
<g filter="url(#filter2_d_1388_304)">
<circle cx="182.5" cy="100.5" r="22.5" fill="#FF4A4A"/>
<circle cx="182.5" cy="100.5" r="21" stroke="#FFC1C1" stroke-width="3"/>
</g>
<path d="M181.964 103C183.296 103 184.375 101.881 184.375 100.5C184.375 99.1193 183.296 98 181.964 98C180.633 98 179.554 99.1193 179.554 100.5C179.554 101.881 180.633 103 181.964 103Z" stroke="white" stroke-width="2" stroke-linecap="round" stroke-linejoin="round"/>
<defs>
<filter id="filter0_d_1388_304" x="0.836914" y="0.12793" width="107.617" height="193.018" filterUnits="userSpaceOnUse" color-interpolation-filters="sRGB">
<feFlood flood-opacity="0" result="BackgroundImageFix"/>
<feColorMatrix in="SourceAlpha" type="matrix" values="0 0 0 0 0 0 0 0 0 0 0 0 0 0 0 0 0 0 127 0" result="hardAlpha"/>
<feOffset/>
<feGaussianBlur stdDeviation="5"/>
<feComposite in2="hardAlpha" operator="out"/>
<feColorMatrix type="matrix" values="0 0 0 0 0 0 0 0 0 0 0 0 0 0 0 0 0 0 0.25 0"/>
<feBlend mode="normal" in2="BackgroundImageFix" result="effect1_dropShadow_1388_304"/>
<feBlend mode="normal" in="SourceGraphic" in2="effect1_dropShadow_1388_304" result="shape"/>
</filter>
<filter id="filter1_d_1388_304" x="152" y="74" width="61" height="61" filterUnits="userSpaceOnUse" color-interpolation-filters="sRGB">
<feFlood flood-opacity="0" result="BackgroundImageFix"/>
<feColorMatrix in="SourceAlpha" type="matrix" values="0 0 0 0 0 0 0 0 0 0 0 0 0 0 0 0 0 0 127 0" result="hardAlpha"/>
<feOffset dy="4"/>
<feGaussianBlur stdDeviation="2"/>
<feComposite in2="hardAlpha" operator="out"/>
<feColorMatrix type="matrix" values="0 0 0 0 0 0 0 0 0 0 0 0 0 0 0 0 0 0 0.25 0"/>
<feBlend mode="normal" in2="BackgroundImageFix" result="effect1_dropShadow_1388_304"/>
<feBlend mode="normal" in="SourceGraphic" in2="effect1_dropShadow_1388_304" result="shape"/>
</filter>
<filter id="filter2_d_1388_304" x="150" y="68" width="65" height="65" filterUnits="userSpaceOnUse" color-interpolation-filters="sRGB">
<feFlood flood-opacity="0" result="BackgroundImageFix"/>
<feColorMatrix in="SourceAlpha" type="matrix" values="0 0 0 0 0 0 0 0 0 0 0 0 0 0 0 0 0 0 127 0" result="hardAlpha"/>
<feOffset/>
<feGaussianBlur stdDeviation="5"/>
<feComposite in2="hardAlpha" operator="out"/>
<feColorMatrix type="matrix" values="0 0 0 0 0 0 0 0 0 0 0 0 0 0 0 0 0 0 0.2 0"/>
<feBlend mode="normal" in2="BackgroundImageFix" result="effect1_dropShadow_1388_304"/>
<feBlend mode="normal" in="SourceGraphic" in2="effect1_dropShadow_1388_304" result="shape"/>
</filter>
</defs>
</svg>
