<svg width="213" height="194" viewBox="0 0 213 194" fill="none" xmlns="http://www.w3.org/2000/svg">
<g filter="url(#filter0_d_1388_331)">
<path d="M114.546 183.118C125.929 183.411 137.255 181.397 147.859 177.196C158.463 172.994 168.13 166.689 176.293 158.651C184.455 150.613 190.949 141.004 195.391 130.389C199.834 119.774 202.136 108.367 202.163 96.8385C202.189 85.3099 199.94 73.8923 195.546 63.2565C191.152 52.6207 184.703 42.9813 176.578 34.9048C168.452 26.8283 158.814 20.4776 148.23 16.2259C137.646 11.9742 126.329 9.90728 114.944 10.1466L115.008 13.2656C125.982 13.035 136.891 15.0274 147.093 19.1257C157.296 23.2241 166.586 29.3458 174.419 37.131C182.251 44.9163 188.468 54.208 192.703 64.4603C196.939 74.7125 199.107 85.7184 199.081 96.8312C199.056 107.944 196.837 118.94 192.554 129.172C188.272 139.404 182.012 148.666 174.144 156.414C166.276 164.162 156.957 170.24 146.736 174.29C136.515 178.341 125.597 180.281 114.624 179.999L114.546 183.118Z" fill="black"/>
</g>
<path d="M116.364 185.272C92.8561 185.272 70.3112 175.934 53.6887 159.311C37.0662 142.689 27.7278 120.144 27.7278 96.6361C27.7278 73.1284 37.0662 50.5834 53.6887 33.9609C70.3112 17.3384 92.8561 8 116.364 8V15.2784C94.7865 15.2784 74.0928 23.85 58.8353 39.1076C43.5778 54.3651 35.0062 75.0587 35.0062 96.6361C35.0062 118.214 43.5778 138.907 58.8353 154.165C74.0928 169.422 94.7865 177.994 116.364 177.994V185.272Z" fill="#E1E1E1"/>
<g filter="url(#filter1_d_1388_331)">
<circle cx="24" cy="24" r="24" transform="matrix(-1 0 0 1 57 74)" fill="white"/>
</g>
<path d="M72.0564 95V82.6364H80.0976V84.5138H74.2961V87.8704H79.681V89.7479H74.2961V93.1225H80.1459V95H72.0564ZM84.4713 89.5668V95H82.286V85.7273H84.3747V87.3029H84.4834C84.6967 86.7837 85.0368 86.3712 85.5036 86.0653C85.9745 85.7595 86.5561 85.6065 87.2483 85.6065C87.8882 85.6065 88.4456 85.7434 88.9205 86.017C89.3995 86.2907 89.7697 86.6871 90.0313 87.2063C90.297 87.7255 90.4278 88.3554 90.4237 89.0959V95H88.2384V89.4339C88.2384 88.8142 88.0774 88.3292 87.7554 87.979C87.4375 87.6289 86.9968 87.4538 86.4333 87.4538C86.051 87.4538 85.7109 87.5384 85.4131 87.7074C85.1193 87.8724 84.8879 88.1119 84.7188 88.4258C84.5538 88.7397 84.4713 89.12 84.4713 89.5668ZM96.0864 95.163C95.3579 95.163 94.7059 94.9759 94.1304 94.6016C93.5549 94.2273 93.1001 93.6839 92.7661 92.9716C92.432 92.2592 92.265 91.3939 92.265 90.3757C92.265 89.3454 92.434 88.4761 92.7721 87.7678C93.1142 87.0554 93.575 86.5181 94.1546 86.1559C94.7341 85.7897 95.3801 85.6065 96.0924 85.6065C96.6357 85.6065 97.0825 85.6991 97.4326 85.8842C97.7828 86.0653 98.0605 86.2847 98.2657 86.5423C98.471 86.7958 98.6299 87.0353 98.7426 87.2607H98.8332V82.6364H101.025V95H98.8754V93.5391H98.7426C98.6299 93.7644 98.4669 94.0039 98.2536 94.2575C98.0403 94.507 97.7586 94.7203 97.4085 94.8974C97.0583 95.0745 96.6176 95.163 96.0864 95.163ZM96.6961 93.37C97.1589 93.37 97.5534 93.2453 97.8794 92.9957C98.2053 92.7422 98.4529 92.39 98.6219 91.9393C98.7909 91.4885 98.8754 90.9633 98.8754 90.3636C98.8754 89.764 98.7909 89.2428 98.6219 88.8001C98.4569 88.3574 98.2114 88.0133 97.8854 87.7678C97.5634 87.5223 97.167 87.3995 96.6961 87.3995C96.2091 87.3995 95.8026 87.5263 95.4767 87.7798C95.1507 88.0334 94.9052 88.3835 94.7401 88.8303C94.5751 89.277 94.4926 89.7881 94.4926 90.3636C94.4926 90.9432 94.5751 91.4603 94.7401 91.9151C94.9092 92.3659 95.1567 92.7221 95.4827 92.9837C95.8127 93.2412 96.2172 93.37 96.6961 93.37ZM108.974 88.951V90.75H103.408V88.951H108.974ZM115.903 85.7273V87.4176H110.572V85.7273H115.903ZM111.888 83.5057H114.073V92.2109C114.073 92.5047 114.118 92.7301 114.206 92.8871C114.299 93.04 114.42 93.1446 114.568 93.201C114.717 93.2573 114.882 93.2855 115.063 93.2855C115.2 93.2855 115.325 93.2754 115.438 93.2553C115.554 93.2352 115.643 93.2171 115.703 93.201L116.072 94.9094C115.955 94.9497 115.788 94.994 115.571 95.0423C115.357 95.0906 115.096 95.1187 114.786 95.1268C114.238 95.1429 113.745 95.0604 113.307 94.8793C112.868 94.6941 112.52 94.4084 112.262 94.022C112.009 93.6357 111.884 93.1527 111.888 92.5732V83.5057ZM121.675 95.1811C120.77 95.1811 119.985 94.9819 119.321 94.5835C118.657 94.185 118.142 93.6276 117.776 92.9112C117.413 92.1948 117.232 91.3577 117.232 90.3999C117.232 89.442 117.413 88.6029 117.776 87.8825C118.142 87.162 118.657 86.6026 119.321 86.2042C119.985 85.8058 120.77 85.6065 121.675 85.6065C122.581 85.6065 123.366 85.8058 124.03 86.2042C124.694 86.6026 125.207 87.162 125.569 87.8825C125.935 88.6029 126.119 89.442 126.119 90.3999C126.119 91.3577 125.935 92.1948 125.569 92.9112C125.207 93.6276 124.694 94.185 124.03 94.5835C123.366 94.9819 122.581 95.1811 121.675 95.1811ZM121.688 93.4304C122.179 93.4304 122.589 93.2956 122.919 93.0259C123.249 92.7522 123.495 92.386 123.656 91.9272C123.821 91.4684 123.903 90.9573 123.903 90.3938C123.903 89.8263 123.821 89.3132 123.656 88.8544C123.495 88.3916 123.249 88.0233 122.919 87.7496C122.589 87.476 122.179 87.3391 121.688 87.3391C121.184 87.3391 120.766 87.476 120.432 87.7496C120.102 88.0233 119.854 88.3916 119.689 88.8544C119.528 89.3132 119.448 89.8263 119.448 90.3938C119.448 90.9573 119.528 91.4684 119.689 91.9272C119.854 92.386 120.102 92.7522 120.432 93.0259C120.766 93.2956 121.184 93.4304 121.688 93.4304ZM133.594 88.951V90.75H128.028V88.951H133.594ZM135.989 95V82.6364H144.03V84.5138H138.229V87.8704H143.614V89.7479H138.229V93.1225H144.078V95H135.989ZM148.404 89.5668V95H146.219V85.7273H148.307V87.3029H148.416C148.629 86.7837 148.969 86.3712 149.436 86.0653C149.907 85.7595 150.489 85.6065 151.181 85.6065C151.821 85.6065 152.378 85.7434 152.853 86.017C153.332 86.2907 153.702 86.6871 153.964 87.2063C154.23 87.7255 154.36 88.3554 154.356 89.0959V95H152.171V89.4339C152.171 88.8142 152.01 88.3292 151.688 87.979C151.37 87.6289 150.929 87.4538 150.366 87.4538C149.984 87.4538 149.644 87.5384 149.346 87.7074C149.052 87.8724 148.82 88.1119 148.651 88.4258C148.486 88.7397 148.404 89.12 148.404 89.5668ZM160.019 95.163C159.291 95.163 158.639 94.9759 158.063 94.6016C157.488 94.2273 157.033 93.6839 156.699 92.9716C156.365 92.2592 156.198 91.3939 156.198 90.3757C156.198 89.3454 156.367 88.4761 156.705 87.7678C157.047 87.0554 157.508 86.5181 158.087 86.1559C158.667 85.7897 159.313 85.6065 160.025 85.6065C160.568 85.6065 161.015 85.6991 161.365 85.8842C161.715 86.0653 161.993 86.2847 162.198 86.5423C162.404 86.7958 162.563 87.0353 162.675 87.2607H162.766V82.6364H164.957V95H162.808V93.5391H162.675C162.563 93.7644 162.4 94.0039 162.186 94.2575C161.973 94.507 161.691 94.7203 161.341 94.8974C160.991 95.0745 160.55 95.163 160.019 95.163ZM160.629 93.37C161.092 93.37 161.486 93.2453 161.812 92.9957C162.138 92.7422 162.385 92.39 162.555 91.9393C162.724 91.4885 162.808 90.9633 162.808 90.3636C162.808 89.764 162.724 89.2428 162.555 88.8001C162.39 88.3574 162.144 88.0133 161.818 87.7678C161.496 87.5223 161.1 87.3995 160.629 87.3995C160.142 87.3995 159.735 87.5263 159.409 87.7798C159.083 88.0334 158.838 88.3835 158.673 88.8303C158.508 89.277 158.425 89.7881 158.425 90.3636C158.425 90.9432 158.508 91.4603 158.673 91.9151C158.842 92.3659 159.089 92.7221 159.415 92.9837C159.745 93.2412 160.15 93.37 160.629 93.37ZM79.0373 115V102.636H87.0785V104.514H81.277V107.87H86.662V109.748H81.277V113.123H87.1268V115H79.0373ZM91.0538 105.727L92.9253 109.15L94.8269 105.727H97.1391L94.344 110.364L97.1874 115H94.8873L92.9253 111.662L90.9814 115H88.6632L91.4885 110.364L88.7357 105.727H91.0538ZM102.586 115.181C101.656 115.181 100.853 114.988 100.177 114.602C99.505 114.211 98.9879 113.66 98.6257 112.947C98.2634 112.231 98.0823 111.388 98.0823 110.418C98.0823 109.464 98.2634 108.627 98.6257 107.907C98.9919 107.182 99.503 106.619 100.159 106.216C100.815 105.81 101.586 105.607 102.471 105.607C103.043 105.607 103.582 105.699 104.089 105.884C104.6 106.065 105.051 106.347 105.441 106.729C105.836 107.112 106.146 107.599 106.371 108.19C106.596 108.778 106.709 109.478 106.709 110.291V110.961H99.1086V109.488H104.614C104.61 109.07 104.52 108.697 104.343 108.371C104.166 108.041 103.918 107.782 103.6 107.593C103.286 107.404 102.92 107.309 102.501 107.309C102.055 107.309 101.662 107.418 101.324 107.635C100.986 107.848 100.722 108.13 100.533 108.48C100.348 108.826 100.254 109.207 100.25 109.621V110.907C100.25 111.446 100.348 111.909 100.545 112.295C100.743 112.678 101.018 112.972 101.372 113.177C101.727 113.378 102.141 113.479 102.616 113.479C102.934 113.479 103.222 113.434 103.479 113.346C103.737 113.253 103.96 113.118 104.149 112.941C104.339 112.764 104.481 112.545 104.578 112.283L106.619 112.513C106.49 113.052 106.244 113.523 105.882 113.925C105.524 114.324 105.065 114.634 104.506 114.855C103.946 115.072 103.306 115.181 102.586 115.181ZM112.603 115.181C111.677 115.181 110.882 114.978 110.218 114.571C109.558 114.165 109.049 113.603 108.691 112.887C108.337 112.167 108.159 111.338 108.159 110.4C108.159 109.458 108.341 108.627 108.703 107.907C109.065 107.182 109.576 106.619 110.236 106.216C110.9 105.81 111.685 105.607 112.591 105.607C113.343 105.607 114.009 105.745 114.589 106.023C115.172 106.297 115.637 106.685 115.983 107.188C116.329 107.687 116.527 108.271 116.575 108.939H114.486C114.402 108.492 114.2 108.12 113.883 107.822C113.569 107.52 113.148 107.369 112.621 107.369C112.174 107.369 111.782 107.49 111.444 107.732C111.106 107.969 110.842 108.311 110.653 108.758C110.468 109.205 110.375 109.74 110.375 110.364C110.375 110.996 110.468 111.539 110.653 111.994C110.838 112.444 111.097 112.792 111.432 113.038C111.77 113.279 112.166 113.4 112.621 113.4C112.943 113.4 113.231 113.34 113.484 113.219C113.742 113.094 113.957 112.915 114.13 112.682C114.303 112.448 114.422 112.165 114.486 111.831H116.575C116.523 112.487 116.329 113.068 115.995 113.575C115.661 114.078 115.207 114.473 114.631 114.759C114.056 115.04 113.379 115.181 112.603 115.181ZM124.28 111.1V105.727H126.465V115H124.346V113.352H124.249C124.04 113.871 123.696 114.296 123.217 114.626C122.742 114.956 122.157 115.121 121.46 115.121C120.853 115.121 120.315 114.986 119.848 114.716C119.386 114.443 119.023 114.046 118.762 113.527C118.5 113.004 118.369 112.372 118.369 111.631V105.727H120.555V111.293C120.555 111.881 120.716 112.348 121.038 112.694C121.36 113.04 121.782 113.213 122.306 113.213C122.628 113.213 122.939 113.135 123.241 112.978C123.543 112.821 123.791 112.587 123.984 112.277C124.181 111.963 124.28 111.571 124.28 111.1ZM133.343 105.727V107.418H128.012V105.727H133.343ZM129.328 103.506H131.513V112.211C131.513 112.505 131.558 112.73 131.646 112.887C131.739 113.04 131.859 113.145 132.008 113.201C132.157 113.257 132.322 113.286 132.503 113.286C132.64 113.286 132.765 113.275 132.878 113.255C132.994 113.235 133.083 113.217 133.143 113.201L133.512 114.909C133.395 114.95 133.228 114.994 133.011 115.042C132.797 115.091 132.536 115.119 132.226 115.127C131.678 115.143 131.185 115.06 130.747 114.879C130.308 114.694 129.96 114.408 129.702 114.022C129.449 113.636 129.324 113.153 129.328 112.573V103.506ZM135.17 115V105.727H137.356V115H135.17ZM136.269 104.411C135.923 104.411 135.625 104.297 135.375 104.067C135.126 103.834 135.001 103.554 135.001 103.228C135.001 102.898 135.126 102.618 135.375 102.389C135.625 102.155 135.923 102.039 136.269 102.039C136.619 102.039 136.917 102.155 137.162 102.389C137.412 102.618 137.537 102.898 137.537 103.228C137.537 103.554 137.412 103.834 137.162 104.067C136.917 104.297 136.619 104.411 136.269 104.411ZM143.648 115.181C142.742 115.181 141.957 114.982 141.293 114.583C140.629 114.185 140.114 113.628 139.748 112.911C139.386 112.195 139.204 111.358 139.204 110.4C139.204 109.442 139.386 108.603 139.748 107.882C140.114 107.162 140.629 106.603 141.293 106.204C141.957 105.806 142.742 105.607 143.648 105.607C144.553 105.607 145.338 105.806 146.002 106.204C146.666 106.603 147.179 107.162 147.541 107.882C147.908 108.603 148.091 109.442 148.091 110.4C148.091 111.358 147.908 112.195 147.541 112.911C147.179 113.628 146.666 114.185 146.002 114.583C145.338 114.982 144.553 115.181 143.648 115.181ZM143.66 113.43C144.151 113.43 144.561 113.296 144.891 113.026C145.221 112.752 145.467 112.386 145.628 111.927C145.793 111.468 145.875 110.957 145.875 110.394C145.875 109.826 145.793 109.313 145.628 108.854C145.467 108.392 145.221 108.023 144.891 107.75C144.561 107.476 144.151 107.339 143.66 107.339C143.157 107.339 142.738 107.476 142.404 107.75C142.074 108.023 141.826 108.392 141.661 108.854C141.5 109.313 141.42 109.826 141.42 110.394C141.42 110.957 141.5 111.468 141.661 111.927C141.826 112.386 142.074 112.752 142.404 113.026C142.738 113.296 143.157 113.43 143.66 113.43ZM152.131 109.567V115H149.946V105.727H152.034V107.303H152.143C152.356 106.784 152.696 106.371 153.163 106.065C153.634 105.759 154.216 105.607 154.908 105.607C155.548 105.607 156.105 105.743 156.58 106.017C157.059 106.291 157.429 106.687 157.691 107.206C157.957 107.725 158.087 108.355 158.083 109.096V115H155.898V109.434C155.898 108.814 155.737 108.329 155.415 107.979C155.097 107.629 154.656 107.454 154.093 107.454C153.711 107.454 153.371 107.538 153.073 107.707C152.779 107.872 152.548 108.112 152.379 108.426C152.213 108.74 152.131 109.12 152.131 109.567Z" fill="#020817"/>
<g filter="url(#filter2_d_1388_331)">
<circle cx="32.5" cy="98.5" r="22.5" fill="#FF4A4A"/>
<circle cx="32.5" cy="98.5" r="21" stroke="#FFC1C1" stroke-width="3"/>
</g>
<path d="M43.7775 96.0004C44.328 98.802 43.9357 101.715 42.666 104.253C41.3963 106.791 39.326 108.8 36.8003 109.947C34.2747 111.094 31.4463 111.308 28.7869 110.553C26.1275 109.799 23.7978 108.122 22.1863 105.802C20.5748 103.482 19.779 100.659 19.9316 97.8046C20.0841 94.9498 21.1757 92.2355 23.0245 90.1143C24.8732 87.9932 27.3673 86.5934 30.0908 86.1484C32.8143 85.7034 35.6025 86.2402 37.9906 87.6691" stroke="white" stroke-width="2" stroke-linecap="round" stroke-linejoin="round"/>
<path d="M28.3486 97.25L31.9647 101L44.0183 88.5" stroke="white" stroke-width="2" stroke-linecap="round" stroke-linejoin="round"/>
<defs>
<filter id="filter0_d_1388_331" x="104.546" y="0.12793" width="107.617" height="193.018" filterUnits="userSpaceOnUse" color-interpolation-filters="sRGB">
<feFlood flood-opacity="0" result="BackgroundImageFix"/>
<feColorMatrix in="SourceAlpha" type="matrix" values="0 0 0 0 0 0 0 0 0 0 0 0 0 0 0 0 0 0 127 0" result="hardAlpha"/>
<feOffset/>
<feGaussianBlur stdDeviation="5"/>
<feComposite in2="hardAlpha" operator="out"/>
<feColorMatrix type="matrix" values="0 0 0 0 0 0 0 0 0 0 0 0 0 0 0 0 0 0 0.25 0"/>
<feBlend mode="normal" in2="BackgroundImageFix" result="effect1_dropShadow_1388_331"/>
<feBlend mode="normal" in="SourceGraphic" in2="effect1_dropShadow_1388_331" result="shape"/>
</filter>
<filter id="filter1_d_1388_331" x="5" y="74" width="56" height="56" filterUnits="userSpaceOnUse" color-interpolation-filters="sRGB">
<feFlood flood-opacity="0" result="BackgroundImageFix"/>
<feColorMatrix in="SourceAlpha" type="matrix" values="0 0 0 0 0 0 0 0 0 0 0 0 0 0 0 0 0 0 127 0" result="hardAlpha"/>
<feOffset dy="4"/>
<feGaussianBlur stdDeviation="2"/>
<feComposite in2="hardAlpha" operator="out"/>
<feColorMatrix type="matrix" values="0 0 0 0 0 0 0 0 0 0 0 0 0 0 0 0 0 0 0.25 0"/>
<feBlend mode="normal" in2="BackgroundImageFix" result="effect1_dropShadow_1388_331"/>
<feBlend mode="normal" in="SourceGraphic" in2="effect1_dropShadow_1388_331" result="shape"/>
</filter>
<filter id="filter2_d_1388_331" x="0" y="66" width="65" height="65" filterUnits="userSpaceOnUse" color-interpolation-filters="sRGB">
<feFlood flood-opacity="0" result="BackgroundImageFix"/>
<feColorMatrix in="SourceAlpha" type="matrix" values="0 0 0 0 0 0 0 0 0 0 0 0 0 0 0 0 0 0 127 0" result="hardAlpha"/>
<feOffset/>
<feGaussianBlur stdDeviation="5"/>
<feComposite in2="hardAlpha" operator="out"/>
<feColorMatrix type="matrix" values="0 0 0 0 0 0 0 0 0 0 0 0 0 0 0 0 0 0 0.2 0"/>
<feBlend mode="normal" in2="BackgroundImageFix" result="effect1_dropShadow_1388_331"/>
<feBlend mode="normal" in="SourceGraphic" in2="effect1_dropShadow_1388_331" result="shape"/>
</filter>
</defs>
</svg>
