<svg width="128" height="108" viewBox="0 0 128 108" fill="none" xmlns="http://www.w3.org/2000/svg">
<g filter="url(#filter0_d_1557_368)">
<path d="M104.339 48.4861C104.498 54.8432 103.402 61.1685 101.115 67.0902C98.8271 73.012 95.3944 78.4107 91.0183 82.9693C86.6422 87.5278 81.4108 91.1542 75.6318 93.6352C69.8527 96.1163 63.6424 97.402 57.3659 97.4169C51.0895 97.4317 44.8734 96.1753 39.0829 93.7216C33.2925 91.2679 28.0445 87.6662 23.6475 83.1284C19.2504 78.5906 15.7929 73.2081 13.4781 67.2972C11.1634 61.3863 10.0381 55.0663 10.1683 48.7086L11.8665 48.7443C11.7409 54.8728 12.8256 60.9649 15.0569 66.6626C17.2881 72.3603 20.621 77.5487 24.8595 81.9229C29.098 86.2971 34.1567 89.7688 39.7383 92.134C45.3199 94.4993 51.3119 95.7103 57.362 95.696C63.4121 95.6817 69.3984 94.4424 74.9691 92.0508C80.5398 89.6592 85.5824 86.1636 89.8008 81.7695C94.0191 77.3753 97.328 72.1712 99.533 66.463C101.738 60.7548 102.795 54.6577 102.641 48.5298L104.339 48.4861Z" fill="black"/>
</g>
<path d="M105.512 49.5C105.512 36.3718 100.428 23.7813 91.3783 14.4982C82.3285 5.21517 70.0544 9.91153e-07 57.2561 0C44.4578 -9.91153e-07 32.1837 5.21516 23.1339 14.4982C14.0841 23.7813 9 36.3718 9 49.5L12.9626 49.5C12.9626 37.4498 17.6292 25.8932 25.9359 17.3724C34.2425 8.85165 45.5087 4.06473 57.2561 4.06474C69.0034 4.06474 80.2697 8.85165 88.5763 17.3724C96.8829 25.8932 101.55 37.4498 101.55 49.5H105.512Z" fill="#E1E1E1"/>
<path d="M28.6808 41H26.2164V33.7273H28.7306C29.4526 33.7273 30.0729 33.8729 30.5914 34.1641C31.1122 34.4529 31.5123 34.8684 31.7916 35.4105C32.071 35.9527 32.2107 36.6013 32.2107 37.3565C32.2107 38.1141 32.0698 38.7652 31.7881 39.3097C31.5087 39.8542 31.1051 40.272 30.5771 40.5632C30.0516 40.8544 29.4195 41 28.6808 41ZM27.5338 39.8601H28.6169C29.1235 39.8601 29.5461 39.7678 29.8847 39.5831C30.2232 39.3961 30.4777 39.1179 30.6482 38.7486C30.8186 38.3769 30.9039 37.9129 30.9039 37.3565C30.9039 36.8002 30.8186 36.3385 30.6482 35.9716C30.4777 35.6023 30.2256 35.3265 29.8918 35.1442C29.5603 34.9595 29.1484 34.8672 28.656 34.8672H27.5338V39.8601ZM34.9752 41.1101C34.6296 41.1101 34.3183 41.0485 34.0413 40.9254C33.7667 40.8 33.5489 40.6153 33.3879 40.3714C33.2293 40.1276 33.1499 39.8269 33.1499 39.4695C33.1499 39.1617 33.2068 38.9072 33.3204 38.706C33.434 38.5047 33.5891 38.3438 33.7856 38.223C33.9821 38.1023 34.2035 38.0111 34.4497 37.9496C34.6982 37.8857 34.9551 37.8395 35.2203 37.8111C35.5399 37.7779 35.7991 37.7483 35.998 37.7223C36.1968 37.6939 36.3412 37.6513 36.4312 37.5945C36.5235 37.5353 36.5697 37.4441 36.5697 37.321V37.2997C36.5697 37.0322 36.4904 36.825 36.3318 36.6783C36.1731 36.5315 35.9447 36.4581 35.6464 36.4581C35.3315 36.4581 35.0818 36.5268 34.8971 36.6641C34.7148 36.8014 34.5917 36.9635 34.5278 37.1506L33.3275 36.9801C33.4222 36.6487 33.5785 36.3717 33.7963 36.1491C34.0141 35.9242 34.2804 35.7562 34.5953 35.6449C34.9101 35.5312 35.2581 35.4744 35.6393 35.4744C35.9021 35.4744 36.1637 35.5052 36.4241 35.5668C36.6845 35.6283 36.9224 35.7301 37.1379 35.8722C37.3533 36.0118 37.5261 36.2024 37.6563 36.4439C37.7889 36.6854 37.8552 36.9872 37.8552 37.3494V41H36.6194V40.2507H36.5768C36.4987 40.4022 36.3886 40.5443 36.2465 40.6768C36.1069 40.8071 35.9305 40.9124 35.7174 40.9929C35.5067 41.071 35.2593 41.1101 34.9752 41.1101ZM35.309 40.1655C35.5671 40.1655 35.7908 40.1146 35.9802 40.0128C36.1696 39.9086 36.3152 39.7713 36.417 39.6009C36.5212 39.4304 36.5732 39.2446 36.5732 39.0433V38.4006C36.533 38.4337 36.4643 38.4645 36.3673 38.4929C36.2726 38.5213 36.166 38.5462 36.0477 38.5675C35.9293 38.5888 35.8121 38.6077 35.6961 38.6243C35.5801 38.6409 35.4795 38.6551 35.3943 38.6669C35.2025 38.6929 35.0309 38.7356 34.8794 38.7947C34.7278 38.8539 34.6083 38.9368 34.5207 39.0433C34.4331 39.1475 34.3893 39.2824 34.3893 39.4482C34.3893 39.6849 34.4757 39.8636 34.6485 39.9844C34.8213 40.1051 35.0415 40.1655 35.309 40.1655ZM39.1478 41V35.5455H40.4333V41H39.1478ZM39.7941 34.7713C39.5905 34.7713 39.4153 34.7038 39.2686 34.5689C39.1218 34.4316 39.0484 34.267 39.0484 34.0753C39.0484 33.8812 39.1218 33.7166 39.2686 33.5817C39.4153 33.4444 39.5905 33.3757 39.7941 33.3757C40.0001 33.3757 40.1753 33.4444 40.3197 33.5817C40.4665 33.7166 40.5399 33.8812 40.5399 34.0753C40.5399 34.267 40.4665 34.4316 40.3197 34.5689C40.1753 34.7038 40.0001 34.7713 39.7941 34.7713ZM43.0407 33.7273V41H41.7552V33.7273H43.0407ZM45.1617 43.0455C44.9865 43.0455 44.8243 43.0313 44.6752 43.0028C44.5284 42.9768 44.4112 42.946 44.3236 42.9105L44.6219 41.9091C44.8089 41.9635 44.9758 41.9896 45.1226 41.9872C45.2694 41.9848 45.3984 41.9387 45.5097 41.8487C45.6233 41.7611 45.7192 41.6143 45.7973 41.4084L45.9074 41.1136L43.9294 35.5455H45.2931L46.5502 39.6648H46.607L47.8676 35.5455H49.2348L47.0509 41.6605C46.9491 41.9493 46.8141 42.1967 46.646 42.4027C46.478 42.611 46.272 42.7696 46.0281 42.8786C45.7867 42.9898 45.4978 43.0455 45.1617 43.0455ZM51.2918 40.0057L51.2456 40.3963C51.2125 40.6946 51.1533 40.9976 51.0681 41.3054C50.9852 41.6155 50.8976 41.9008 50.8053 42.1612C50.713 42.4216 50.6384 42.6264 50.5816 42.7756H49.7151C49.7483 42.6312 49.7932 42.4347 49.8501 42.1861C49.9092 41.9375 49.9661 41.6581 50.0205 41.348C50.075 41.0379 50.1117 40.723 50.1306 40.4034L50.1555 40.0057H51.2918ZM54.3192 41L52.2666 33.7273H53.6835L54.9939 39.0717H55.0613L56.4605 33.7273H57.7496L59.1523 39.0753H59.2162L60.5265 33.7273H61.9434L59.8909 41H58.5912L57.1352 35.897H57.0784L55.6189 41H54.3192ZM64.6583 41.1065C64.1114 41.1065 63.6391 40.9929 63.2414 40.7656C62.846 40.536 62.5418 40.2116 62.3287 39.7926C62.1157 39.3712 62.0091 38.8752 62.0091 38.3047C62.0091 37.7436 62.1157 37.2512 62.3287 36.8274C62.5442 36.4013 62.8448 36.0698 63.2307 35.8331C63.6166 35.594 64.07 35.4744 64.5908 35.4744C64.927 35.4744 65.2442 35.5289 65.5425 35.6378C65.8432 35.7443 66.1083 35.91 66.338 36.1349C66.57 36.3598 66.7523 36.6463 66.8849 36.9943C67.0174 37.34 67.0837 37.7519 67.0837 38.2301V38.6243H62.6128V37.7578H65.8515C65.8491 37.5116 65.7958 37.2926 65.6917 37.1009C65.5875 36.9067 65.4419 36.754 65.2549 36.6428C65.0702 36.5315 64.8548 36.4759 64.6086 36.4759C64.3458 36.4759 64.115 36.5398 63.9161 36.6676C63.7172 36.7931 63.5622 36.9588 63.4509 37.1648C63.342 37.3684 63.2864 37.5921 63.284 37.8359V38.5923C63.284 38.9096 63.342 39.1818 63.458 39.4091C63.574 39.634 63.7362 39.8068 63.9445 39.9276C64.1528 40.0459 64.3967 40.1051 64.676 40.1051C64.8631 40.1051 65.0323 40.0791 65.1839 40.027C65.3354 39.9725 65.4668 39.8932 65.578 39.7891C65.6893 39.6849 65.7733 39.5559 65.8302 39.402L67.0305 39.5369C66.9547 39.8542 66.8103 40.1312 66.5972 40.3679C66.3865 40.6023 66.1166 40.7846 65.7876 40.9148C65.4585 41.0426 65.0821 41.1065 64.6583 41.1065ZM70.586 41.1065C70.0392 41.1065 69.5669 40.9929 69.1691 40.7656C68.7738 40.536 68.4695 40.2116 68.2565 39.7926C68.0434 39.3712 67.9369 38.8752 67.9369 38.3047C67.9369 37.7436 68.0434 37.2512 68.2565 36.8274C68.4719 36.4013 68.7726 36.0698 69.1585 35.8331C69.5444 35.594 69.9977 35.4744 70.5186 35.4744C70.8547 35.4744 71.172 35.5289 71.4703 35.6378C71.7709 35.7443 72.0361 35.91 72.2657 36.1349C72.4977 36.3598 72.68 36.6463 72.8126 36.9943C72.9452 37.34 73.0115 37.7519 73.0115 38.2301V38.6243H68.5406V37.7578H71.7792C71.7768 37.5116 71.7236 37.2926 71.6194 37.1009C71.5152 36.9067 71.3696 36.754 71.1826 36.6428C70.998 36.5315 70.7825 36.4759 70.5363 36.4759C70.2735 36.4759 70.0427 36.5398 69.8438 36.6676C69.645 36.7931 69.4899 36.9588 69.3786 37.1648C69.2697 37.3684 69.2141 37.5921 69.2117 37.8359V38.5923C69.2117 38.9096 69.2697 39.1818 69.3857 39.4091C69.5017 39.634 69.6639 39.8068 69.8722 39.9276C70.0806 40.0459 70.3244 40.1051 70.6038 40.1051C70.7908 40.1051 70.9601 40.0791 71.1116 40.027C71.2631 39.9725 71.3945 39.8932 71.5058 39.7891C71.617 39.6849 71.7011 39.5559 71.7579 39.402L72.9582 39.5369C72.8824 39.8542 72.738 40.1312 72.5249 40.3679C72.3142 40.6023 72.0444 40.7846 71.7153 40.9148C71.3862 41.0426 71.0098 41.1065 70.586 41.1065ZM75.2709 39.2884L75.2673 37.7365H75.4733L77.4335 35.5455H78.9356L76.5244 38.2301H76.2581L75.2709 39.2884ZM74.099 41V33.7273H75.3845V41H74.099ZM77.5223 41L75.7467 38.5178L76.6132 37.6122L79.0599 41H77.5223ZM81.0779 33.7273V41H79.7923V33.7273H81.0779ZM83.1988 43.0455C83.0236 43.0455 82.8614 43.0313 82.7123 43.0028C82.5655 42.9768 82.4483 42.946 82.3607 42.9105L82.659 41.9091C82.846 41.9635 83.0129 41.9896 83.1597 41.9872C83.3065 41.9848 83.4355 41.9387 83.5468 41.8487C83.6604 41.7611 83.7563 41.6143 83.8344 41.4084L83.9445 41.1136L81.9665 35.5455H83.3302L84.5873 39.6648H84.6441L85.9047 35.5455H87.2719L85.088 41.6605C84.9862 41.9493 84.8512 42.1967 84.6831 42.4027C84.5151 42.611 84.3091 42.7696 84.0653 42.8786C83.8238 42.9898 83.5349 43.0455 83.1988 43.0455ZM35.3543 54.1065C34.8572 54.1065 34.4298 54.0166 34.0724 53.8366C33.7149 53.6567 33.4391 53.4141 33.2449 53.1087C33.0532 52.8009 32.9573 52.4541 32.9573 52.0682C32.9573 51.777 33.0165 51.5189 33.1349 51.294C33.2556 51.0691 33.4213 50.8608 33.632 50.669C33.8451 50.4773 34.0913 50.2867 34.3706 50.0973L35.6597 49.2202C35.8491 49.0971 35.9923 48.9669 36.0894 48.8295C36.1888 48.6922 36.2385 48.5312 36.2385 48.3466C36.2385 48.1903 36.1723 48.0424 36.0397 47.9027C35.9095 47.763 35.7296 47.6932 35.4999 47.6932C35.346 47.6932 35.2099 47.7299 35.0915 47.8033C34.9755 47.8743 34.8844 47.9678 34.8181 48.0838C34.7542 48.1998 34.7222 48.3229 34.7222 48.4531C34.7222 48.6117 34.766 48.7727 34.8536 48.9361C34.9436 49.0994 35.0596 49.2687 35.2016 49.4439C35.346 49.6191 35.4999 49.8049 35.6633 50.0014L39.0759 54H37.6839L34.8501 50.7543C34.6394 50.508 34.4358 50.2654 34.2393 50.0263C34.0451 49.7872 33.8853 49.5386 33.7599 49.2805C33.6367 49.0201 33.5752 48.7384 33.5752 48.4354C33.5752 48.0921 33.6545 47.7855 33.8131 47.5156C33.9717 47.2434 34.1931 47.0291 34.4772 46.8729C34.7636 46.7166 35.0986 46.6385 35.4822 46.6385C35.8657 46.6385 36.1948 46.7143 36.4694 46.8658C36.744 47.0173 36.9559 47.2185 37.105 47.4695C37.2542 47.7204 37.3287 47.9938 37.3287 48.2898C37.3287 48.633 37.2435 48.9408 37.0731 49.2131C36.9026 49.483 36.6659 49.728 36.3628 49.9482L34.8927 51.0241C34.6512 51.1993 34.4784 51.3769 34.3742 51.5568C34.27 51.7344 34.218 51.8859 34.218 52.0114C34.218 52.2031 34.2665 52.3771 34.3635 52.5334C34.4606 52.6896 34.5967 52.8151 34.7719 52.9098C34.9495 53.0021 35.1566 53.0483 35.3934 53.0483C35.6538 53.0483 35.9107 52.9903 36.164 52.8743C36.4173 52.7559 36.6481 52.5878 36.8564 52.37C37.0648 52.1522 37.2305 51.8918 37.3536 51.5888C37.4767 51.2834 37.5383 50.9448 37.5383 50.5732H38.6427C38.6427 51.0324 38.5918 51.4325 38.49 51.7734C38.3882 52.112 38.2568 52.3984 38.0958 52.6328C37.9348 52.8648 37.7644 53.0507 37.5844 53.1903C37.5276 53.2306 37.4732 53.2708 37.4211 53.3111C37.369 53.3513 37.3145 53.3916 37.2577 53.4318C37.002 53.6638 36.7026 53.8343 36.3593 53.9432C36.0184 54.0521 35.6834 54.1065 35.3543 54.1065ZM42.3492 54V46.7273H45.0764C45.6352 46.7273 46.1039 46.8314 46.4827 47.0398C46.8638 47.2481 47.1515 47.5346 47.3456 47.8991C47.5421 48.2614 47.6404 48.6733 47.6404 49.1349C47.6404 49.6013 47.5421 50.0156 47.3456 50.3778C47.1491 50.7401 46.8591 51.0253 46.4756 51.2337C46.0921 51.4396 45.6198 51.5426 45.0587 51.5426H43.2512V50.4595H44.8811C45.2078 50.4595 45.4753 50.4027 45.6837 50.2891C45.892 50.1754 46.0459 50.0192 46.1453 49.8203C46.2471 49.6214 46.298 49.393 46.298 49.1349C46.298 48.8769 46.2471 48.6496 46.1453 48.4531C46.0459 48.2566 45.8908 48.1039 45.6801 47.995C45.4718 47.8838 45.2031 47.8281 44.874 47.8281H43.6666V54H42.3492ZM48.7279 54V48.5455H49.9743V49.4545H50.0312C50.1306 49.1397 50.301 48.897 50.5425 48.7266C50.7864 48.5537 51.0645 48.4673 51.377 48.4673C51.4481 48.4673 51.5274 48.4709 51.615 48.478C51.7049 48.4827 51.7795 48.491 51.8387 48.5028V49.6854C51.7842 49.6664 51.6978 49.6499 51.5795 49.6357C51.4635 49.6191 51.351 49.6108 51.2421 49.6108C51.0077 49.6108 50.797 49.6617 50.61 49.7635C50.4253 49.8629 50.2797 50.0014 50.1732 50.179C50.0667 50.3565 50.0134 50.5613 50.0134 50.7933V54H48.7279ZM54.8474 54.1065C54.3147 54.1065 53.8531 53.9893 53.4624 53.755C53.0718 53.5206 52.7688 53.1927 52.5534 52.7713C52.3403 52.3499 52.2338 51.8575 52.2338 51.294C52.2338 50.7306 52.3403 50.237 52.5534 49.8132C52.7688 49.3894 53.0718 49.0604 53.4624 48.826C53.8531 48.5916 54.3147 48.4744 54.8474 48.4744C55.3801 48.4744 55.8417 48.5916 56.2323 48.826C56.623 49.0604 56.9248 49.3894 57.1379 49.8132C57.3533 50.237 57.461 50.7306 57.461 51.294C57.461 51.8575 57.3533 52.3499 57.1379 52.7713C56.9248 53.1927 56.623 53.5206 56.2323 53.755C55.8417 53.9893 55.3801 54.1065 54.8474 54.1065ZM54.8545 53.0767C55.1433 53.0767 55.3848 52.9974 55.5789 52.8388C55.7731 52.6778 55.9175 52.4624 56.0122 52.1925C56.1092 51.9226 56.1578 51.6219 56.1578 51.2905C56.1578 50.9567 56.1092 50.6548 56.0122 50.3849C55.9175 50.1127 55.7731 49.8961 55.5789 49.7351C55.3848 49.5741 55.1433 49.4936 54.8545 49.4936C54.5586 49.4936 54.3124 49.5741 54.1159 49.7351C53.9217 49.8961 53.7761 50.1127 53.6791 50.3849C53.5844 50.6548 53.537 50.9567 53.537 51.2905C53.537 51.6219 53.5844 51.9226 53.6791 52.1925C53.7761 52.4624 53.9217 52.6778 54.1159 52.8388C54.3124 52.9974 54.5586 53.0767 54.8545 53.0767ZM58.5521 48.5455H59.8376V54.3125C59.8376 54.7055 59.7631 55.0298 59.6139 55.2855C59.4648 55.5412 59.2493 55.7318 58.9676 55.8572C58.6859 55.9827 58.3438 56.0455 57.9413 56.0455C57.894 56.0455 57.8502 56.0443 57.8099 56.0419C57.7697 56.0419 57.7259 56.0407 57.6785 56.0384V54.9908C57.714 54.9931 57.746 54.9943 57.7744 54.9943C57.8028 54.9967 57.8324 54.9979 57.8632 54.9979C58.1094 54.9979 58.2858 54.9375 58.3923 54.8168C58.4988 54.6984 58.5521 54.5244 58.5521 54.2947V48.5455ZM59.1913 47.7713C58.9854 47.7713 58.809 47.7038 58.6622 47.5689C58.5178 47.4316 58.4456 47.267 58.4456 47.0753C58.4456 46.8812 58.5178 46.7166 58.6622 46.5817C58.809 46.4444 58.9854 46.3757 59.1913 46.3757C59.3949 46.3757 59.5689 46.4444 59.7133 46.5817C59.8601 46.7166 59.9335 46.8812 59.9335 47.0753C59.9335 47.267 59.8601 47.4316 59.7133 47.5689C59.5689 47.7038 59.3949 47.7713 59.1913 47.7713ZM63.5743 54.1065C63.0274 54.1065 62.5551 53.9929 62.1574 53.7656C61.762 53.536 61.4578 53.2116 61.2448 52.7926C61.0317 52.3712 60.9252 51.8752 60.9252 51.3047C60.9252 50.7436 61.0317 50.2512 61.2448 49.8274C61.4602 49.4013 61.7609 49.0698 62.1468 48.8331C62.5326 48.594 62.986 48.4744 63.5068 48.4744C63.843 48.4744 64.1602 48.5289 64.4585 48.6378C64.7592 48.7443 65.0244 48.91 65.254 49.1349C65.486 49.3598 65.6683 49.6463 65.8009 49.9943C65.9334 50.34 65.9997 50.7519 65.9997 51.2301V51.6243H61.5289V50.7578H64.7675C64.7651 50.5116 64.7119 50.2926 64.6077 50.1009C64.5035 49.9067 64.3579 49.754 64.1709 49.6428C63.9862 49.5315 63.7708 49.4759 63.5246 49.4759C63.2618 49.4759 63.031 49.5398 62.8321 49.6676C62.6333 49.7931 62.4782 49.9588 62.3669 50.1648C62.258 50.3684 62.2024 50.5921 62.2 50.8359V51.5923C62.2 51.9096 62.258 52.1818 62.374 52.4091C62.49 52.634 62.6522 52.8068 62.8605 52.9276C63.0689 53.0459 63.3127 53.1051 63.5921 53.1051C63.7791 53.1051 63.9484 53.0791 64.0999 53.027C64.2514 52.9725 64.3828 52.8932 64.4941 52.7891C64.6053 52.6849 64.6894 52.5559 64.7462 52.402L65.9465 52.5369C65.8707 52.8542 65.7263 53.1312 65.5132 53.3679C65.3025 53.6023 65.0326 53.7846 64.7036 53.9148C64.3745 54.0426 63.9981 54.1065 63.5743 54.1065ZM69.4665 54.1065C68.922 54.1065 68.4545 53.987 68.0638 53.7479C67.6756 53.5088 67.3761 53.1785 67.1654 52.7571C66.9571 52.3333 66.8529 51.8456 66.8529 51.294C66.8529 50.7401 66.9594 50.2512 67.1725 49.8274C67.3856 49.4013 67.6862 49.0698 68.0745 48.8331C68.4651 48.594 68.9268 48.4744 69.4594 48.4744C69.9021 48.4744 70.2939 48.5561 70.6349 48.7195C70.9781 48.8804 71.2516 49.1089 71.4552 49.4048C71.6588 49.6984 71.7748 50.0417 71.8032 50.4347H70.5745C70.5248 50.1719 70.4064 49.9529 70.2194 49.7777C70.0347 49.6001 69.7873 49.5114 69.4772 49.5114C69.2144 49.5114 68.9836 49.5824 68.7847 49.7244C68.5858 49.8641 68.4308 50.0653 68.3195 50.3281C68.2106 50.5909 68.1562 50.9058 68.1562 51.2727C68.1562 51.6444 68.2106 51.964 68.3195 52.2315C68.4284 52.4967 68.5811 52.7015 68.7776 52.8459C68.9765 52.9879 69.2097 53.0589 69.4772 53.0589C69.6666 53.0589 69.8358 53.0234 69.985 52.9524C70.1365 52.879 70.2632 52.7737 70.365 52.6364C70.4668 52.4991 70.5366 52.3321 70.5745 52.1357H71.8032C71.7724 52.5215 71.6588 52.8636 71.4623 53.1619C71.2658 53.4579 70.9983 53.6899 70.6597 53.858C70.3212 54.0237 69.9234 54.1065 69.4665 54.1065ZM75.5825 48.5455V49.5398H72.4468V48.5455H75.5825ZM73.221 47.2386H74.5065V52.3594C74.5065 52.5322 74.5325 52.6648 74.5846 52.7571C74.6391 52.8471 74.7101 52.9086 74.7977 52.9418C74.8853 52.9749 74.9823 52.9915 75.0889 52.9915C75.1694 52.9915 75.2427 52.9856 75.309 52.9737C75.3777 52.9619 75.4298 52.9512 75.4653 52.9418L75.6819 53.9467C75.6133 53.9704 75.515 53.9964 75.3872 54.0249C75.2617 54.0533 75.1078 54.0698 74.9255 54.0746C74.6035 54.084 74.3135 54.0355 74.0555 53.929C73.7974 53.8201 73.5927 53.652 73.4411 53.4247C73.292 53.1974 73.2186 52.9134 73.221 52.5724V47.2386ZM79.7879 50.4418V51.5H76.5138V50.4418H79.7879ZM27.6665 67V59.7273H32.3967V60.8317H28.984V62.8061H32.1516V63.9105H28.984V65.8956H32.4251V67H27.6665ZM34.9695 63.804V67H33.6839V61.5455H34.9126V62.4723H34.9766C35.102 62.1669 35.3021 61.9242 35.5767 61.7443C35.8537 61.5644 36.1958 61.4744 36.603 61.4744C36.9794 61.4744 37.3073 61.5549 37.5866 61.7159C37.8684 61.8769 38.0862 62.1101 38.2401 62.4155C38.3963 62.7209 38.4732 63.0914 38.4709 63.527V67H37.1854V63.7259C37.1854 63.3613 37.0907 63.076 36.9013 62.87C36.7143 62.6641 36.455 62.5611 36.1236 62.5611C35.8987 62.5611 35.6986 62.6108 35.5234 62.7102C35.3506 62.8073 35.2145 62.9482 35.1151 63.1328C35.018 63.3175 34.9695 63.5412 34.9695 63.804ZM41.8018 67.0959C41.3733 67.0959 40.9898 66.9858 40.6513 66.7656C40.3127 66.5455 40.0452 66.2259 39.8487 65.8068C39.6522 65.3878 39.554 64.8788 39.554 64.2798C39.554 63.6738 39.6534 63.1624 39.8523 62.7457C40.0535 62.3267 40.3246 62.0107 40.6655 61.7976C41.0064 61.5821 41.3864 61.4744 41.8054 61.4744C42.125 61.4744 42.3878 61.5289 42.5938 61.6378C42.7997 61.7443 42.9631 61.8733 43.0838 62.0249C43.2045 62.174 43.2981 62.3149 43.3643 62.4474H43.4176V59.7273H44.7067V67H43.4425V66.1406H43.3643C43.2981 66.2732 43.2022 66.4141 43.0767 66.5632C42.9512 66.71 42.7855 66.8355 42.5795 66.9396C42.3736 67.0438 42.1143 67.0959 41.8018 67.0959ZM42.1605 66.0412C42.4328 66.0412 42.6648 65.9678 42.8565 65.821C43.0483 65.6719 43.1939 65.4647 43.2933 65.1996C43.3928 64.9344 43.4425 64.6255 43.4425 64.2727C43.4425 63.92 43.3928 63.6134 43.2933 63.353C43.1963 63.0926 43.0518 62.8902 42.8601 62.7457C42.6707 62.6013 42.4375 62.5291 42.1605 62.5291C41.8741 62.5291 41.6349 62.6037 41.4432 62.7528C41.2514 62.902 41.107 63.108 41.0099 63.3707C40.9129 63.6335 40.8643 63.9342 40.8643 64.2727C40.8643 64.6136 40.9129 64.9179 41.0099 65.1854C41.1094 65.4505 41.255 65.66 41.4467 65.8139C41.6409 65.9654 41.8788 66.0412 42.1605 66.0412ZM48.6138 67V59.7273H51.3411C51.8998 59.7273 52.3685 59.8243 52.7473 60.0185C53.1285 60.2126 53.4161 60.4848 53.6103 60.8352C53.8068 61.1832 53.905 61.5893 53.905 62.0533C53.905 62.5196 53.8056 62.9245 53.6067 63.2678C53.4102 63.6087 53.1202 63.8726 52.7367 64.0597C52.3532 64.2443 51.882 64.3366 51.3233 64.3366H49.3809V63.2429H51.1458C51.4725 63.2429 51.74 63.1979 51.9483 63.108C52.1567 63.0156 52.3105 62.8819 52.41 62.7067C52.5118 62.5291 52.5627 62.3113 52.5627 62.0533C52.5627 61.7952 52.5118 61.575 52.41 61.3928C52.3082 61.2081 52.1531 61.0684 51.9448 60.9737C51.7364 60.8767 51.4677 60.8281 51.1387 60.8281H49.9313V67H48.6138ZM52.3709 63.7045L54.1713 67H52.7012L50.9327 63.7045H52.3709ZM57.3975 67.1065C56.8507 67.1065 56.3784 66.9929 55.9806 66.7656C55.5853 66.536 55.2811 66.2116 55.068 65.7926C54.8549 65.3712 54.7484 64.8752 54.7484 64.3047C54.7484 63.7436 54.8549 63.2512 55.068 62.8274C55.2834 62.4013 55.5841 62.0698 55.97 61.8331C56.3559 61.594 56.8092 61.4744 57.3301 61.4744C57.6663 61.4744 57.9835 61.5289 58.2818 61.6378C58.5824 61.7443 58.8476 61.91 59.0772 62.1349C59.3092 62.3598 59.4915 62.6463 59.6241 62.9943C59.7567 63.34 59.823 63.7519 59.823 64.2301V64.6243H55.3521V63.7578H58.5907C58.5884 63.5116 58.5351 63.2926 58.4309 63.1009C58.3268 62.9067 58.1812 62.754 57.9941 62.6428C57.8095 62.5315 57.594 62.4759 57.3478 62.4759C57.085 62.4759 56.8542 62.5398 56.6554 62.6676C56.4565 62.7931 56.3014 62.9588 56.1902 63.1648C56.0813 63.3684 56.0256 63.5921 56.0233 63.8359V64.5923C56.0233 64.9096 56.0813 65.1818 56.1973 65.4091C56.3133 65.634 56.4754 65.8068 56.6838 65.9276C56.8921 66.0459 57.1359 66.1051 57.4153 66.1051C57.6023 66.1051 57.7716 66.0791 57.9231 66.027C58.0746 65.9725 58.206 65.8932 58.3173 65.7891C58.4286 65.6849 58.5126 65.5559 58.5694 65.402L59.7697 65.5369C59.694 65.8542 59.5495 66.1312 59.3365 66.3679C59.1258 66.6023 58.8559 66.7846 58.5268 66.9148C58.1977 67.0426 57.8213 67.1065 57.3975 67.1065ZM60.9105 69.0455V61.5455H62.1747V62.4474H62.2493C62.3156 62.3149 62.4091 62.174 62.5298 62.0249C62.6506 61.8733 62.8139 61.7443 63.0199 61.6378C63.2259 61.5289 63.4886 61.4744 63.8082 61.4744C64.2296 61.4744 64.6096 61.5821 64.9482 61.7976C65.2891 62.0107 65.5589 62.3267 65.7578 62.7457C65.959 63.1624 66.0597 63.6738 66.0597 64.2798C66.0597 64.8788 65.9614 65.3878 65.7649 65.8068C65.5684 66.2259 65.3009 66.5455 64.9624 66.7656C64.6238 66.9858 64.2403 67.0959 63.8118 67.0959C63.4993 67.0959 63.2401 67.0438 63.0341 66.9396C62.8281 66.8355 62.6624 66.71 62.5369 66.5632C62.4138 66.4141 62.3179 66.2732 62.2493 66.1406H62.196V69.0455H60.9105ZM62.1712 64.2727C62.1712 64.6255 62.2209 64.9344 62.3203 65.1996C62.4221 65.4647 62.5677 65.6719 62.7571 65.821C62.9489 65.9678 63.1809 66.0412 63.4531 66.0412C63.7372 66.0412 63.9751 65.9654 64.1669 65.8139C64.3587 65.66 64.5031 65.4505 64.6001 65.1854C64.6996 64.9179 64.7493 64.6136 64.7493 64.2727C64.7493 63.9342 64.7008 63.6335 64.6037 63.3707C64.5066 63.108 64.3622 62.902 64.1705 62.7528C63.9787 62.6037 63.7396 62.5291 63.4531 62.5291C63.1785 62.5291 62.9453 62.6013 62.7536 62.7457C62.5618 62.8902 62.4162 63.0926 62.3168 63.353C62.2197 63.6134 62.1712 63.92 62.1712 64.2727ZM69.5398 67.1065C69.0071 67.1065 68.5455 66.9893 68.1548 66.755C67.7642 66.5206 67.4612 66.1927 67.2457 65.7713C67.0327 65.3499 66.9261 64.8575 66.9261 64.294C66.9261 63.7306 67.0327 63.237 67.2457 62.8132C67.4612 62.3894 67.7642 62.0604 68.1548 61.826C68.5455 61.5916 69.0071 61.4744 69.5398 61.4744C70.0724 61.4744 70.5341 61.5916 70.9247 61.826C71.3153 62.0604 71.6172 62.3894 71.8303 62.8132C72.0457 63.237 72.1534 63.7306 72.1534 64.294C72.1534 64.8575 72.0457 65.3499 71.8303 65.7713C71.6172 66.1927 71.3153 66.5206 70.9247 66.755C70.5341 66.9893 70.0724 67.1065 69.5398 67.1065ZM69.5469 66.0767C69.8357 66.0767 70.0772 65.9974 70.2713 65.8388C70.4654 65.6778 70.6098 65.4624 70.7045 65.1925C70.8016 64.9226 70.8501 64.6219 70.8501 64.2905C70.8501 63.9567 70.8016 63.6548 70.7045 63.3849C70.6098 63.1127 70.4654 62.8961 70.2713 62.7351C70.0772 62.5741 69.8357 62.4936 69.5469 62.4936C69.2509 62.4936 69.0047 62.5741 68.8082 62.7351C68.6141 62.8961 68.4685 63.1127 68.3714 63.3849C68.2768 63.6548 68.2294 63.9567 68.2294 64.2905C68.2294 64.6219 68.2768 64.9226 68.3714 65.1925C68.4685 65.4624 68.6141 65.6778 68.8082 65.8388C69.0047 65.9974 69.2509 66.0767 69.5469 66.0767ZM73.2445 67V61.5455H74.4909V62.4545H74.5478C74.6472 62.1397 74.8176 61.897 75.0591 61.7266C75.303 61.5537 75.5811 61.4673 75.8936 61.4673C75.9647 61.4673 76.044 61.4709 76.1316 61.478C76.2215 61.4827 76.2961 61.491 76.3553 61.5028V62.6854C76.3008 62.6664 76.2144 62.6499 76.0961 62.6357C75.9801 62.6191 75.8676 62.6108 75.7587 62.6108C75.5243 62.6108 75.3136 62.6617 75.1266 62.7635C74.9419 62.8629 74.7963 63.0014 74.6898 63.179C74.5833 63.3565 74.53 63.5613 74.53 63.7933V67H73.2445ZM80.226 61.5455V62.5398H77.0904V61.5455H80.226ZM77.8645 60.2386H79.15V65.3594C79.15 65.5322 79.1761 65.6648 79.2282 65.7571C79.2826 65.8471 79.3536 65.9086 79.4412 65.9418C79.5288 65.9749 79.6259 65.9915 79.7324 65.9915C79.8129 65.9915 79.8863 65.9856 79.9526 65.9737C80.0212 65.9619 80.0733 65.9512 80.1088 65.9418L80.3255 66.9467C80.2568 66.9704 80.1586 66.9964 80.0307 67.0249C79.9052 67.0533 79.7514 67.0698 79.5691 67.0746C79.2471 67.084 78.9571 67.0355 78.699 66.929C78.441 66.8201 78.2362 66.652 78.0847 66.4247C77.9355 66.1974 77.8622 65.9134 77.8645 65.5724V60.2386ZM85.5341 62.9872L84.3622 63.1151C84.3291 62.9967 84.2711 62.8854 84.1882 62.7812C84.1077 62.6771 83.9988 62.593 83.8615 62.5291C83.7242 62.4652 83.5561 62.4332 83.3572 62.4332C83.0897 62.4332 82.8648 62.4912 82.6825 62.6072C82.5026 62.7232 82.4138 62.8736 82.4162 63.0582C82.4138 63.2169 82.4718 63.3459 82.5902 63.4453C82.7109 63.5447 82.9098 63.6264 83.1868 63.6903L84.1172 63.8892C84.6333 64.0005 85.0168 64.1768 85.2678 64.4183C85.5211 64.6598 85.6489 64.9759 85.6513 65.3665C85.6489 65.7098 85.5483 66.0128 85.3494 66.2756C85.1529 66.536 84.8795 66.7396 84.5291 66.8864C84.1787 67.0331 83.7763 67.1065 83.3217 67.1065C82.6541 67.1065 82.1167 66.9669 81.7095 66.6875C81.3023 66.4058 81.0597 66.014 80.9815 65.5121L82.2351 65.3913C82.2919 65.6375 82.4126 65.8234 82.5973 65.9489C82.782 66.0743 83.0223 66.1371 83.3182 66.1371C83.6236 66.1371 83.8686 66.0743 84.0533 65.9489C84.2403 65.8234 84.3338 65.6683 84.3338 65.4837C84.3338 65.3274 84.2734 65.1984 84.1527 65.0966C84.0343 64.9948 83.8497 64.9167 83.5987 64.8622L82.6683 64.6669C82.1451 64.558 81.758 64.3745 81.5071 64.1165C81.2562 63.8561 81.1319 63.527 81.1342 63.1293C81.1319 62.7931 81.223 62.5019 81.4077 62.2557C81.5947 62.0071 81.8539 61.8153 82.1854 61.6804C82.5192 61.5431 82.9039 61.4744 83.3395 61.4744C83.9787 61.4744 84.4818 61.6106 84.8487 61.8828C85.218 62.1551 85.4465 62.5232 85.5341 62.9872Z" fill="#020817"/>
<g filter="url(#filter1_d_1557_368)">
<circle cx="106" cy="46" r="13" fill="white"/>
</g>
<g filter="url(#filter2_d_1557_368)">
<circle cx="106" cy="46" r="12" fill="#FF4A4A"/>
<circle cx="106" cy="46" r="10.5" stroke="#FFC1C1" stroke-width="3"/>
</g>
<path d="M101.697 42.1455V48.9989C101.697 49.2261 101.788 49.444 101.948 49.6047C102.109 49.7653 102.327 49.8556 102.554 49.8556H109.407" stroke="white" stroke-linecap="round" stroke-linejoin="round"/>
<path d="M108.55 44.7158L106.409 46.8575L104.695 45.1442L103.41 46.4292" stroke="white" stroke-linecap="round" stroke-linejoin="round"/>
<defs>
<filter id="filter0_d_1557_368" x="0.158203" y="38.4863" width="114.196" height="68.9307" filterUnits="userSpaceOnUse" color-interpolation-filters="sRGB">
<feFlood flood-opacity="0" result="BackgroundImageFix"/>
<feColorMatrix in="SourceAlpha" type="matrix" values="0 0 0 0 0 0 0 0 0 0 0 0 0 0 0 0 0 0 127 0" result="hardAlpha"/>
<feOffset/>
<feGaussianBlur stdDeviation="5"/>
<feComposite in2="hardAlpha" operator="out"/>
<feColorMatrix type="matrix" values="0 0 0 0 0 0 0 0 0 0 0 0 0 0 0 0 0 0 0.25 0"/>
<feBlend mode="normal" in2="BackgroundImageFix" result="effect1_dropShadow_1557_368"/>
<feBlend mode="normal" in="SourceGraphic" in2="effect1_dropShadow_1557_368" result="shape"/>
</filter>
<filter id="filter1_d_1557_368" x="89" y="33" width="34" height="34" filterUnits="userSpaceOnUse" color-interpolation-filters="sRGB">
<feFlood flood-opacity="0" result="BackgroundImageFix"/>
<feColorMatrix in="SourceAlpha" type="matrix" values="0 0 0 0 0 0 0 0 0 0 0 0 0 0 0 0 0 0 127 0" result="hardAlpha"/>
<feOffset dy="4"/>
<feGaussianBlur stdDeviation="2"/>
<feComposite in2="hardAlpha" operator="out"/>
<feColorMatrix type="matrix" values="0 0 0 0 0 0 0 0 0 0 0 0 0 0 0 0 0 0 0.25 0"/>
<feBlend mode="normal" in2="BackgroundImageFix" result="effect1_dropShadow_1557_368"/>
<feBlend mode="normal" in="SourceGraphic" in2="effect1_dropShadow_1557_368" result="shape"/>
</filter>
<filter id="filter2_d_1557_368" x="84" y="24" width="44" height="44" filterUnits="userSpaceOnUse" color-interpolation-filters="sRGB">
<feFlood flood-opacity="0" result="BackgroundImageFix"/>
<feColorMatrix in="SourceAlpha" type="matrix" values="0 0 0 0 0 0 0 0 0 0 0 0 0 0 0 0 0 0 127 0" result="hardAlpha"/>
<feOffset/>
<feGaussianBlur stdDeviation="5"/>
<feComposite in2="hardAlpha" operator="out"/>
<feColorMatrix type="matrix" values="0 0 0 0 0 0 0 0 0 0 0 0 0 0 0 0 0 0 0.2 0"/>
<feBlend mode="normal" in2="BackgroundImageFix" result="effect1_dropShadow_1557_368"/>
<feBlend mode="normal" in="SourceGraphic" in2="effect1_dropShadow_1557_368" result="shape"/>
</filter>
</defs>
</svg>
