<svg width="127" height="108" viewBox="0 0 127 108" fill="none" xmlns="http://www.w3.org/2000/svg">
<g filter="url(#filter0_d_1557_383)">
<path d="M22.1729 48.4861C22.0133 54.8432 23.1095 61.1685 25.3971 67.0902C27.6846 73.012 31.1173 78.4107 35.4934 82.9693C39.8696 87.5278 45.1009 91.1542 50.88 93.6352C56.659 96.1163 62.8693 97.402 69.1458 97.4169C75.4223 97.4317 81.6384 96.1753 87.4288 93.7216C93.2192 91.2679 98.4672 87.6662 102.864 83.1284C107.261 78.5906 110.719 73.2081 113.034 67.2972C115.348 61.3863 116.474 55.0663 116.343 48.7086L114.645 48.7443C114.771 54.8728 113.686 60.9649 111.455 66.6626C109.224 72.3603 105.891 77.5487 101.652 81.9229C97.4137 86.2971 92.355 89.7688 86.7734 92.134C81.1918 94.4993 75.1999 95.7103 69.1497 95.696C63.0996 95.6817 57.1133 94.4424 51.5426 92.0508C45.972 89.6592 40.9293 86.1636 36.711 81.7695C32.4926 77.3753 29.1837 72.1712 26.9787 66.463C24.7737 60.7548 23.717 54.6577 23.8708 48.5298L22.1729 48.4861Z" fill="black"/>
</g>
<path d="M20.9996 49.5C20.9996 36.3718 26.0837 23.7813 35.1334 14.4982C44.1832 5.21517 56.4573 9.91153e-07 69.2556 0C82.0539 -9.91153e-07 94.3281 5.21516 103.378 14.4982C112.428 23.7813 117.512 36.3718 117.512 49.5L113.549 49.5C113.549 37.4498 108.883 25.8932 100.576 17.3724C92.2692 8.85165 81.003 4.06473 69.2556 4.06474C57.5083 4.06474 46.2421 8.85165 37.9354 17.3724C29.6288 25.8932 24.9622 37.4498 24.9622 49.5H20.9996Z" fill="#E1E1E1"/>
<path d="M48.9244 24.7273V32H47.7525L44.3256 27.0462H44.2653V32H42.9478V24.7273H44.1268L47.5501 29.6847H47.614V24.7273H48.9244ZM54.3123 26.7266C54.2792 26.4164 54.1395 26.175 53.8933 26.0021C53.6494 25.8293 53.3322 25.7429 52.9416 25.7429C52.667 25.7429 52.4314 25.7843 52.2349 25.8672C52.0384 25.95 51.8881 26.0625 51.7839 26.2045C51.6797 26.3466 51.6265 26.5088 51.6241 26.6911C51.6241 26.8426 51.6584 26.974 51.7271 27.0852C51.7981 27.1965 51.894 27.2912 52.0147 27.3693C52.1355 27.4451 52.2692 27.509 52.416 27.5611C52.5628 27.6132 52.7108 27.657 52.8599 27.6925L53.5417 27.8629C53.8163 27.9268 54.0803 28.0133 54.3336 28.1222C54.5893 28.2311 54.8178 28.3684 55.019 28.5341C55.2226 28.6998 55.3836 28.8999 55.502 29.1342C55.6203 29.3686 55.6795 29.6432 55.6795 29.9581C55.6795 30.3842 55.5706 30.7595 55.3528 31.0838C55.135 31.4058 54.8201 31.6579 54.4082 31.8402C53.9986 32.0201 53.5027 32.1101 52.9203 32.1101C52.3545 32.1101 51.8632 32.0225 51.4466 31.8473C51.0323 31.6721 50.7079 31.4164 50.4735 31.0803C50.2415 30.7441 50.1161 30.3345 50.0971 29.8516H51.3933C51.4122 30.1049 51.4904 30.3156 51.6277 30.4837C51.765 30.6518 51.9437 30.7772 52.1639 30.8601C52.3864 30.9429 52.635 30.9844 52.9096 30.9844C53.1961 30.9844 53.447 30.9418 53.6625 30.8565C53.8803 30.7689 54.0507 30.6482 54.1738 30.4943C54.2969 30.3381 54.3597 30.1558 54.362 29.9474C54.3597 29.758 54.304 29.6018 54.1951 29.4787C54.0862 29.3532 53.9335 29.2491 53.737 29.1662C53.5429 29.081 53.3156 29.0052 53.0552 28.9389L52.2278 28.7259C51.6288 28.572 51.1554 28.3388 50.8074 28.0263C50.4617 27.7114 50.2889 27.2936 50.2889 26.7727C50.2889 26.3442 50.4049 25.969 50.6369 25.647C50.8713 25.325 51.1897 25.0753 51.5922 24.8977C51.9946 24.7178 52.4503 24.6278 52.9593 24.6278C53.4754 24.6278 53.9276 24.7178 54.3159 24.8977C54.7065 25.0753 55.0131 25.3227 55.2356 25.6399C55.4582 25.9548 55.573 26.317 55.5801 26.7266H54.3123ZM59.5636 29.5568H60.7567L61.4634 30.473L61.9677 31.0696L63.1786 32.625H61.9002L61.0763 31.581L60.7248 31.0838L59.5636 29.5568ZM63.3526 28.3636C63.3526 29.1473 63.2058 29.8184 62.9123 30.3771C62.6211 30.9335 62.2234 31.3596 61.7191 31.6555C61.2172 31.9515 60.6478 32.0994 60.011 32.0994C59.3742 32.0994 58.8036 31.9515 58.2994 31.6555C57.7975 31.3572 57.3997 30.9299 57.1062 30.3736C56.815 29.8149 56.6694 29.1449 56.6694 28.3636C56.6694 27.58 56.815 26.91 57.1062 26.3537C57.3997 25.795 57.7975 25.3677 58.2994 25.0717C58.8036 24.7758 59.3742 24.6278 60.011 24.6278C60.6478 24.6278 61.2172 24.7758 61.7191 25.0717C62.2234 25.3677 62.6211 25.795 62.9123 26.3537C63.2058 26.91 63.3526 27.58 63.3526 28.3636ZM62.0281 28.3636C62.0281 27.812 61.9416 27.3468 61.7688 26.968C61.5984 26.5869 61.3616 26.2992 61.0586 26.1051C60.7556 25.9086 60.4064 25.8104 60.011 25.8104C59.6156 25.8104 59.2665 25.9086 58.9634 26.1051C58.6604 26.2992 58.4225 26.5869 58.2496 26.968C58.0792 27.3468 57.994 27.812 57.994 28.3636C57.994 28.9152 58.0792 29.3816 58.2496 29.7628C58.4225 30.1416 58.6604 30.4292 58.9634 30.6257C59.2665 30.8198 59.6156 30.9169 60.011 30.9169C60.4064 30.9169 60.7556 30.8198 61.0586 30.6257C61.3616 30.4292 61.5984 30.1416 61.7688 29.7628C61.9416 29.3816 62.0281 28.9152 62.0281 28.3636ZM64.608 32V24.7273H69.267V25.8317H65.9254V27.8061H68.9474V28.9105H65.9254V32H64.608ZM71.5194 31.0057L71.4732 31.3963C71.44 31.6946 71.3809 31.9976 71.2956 32.3054C71.2128 32.6155 71.1252 32.9008 71.0328 33.1612C70.9405 33.4216 70.8659 33.6264 70.8091 33.7756H69.9426C69.9758 33.6312 70.0208 33.4347 70.0776 33.1861C70.1368 32.9375 70.1936 32.6581 70.248 32.348C70.3025 32.0379 70.3392 31.723 70.3581 31.4034L70.383 31.0057H71.5194ZM78.9927 24.7273V32H77.8208L74.394 27.0462H74.3336V32H73.0162V24.7273H74.1951L77.6184 29.6847H77.6824V24.7273H78.9927ZM80.4283 32V24.7273H85.1584V25.8317H81.7457V27.8061H84.9134V28.9105H81.7457V30.8956H85.1868V32H80.4283ZM86.5025 32V24.7273H89.2298C89.7885 24.7273 90.2572 24.8314 90.636 25.0398C91.0172 25.2481 91.3048 25.5346 91.4989 25.8991C91.6954 26.2614 91.7937 26.6733 91.7937 27.1349C91.7937 27.6013 91.6954 28.0156 91.4989 28.3778C91.3024 28.7401 91.0124 29.0253 90.6289 29.2337C90.2454 29.4396 89.7731 29.5426 89.212 29.5426H87.4045V28.4595H89.0344C89.3612 28.4595 89.6287 28.4027 89.837 28.2891C90.0453 28.1754 90.1992 28.0192 90.2987 27.8203C90.4004 27.6214 90.4513 27.393 90.4513 27.1349C90.4513 26.8769 90.4004 26.6496 90.2987 26.4531C90.1992 26.2566 90.0442 26.1039 89.8335 25.995C89.6251 25.8838 89.3564 25.8281 89.0273 25.8281H87.82V32H86.5025ZM93.9901 31.0057L93.9439 31.3963C93.9107 31.6946 93.8516 31.9976 93.7663 32.3054C93.6835 32.6155 93.5959 32.9008 93.5036 33.1612C93.4112 33.4216 93.3366 33.6264 93.2798 33.7756H92.4134C92.4465 33.6312 92.4915 33.4347 92.5483 33.1861C92.6075 32.9375 92.6643 32.6581 92.7188 32.348C92.7732 32.0379 92.8099 31.723 92.8288 31.4034L92.8537 31.0057H93.9901ZM62.6988 37.7273V45H61.5269L58.1001 40.0462H58.0397V45H56.7222V37.7273H57.9012L61.3245 42.6847H61.3884V37.7273H62.6988ZM65.6471 45.1101C65.3015 45.1101 64.9901 45.0485 64.7132 44.9254C64.4385 44.8 64.2207 44.6153 64.0597 44.3714C63.9011 44.1276 63.8218 43.8269 63.8218 43.4695C63.8218 43.1617 63.8786 42.9072 63.9923 42.706C64.1059 42.5047 64.261 42.3438 64.4575 42.223C64.654 42.1023 64.8753 42.0111 65.1215 41.9496C65.3701 41.8857 65.627 41.8395 65.8921 41.8111C66.2117 41.7779 66.471 41.7483 66.6698 41.7223C66.8687 41.6939 67.0131 41.6513 67.1031 41.5945C67.1954 41.5353 67.2416 41.4441 67.2416 41.321V41.2997C67.2416 41.0322 67.1623 40.825 67.0036 40.6783C66.845 40.5315 66.6166 40.4581 66.3183 40.4581C66.0034 40.4581 65.7536 40.5268 65.569 40.6641C65.3867 40.8014 65.2636 40.9635 65.1997 41.1506L63.9994 40.9801C64.0941 40.6487 64.2503 40.3717 64.4681 40.1491C64.6859 39.9242 64.9523 39.7562 65.2671 39.6449C65.582 39.5312 65.93 39.4744 66.3112 39.4744C66.574 39.4744 66.8356 39.5052 67.096 39.5668C67.3564 39.6283 67.5943 39.7301 67.8097 39.8722C68.0252 40.0118 68.198 40.2024 68.3282 40.4439C68.4608 40.6854 68.5271 40.9872 68.5271 41.3494V45H67.2913V44.2507H67.2487C67.1705 44.4022 67.0605 44.5443 66.9184 44.6768C66.7787 44.8071 66.6024 44.9124 66.3893 44.9929C66.1786 45.071 65.9312 45.1101 65.6471 45.1101ZM65.9809 44.1655C66.239 44.1655 66.4627 44.1146 66.6521 44.0128C66.8415 43.9086 66.9871 43.7713 67.0889 43.6009C67.193 43.4304 67.2451 43.2446 67.2451 43.0433V42.4006C67.2049 42.4337 67.1362 42.4645 67.0392 42.4929C66.9445 42.5213 66.8379 42.5462 66.7195 42.5675C66.6012 42.5888 66.484 42.6077 66.368 42.6243C66.252 42.6409 66.1514 42.6551 66.0661 42.6669C65.8744 42.6929 65.7027 42.7356 65.5512 42.7947C65.3997 42.8539 65.2802 42.9368 65.1926 43.0433C65.105 43.1475 65.0612 43.2824 65.0612 43.4482C65.0612 43.6849 65.1476 43.8636 65.3204 43.9844C65.4932 44.1051 65.7134 44.1655 65.9809 44.1655ZM71.3893 45.1101C71.0436 45.1101 70.7323 45.0485 70.4553 44.9254C70.1807 44.8 69.9629 44.6153 69.8019 44.3714C69.6433 44.1276 69.564 43.8269 69.564 43.4695C69.564 43.1617 69.6208 42.9072 69.7345 42.706C69.8481 42.5047 70.0032 42.3438 70.1997 42.223C70.3962 42.1023 70.6175 42.0111 70.8637 41.9496C71.1123 41.8857 71.3692 41.8395 71.6343 41.8111C71.9539 41.7779 72.2132 41.7483 72.412 41.7223C72.6109 41.6939 72.7553 41.6513 72.8453 41.5945C72.9376 41.5353 72.9838 41.4441 72.9838 41.321V41.2997C72.9838 41.0322 72.9044 40.825 72.7458 40.6783C72.5872 40.5315 72.3588 40.4581 72.0605 40.4581C71.7456 40.4581 71.4958 40.5268 71.3112 40.6641C71.1289 40.8014 71.0058 40.9635 70.9419 41.1506L69.7416 40.9801C69.8363 40.6487 69.9925 40.3717 70.2103 40.1491C70.4281 39.9242 70.6945 39.7562 71.0093 39.6449C71.3242 39.5312 71.6722 39.4744 72.0534 39.4744C72.3161 39.4744 72.5777 39.5052 72.8382 39.5668C73.0986 39.6283 73.3365 39.7301 73.5519 39.8722C73.7674 40.0118 73.9402 40.2024 74.0704 40.4439C74.203 40.6854 74.2693 40.9872 74.2693 41.3494V45H73.0335V44.2507H72.9909C72.9127 44.4022 72.8026 44.5443 72.6606 44.6768C72.5209 44.8071 72.3445 44.9124 72.1315 44.9929C71.9208 45.071 71.6734 45.1101 71.3893 45.1101ZM71.7231 44.1655C71.9811 44.1655 72.2049 44.1146 72.3943 44.0128C72.5837 43.9086 72.7293 43.7713 72.8311 43.6009C72.9352 43.4304 72.9873 43.2446 72.9873 43.0433V42.4006C72.9471 42.4337 72.8784 42.4645 72.7813 42.4929C72.6866 42.5213 72.5801 42.5462 72.4617 42.5675C72.3434 42.5888 72.2262 42.6077 72.1102 42.6243C71.9942 42.6409 71.8936 42.6551 71.8083 42.6669C71.6166 42.6929 71.4449 42.7356 71.2934 42.7947C71.1419 42.8539 71.0223 42.9368 70.9347 43.0433C70.8472 43.1475 70.8034 43.2824 70.8034 43.4482C70.8034 43.6849 70.8898 43.8636 71.0626 43.9844C71.2354 44.1051 71.4556 44.1655 71.7231 44.1655ZM76.8474 41.804V45H75.5619V39.5455H76.7906V40.4723H76.8545C76.98 40.1669 77.18 39.9242 77.4546 39.7443C77.7316 39.5644 78.0737 39.4744 78.4809 39.4744C78.8573 39.4744 79.1852 39.5549 79.4646 39.7159C79.7463 39.8769 79.9641 40.1101 80.118 40.4155C80.2742 40.7209 80.3512 41.0914 80.3488 41.527V45H79.0633V41.7259C79.0633 41.3613 78.9686 41.076 78.7792 40.87C78.5922 40.6641 78.3329 40.5611 78.0015 40.5611C77.7766 40.5611 77.5766 40.6108 77.4014 40.7102C77.2285 40.8073 77.0924 40.9482 76.993 41.1328C76.8959 41.3175 76.8474 41.5412 76.8474 41.804ZM42.5328 50.7273H44.145L46.3041 55.9972H46.3893L48.5484 50.7273H50.1606V58H48.8964V53.0036H48.8289L46.819 57.9787H45.8744L43.8644 52.9929H43.797V58H42.5328V50.7273ZM55.015 55.706V52.5455H56.3005V58H55.0541V57.0305H54.9972C54.8741 57.3359 54.6717 57.5857 54.39 57.7798C54.1106 57.974 53.7662 58.071 53.3566 58.071C52.9991 58.071 52.6831 57.9917 52.4085 57.8331C52.1362 57.6721 51.9231 57.4389 51.7693 57.1335C51.6154 56.8258 51.5384 56.4541 51.5384 56.0185V52.5455H52.824V55.8196C52.824 56.1652 52.9186 56.4399 53.108 56.6435C53.2974 56.8471 53.546 56.9489 53.8538 56.9489C54.0432 56.9489 54.2267 56.9027 54.4042 56.8104C54.5818 56.718 54.7274 56.5807 54.841 56.3984C54.957 56.2138 55.015 55.983 55.015 55.706ZM59.6466 58.0959C59.2181 58.0959 58.8345 57.9858 58.496 57.7656C58.1575 57.5455 57.8899 57.2259 57.6934 56.8068C57.497 56.3878 57.3987 55.8788 57.3987 55.2798C57.3987 54.6738 57.4981 54.1624 57.697 53.7457C57.8982 53.3267 58.1693 53.0107 58.5102 52.7976C58.8511 52.5821 59.2311 52.4744 59.6501 52.4744C59.9697 52.4744 60.2325 52.5289 60.4385 52.6378C60.6444 52.7443 60.8078 52.8733 60.9285 53.0249C61.0493 53.174 61.1428 53.3149 61.2091 53.4474H61.2623V50.7273H62.5514V58H61.2872V57.1406H61.2091C61.1428 57.2732 61.0469 57.4141 60.9214 57.5632C60.796 57.71 60.6302 57.8355 60.4243 57.9396C60.2183 58.0438 59.9591 58.0959 59.6466 58.0959ZM60.0052 57.0412C60.2775 57.0412 60.5095 56.9678 60.7013 56.821C60.893 56.6719 61.0386 56.4647 61.1381 56.1996C61.2375 55.9344 61.2872 55.6255 61.2872 55.2727C61.2872 54.92 61.2375 54.6134 61.1381 54.353C61.041 54.0926 60.8966 53.8902 60.7048 53.7457C60.5154 53.6013 60.2822 53.5291 60.0052 53.5291C59.7188 53.5291 59.4797 53.6037 59.2879 53.7528C59.0961 53.902 58.9517 54.108 58.8547 54.3707C58.7576 54.6335 58.7091 54.9342 58.7091 55.2727C58.7091 55.6136 58.7576 55.9179 58.8547 56.1854C58.9541 56.4505 59.0997 56.66 59.2915 56.8139C59.4856 56.9654 59.7235 57.0412 60.0052 57.0412ZM65.2068 54.804V58H63.9213V50.7273H65.1784V53.4723H65.2423C65.3701 53.1645 65.5678 52.9219 65.8353 52.7443C66.1052 52.5644 66.4485 52.4744 66.8651 52.4744C67.2439 52.4744 67.5742 52.5537 67.8559 52.7124C68.1376 52.871 68.3554 53.103 68.5093 53.4084C68.6656 53.7138 68.7437 54.0866 68.7437 54.527V58H67.4582V54.7259C67.4582 54.3589 67.3635 54.0736 67.1741 53.87C66.9871 53.6641 66.7243 53.5611 66.3857 53.5611C66.1585 53.5611 65.9549 53.6108 65.7749 53.7102C65.5974 53.8073 65.4577 53.9482 65.3559 54.1328C65.2565 54.3175 65.2068 54.5412 65.2068 54.804ZM71.6237 58.1101C71.278 58.1101 70.9667 58.0485 70.6897 57.9254C70.4151 57.8 70.1973 57.6153 70.0363 57.3714C69.8777 57.1276 69.7984 56.8269 69.7984 56.4695C69.7984 56.1617 69.8552 55.9072 69.9688 55.706C70.0825 55.5047 70.2375 55.3438 70.434 55.223C70.6305 55.1023 70.8519 55.0111 71.0981 54.9496C71.3467 54.8857 71.6035 54.8395 71.8687 54.8111C72.1883 54.7779 72.4475 54.7483 72.6464 54.7223C72.8453 54.6939 72.9897 54.6513 73.0796 54.5945C73.172 54.5353 73.2181 54.4441 73.2181 54.321V54.2997C73.2181 54.0322 73.1388 53.825 72.9802 53.6783C72.8216 53.5315 72.5931 53.4581 72.2948 53.4581C71.98 53.4581 71.7302 53.5268 71.5455 53.6641C71.3633 53.8014 71.2401 53.9635 71.1762 54.1506L69.9759 53.9801C70.0706 53.6487 70.2269 53.3717 70.4447 53.1491C70.6625 52.9242 70.9288 52.7562 71.2437 52.6449C71.5586 52.5312 71.9066 52.4744 72.2877 52.4744C72.5505 52.4744 72.8121 52.5052 73.0725 52.5668C73.3329 52.6283 73.5709 52.7301 73.7863 52.8722C74.0017 53.0118 74.1746 53.2024 74.3048 53.4439C74.4374 53.6854 74.5036 53.9872 74.5036 54.3494V58H73.2678V57.2507H73.2252C73.1471 57.4022 73.037 57.5443 72.895 57.6768C72.7553 57.8071 72.5789 57.9124 72.3659 57.9929C72.1552 58.071 71.9078 58.1101 71.6237 58.1101ZM71.9575 57.1655C72.2155 57.1655 72.4392 57.1146 72.6286 57.0128C72.818 56.9086 72.9636 56.7713 73.0654 56.6009C73.1696 56.4304 73.2217 56.2446 73.2217 56.0433V55.4006C73.1814 55.4337 73.1128 55.4645 73.0157 55.4929C72.921 55.5213 72.8145 55.5462 72.6961 55.5675C72.5777 55.5888 72.4606 55.6077 72.3445 55.6243C72.2285 55.6409 72.1279 55.6551 72.0427 55.6669C71.8509 55.6929 71.6793 55.7356 71.5278 55.7947C71.3763 55.8539 71.2567 55.9368 71.1691 56.0433C71.0815 56.1475 71.0377 56.2824 71.0377 56.4482C71.0377 56.6849 71.1241 56.8636 71.297 56.9844C71.4698 57.1051 71.69 57.1655 71.9575 57.1655ZM77.0818 50.7273V58H75.7963V50.7273H77.0818ZM83.2758 52.5455L81.3334 58H79.9129L77.9704 52.5455H79.3412L80.5947 56.5973H80.6515L81.9086 52.5455H83.2758ZM85.5787 58.1101C85.2331 58.1101 84.9218 58.0485 84.6448 57.9254C84.3702 57.8 84.1524 57.6153 83.9914 57.3714C83.8328 57.1276 83.7535 56.8269 83.7535 56.4695C83.7535 56.1617 83.8103 55.9072 83.9239 55.706C84.0376 55.5047 84.1926 55.3438 84.3891 55.223C84.5856 55.1023 84.807 55.0111 85.0532 54.9496C85.3018 54.8857 85.5586 54.8395 85.8238 54.8111C86.1434 54.7779 86.4026 54.7483 86.6015 54.7223C86.8003 54.6939 86.9448 54.6513 87.0347 54.5945C87.127 54.5353 87.1732 54.4441 87.1732 54.321V54.2997C87.1732 54.0322 87.0939 53.825 86.9353 53.6783C86.7767 53.5315 86.5482 53.4581 86.2499 53.4581C85.935 53.4581 85.6853 53.5268 85.5006 53.6641C85.3183 53.8014 85.1952 53.9635 85.1313 54.1506L83.931 53.9801C84.0257 53.6487 84.182 53.3717 84.3998 53.1491C84.6176 52.9242 84.8839 52.7562 85.1988 52.6449C85.5136 52.5312 85.8617 52.4744 86.2428 52.4744C86.5056 52.4744 86.7672 52.5052 87.0276 52.5668C87.288 52.6283 87.526 52.7301 87.7414 52.8722C87.9568 53.0118 88.1296 53.2024 88.2599 53.4439C88.3924 53.6854 88.4587 53.9872 88.4587 54.3494V58H87.2229V57.2507H87.1803C87.1022 57.4022 86.9921 57.5443 86.8501 57.6768C86.7104 57.8071 86.534 57.9124 86.3209 57.9929C86.1102 58.071 85.8628 58.1101 85.5787 58.1101ZM85.9126 57.1655C86.1706 57.1655 86.3943 57.1146 86.5837 57.0128C86.7731 56.9086 86.9187 56.7713 87.0205 56.6009C87.1247 56.4304 87.1768 56.2446 87.1768 56.0433V55.4006C87.1365 55.4337 87.0679 55.4645 86.9708 55.4929C86.8761 55.5213 86.7696 55.5462 86.6512 55.5675C86.5328 55.5888 86.4156 55.6077 86.2996 55.6243C86.1836 55.6409 86.083 55.6551 85.9978 55.6669C85.806 55.6929 85.6344 55.7356 85.4829 55.7947C85.3314 55.8539 85.2118 55.9368 85.1242 56.0433C85.0366 56.1475 84.9928 56.2824 84.9928 56.4482C84.9928 56.6849 85.0792 56.8636 85.252 56.9844C85.4249 57.1051 85.645 57.1655 85.9126 57.1655ZM91.0368 54.804V58H89.7513V52.5455H90.98V53.4723H91.0439C91.1694 53.1669 91.3695 52.9242 91.6441 52.7443C91.9211 52.5644 92.2632 52.4744 92.6704 52.4744C93.0468 52.4744 93.3747 52.5549 93.654 52.7159C93.9358 52.8769 94.1536 53.1101 94.3074 53.4155C94.4637 53.7209 94.5406 54.0914 94.5383 54.527V58H93.2528V54.7259C93.2528 54.3613 93.1581 54.076 92.9687 53.87C92.7816 53.6641 92.5224 53.5611 92.191 53.5611C91.9661 53.5611 91.766 53.6108 91.5908 53.7102C91.418 53.8073 91.2819 53.9482 91.1824 54.1328C91.0854 54.3175 91.0368 54.5412 91.0368 54.804ZM50.6475 66.1811H49.3194C49.2815 65.9633 49.2117 65.7704 49.1099 65.6023C49.0081 65.4318 48.8815 65.2874 48.7299 65.169C48.5784 65.0507 48.4056 64.9619 48.2115 64.9027C48.0197 64.8411 47.8126 64.8104 47.59 64.8104C47.1947 64.8104 46.8443 64.9098 46.5389 65.1087C46.2335 65.3052 45.9944 65.594 45.8216 65.9751C45.6487 66.3539 45.5623 66.8168 45.5623 67.3636C45.5623 67.92 45.6487 68.3887 45.8216 68.7699C45.9967 69.1487 46.2359 69.4351 46.5389 69.6293C46.8443 69.821 47.1935 69.9169 47.5865 69.9169C47.8043 69.9169 48.0079 69.8885 48.1973 69.8317C48.389 69.7725 48.5607 69.6861 48.7122 69.5724C48.8661 69.4588 48.9951 69.3191 49.0993 69.1534C49.2058 68.9877 49.2792 68.7983 49.3194 68.5852L50.6475 68.5923C50.5978 68.938 50.4901 69.2623 50.3244 69.5653C50.161 69.8684 49.9468 70.1359 49.6816 70.3679C49.4165 70.5975 49.1064 70.7775 48.7512 70.9077C48.3961 71.0355 48.002 71.0994 47.5687 71.0994C46.9295 71.0994 46.359 70.9515 45.8571 70.6555C45.3552 70.3596 44.9598 69.9323 44.671 69.3736C44.3822 68.8149 44.2377 68.1449 44.2377 67.3636C44.2377 66.58 44.3833 65.91 44.6745 65.3537C44.9657 64.795 45.3623 64.3677 45.8642 64.0717C46.3661 63.7758 46.9342 63.6278 47.5687 63.6278C47.9735 63.6278 48.35 63.6847 48.698 63.7983C49.046 63.9119 49.3561 64.0788 49.6284 64.299C49.9006 64.5168 50.1243 64.7843 50.2995 65.1016C50.4771 65.4164 50.5931 65.7763 50.6475 66.1811ZM54.1765 71.1065C53.6438 71.1065 53.1822 70.9893 52.7915 70.755C52.4009 70.5206 52.0979 70.1927 51.8825 69.7713C51.6694 69.3499 51.5629 68.8575 51.5629 68.294C51.5629 67.7306 51.6694 67.237 51.8825 66.8132C52.0979 66.3894 52.4009 66.0604 52.7915 65.826C53.1822 65.5916 53.6438 65.4744 54.1765 65.4744C54.7092 65.4744 55.1708 65.5916 55.5614 65.826C55.9521 66.0604 56.2539 66.3894 56.467 66.8132C56.6824 67.237 56.7901 67.7306 56.7901 68.294C56.7901 68.8575 56.6824 69.3499 56.467 69.7713C56.2539 70.1927 55.9521 70.5206 55.5614 70.755C55.1708 70.9893 54.7092 71.1065 54.1765 71.1065ZM54.1836 70.0767C54.4724 70.0767 54.7139 69.9974 54.908 69.8388C55.1022 69.6778 55.2466 69.4624 55.3413 69.1925C55.4383 68.9226 55.4869 68.6219 55.4869 68.2905C55.4869 67.9567 55.4383 67.6548 55.3413 67.3849C55.2466 67.1127 55.1022 66.8961 54.908 66.7351C54.7139 66.5741 54.4724 66.4936 54.1836 66.4936C53.8877 66.4936 53.6415 66.5741 53.445 66.7351C53.2508 66.8961 53.1052 67.1127 53.0082 67.3849C52.9135 67.6548 52.8661 67.9567 52.8661 68.2905C52.8661 68.6219 52.9135 68.9226 53.0082 69.1925C53.1052 69.4624 53.2508 69.6778 53.445 69.8388C53.6415 69.9974 53.8877 70.0767 54.1836 70.0767ZM57.8812 71V65.5455H59.1099V66.4723H59.1738C59.2875 66.1598 59.4757 65.916 59.7385 65.7408C60.0012 65.5632 60.3149 65.4744 60.6795 65.4744C61.0488 65.4744 61.3601 65.5644 61.6135 65.7443C61.8691 65.9219 62.0491 66.1645 62.1532 66.4723H62.21C62.3308 66.1693 62.5344 65.9278 62.8208 65.7479C63.1097 65.5656 63.4518 65.4744 63.8471 65.4744C64.349 65.4744 64.7586 65.633 65.0758 65.9503C65.3931 66.2675 65.5517 66.7304 65.5517 67.3388V71H64.2626V67.5376C64.2626 67.1991 64.1726 66.9517 63.9927 66.7955C63.8128 66.6368 63.5926 66.5575 63.3322 66.5575C63.0221 66.5575 62.7794 66.6546 62.6042 66.8487C62.4314 67.0405 62.345 67.2902 62.345 67.598V71H61.0843V67.4844C61.0843 67.2027 60.9991 66.9777 60.8287 66.8097C60.6606 66.6416 60.4404 66.5575 60.1681 66.5575C59.9835 66.5575 59.8154 66.6049 59.6639 66.6996C59.5124 66.7919 59.3916 66.9233 59.3017 67.0938C59.2117 67.2618 59.1667 67.4583 59.1667 67.6832V71H57.8812ZM68.1413 63.7273V71H66.8558V63.7273H68.1413ZM69.4632 73.0455V65.5455H70.7275V66.4474H70.802C70.8683 66.3149 70.9618 66.174 71.0826 66.0249C71.2033 65.8733 71.3667 65.7443 71.5726 65.6378C71.7786 65.5289 72.0414 65.4744 72.361 65.4744C72.7824 65.4744 73.1623 65.5821 73.5009 65.7976C73.8418 66.0107 74.1117 66.3267 74.3105 66.7457C74.5118 67.1624 74.6124 67.6738 74.6124 68.2798C74.6124 68.8788 74.5141 69.3878 74.3176 69.8068C74.1212 70.2259 73.8536 70.5455 73.5151 70.7656C73.1766 70.9858 72.793 71.0959 72.3645 71.0959C72.052 71.0959 71.7928 71.0438 71.5868 70.9396C71.3809 70.8355 71.2151 70.71 71.0897 70.5632C70.9666 70.4141 70.8707 70.2732 70.802 70.1406H70.7488V73.0455H69.4632ZM70.7239 68.2727C70.7239 68.6255 70.7736 68.9344 70.873 69.1996C70.9748 69.4647 71.1204 69.6719 71.3098 69.821C71.5016 69.9678 71.7336 70.0412 72.0059 70.0412C72.29 70.0412 72.5279 69.9654 72.7196 69.8139C72.9114 69.66 73.0558 69.4505 73.1529 69.1854C73.2523 68.9179 73.302 68.6136 73.302 68.2727C73.302 67.9342 73.2535 67.6335 73.1564 67.3707C73.0594 67.108 72.915 66.902 72.7232 66.7528C72.5314 66.6037 72.2923 66.5291 72.0059 66.5291C71.7312 66.5291 71.498 66.6013 71.3063 66.7457C71.1145 66.8902 70.9689 67.0926 70.8695 67.353C70.7724 67.6134 70.7239 67.92 70.7239 68.2727ZM77.2828 71.1101C76.9372 71.1101 76.6259 71.0485 76.3489 70.9254C76.0743 70.8 75.8565 70.6153 75.6955 70.3714C75.5369 70.1276 75.4576 69.8269 75.4576 69.4695C75.4576 69.1617 75.5144 68.9072 75.628 68.706C75.7417 68.5047 75.8967 68.3438 76.0932 68.223C76.2897 68.1023 76.5111 68.0111 76.7573 67.9496C77.0059 67.8857 77.2627 67.8395 77.5279 67.8111C77.8475 67.7779 78.1067 67.7483 78.3056 67.7223C78.5044 67.6939 78.6489 67.6513 78.7388 67.5945C78.8311 67.5353 78.8773 67.4441 78.8773 67.321V67.2997C78.8773 67.0322 78.798 66.825 78.6394 66.6783C78.4808 66.5315 78.2523 66.4581 77.954 66.4581C77.6391 66.4581 77.3894 66.5268 77.2047 66.6641C77.0224 66.8014 76.8993 66.9635 76.8354 67.1506L75.6351 66.9801C75.7298 66.6487 75.8861 66.3717 76.1039 66.1491C76.3217 65.9242 76.588 65.7562 76.9029 65.6449C77.2177 65.5312 77.5658 65.4744 77.9469 65.4744C78.2097 65.4744 78.4713 65.5052 78.7317 65.5668C78.9921 65.6283 79.2301 65.7301 79.4455 65.8722C79.6609 66.0118 79.8337 66.2024 79.964 66.4439C80.0965 66.6854 80.1628 66.9872 80.1628 67.3494V71H78.927V70.2507H78.8844C78.8063 70.4022 78.6962 70.5443 78.5542 70.6768C78.4145 70.8071 78.2381 70.9124 78.025 70.9929C77.8143 71.071 77.5669 71.1101 77.2828 71.1101ZM77.6167 70.1655C77.8747 70.1655 78.0984 70.1146 78.2878 70.0128C78.4772 69.9086 78.6228 69.7713 78.7246 69.6009C78.8288 69.4304 78.8809 69.2446 78.8809 69.0433V68.4006C78.8406 68.4337 78.772 68.4645 78.6749 68.4929C78.5802 68.5213 78.4737 68.5462 78.3553 68.5675C78.2369 68.5888 78.1197 68.6077 78.0037 68.6243C77.8877 68.6409 77.7871 68.6551 77.7019 68.6669C77.5101 68.6929 77.3385 68.7356 77.187 68.7947C77.0355 68.8539 76.9159 68.9368 76.8283 69.0433C76.7407 69.1475 76.6969 69.2824 76.6969 69.4482C76.6969 69.6849 76.7833 69.8636 76.9561 69.9844C77.129 70.1051 77.3491 70.1655 77.6167 70.1655ZM81.4554 71V65.5455H82.7409V71H81.4554ZM82.1017 64.7713C81.8981 64.7713 81.723 64.7038 81.5762 64.5689C81.4294 64.4316 81.356 64.267 81.356 64.0753C81.356 63.8812 81.4294 63.7166 81.5762 63.5817C81.723 63.4444 81.8981 63.3757 82.1017 63.3757C82.3077 63.3757 82.4829 63.4444 82.6273 63.5817C82.7741 63.7166 82.8475 63.8812 82.8475 64.0753C82.8475 64.267 82.7741 64.4316 82.6273 64.5689C82.4829 64.7038 82.3077 64.7713 82.1017 64.7713ZM85.3484 67.804V71H84.0629V65.5455H85.2915V66.4723H85.3555C85.4809 66.1669 85.681 65.9242 85.9556 65.7443C86.2326 65.5644 86.5747 65.4744 86.9819 65.4744C87.3583 65.4744 87.6862 65.5549 87.9656 65.7159C88.2473 65.8769 88.4651 66.1101 88.619 66.4155C88.7752 66.7209 88.8522 67.0914 88.8498 67.527V71H87.5643V67.7259C87.5643 67.3613 87.4696 67.076 87.2802 66.87C87.0932 66.6641 86.8339 66.5611 86.5025 66.5611C86.2776 66.5611 86.0775 66.6108 85.9023 66.7102C85.7295 66.8073 85.5934 66.9482 85.494 67.1328C85.3969 67.3175 85.3484 67.5412 85.3484 67.804ZM92.8803 65.5455V66.5398H89.7447V65.5455H92.8803ZM90.5188 64.2386H91.8043V69.3594C91.8043 69.5322 91.8304 69.6648 91.8825 69.7571C91.9369 69.8471 92.0079 69.9086 92.0955 69.9418C92.1831 69.9749 92.2802 69.9915 92.3867 69.9915C92.4672 69.9915 92.5406 69.9856 92.6069 69.9737C92.6755 69.9619 92.7276 69.9512 92.7631 69.9418L92.9798 70.9467C92.9111 70.9704 92.8129 70.9964 92.685 71.0249C92.5595 71.0533 92.4057 71.0698 92.2234 71.0746C91.9014 71.084 91.6114 71.0355 91.3533 70.929C91.0953 70.8201 90.8905 70.652 90.739 70.4247C90.5898 70.1974 90.5165 69.9134 90.5188 69.5724V64.2386Z" fill="#020817"/>
<g filter="url(#filter1_d_1557_383)">
<circle cx="22" cy="50" r="13" fill="white"/>
</g>
<g filter="url(#filter2_d_1557_383)">
<circle cx="22" cy="50" r="12" fill="#FF4A4A"/>
<circle cx="22" cy="50" r="10.5" stroke="#FFC1C1" stroke-width="3"/>
</g>
<path d="M23.6309 44.5635H18.7385C18.4502 44.5635 18.1737 44.678 17.9698 44.8819C17.7659 45.0858 17.6514 45.3623 17.6514 45.6507V54.3481C17.6514 54.6364 17.7659 54.913 17.9698 55.1168C18.1737 55.3207 18.4502 55.4353 18.7385 55.4353H25.2616C25.55 55.4353 25.8265 55.3207 26.0304 55.1168C26.2343 54.913 26.3488 54.6364 26.3488 54.3481V47.2814L23.6309 44.5635Z" stroke="white" stroke-linecap="round" stroke-linejoin="round"/>
<path d="M23.0869 44.5635V46.7382C23.0869 47.0266 23.2015 47.3032 23.4054 47.5071C23.6093 47.711 23.8859 47.8256 24.1743 47.8256H26.349" stroke="white" stroke-linecap="round" stroke-linejoin="round"/>
<path d="M20.3691 51.6303L21.4565 52.7177L23.6312 50.543" stroke="white" stroke-linecap="round" stroke-linejoin="round"/>
<defs>
<filter id="filter0_d_1557_383" x="12.1572" y="38.4863" width="114.196" height="68.9307" filterUnits="userSpaceOnUse" color-interpolation-filters="sRGB">
<feFlood flood-opacity="0" result="BackgroundImageFix"/>
<feColorMatrix in="SourceAlpha" type="matrix" values="0 0 0 0 0 0 0 0 0 0 0 0 0 0 0 0 0 0 127 0" result="hardAlpha"/>
<feOffset/>
<feGaussianBlur stdDeviation="5"/>
<feComposite in2="hardAlpha" operator="out"/>
<feColorMatrix type="matrix" values="0 0 0 0 0 0 0 0 0 0 0 0 0 0 0 0 0 0 0.25 0"/>
<feBlend mode="normal" in2="BackgroundImageFix" result="effect1_dropShadow_1557_383"/>
<feBlend mode="normal" in="SourceGraphic" in2="effect1_dropShadow_1557_383" result="shape"/>
</filter>
<filter id="filter1_d_1557_383" x="5" y="37" width="34" height="34" filterUnits="userSpaceOnUse" color-interpolation-filters="sRGB">
<feFlood flood-opacity="0" result="BackgroundImageFix"/>
<feColorMatrix in="SourceAlpha" type="matrix" values="0 0 0 0 0 0 0 0 0 0 0 0 0 0 0 0 0 0 127 0" result="hardAlpha"/>
<feOffset dy="4"/>
<feGaussianBlur stdDeviation="2"/>
<feComposite in2="hardAlpha" operator="out"/>
<feColorMatrix type="matrix" values="0 0 0 0 0 0 0 0 0 0 0 0 0 0 0 0 0 0 0.25 0"/>
<feBlend mode="normal" in2="BackgroundImageFix" result="effect1_dropShadow_1557_383"/>
<feBlend mode="normal" in="SourceGraphic" in2="effect1_dropShadow_1557_383" result="shape"/>
</filter>
<filter id="filter2_d_1557_383" x="0" y="28" width="44" height="44" filterUnits="userSpaceOnUse" color-interpolation-filters="sRGB">
<feFlood flood-opacity="0" result="BackgroundImageFix"/>
<feColorMatrix in="SourceAlpha" type="matrix" values="0 0 0 0 0 0 0 0 0 0 0 0 0 0 0 0 0 0 127 0" result="hardAlpha"/>
<feOffset/>
<feGaussianBlur stdDeviation="5"/>
<feComposite in2="hardAlpha" operator="out"/>
<feColorMatrix type="matrix" values="0 0 0 0 0 0 0 0 0 0 0 0 0 0 0 0 0 0 0.2 0"/>
<feBlend mode="normal" in2="BackgroundImageFix" result="effect1_dropShadow_1557_383"/>
<feBlend mode="normal" in="SourceGraphic" in2="effect1_dropShadow_1557_383" result="shape"/>
</filter>
</defs>
</svg>
