<svg width="115" height="131" viewBox="0 0 115 131" fill="none" xmlns="http://www.w3.org/2000/svg">
<g filter="url(#filter0_d_1557_398)">
<path d="M10.1729 71.4861C10.0133 77.8432 11.1095 84.1685 13.3971 90.0902C15.6846 96.012 19.1173 101.411 23.4934 105.969C27.8696 110.528 33.1009 114.154 38.88 116.635C44.659 119.116 50.8693 120.402 57.1458 120.417C63.4223 120.432 69.6384 119.175 75.4288 116.722C81.2192 114.268 86.4672 110.666 90.8643 106.128C95.2613 101.591 98.7188 96.2081 101.034 90.2972C103.348 84.3863 104.474 78.0663 104.343 71.7086L102.645 71.7443C102.771 77.8728 101.686 83.9649 99.4548 89.6626C97.2236 95.3603 93.8908 100.549 89.6522 104.923C85.4137 109.297 80.355 112.769 74.7734 115.134C69.1918 117.499 63.1999 118.71 57.1497 118.696C51.0996 118.682 45.1133 117.442 39.5426 115.051C33.972 112.659 28.9293 109.164 24.711 104.769C20.4926 100.375 17.1837 95.1712 14.9787 89.463C12.7737 83.7548 11.717 77.6577 11.8708 71.5298L10.1729 71.4861Z" fill="black"/>
</g>
<path d="M8.99957 72.5C8.99957 59.3718 14.0837 46.7813 23.1334 37.4982C32.1832 28.2152 44.4573 23 57.2556 23C70.0539 23 82.3281 28.2152 91.3778 37.4982C100.428 46.7813 105.512 59.3718 105.512 72.5L101.549 72.5C101.549 60.4498 96.8825 48.8932 88.5759 40.3724C80.2692 31.8516 69.003 27.0647 57.2556 27.0647C45.5083 27.0647 34.2421 31.8517 25.9354 40.3724C17.6288 48.8932 12.9622 60.4498 12.9622 72.5H8.99957Z" fill="#E1E1E1"/>
<path d="M26.8042 63V55.7273H28.1217V58.8061H31.4917V55.7273H32.8128V63H31.4917V59.9105H28.1217V63H26.8042ZM35.7584 63.1101C35.4128 63.1101 35.1015 63.0485 34.8245 62.9254C34.5499 62.8 34.3321 62.6153 34.1711 62.3714C34.0125 62.1276 33.9331 61.8269 33.9331 61.4695C33.9331 61.1617 33.99 60.9072 34.1036 60.706C34.2172 60.5047 34.3723 60.3438 34.5688 60.223C34.7653 60.1023 34.9867 60.0111 35.2329 59.9496C35.4814 59.8857 35.7383 59.8395 36.0035 59.8111C36.3231 59.7779 36.5823 59.7483 36.7812 59.7223C36.98 59.6939 37.1244 59.6513 37.2144 59.5945C37.3067 59.5353 37.3529 59.4441 37.3529 59.321V59.2997C37.3529 59.0322 37.2736 58.825 37.115 58.6783C36.9564 58.5315 36.7279 58.4581 36.4296 58.4581C36.1147 58.4581 35.865 58.5268 35.6803 58.6641C35.498 58.8014 35.3749 58.9635 35.311 59.1506L34.1107 58.9801C34.2054 58.6487 34.3617 58.3717 34.5795 58.1491C34.7973 57.9242 35.0636 57.7562 35.3785 57.6449C35.6933 57.5312 36.0413 57.4744 36.4225 57.4744C36.6853 57.4744 36.9469 57.5052 37.2073 57.5668C37.4677 57.6283 37.7056 57.7301 37.9211 57.8722C38.1365 58.0118 38.3093 58.2024 38.4395 58.4439C38.5721 58.6854 38.6384 58.9872 38.6384 59.3494V63H37.4026V62.2507H37.36C37.2819 62.4022 37.1718 62.5443 37.0297 62.6768C36.8901 62.8071 36.7137 62.9124 36.5006 62.9929C36.2899 63.071 36.0425 63.1101 35.7584 63.1101ZM36.0922 62.1655C36.3503 62.1655 36.574 62.1146 36.7634 62.0128C36.9528 61.9086 37.0984 61.7713 37.2002 61.6009C37.3044 61.4304 37.3564 61.2446 37.3564 61.0433V60.4006C37.3162 60.4337 37.2475 60.4645 37.1505 60.4929C37.0558 60.5213 36.9492 60.5462 36.8309 60.5675C36.7125 60.5888 36.5953 60.6077 36.4793 60.6243C36.3633 60.6409 36.2627 60.6551 36.1775 60.6669C35.9857 60.6929 35.8141 60.7356 35.6626 60.7947C35.511 60.8539 35.3915 60.9368 35.3039 61.0433C35.2163 61.1475 35.1725 61.2824 35.1725 61.4482C35.1725 61.6849 35.2589 61.8636 35.4317 61.9844C35.6046 62.1051 35.8247 62.1655 36.0922 62.1655ZM42.3103 63.1065C41.7658 63.1065 41.2982 62.987 40.9076 62.7479C40.5193 62.5088 40.2198 62.1785 40.0091 61.7571C39.8008 61.3333 39.6966 60.8456 39.6966 60.294C39.6966 59.7401 39.8032 59.2512 40.0162 58.8274C40.2293 58.4013 40.53 58.0698 40.9182 57.8331C41.3089 57.594 41.7705 57.4744 42.3032 57.4744C42.7459 57.4744 43.1377 57.5561 43.4786 57.7195C43.8219 57.8804 44.0953 58.1089 44.2989 58.4048C44.5025 58.6984 44.6185 59.0417 44.6469 59.4347H43.4182C43.3685 59.1719 43.2501 58.9529 43.0631 58.7777C42.8785 58.6001 42.6311 58.5114 42.3209 58.5114C42.0581 58.5114 41.8273 58.5824 41.6285 58.7244C41.4296 58.8641 41.2745 59.0653 41.1633 59.3281C41.0544 59.5909 40.9999 59.9058 40.9999 60.2727C40.9999 60.6444 41.0544 60.964 41.1633 61.2315C41.2722 61.4967 41.4249 61.7015 41.6214 61.8459C41.8202 61.9879 42.0534 62.0589 42.3209 62.0589C42.5103 62.0589 42.6796 62.0234 42.8287 61.9524C42.9803 61.879 43.1069 61.7737 43.2087 61.6364C43.3105 61.4991 43.3804 61.3321 43.4182 61.1357H44.6469C44.6162 61.5215 44.5025 61.8636 44.306 62.1619C44.1095 62.4579 43.842 62.6899 43.5035 62.858C43.1649 63.0237 42.7672 63.1065 42.3103 63.1065ZM46.8744 61.2884L46.8708 59.7365H47.0768L49.037 57.5455H50.5392L48.1279 60.2301H47.8616L46.8744 61.2884ZM45.7025 63V55.7273H46.988V63H45.7025ZM49.1258 63L47.3502 60.5178L48.2167 59.6122L50.6634 63H49.1258ZM52.9655 63.1101C52.6198 63.1101 52.3085 63.0485 52.0315 62.9254C51.7569 62.8 51.5391 62.6153 51.3781 62.3714C51.2195 62.1276 51.1402 61.8269 51.1402 61.4695C51.1402 61.1617 51.197 60.9072 51.3106 60.706C51.4243 60.5047 51.5793 60.3438 51.7758 60.223C51.9723 60.1023 52.1937 60.0111 52.4399 59.9496C52.6885 59.8857 52.9453 59.8395 53.2105 59.8111C53.5301 59.7779 53.7893 59.7483 53.9882 59.7223C54.1871 59.6939 54.3315 59.6513 54.4214 59.5945C54.5138 59.5353 54.5599 59.4441 54.5599 59.321V59.2997C54.5599 59.0322 54.4806 58.825 54.322 58.6783C54.1634 58.5315 53.9349 58.4581 53.6366 58.4581C53.3218 58.4581 53.072 58.5268 52.8873 58.6641C52.705 58.8014 52.5819 58.9635 52.518 59.1506L51.3177 58.9801C51.4124 58.6487 51.5687 58.3717 51.7865 58.1491C52.0043 57.9242 52.2706 57.7562 52.5855 57.6449C52.9004 57.5312 53.2484 57.4744 53.6295 57.4744C53.8923 57.4744 54.1539 57.5052 54.4143 57.5668C54.6747 57.6283 54.9127 57.7301 55.1281 57.8722C55.3435 58.0118 55.5164 58.2024 55.6466 58.4439C55.7791 58.6854 55.8454 58.9872 55.8454 59.3494V63H54.6096V62.2507H54.567C54.4889 62.4022 54.3788 62.5443 54.2368 62.6768C54.0971 62.8071 53.9207 62.9124 53.7077 62.9929C53.497 63.071 53.2496 63.1101 52.9655 63.1101ZM53.2993 62.1655C53.5573 62.1655 53.781 62.1146 53.9704 62.0128C54.1598 61.9086 54.3054 61.7713 54.4072 61.6009C54.5114 61.4304 54.5635 61.2446 54.5635 61.0433V60.4006C54.5232 60.4337 54.4546 60.4645 54.3575 60.4929C54.2628 60.5213 54.1563 60.5462 54.0379 60.5675C53.9195 60.5888 53.8023 60.6077 53.6863 60.6243C53.5703 60.6409 53.4697 60.6551 53.3845 60.6669C53.1927 60.6929 53.0211 60.7356 52.8696 60.7947C52.7181 60.8539 52.5985 60.9368 52.5109 61.0433C52.4233 61.1475 52.3795 61.2824 52.3795 61.4482C52.3795 61.6849 52.4659 61.8636 52.6388 61.9844C52.8116 62.1051 53.0318 62.1655 53.2993 62.1655ZM59.8618 57.5455V58.5398H56.7261V57.5455H59.8618ZM57.5003 56.2386H58.7858V61.3594C58.7858 61.5322 58.8118 61.6648 58.8639 61.7571C58.9184 61.8471 58.9894 61.9086 59.077 61.9418C59.1646 61.9749 59.2616 61.9915 59.3682 61.9915C59.4487 61.9915 59.522 61.9856 59.5883 61.9737C59.657 61.9619 59.7091 61.9512 59.7446 61.9418L59.9612 62.9467C59.8925 62.9704 59.7943 62.9964 59.6665 63.0249C59.541 63.0533 59.3871 63.0698 59.2048 63.0746C58.8828 63.084 58.5928 63.0355 58.3348 62.929C58.0767 62.8201 57.872 62.652 57.7204 62.4247C57.5713 62.1974 57.4979 61.9134 57.5003 61.5724V56.2386ZM62.3396 59.804V63H61.0541V55.7273H62.3112V58.4723H62.3751C62.5029 58.1645 62.7006 57.9219 62.9681 57.7443C63.238 57.5644 63.5813 57.4744 63.998 57.4744C64.3767 57.4744 64.707 57.5537 64.9887 57.7124C65.2704 57.871 65.4883 58.103 65.6421 58.4084C65.7984 58.7138 65.8765 59.0866 65.8765 59.527V63H64.591V59.7259C64.591 59.3589 64.4963 59.0736 64.3069 58.87C64.1199 58.6641 63.8571 58.5611 63.5186 58.5611C63.2913 58.5611 63.0877 58.6108 62.9078 58.7102C62.7302 58.8073 62.5905 58.9482 62.4887 59.1328C62.3893 59.3175 62.3396 59.5412 62.3396 59.804ZM69.5661 63.1065C69.0335 63.1065 68.5718 62.9893 68.1812 62.755C67.7906 62.5206 67.4875 62.1927 67.2721 61.7713C67.059 61.3499 66.9525 60.8575 66.9525 60.294C66.9525 59.7306 67.059 59.237 67.2721 58.8132C67.4875 58.3894 67.7906 58.0604 68.1812 57.826C68.5718 57.5916 69.0335 57.4744 69.5661 57.4744C70.0988 57.4744 70.5605 57.5916 70.9511 57.826C71.3417 58.0604 71.6436 58.3894 71.8566 58.8132C72.0721 59.237 72.1798 59.7306 72.1798 60.294C72.1798 60.8575 72.0721 61.3499 71.8566 61.7713C71.6436 62.1927 71.3417 62.5206 70.9511 62.755C70.5605 62.9893 70.0988 63.1065 69.5661 63.1065ZM69.5732 62.0767C69.8621 62.0767 70.1035 61.9974 70.2977 61.8388C70.4918 61.6778 70.6362 61.4624 70.7309 61.1925C70.828 60.9226 70.8765 60.6219 70.8765 60.2905C70.8765 59.9567 70.828 59.6548 70.7309 59.3849C70.6362 59.1127 70.4918 58.8961 70.2977 58.7351C70.1035 58.5741 69.8621 58.4936 69.5732 58.4936C69.2773 58.4936 69.0311 58.5741 68.8346 58.7351C68.6405 58.8961 68.4949 59.1127 68.3978 59.3849C68.3031 59.6548 68.2558 59.9567 68.2558 60.2905C68.2558 60.6219 68.3031 60.9226 68.3978 61.1925C68.4949 61.4624 68.6405 61.6778 68.8346 61.8388C69.0311 61.9974 69.2773 62.0767 69.5732 62.0767ZM74.5564 59.804V63H73.2709V57.5455H74.4996V58.4723H74.5635C74.689 58.1669 74.889 57.9242 75.1636 57.7443C75.4406 57.5644 75.7827 57.4744 76.1899 57.4744C76.5663 57.4744 76.8942 57.5549 77.1736 57.7159C77.4553 57.8769 77.6731 58.1101 77.827 58.4155C77.9832 58.7209 78.0602 59.0914 78.0578 59.527V63H76.7723V59.7259C76.7723 59.3613 76.6776 59.076 76.4882 58.87C76.3012 58.6641 76.0419 58.5611 75.7105 58.5611C75.4856 58.5611 75.2855 58.6108 75.1104 58.7102C74.9375 58.8073 74.8014 58.9482 74.702 59.1328C74.6049 59.3175 74.5564 59.5412 74.5564 59.804ZM83.99 61.8352V56.9205H85.105V61.8352H83.99ZM82.0901 59.9354V58.8203H87.0049V59.9354H82.0901ZM42.0528 72.3636C42.0528 73.1473 41.906 73.8184 41.6125 74.3771C41.3213 74.9335 40.9236 75.3596 40.4193 75.6555C39.9174 75.9515 39.348 76.0994 38.7112 76.0994C38.0744 76.0994 37.5038 75.9515 36.9996 75.6555C36.4977 75.3572 36.0999 74.9299 35.8064 74.3736C35.5152 73.8149 35.3696 73.1449 35.3696 72.3636C35.3696 71.58 35.5152 70.91 35.8064 70.3537C36.0999 69.795 36.4977 69.3677 36.9996 69.0717C37.5038 68.7758 38.0744 68.6278 38.7112 68.6278C39.348 68.6278 39.9174 68.7758 40.4193 69.0717C40.9236 69.3677 41.3213 69.795 41.6125 70.3537C41.906 70.91 42.0528 71.58 42.0528 72.3636ZM40.7282 72.3636C40.7282 71.812 40.6418 71.3468 40.469 70.968C40.2986 70.5869 40.0618 70.2992 39.7588 70.1051C39.4558 69.9086 39.1066 69.8104 38.7112 69.8104C38.3158 69.8104 37.9666 69.9086 37.6636 70.1051C37.3606 70.2992 37.1227 70.5869 36.9498 70.968C36.7794 71.3468 36.6942 71.812 36.6942 72.3636C36.6942 72.9152 36.7794 73.3816 36.9498 73.7628C37.1227 74.1416 37.3606 74.4292 37.6636 74.6257C37.9666 74.8198 38.3158 74.9169 38.7112 74.9169C39.1066 74.9169 39.4558 74.8198 39.7588 74.6257C40.0618 74.4292 40.2986 74.1416 40.469 73.7628C40.6418 73.3816 40.7282 72.9152 40.7282 72.3636ZM46.7181 73.706V70.5455H48.0036V76H46.7572V75.0305H46.7004C46.5773 75.3359 46.3749 75.5857 46.0931 75.7798C45.8138 75.974 45.4693 76.071 45.0597 76.071C44.7023 76.071 44.3862 75.9917 44.1116 75.8331C43.8393 75.6721 43.6263 75.4389 43.4724 75.1335C43.3185 74.8258 43.2416 74.4541 43.2416 74.0185V70.5455H44.5271V73.8196C44.5271 74.1652 44.6218 74.4399 44.8112 74.6435C45.0006 74.8471 45.2491 74.9489 45.5569 74.9489C45.7463 74.9489 45.9298 74.9027 46.1073 74.8104C46.2849 74.718 46.4305 74.5807 46.5441 74.3984C46.6601 74.2138 46.7181 73.983 46.7181 73.706ZM52.0493 70.5455V71.5398H48.9136V70.5455H52.0493ZM49.6878 69.2386H50.9733V74.3594C50.9733 74.5322 50.9993 74.6648 51.0514 74.7571C51.1059 74.8471 51.1769 74.9086 51.2645 74.9418C51.3521 74.9749 51.4491 74.9915 51.5557 74.9915C51.6362 74.9915 51.7095 74.9856 51.7758 74.9737C51.8445 74.9619 51.8966 74.9512 51.9321 74.9418L52.1487 75.9467C52.08 75.9704 51.9818 75.9964 51.854 76.0249C51.7285 76.0533 51.5746 76.0698 51.3923 76.0746C51.0703 76.084 50.7803 76.0355 50.5223 75.929C50.2642 75.8201 50.0595 75.652 49.9079 75.4247C49.7588 75.1974 49.6854 74.9134 49.6878 74.5724V69.2386ZM55.445 76.1065C54.9005 76.1065 54.433 75.987 54.0423 75.7479C53.6541 75.5088 53.3546 75.1785 53.1439 74.7571C52.9356 74.3333 52.8314 73.8456 52.8314 73.294C52.8314 72.7401 52.9379 72.2512 53.151 71.8274C53.3641 71.4013 53.6647 71.0698 54.053 70.8331C54.4436 70.594 54.9053 70.4744 55.4379 70.4744C55.8807 70.4744 56.2725 70.5561 56.6134 70.7195C56.9566 70.8804 57.2301 71.1089 57.4337 71.4048C57.6373 71.6984 57.7533 72.0417 57.7817 72.4347H56.553C56.5033 72.1719 56.3849 71.9529 56.1979 71.7777C56.0132 71.6001 55.7658 71.5114 55.4557 71.5114C55.1929 71.5114 54.9621 71.5824 54.7632 71.7244C54.5644 71.8641 54.4093 72.0653 54.298 72.3281C54.1891 72.5909 54.1347 72.9058 54.1347 73.2727C54.1347 73.6444 54.1891 73.964 54.298 74.2315C54.4069 74.4967 54.5596 74.7015 54.7561 74.8459C54.955 74.9879 55.1882 75.0589 55.4557 75.0589C55.6451 75.0589 55.8144 75.0234 55.9635 74.9524C56.115 74.879 56.2417 74.7737 56.3435 74.6364C56.4453 74.4991 56.5151 74.3321 56.553 74.1357H57.7817C57.7509 74.5215 57.6373 74.8636 57.4408 75.1619C57.2443 75.4579 56.9768 75.6899 56.6382 75.858C56.2997 76.0237 55.902 76.1065 55.445 76.1065ZM61.2165 76.1065C60.6839 76.1065 60.2222 75.9893 59.8316 75.755C59.441 75.5206 59.1379 75.1927 58.9225 74.7713C58.7094 74.3499 58.6029 73.8575 58.6029 73.294C58.6029 72.7306 58.7094 72.237 58.9225 71.8132C59.1379 71.3894 59.441 71.0604 59.8316 70.826C60.2222 70.5916 60.6839 70.4744 61.2165 70.4744C61.7492 70.4744 62.2108 70.5916 62.6015 70.826C62.9921 71.0604 63.2939 71.3894 63.507 71.8132C63.7224 72.237 63.8302 72.7306 63.8302 73.294C63.8302 73.8575 63.7224 74.3499 63.507 74.7713C63.2939 75.1927 62.9921 75.5206 62.6015 75.755C62.2108 75.9893 61.7492 76.1065 61.2165 76.1065ZM61.2236 75.0767C61.5125 75.0767 61.7539 74.9974 61.9481 74.8388C62.1422 74.6778 62.2866 74.4624 62.3813 74.1925C62.4784 73.9226 62.5269 73.6219 62.5269 73.2905C62.5269 72.9567 62.4784 72.6548 62.3813 72.3849C62.2866 72.1127 62.1422 71.8961 61.9481 71.7351C61.7539 71.5741 61.5125 71.4936 61.2236 71.4936C60.9277 71.4936 60.6815 71.5741 60.485 71.7351C60.2909 71.8961 60.1453 72.1127 60.0482 72.3849C59.9535 72.6548 59.9062 72.9567 59.9062 73.2905C59.9062 73.6219 59.9535 73.9226 60.0482 74.1925C60.1453 74.4624 60.2909 74.6778 60.485 74.8388C60.6815 74.9974 60.9277 75.0767 61.2236 75.0767ZM64.9213 76V70.5455H66.1499V71.4723H66.2139C66.3275 71.1598 66.5157 70.916 66.7785 70.7408C67.0413 70.5632 67.355 70.4744 67.7195 70.4744C68.0889 70.4744 68.4002 70.5644 68.6535 70.7443C68.9092 70.9219 69.0891 71.1645 69.1933 71.4723H69.2501C69.3708 71.1693 69.5744 70.9278 69.8609 70.7479C70.1497 70.5656 70.4918 70.4744 70.8872 70.4744C71.3891 70.4744 71.7986 70.633 72.1159 70.9503C72.4331 71.2675 72.5917 71.7304 72.5917 72.3388V76H71.3026V72.5376C71.3026 72.1991 71.2127 71.9517 71.0328 71.7955C70.8528 71.6368 70.6327 71.5575 70.3722 71.5575C70.0621 71.5575 69.8195 71.6546 69.6443 71.8487C69.4714 72.0405 69.385 72.2902 69.385 72.598V76H68.1244V72.4844C68.1244 72.2027 68.0392 71.9777 67.8687 71.8097C67.7006 71.6416 67.4804 71.5575 67.2082 71.5575C67.0235 71.5575 66.8554 71.6049 66.7039 71.6996C66.5524 71.7919 66.4317 71.9233 66.3417 72.0938C66.2517 72.2618 66.2068 72.4583 66.2068 72.6832V76H64.9213ZM76.3106 76.1065C75.7638 76.1065 75.2915 75.9929 74.8937 75.7656C74.4984 75.536 74.1942 75.2116 73.9811 74.7926C73.768 74.3712 73.6615 73.8752 73.6615 73.3047C73.6615 72.7436 73.768 72.2512 73.9811 71.8274C74.1965 71.4013 74.4972 71.0698 74.8831 70.8331C75.269 70.594 75.7223 70.4744 76.2432 70.4744C76.5793 70.4744 76.8966 70.5289 77.1949 70.6378C77.4955 70.7443 77.7607 70.91 77.9903 71.1349C78.2223 71.3598 78.4046 71.6463 78.5372 71.9943C78.6698 72.34 78.7361 72.7519 78.7361 73.2301V73.6243H74.2652V72.7578H77.5038C77.5015 72.5116 77.4482 72.2926 77.344 72.1009C77.2398 71.9067 77.0943 71.754 76.9072 71.6428C76.7226 71.5315 76.5071 71.4759 76.2609 71.4759C75.9981 71.4759 75.7673 71.5398 75.5684 71.6676C75.3696 71.7931 75.2145 71.9588 75.1032 72.1648C74.9943 72.3684 74.9387 72.5921 74.9363 72.8359V73.5923C74.9363 73.9096 74.9943 74.1818 75.1104 74.4091C75.2264 74.634 75.3885 74.8068 75.5969 74.9276C75.8052 75.0459 76.049 75.1051 76.3284 75.1051C76.5154 75.1051 76.6847 75.0791 76.8362 75.027C76.9877 74.9725 77.1191 74.8932 77.2304 74.7891C77.3416 74.6849 77.4257 74.5559 77.4825 74.402L78.6828 74.5369C78.607 74.8542 78.4626 75.1312 78.2496 75.3679C78.0389 75.6023 77.769 75.7846 77.4399 75.9148C77.1108 76.0426 76.7344 76.1065 76.3106 76.1065ZM33.8697 89V81.7273H36.5969C37.1557 81.7273 37.6244 81.8243 38.0032 82.0185C38.3844 82.2126 38.672 82.4848 38.8661 82.8352C39.0626 83.1832 39.1609 83.5893 39.1609 84.0533C39.1609 84.5196 39.0614 84.9245 38.8626 85.2678C38.6661 85.6087 38.3761 85.8726 37.9925 86.0597C37.609 86.2443 37.1379 86.3366 36.5792 86.3366H34.6367V85.2429H36.4016C36.7283 85.2429 36.9959 85.1979 37.2042 85.108C37.4125 85.0156 37.5664 84.8819 37.6658 84.7067C37.7676 84.5291 37.8185 84.3113 37.8185 84.0533C37.8185 83.7952 37.7676 83.575 37.6658 83.3928C37.564 83.2081 37.409 83.0684 37.2006 82.9737C36.9923 82.8767 36.7236 82.8281 36.3945 82.8281H35.1871V89H33.8697ZM37.6268 85.7045L39.4272 89H37.957L36.1886 85.7045H37.6268ZM42.6534 89.1065C42.1065 89.1065 41.6342 88.9929 41.2365 88.7656C40.8411 88.536 40.5369 88.2116 40.3239 87.7926C40.1108 87.3712 40.0043 86.8752 40.0043 86.3047C40.0043 85.7436 40.1108 85.2512 40.3239 84.8274C40.5393 84.4013 40.84 84.0698 41.2259 83.8331C41.6117 83.594 42.0651 83.4744 42.5859 83.4744C42.9221 83.4744 43.2393 83.5289 43.5376 83.6378C43.8383 83.7443 44.1035 83.91 44.3331 84.1349C44.5651 84.3598 44.7474 84.6463 44.88 84.9943C45.0125 85.34 45.0788 85.7519 45.0788 86.2301V86.6243H40.608V85.7578H43.8466C43.8442 85.5116 43.791 85.2926 43.6868 85.1009C43.5826 84.9067 43.437 84.754 43.25 84.6428C43.0653 84.5315 42.8499 84.4759 42.6037 84.4759C42.3409 84.4759 42.1101 84.5398 41.9112 84.6676C41.7124 84.7931 41.5573 84.9588 41.446 85.1648C41.3371 85.3684 41.2815 85.5921 41.2791 85.8359V86.5923C41.2791 86.9096 41.3371 87.1818 41.4531 87.4091C41.5691 87.634 41.7313 87.8068 41.9396 87.9276C42.148 88.0459 42.3918 88.1051 42.6712 88.1051C42.8582 88.1051 43.0275 88.0791 43.179 88.027C43.3305 87.9725 43.4619 87.8932 43.5732 87.7891C43.6844 87.6849 43.7685 87.5559 43.8253 87.402L45.0256 87.5369C44.9498 87.8542 44.8054 88.1312 44.5923 88.3679C44.3816 88.6023 44.1117 88.7846 43.7827 88.9148C43.4536 89.0426 43.0772 89.1065 42.6534 89.1065ZM46.1664 91.0455V83.5455H47.4306V84.4474H47.5051C47.5714 84.3149 47.665 84.174 47.7857 84.0249C47.9064 83.8733 48.0698 83.7443 48.2757 83.6378C48.4817 83.5289 48.7445 83.4744 49.0641 83.4744C49.4855 83.4744 49.8655 83.5821 50.204 83.7976C50.5449 84.0107 50.8148 84.3267 51.0137 84.7457C51.2149 85.1624 51.3155 85.6738 51.3155 86.2798C51.3155 86.8788 51.2173 87.3878 51.0208 87.8068C50.8243 88.2259 50.5568 88.5455 50.2182 88.7656C49.8797 88.9858 49.4962 89.0959 49.0676 89.0959C48.7551 89.0959 48.4959 89.0438 48.29 88.9396C48.084 88.8355 47.9183 88.71 47.7928 88.5632C47.6697 88.4141 47.5738 88.2732 47.5051 88.1406H47.4519V91.0455H46.1664ZM47.427 86.2727C47.427 86.6255 47.4767 86.9344 47.5762 87.1996C47.678 87.4647 47.8236 87.6719 48.013 87.821C48.2047 87.9678 48.4367 88.0412 48.709 88.0412C48.9931 88.0412 49.231 87.9654 49.4228 87.8139C49.6145 87.66 49.7589 87.4505 49.856 87.1854C49.9554 86.9179 50.0051 86.6136 50.0051 86.2727C50.0051 85.9342 49.9566 85.6335 49.8596 85.3707C49.7625 85.108 49.6181 84.902 49.4263 84.7528C49.2346 84.6037 48.9954 84.5291 48.709 84.5291C48.4344 84.5291 48.2012 84.6013 48.0094 84.7457C47.8176 84.8902 47.6721 85.0926 47.5726 85.353C47.4756 85.6134 47.427 85.92 47.427 86.2727ZM54.7956 89.1065C54.263 89.1065 53.8013 88.9893 53.4107 88.755C53.0201 88.5206 52.717 88.1927 52.5016 87.7713C52.2885 87.3499 52.182 86.8575 52.182 86.294C52.182 85.7306 52.2885 85.237 52.5016 84.8132C52.717 84.3894 53.0201 84.0604 53.4107 83.826C53.8013 83.5916 54.263 83.4744 54.7956 83.4744C55.3283 83.4744 55.79 83.5916 56.1806 83.826C56.5712 84.0604 56.873 84.3894 57.0861 84.8132C57.3016 85.237 57.4093 85.7306 57.4093 86.294C57.4093 86.8575 57.3016 87.3499 57.0861 87.7713C56.873 88.1927 56.5712 88.5206 56.1806 88.755C55.79 88.9893 55.3283 89.1065 54.7956 89.1065ZM54.8027 88.0767C55.0916 88.0767 55.333 87.9974 55.5272 87.8388C55.7213 87.6778 55.8657 87.4624 55.9604 87.1925C56.0575 86.9226 56.106 86.6219 56.106 86.2905C56.106 85.9567 56.0575 85.6548 55.9604 85.3849C55.8657 85.1127 55.7213 84.8961 55.5272 84.7351C55.333 84.5741 55.0916 84.4936 54.8027 84.4936C54.5068 84.4936 54.2606 84.5741 54.0641 84.7351C53.87 84.8961 53.7244 85.1127 53.6273 85.3849C53.5326 85.6548 53.4853 85.9567 53.4853 86.2905C53.4853 86.6219 53.5326 86.9226 53.6273 87.1925C53.7244 87.4624 53.87 87.6778 54.0641 87.8388C54.2606 87.9974 54.5068 88.0767 54.8027 88.0767ZM58.5004 89V83.5455H59.7468V84.4545H59.8036C59.9031 84.1397 60.0735 83.897 60.315 83.7266C60.5588 83.5537 60.837 83.4673 61.1495 83.4673C61.2205 83.4673 61.2998 83.4709 61.3874 83.478C61.4774 83.4827 61.552 83.491 61.6112 83.5028V84.6854C61.5567 84.6664 61.4703 84.6499 61.3519 84.6357C61.2359 84.6191 61.1235 84.6108 61.0146 84.6108C60.7802 84.6108 60.5695 84.6617 60.3825 84.7635C60.1978 84.8629 60.0522 85.0014 59.9457 85.179C59.8391 85.3565 59.7859 85.5613 59.7859 85.7933V89H58.5004ZM65.4819 83.5455V84.5398H62.3462V83.5455H65.4819ZM63.1204 82.2386H64.4059V87.3594C64.4059 87.5322 64.4319 87.6648 64.484 87.7571C64.5385 87.8471 64.6095 87.9086 64.6971 87.9418C64.7847 87.9749 64.8817 87.9915 64.9883 87.9915C65.0688 87.9915 65.1422 87.9856 65.2085 87.9737C65.2771 87.9619 65.3292 87.9512 65.3647 87.9418L65.5813 88.9467C65.5127 88.9704 65.4144 88.9964 65.2866 89.0249C65.1611 89.0533 65.0072 89.0698 64.8249 89.0746C64.503 89.084 64.2129 89.0355 63.9549 88.929C63.6969 88.8201 63.4921 88.652 63.3406 88.4247C63.1914 88.1974 63.118 87.9134 63.1204 87.5724V82.2386ZM66.557 89V83.5455H67.8425V89H66.557ZM67.2033 82.7713C66.9997 82.7713 66.8245 82.7038 66.6777 82.5689C66.531 82.4316 66.4576 82.267 66.4576 82.0753C66.4576 81.8812 66.531 81.7166 66.6777 81.5817C66.8245 81.4444 66.9997 81.3757 67.2033 81.3757C67.4093 81.3757 67.5845 81.4444 67.7289 81.5817C67.8757 81.7166 67.949 81.8812 67.949 82.0753C67.949 82.267 67.8757 82.4316 67.7289 82.5689C67.5845 82.7038 67.4093 82.7713 67.2033 82.7713ZM70.4499 85.804V89H69.1644V83.5455H70.3931V84.4723H70.457C70.5825 84.1669 70.7826 83.9242 71.0572 83.7443C71.3342 83.5644 71.6763 83.4744 72.0835 83.4744C72.4599 83.4744 72.7878 83.5549 73.0671 83.7159C73.3488 83.8769 73.5666 84.1101 73.7205 84.4155C73.8768 84.7209 73.9537 85.0914 73.9513 85.527V89H72.6658V85.7259C72.6658 85.3613 72.5711 85.076 72.3817 84.87C72.1947 84.6641 71.9355 84.5611 71.604 84.5611C71.3791 84.5611 71.1791 84.6108 71.0039 84.7102C70.8311 84.8073 70.695 84.9482 70.5955 85.1328C70.4985 85.3175 70.4499 85.5412 70.4499 85.804ZM77.6303 91.1591C77.1687 91.1591 76.7721 91.0964 76.4407 90.9709C76.1093 90.8478 75.8429 90.6821 75.6417 90.4737C75.4405 90.2654 75.3008 90.0346 75.2227 89.7812L76.3803 89.5007C76.4324 89.6072 76.5082 89.7126 76.6076 89.8168C76.707 89.9233 76.8408 90.0109 77.0089 90.0795C77.1793 90.1506 77.3936 90.1861 77.6516 90.1861C78.0162 90.1861 78.3181 90.0973 78.5572 89.9197C78.7963 89.7446 78.9158 89.4557 78.9158 89.0533V88.0199H78.8519C78.7856 88.1525 78.6886 88.2886 78.5607 88.4283C78.4353 88.5679 78.2683 88.6851 78.06 88.7798C77.854 88.8745 77.5948 88.9219 77.2823 88.9219C76.8633 88.9219 76.4833 88.8236 76.1424 88.6271C75.8039 88.4283 75.534 88.1323 75.3327 87.7393C75.1339 87.344 75.0344 86.8492 75.0344 86.255C75.0344 85.656 75.1339 85.1506 75.3327 84.7386C75.534 84.3243 75.805 84.0107 76.146 83.7976C76.4869 83.5821 76.8668 83.4744 77.2859 83.4744C77.6055 83.4744 77.8683 83.5289 78.0742 83.6378C78.2826 83.7443 78.4483 83.8733 78.5714 84.0249C78.6945 84.174 78.788 84.3149 78.8519 84.4474H78.9229V83.5455H80.1907V89.0888C80.1907 89.5552 80.0794 89.9411 79.8569 90.2464C79.6344 90.5518 79.3301 90.7803 78.9442 90.9318C78.5584 91.0833 78.1204 91.1591 77.6303 91.1591ZM77.641 87.9134C77.9132 87.9134 78.1452 87.8471 78.337 87.7145C78.5288 87.5819 78.6744 87.3913 78.7738 87.1428C78.8732 86.8942 78.9229 86.5959 78.9229 86.2479C78.9229 85.9046 78.8732 85.6039 78.7738 85.3459C78.6767 85.0878 78.5323 84.8878 78.3406 84.7457C78.1512 84.6013 77.918 84.5291 77.641 84.5291C77.3545 84.5291 77.1154 84.6037 76.9237 84.7528C76.7319 84.902 76.5875 85.1068 76.4904 85.3672C76.3933 85.6252 76.3448 85.9188 76.3448 86.2479C76.3448 86.5817 76.3933 86.8741 76.4904 87.125C76.5898 87.3736 76.7354 87.5677 76.9272 87.7074C77.1213 87.8447 77.3593 87.9134 77.641 87.9134Z" fill="#020817"/>
<g filter="url(#filter1_d_1557_398)">
<ellipse cx="13.2856" cy="13.4031" rx="13.2856" ry="13.4031" transform="matrix(-1 0 0 1 69.5713 10)" fill="white"/>
</g>
<g filter="url(#filter2_d_1557_398)">
<circle cx="56.0092" cy="23.1264" r="12.5102" fill="#FF4A4A"/>
<circle cx="56.0092" cy="23.1264" r="11.0102" stroke="#FFC1C1" stroke-width="3"/>
</g>
<path d="M51.2148 18.332V26.8575C51.2148 27.1401 51.3271 27.4112 51.527 27.6111C51.7268 27.8109 51.9979 27.9232 52.2805 27.9232H60.806" stroke="white" stroke-linecap="round" stroke-linejoin="round"/>
<path d="M59.207 25.792V21.5293" stroke="white" stroke-linecap="round" stroke-linejoin="round"/>
<path d="M56.543 25.7916V19.3975" stroke="white" stroke-linecap="round" stroke-linejoin="round"/>
<path d="M53.8789 25.7919V24.1934" stroke="white" stroke-linecap="round" stroke-linejoin="round"/>
<defs>
<filter id="filter0_d_1557_398" x="0.157227" y="61.4863" width="114.196" height="68.9307" filterUnits="userSpaceOnUse" color-interpolation-filters="sRGB">
<feFlood flood-opacity="0" result="BackgroundImageFix"/>
<feColorMatrix in="SourceAlpha" type="matrix" values="0 0 0 0 0 0 0 0 0 0 0 0 0 0 0 0 0 0 127 0" result="hardAlpha"/>
<feOffset/>
<feGaussianBlur stdDeviation="5"/>
<feComposite in2="hardAlpha" operator="out"/>
<feColorMatrix type="matrix" values="0 0 0 0 0 0 0 0 0 0 0 0 0 0 0 0 0 0 0.25 0"/>
<feBlend mode="normal" in2="BackgroundImageFix" result="effect1_dropShadow_1557_398"/>
<feBlend mode="normal" in="SourceGraphic" in2="effect1_dropShadow_1557_398" result="shape"/>
</filter>
<filter id="filter1_d_1557_398" x="39" y="10" width="34.5713" height="34.8066" filterUnits="userSpaceOnUse" color-interpolation-filters="sRGB">
<feFlood flood-opacity="0" result="BackgroundImageFix"/>
<feColorMatrix in="SourceAlpha" type="matrix" values="0 0 0 0 0 0 0 0 0 0 0 0 0 0 0 0 0 0 127 0" result="hardAlpha"/>
<feOffset dy="4"/>
<feGaussianBlur stdDeviation="2"/>
<feComposite in2="hardAlpha" operator="out"/>
<feColorMatrix type="matrix" values="0 0 0 0 0 0 0 0 0 0 0 0 0 0 0 0 0 0 0.25 0"/>
<feBlend mode="normal" in2="BackgroundImageFix" result="effect1_dropShadow_1557_398"/>
<feBlend mode="normal" in="SourceGraphic" in2="effect1_dropShadow_1557_398" result="shape"/>
</filter>
<filter id="filter2_d_1557_398" x="33.499" y="0.616211" width="45.0205" height="45.0205" filterUnits="userSpaceOnUse" color-interpolation-filters="sRGB">
<feFlood flood-opacity="0" result="BackgroundImageFix"/>
<feColorMatrix in="SourceAlpha" type="matrix" values="0 0 0 0 0 0 0 0 0 0 0 0 0 0 0 0 0 0 127 0" result="hardAlpha"/>
<feOffset/>
<feGaussianBlur stdDeviation="5"/>
<feComposite in2="hardAlpha" operator="out"/>
<feColorMatrix type="matrix" values="0 0 0 0 0 0 0 0 0 0 0 0 0 0 0 0 0 0 0.2 0"/>
<feBlend mode="normal" in2="BackgroundImageFix" result="effect1_dropShadow_1557_398"/>
<feBlend mode="normal" in="SourceGraphic" in2="effect1_dropShadow_1557_398" result="shape"/>
</filter>
</defs>
</svg>
