<svg width="213" height="194" viewBox="0 0 213 194" fill="none" xmlns="http://www.w3.org/2000/svg">
<g filter="url(#filter0_d_1388_343)">
<path d="M114.546 183.118C125.929 183.411 137.255 181.397 147.859 177.196C158.463 172.994 168.13 166.689 176.293 158.651C184.455 150.613 190.949 141.004 195.391 130.389C199.834 119.774 202.136 108.367 202.163 96.8385C202.189 85.3099 199.94 73.8923 195.546 63.2565C191.152 52.6207 184.703 42.9813 176.578 34.9048C168.452 26.8283 158.814 20.4776 148.23 16.2259C137.646 11.9742 126.329 9.90728 114.944 10.1466L115.008 13.2656C125.982 13.035 136.891 15.0274 147.093 19.1257C157.296 23.2241 166.586 29.3458 174.419 37.131C182.251 44.9163 188.468 54.208 192.703 64.4603C196.939 74.7125 199.107 85.7184 199.081 96.8312C199.056 107.944 196.837 118.94 192.554 129.172C188.272 139.404 182.012 148.666 174.144 156.414C166.276 164.162 156.957 170.24 146.736 174.29C136.515 178.341 125.597 180.281 114.624 179.999L114.546 183.118Z" fill="black"/>
</g>
<path d="M116.364 185.272C92.8561 185.272 70.3112 175.934 53.6887 159.311C37.0662 142.689 27.7278 120.144 27.7278 96.6361C27.7278 73.1284 37.0662 50.5834 53.6887 33.9609C70.3112 17.3384 92.8561 8 116.364 8V15.2784C94.7865 15.2784 74.0928 23.85 58.8353 39.1076C43.5778 54.3651 35.0062 75.0587 35.0062 96.6361C35.0062 118.214 43.5778 138.907 58.8353 154.165C74.0928 169.422 94.7865 177.994 116.364 177.994V185.272Z" fill="#E1E1E1"/>
<g filter="url(#filter1_d_1388_343)">
<circle cx="24" cy="24" r="24" transform="matrix(-1 0 0 1 57 74)" fill="white"/>
</g>
<path d="M73.49 82.6364H76.2307L79.9012 91.5952H80.0461L83.7165 82.6364H86.4573V95H84.3082V86.506H84.1934L80.7765 94.9638H79.1707L75.7538 86.4879H75.6391V95H73.49V82.6364ZM94.7098 91.1001V85.7273H96.8952V95H94.7762V93.3519H94.6796C94.4703 93.8711 94.1262 94.2957 93.6473 94.6257C93.1724 94.9557 92.5868 95.1207 91.8905 95.1207C91.2828 95.1207 90.7455 94.9859 90.2787 94.7163C89.8158 94.4426 89.4536 94.0462 89.192 93.527C88.9304 93.0038 88.7996 92.3719 88.7996 91.6314V85.7273H90.985V91.2933C90.985 91.8809 91.146 92.3478 91.468 92.6939C91.7899 93.04 92.2125 93.2131 92.7357 93.2131C93.0577 93.2131 93.3696 93.1346 93.6714 92.9776C93.9733 92.8207 94.2208 92.5872 94.414 92.2773C94.6112 91.9634 94.7098 91.571 94.7098 91.1001ZM101.328 82.6364V95H99.1424V82.6364H101.328ZM108.205 85.7273V87.4176H102.875V85.7273H108.205ZM104.191 83.5057H106.376V92.2109C106.376 92.5047 106.42 92.7301 106.509 92.8871C106.602 93.04 106.722 93.1446 106.871 93.201C107.02 93.2573 107.185 93.2855 107.366 93.2855C107.503 93.2855 107.628 93.2754 107.741 93.2553C107.857 93.2352 107.946 93.2171 108.006 93.201L108.374 94.9094C108.258 94.9497 108.091 94.994 107.873 95.0423C107.66 95.0906 107.398 95.1187 107.089 95.1268C106.541 95.1429 106.048 95.0604 105.609 94.8793C105.171 94.6941 104.823 94.4084 104.565 94.022C104.312 93.6357 104.187 93.1527 104.191 92.5732V83.5057ZM110.033 95V85.7273H112.218V95H110.033ZM111.132 84.4112C110.786 84.4112 110.488 84.2965 110.238 84.0671C109.989 83.8337 109.864 83.554 109.864 83.228C109.864 82.898 109.989 82.6183 110.238 82.3888C110.488 82.1554 110.786 82.0387 111.132 82.0387C111.482 82.0387 111.78 82.1554 112.025 82.3888C112.275 82.6183 112.4 82.898 112.4 83.228C112.4 83.554 112.275 83.8337 112.025 84.0671C111.78 84.2965 111.482 84.4112 111.132 84.4112ZM116.651 82.6364V95H114.466V82.6364H116.651ZM118.898 95V85.7273H121.084V95H118.898ZM119.997 84.4112C119.651 84.4112 119.353 84.2965 119.104 84.0671C118.854 83.8337 118.729 83.554 118.729 83.228C118.729 82.898 118.854 82.6183 119.104 82.3888C119.353 82.1554 119.651 82.0387 119.997 82.0387C120.347 82.0387 120.645 82.1554 120.89 82.3888C121.14 82.6183 121.265 82.898 121.265 83.228C121.265 83.554 121.14 83.8337 120.89 84.0671C120.645 84.2965 120.347 84.4112 119.997 84.4112ZM125.516 89.5668V95H123.331V85.7273H125.42V87.3029H125.528C125.742 86.7837 126.082 86.3712 126.549 86.0653C127.019 85.7595 127.601 85.6065 128.293 85.6065C128.933 85.6065 129.491 85.7434 129.965 86.017C130.444 86.2907 130.815 86.6871 131.076 87.2063C131.342 87.7255 131.473 88.3554 131.469 89.0959V95H129.283V89.4339C129.283 88.8142 129.122 88.3292 128.8 87.979C128.482 87.6289 128.042 87.4538 127.478 87.4538C127.096 87.4538 126.756 87.5384 126.458 87.7074C126.164 87.8724 125.933 88.1119 125.764 88.4258C125.599 88.7397 125.516 89.12 125.516 89.5668ZM137.723 98.6705C136.938 98.6705 136.264 98.5638 135.701 98.3505C135.137 98.1412 134.684 97.8595 134.342 97.5053C134 97.1512 133.763 96.7588 133.63 96.3281L135.598 95.8512C135.686 96.0323 135.815 96.2114 135.984 96.3885C136.153 96.5696 136.381 96.7185 136.666 96.8352C136.956 96.956 137.32 97.0163 137.759 97.0163C138.379 97.0163 138.892 96.8654 139.299 96.5636C139.705 96.2657 139.908 95.7747 139.908 95.0906V93.3338H139.8C139.687 93.5592 139.522 93.7906 139.305 94.0281C139.091 94.2655 138.808 94.4647 138.453 94.6257C138.103 94.7867 137.663 94.8672 137.131 94.8672C136.419 94.8672 135.773 94.7002 135.193 94.3661C134.618 94.0281 134.159 93.525 133.817 92.8569C133.479 92.1848 133.31 91.3436 133.31 90.3335C133.31 89.3152 133.479 88.456 133.817 87.7557C134.159 87.0514 134.62 86.5181 135.199 86.1559C135.779 85.7897 136.425 85.6065 137.137 85.6065C137.681 85.6065 138.127 85.6991 138.478 85.8842C138.832 86.0653 139.113 86.2847 139.323 86.5423C139.532 86.7958 139.691 87.0353 139.8 87.2607H139.92V85.7273H142.076V95.1509C142.076 95.9438 141.886 96.5998 141.508 97.119C141.13 97.6381 140.613 98.0265 139.957 98.2841C139.301 98.5417 138.556 98.6705 137.723 98.6705ZM137.741 93.1527C138.204 93.1527 138.598 93.04 138.924 92.8146C139.25 92.5893 139.498 92.2653 139.667 91.8427C139.836 91.4201 139.92 90.913 139.92 90.3214C139.92 89.7378 139.836 89.2267 139.667 88.788C139.502 88.3493 139.256 88.0092 138.93 87.7678C138.608 87.5223 138.212 87.3995 137.741 87.3995C137.254 87.3995 136.848 87.5263 136.522 87.7798C136.196 88.0334 135.95 88.3815 135.785 88.8242C135.62 89.2629 135.538 89.762 135.538 90.3214C135.538 90.8888 135.62 91.3859 135.785 91.8125C135.954 92.2351 136.202 92.5651 136.528 92.8026C136.858 93.036 137.262 93.1527 137.741 93.1527ZM150.225 91.1001V85.7273H152.411V95H150.292V93.3519H150.195C149.986 93.8711 149.642 94.2957 149.163 94.6257C148.688 94.9557 148.102 95.1207 147.406 95.1207C146.798 95.1207 146.261 94.9859 145.794 94.7163C145.331 94.4426 144.969 94.0462 144.708 93.527C144.446 93.0038 144.315 92.3719 144.315 91.6314V85.7273H146.501V91.2933C146.501 91.8809 146.662 92.3478 146.984 92.6939C147.306 93.04 147.728 93.2131 148.251 93.2131C148.573 93.2131 148.885 93.1346 149.187 92.9776C149.489 92.8207 149.736 92.5872 149.93 92.2773C150.127 91.9634 150.225 91.571 150.225 91.1001ZM157.326 95.1871C156.739 95.1871 156.21 95.0825 155.739 94.8732C155.272 94.6599 154.902 94.346 154.628 93.9315C154.358 93.5169 154.223 93.0058 154.223 92.3981C154.223 91.8749 154.32 91.4422 154.513 91.1001C154.706 90.758 154.97 90.4844 155.304 90.2791C155.638 90.0739 156.014 89.9189 156.433 89.8143C156.855 89.7056 157.292 89.6271 157.743 89.5788C158.286 89.5225 158.727 89.4722 159.065 89.4279C159.403 89.3796 159.649 89.3072 159.801 89.2106C159.958 89.11 160.037 88.955 160.037 88.7457V88.7095C160.037 88.2547 159.902 87.9026 159.632 87.6531C159.363 87.4035 158.974 87.2788 158.467 87.2788C157.932 87.2788 157.507 87.3955 157.194 87.6289C156.884 87.8623 156.674 88.138 156.566 88.456L154.525 88.1662C154.686 87.6027 154.952 87.1319 155.322 86.7536C155.692 86.3712 156.145 86.0855 156.68 85.8963C157.216 85.7031 157.807 85.6065 158.455 85.6065C158.902 85.6065 159.347 85.6589 159.789 85.7635C160.232 85.8681 160.637 86.0412 161.003 86.2827C161.369 86.5201 161.663 86.8441 161.884 87.2546C162.11 87.6651 162.222 88.1783 162.222 88.794V95H160.121V93.7262H160.049C159.916 93.9838 159.729 94.2253 159.488 94.4506C159.25 94.672 158.95 94.8511 158.588 94.9879C158.23 95.1207 157.809 95.1871 157.326 95.1871ZM157.894 93.5813C158.333 93.5813 158.713 93.4948 159.035 93.3217C159.357 93.1446 159.604 92.9112 159.777 92.6214C159.954 92.3317 160.043 92.0157 160.043 91.6737V90.581C159.975 90.6373 159.858 90.6896 159.693 90.7379C159.532 90.7862 159.351 90.8285 159.15 90.8647C158.948 90.9009 158.749 90.9331 158.552 90.9613C158.355 90.9895 158.184 91.0136 158.039 91.0337C157.713 91.078 157.421 91.1504 157.163 91.2511C156.906 91.3517 156.703 91.4925 156.554 91.6737C156.405 91.8507 156.33 92.0801 156.33 92.3619C156.33 92.7643 156.477 93.0682 156.771 93.2734C157.065 93.4787 157.439 93.5813 157.894 93.5813ZM166.605 82.6364V95H164.42V82.6364H166.605ZM86.9086 104.514V102.636H96.7729V104.514H92.9515V115H90.7299V104.514H86.9086ZM97.6151 115V105.727H99.734V107.273H99.8306C99.9996 106.737 100.289 106.325 100.7 106.035C101.114 105.741 101.587 105.594 102.119 105.594C102.239 105.594 102.374 105.6 102.523 105.613C102.676 105.621 102.803 105.635 102.903 105.655V107.665C102.811 107.633 102.664 107.605 102.463 107.581C102.266 107.552 102.074 107.538 101.889 107.538C101.491 107.538 101.133 107.625 100.815 107.798C100.501 107.967 100.253 108.202 100.072 108.504C99.891 108.806 99.8004 109.154 99.8004 109.549V115H97.6151ZM106.858 115.187C106.27 115.187 105.741 115.083 105.27 114.873C104.803 114.66 104.433 114.346 104.159 113.931C103.889 113.517 103.755 113.006 103.755 112.398C103.755 111.875 103.851 111.442 104.044 111.1C104.238 110.758 104.501 110.484 104.835 110.279C105.169 110.074 105.546 109.919 105.964 109.814C106.387 109.706 106.823 109.627 107.274 109.579C107.817 109.522 108.258 109.472 108.596 109.428C108.934 109.38 109.18 109.307 109.333 109.211C109.49 109.11 109.568 108.955 109.568 108.746V108.71C109.568 108.255 109.433 107.903 109.164 107.653C108.894 107.404 108.506 107.279 107.999 107.279C107.463 107.279 107.039 107.395 106.725 107.629C106.415 107.862 106.206 108.138 106.097 108.456L104.056 108.166C104.217 107.603 104.483 107.132 104.853 106.754C105.224 106.371 105.676 106.085 106.212 105.896C106.747 105.703 107.339 105.607 107.987 105.607C108.433 105.607 108.878 105.659 109.321 105.763C109.763 105.868 110.168 106.041 110.534 106.283C110.9 106.52 111.194 106.844 111.415 107.255C111.641 107.665 111.754 108.178 111.754 108.794V115H109.653V113.726H109.58C109.447 113.984 109.26 114.225 109.019 114.451C108.781 114.672 108.482 114.851 108.119 114.988C107.761 115.121 107.341 115.187 106.858 115.187ZM107.425 113.581C107.864 113.581 108.244 113.495 108.566 113.322C108.888 113.145 109.136 112.911 109.309 112.621C109.486 112.332 109.574 112.016 109.574 111.674V110.581C109.506 110.637 109.389 110.69 109.224 110.738C109.063 110.786 108.882 110.828 108.681 110.865C108.48 110.901 108.28 110.933 108.083 110.961C107.886 110.989 107.715 111.014 107.57 111.034C107.244 111.078 106.952 111.15 106.695 111.251C106.437 111.352 106.234 111.493 106.085 111.674C105.936 111.851 105.862 112.08 105.862 112.362C105.862 112.764 106.008 113.068 106.302 113.273C106.596 113.479 106.97 113.581 107.425 113.581ZM113.951 115V105.727H116.136V115H113.951ZM115.05 104.411C114.704 104.411 114.406 104.297 114.156 104.067C113.907 103.834 113.782 103.554 113.782 103.228C113.782 102.898 113.907 102.618 114.156 102.389C114.406 102.155 114.704 102.039 115.05 102.039C115.4 102.039 115.698 102.155 115.943 102.389C116.193 102.618 116.317 102.898 116.317 103.228C116.317 103.554 116.193 103.834 115.943 104.067C115.698 104.297 115.4 104.411 115.05 104.411ZM120.569 109.567V115H118.384V105.727H120.472V107.303H120.581C120.794 106.784 121.134 106.371 121.601 106.065C122.072 105.759 122.654 105.607 123.346 105.607C123.986 105.607 124.543 105.743 125.018 106.017C125.497 106.291 125.867 106.687 126.129 107.206C126.395 107.725 126.525 108.355 126.521 109.096V115H124.336V109.434C124.336 108.814 124.175 108.329 123.853 107.979C123.535 107.629 123.094 107.454 122.531 107.454C122.149 107.454 121.809 107.538 121.511 107.707C121.217 107.872 120.986 108.112 120.816 108.426C120.651 108.74 120.569 109.12 120.569 109.567ZM132.848 115.181C131.918 115.181 131.116 114.988 130.439 114.602C129.767 114.211 129.25 113.66 128.888 112.947C128.526 112.231 128.345 111.388 128.345 110.418C128.345 109.464 128.526 108.627 128.888 107.907C129.254 107.182 129.765 106.619 130.421 106.216C131.077 105.81 131.848 105.607 132.733 105.607C133.305 105.607 133.844 105.699 134.351 105.884C134.862 106.065 135.313 106.347 135.704 106.729C136.098 107.112 136.408 107.599 136.633 108.19C136.859 108.778 136.971 109.478 136.971 110.291V110.961H129.371V109.488H134.877C134.872 109.07 134.782 108.697 134.605 108.371C134.428 108.041 134.18 107.782 133.862 107.593C133.548 107.404 133.182 107.309 132.764 107.309C132.317 107.309 131.924 107.418 131.586 107.635C131.248 107.848 130.985 108.13 130.796 108.48C130.61 108.826 130.516 109.207 130.512 109.621V110.907C130.512 111.446 130.61 111.909 130.808 112.295C131.005 112.678 131.281 112.972 131.635 113.177C131.989 113.378 132.403 113.479 132.878 113.479C133.196 113.479 133.484 113.434 133.742 113.346C133.999 113.253 134.223 113.118 134.412 112.941C134.601 112.764 134.744 112.545 134.84 112.283L136.881 112.513C136.752 113.052 136.506 113.523 136.144 113.925C135.786 114.324 135.327 114.634 134.768 114.855C134.208 115.072 133.569 115.181 132.848 115.181ZM138.82 115V105.727H140.939V107.273H141.036C141.205 106.737 141.494 106.325 141.905 106.035C142.32 105.741 142.792 105.594 143.324 105.594C143.444 105.594 143.579 105.6 143.728 105.613C143.881 105.621 144.008 105.635 144.108 105.655V107.665C144.016 107.633 143.869 107.605 143.668 107.581C143.471 107.552 143.279 107.538 143.094 107.538C142.696 107.538 142.338 107.625 142.02 107.798C141.706 107.967 141.458 108.202 141.277 108.504C141.096 108.806 141.006 109.154 141.006 109.549V115H138.82ZM152.889 108.178L150.897 108.396C150.841 108.194 150.742 108.005 150.601 107.828C150.464 107.651 150.279 107.508 150.046 107.4C149.812 107.291 149.527 107.237 149.189 107.237C148.734 107.237 148.351 107.335 148.042 107.532C147.736 107.73 147.585 107.985 147.589 108.299C147.585 108.569 147.683 108.788 147.885 108.957C148.09 109.126 148.428 109.265 148.899 109.374L150.48 109.712C151.358 109.901 152.01 110.201 152.436 110.611C152.867 111.022 153.084 111.559 153.088 112.223C153.084 112.807 152.913 113.322 152.575 113.768C152.241 114.211 151.776 114.557 151.181 114.807C150.585 115.056 149.901 115.181 149.128 115.181C147.993 115.181 147.08 114.944 146.387 114.469C145.695 113.99 145.283 113.324 145.15 112.471L147.281 112.265C147.377 112.684 147.583 113 147.897 113.213C148.211 113.426 148.619 113.533 149.122 113.533C149.641 113.533 150.058 113.426 150.372 113.213C150.69 113 150.849 112.736 150.849 112.422C150.849 112.157 150.746 111.937 150.541 111.764C150.34 111.591 150.026 111.458 149.599 111.366L148.017 111.034C147.128 110.849 146.47 110.537 146.043 110.098C145.617 109.655 145.405 109.096 145.409 108.42C145.405 107.848 145.56 107.353 145.874 106.935C146.192 106.512 146.633 106.186 147.196 105.957C147.764 105.723 148.418 105.607 149.158 105.607C150.245 105.607 151.1 105.838 151.724 106.301C152.352 106.764 152.74 107.389 152.889 108.178Z" fill="#020817"/>
<g filter="url(#filter2_d_1388_343)">
<circle cx="32.5" cy="97.5" r="22.5" fill="#FF4A4A"/>
<circle cx="32.5" cy="97.5" r="21" stroke="#FFC1C1" stroke-width="3"/>
</g>
<path d="M31.9647 110.001C38.6217 110.001 44.0183 104.405 44.0183 97.501C44.0183 90.5974 38.6217 85.001 31.9647 85.001C25.3077 85.001 19.9111 90.5974 19.9111 97.501C19.9111 104.405 25.3077 110.001 31.9647 110.001Z" stroke="white" stroke-width="2" stroke-linecap="round" stroke-linejoin="round"/>
<path d="M31.964 85.001C28.8689 88.3712 27.1426 92.8469 27.1426 97.501C27.1426 102.155 28.8689 106.631 31.964 110.001C35.0591 106.631 36.7854 102.155 36.7854 97.501C36.7854 92.8469 35.0591 88.3712 31.964 85.001Z" stroke="white" stroke-width="2" stroke-linecap="round" stroke-linejoin="round"/>
<path d="M19.9111 97.501H44.0183" stroke="white" stroke-width="2" stroke-linecap="round" stroke-linejoin="round"/>
<defs>
<filter id="filter0_d_1388_343" x="104.546" y="0.12793" width="107.617" height="193.018" filterUnits="userSpaceOnUse" color-interpolation-filters="sRGB">
<feFlood flood-opacity="0" result="BackgroundImageFix"/>
<feColorMatrix in="SourceAlpha" type="matrix" values="0 0 0 0 0 0 0 0 0 0 0 0 0 0 0 0 0 0 127 0" result="hardAlpha"/>
<feOffset/>
<feGaussianBlur stdDeviation="5"/>
<feComposite in2="hardAlpha" operator="out"/>
<feColorMatrix type="matrix" values="0 0 0 0 0 0 0 0 0 0 0 0 0 0 0 0 0 0 0.25 0"/>
<feBlend mode="normal" in2="BackgroundImageFix" result="effect1_dropShadow_1388_343"/>
<feBlend mode="normal" in="SourceGraphic" in2="effect1_dropShadow_1388_343" result="shape"/>
</filter>
<filter id="filter1_d_1388_343" x="5" y="74" width="56" height="56" filterUnits="userSpaceOnUse" color-interpolation-filters="sRGB">
<feFlood flood-opacity="0" result="BackgroundImageFix"/>
<feColorMatrix in="SourceAlpha" type="matrix" values="0 0 0 0 0 0 0 0 0 0 0 0 0 0 0 0 0 0 127 0" result="hardAlpha"/>
<feOffset dy="4"/>
<feGaussianBlur stdDeviation="2"/>
<feComposite in2="hardAlpha" operator="out"/>
<feColorMatrix type="matrix" values="0 0 0 0 0 0 0 0 0 0 0 0 0 0 0 0 0 0 0.25 0"/>
<feBlend mode="normal" in2="BackgroundImageFix" result="effect1_dropShadow_1388_343"/>
<feBlend mode="normal" in="SourceGraphic" in2="effect1_dropShadow_1388_343" result="shape"/>
</filter>
<filter id="filter2_d_1388_343" x="0" y="65" width="65" height="65" filterUnits="userSpaceOnUse" color-interpolation-filters="sRGB">
<feFlood flood-opacity="0" result="BackgroundImageFix"/>
<feColorMatrix in="SourceAlpha" type="matrix" values="0 0 0 0 0 0 0 0 0 0 0 0 0 0 0 0 0 0 127 0" result="hardAlpha"/>
<feOffset/>
<feGaussianBlur stdDeviation="5"/>
<feComposite in2="hardAlpha" operator="out"/>
<feColorMatrix type="matrix" values="0 0 0 0 0 0 0 0 0 0 0 0 0 0 0 0 0 0 0.2 0"/>
<feBlend mode="normal" in2="BackgroundImageFix" result="effect1_dropShadow_1388_343"/>
<feBlend mode="normal" in="SourceGraphic" in2="effect1_dropShadow_1388_343" result="shape"/>
</filter>
</defs>
</svg>
