<svg width="213" height="194" viewBox="0 0 213 194" fill="none" xmlns="http://www.w3.org/2000/svg">
<g filter="url(#filter0_d_1388_317)">
<path d="M114.546 183.118C125.929 183.411 137.255 181.397 147.859 177.196C158.463 172.994 168.13 166.689 176.293 158.651C184.455 150.613 190.949 141.004 195.391 130.389C199.834 119.774 202.136 108.367 202.163 96.8385C202.189 85.3099 199.94 73.8923 195.546 63.2565C191.152 52.6207 184.703 42.9813 176.578 34.9048C168.452 26.8283 158.814 20.4776 148.23 16.2259C137.646 11.9742 126.329 9.90728 114.944 10.1466L115.008 13.2656C125.982 13.035 136.891 15.0274 147.093 19.1257C157.296 23.2241 166.586 29.3458 174.419 37.131C182.251 44.9163 188.468 54.208 192.703 64.4603C196.939 74.7125 199.107 85.7184 199.081 96.8312C199.056 107.944 196.837 118.94 192.554 129.172C188.272 139.404 182.012 148.666 174.144 156.414C166.276 164.162 156.957 170.24 146.736 174.29C136.515 178.341 125.597 180.281 114.624 179.999L114.546 183.118Z" fill="black"/>
</g>
<path d="M116.364 185.272C92.8561 185.272 70.3112 175.934 53.6887 159.311C37.0662 142.689 27.7278 120.144 27.7278 96.6361C27.7278 73.1284 37.0662 50.5834 53.6887 33.9609C70.3112 17.3384 92.8561 8 116.364 8V15.2784C94.7865 15.2784 74.0928 23.85 58.8353 39.1076C43.5778 54.3651 35.0062 75.0587 35.0062 96.6361C35.0062 118.214 43.5778 138.907 58.8353 154.165C74.0928 169.422 94.7865 177.994 116.364 177.994V185.272Z" fill="#E1E1E1"/>
<g filter="url(#filter1_d_1388_317)">
<circle cx="24" cy="24" r="24" transform="matrix(-1 0 0 1 57 74)" fill="white"/>
</g>
<path d="M76.028 79.5845C75.9274 79.2585 75.7885 78.9667 75.6115 78.7092C75.4384 78.4476 75.2291 78.2242 74.9836 78.0391C74.7421 77.8539 74.4644 77.7151 74.1505 77.6225C73.8366 77.5259 73.4945 77.4776 73.1242 77.4776C72.4602 77.4776 71.8686 77.6446 71.3494 77.9787C70.8302 78.3127 70.4217 78.8037 70.1239 79.4517C69.8301 80.0956 69.6832 80.8804 69.6832 81.8061C69.6832 82.7398 69.8301 83.5307 70.1239 84.1786C70.4177 84.8266 70.8262 85.3196 71.3494 85.6577C71.8726 85.9917 72.4803 86.1587 73.1725 86.1587C73.8004 86.1587 74.3437 86.038 74.8025 85.7965C75.2653 85.555 75.6215 85.2129 75.871 84.7702C76.1206 84.3235 76.2453 83.8003 76.2453 83.2006L76.7524 83.2791H73.3959V81.5284H78.4126V83.0135C78.4126 84.072 78.1872 84.9876 77.7365 85.7603C77.2857 86.533 76.6659 87.1287 75.8771 87.5472C75.0883 87.9618 74.1827 88.169 73.1605 88.169C72.0215 88.169 71.0214 87.9135 70.1601 87.4023C69.3029 86.8872 68.6328 86.1567 68.1498 85.2109C67.6709 84.2611 67.4314 83.1342 67.4314 81.8303C67.4314 80.8321 67.5723 79.9407 67.854 79.1559C68.1398 78.3711 68.5382 77.705 69.0493 77.1577C69.5604 76.6063 70.1601 76.1877 70.8483 75.902C71.5365 75.6122 72.2851 75.4673 73.0941 75.4673C73.7782 75.4673 74.4161 75.5679 75.0078 75.7692C75.5994 75.9664 76.1246 76.2481 76.5834 76.6143C77.0462 76.9806 77.4266 77.4152 77.7244 77.9183C78.0222 78.4214 78.2174 78.9768 78.31 79.5845H76.028ZM84.5265 88.1811C83.621 88.1811 82.8362 87.9819 82.1721 87.5835C81.508 87.185 80.9929 86.6276 80.6266 85.9112C80.2644 85.1948 80.0833 84.3577 80.0833 83.3999C80.0833 82.442 80.2644 81.6029 80.6266 80.8825C80.9929 80.162 81.508 79.6026 82.1721 79.2042C82.8362 78.8058 83.621 78.6065 84.5265 78.6065C85.432 78.6065 86.2168 78.8058 86.8809 79.2042C87.545 79.6026 88.0581 80.162 88.4203 80.8825C88.7866 81.6029 88.9697 82.442 88.9697 83.3999C88.9697 84.3577 88.7866 85.1948 88.4203 85.9112C88.0581 86.6276 87.545 87.185 86.8809 87.5835C86.2168 87.9819 85.432 88.1811 84.5265 88.1811ZM84.5386 86.4304C85.0296 86.4304 85.4401 86.2956 85.7701 86.0259C86.1001 85.7522 86.3456 85.386 86.5066 84.9272C86.6716 84.4684 86.7541 83.9573 86.7541 83.3938C86.7541 82.8263 86.6716 82.3132 86.5066 81.8544C86.3456 81.3916 86.1001 81.0233 85.7701 80.7496C85.4401 80.476 85.0296 80.3391 84.5386 80.3391C84.0355 80.3391 83.6169 80.476 83.2829 80.7496C82.9529 81.0233 82.7054 81.3916 82.5403 81.8544C82.3794 82.3132 82.2989 82.8263 82.2989 83.3938C82.2989 83.9573 82.3794 84.4684 82.5403 84.9272C82.7054 85.386 82.9529 85.7522 83.2829 86.0259C83.6169 86.2956 84.0355 86.4304 84.5386 86.4304ZM94.8693 88.1811C93.9637 88.1811 93.1789 87.9819 92.5149 87.5835C91.8508 87.185 91.3357 86.6276 90.9694 85.9112C90.6072 85.1948 90.4261 84.3577 90.4261 83.3999C90.4261 82.442 90.6072 81.6029 90.9694 80.8825C91.3357 80.162 91.8508 79.6026 92.5149 79.2042C93.1789 78.8058 93.9637 78.6065 94.8693 78.6065C95.7748 78.6065 96.5596 78.8058 97.2237 79.2042C97.8877 79.6026 98.4009 80.162 98.7631 80.8825C99.1293 81.6029 99.3125 82.442 99.3125 83.3999C99.3125 84.3577 99.1293 85.1948 98.7631 85.9112C98.4009 86.6276 97.8877 87.185 97.2237 87.5835C96.5596 87.9819 95.7748 88.1811 94.8693 88.1811ZM94.8813 86.4304C95.3724 86.4304 95.7829 86.2956 96.1129 86.0259C96.4429 85.7522 96.6884 85.386 96.8494 84.9272C97.0144 84.4684 97.0969 83.9573 97.0969 83.3938C97.0969 82.8263 97.0144 82.3132 96.8494 81.8544C96.6884 81.3916 96.4429 81.0233 96.1129 80.7496C95.7829 80.476 95.3724 80.3391 94.8813 80.3391C94.3783 80.3391 93.9597 80.476 93.6257 80.7496C93.2956 81.0233 93.0481 81.3916 92.8831 81.8544C92.7221 82.3132 92.6416 82.8263 92.6416 83.3938C92.6416 83.9573 92.7221 84.4684 92.8831 84.9272C93.0481 85.386 93.2956 85.7522 93.6257 86.0259C93.9597 86.2956 94.3783 86.4304 94.8813 86.4304ZM105.2 91.6705C104.415 91.6705 103.741 91.5638 103.178 91.3505C102.614 91.1412 102.161 90.8595 101.819 90.5053C101.477 90.1512 101.24 89.7588 101.107 89.3281L103.075 88.8512C103.164 89.0323 103.292 89.2114 103.461 89.3885C103.63 89.5696 103.858 89.7185 104.144 89.8352C104.433 89.956 104.798 90.0163 105.236 90.0163C105.856 90.0163 106.369 89.8654 106.776 89.5636C107.182 89.2657 107.385 88.7747 107.385 88.0906V86.3338H107.277C107.164 86.5592 106.999 86.7906 106.782 87.0281C106.568 87.2655 106.285 87.4647 105.93 87.6257C105.58 87.7867 105.14 87.8672 104.608 87.8672C103.896 87.8672 103.25 87.7002 102.67 87.3661C102.095 87.0281 101.636 86.525 101.294 85.8569C100.956 85.1848 100.787 84.3436 100.787 83.3335C100.787 82.3152 100.956 81.456 101.294 80.7557C101.636 80.0514 102.097 79.5181 102.677 79.1559C103.256 78.7897 103.902 78.6065 104.614 78.6065C105.158 78.6065 105.604 78.6991 105.955 78.8842C106.309 79.0653 106.59 79.2847 106.8 79.5423C107.009 79.7958 107.168 80.0353 107.277 80.2607H107.397V78.7273H109.553V88.1509C109.553 88.9438 109.363 89.5998 108.985 90.119C108.607 90.6381 108.09 91.0265 107.434 91.2841C106.778 91.5417 106.033 91.6705 105.2 91.6705ZM105.218 86.1527C105.681 86.1527 106.075 86.04 106.401 85.8146C106.727 85.5893 106.975 85.2653 107.144 84.8427C107.313 84.4201 107.397 83.913 107.397 83.3214C107.397 82.7378 107.313 82.2267 107.144 81.788C106.979 81.3493 106.733 81.0092 106.407 80.7678C106.085 80.5223 105.689 80.3995 105.218 80.3995C104.731 80.3995 104.325 80.5263 103.999 80.7798C103.673 81.0334 103.427 81.3815 103.262 81.8242C103.097 82.2629 103.015 82.762 103.015 83.3214C103.015 83.8888 103.097 84.3859 103.262 84.8125C103.431 85.2351 103.679 85.5651 104.005 85.8026C104.335 86.036 104.739 86.1527 105.218 86.1527ZM113.978 75.6364V88H111.792V75.6364H113.978ZM120.33 88.1811C119.4 88.1811 118.597 87.9879 117.921 87.6016C117.249 87.2112 116.732 86.6598 116.37 85.9474C116.008 85.2311 115.826 84.3879 115.826 83.418C115.826 82.4641 116.008 81.627 116.37 80.9066C116.736 80.1822 117.247 79.6187 117.903 79.2163C118.559 78.8098 119.33 78.6065 120.215 78.6065C120.787 78.6065 121.326 78.6991 121.833 78.8842C122.344 79.0653 122.795 79.3471 123.186 79.7294C123.58 80.1117 123.89 80.5987 124.115 81.1903C124.341 81.7779 124.453 82.4782 124.453 83.2912V83.9613H116.853V82.4883H122.358C122.354 82.0697 122.264 81.6974 122.087 81.3714C121.91 81.0414 121.662 80.7818 121.344 80.5927C121.03 80.4035 120.664 80.3089 120.246 80.3089C119.799 80.3089 119.406 80.4176 119.068 80.6349C118.73 80.8482 118.467 81.13 118.277 81.4801C118.092 81.8262 117.998 82.2066 117.994 82.6211V83.907C117.994 84.4463 118.092 84.9091 118.29 85.2955C118.487 85.6778 118.762 85.9716 119.117 86.1768C119.471 86.3781 119.885 86.4787 120.36 86.4787C120.678 86.4787 120.966 86.4344 121.224 86.3459C121.481 86.2533 121.704 86.1185 121.894 85.9414C122.083 85.7643 122.226 85.545 122.322 85.2834L124.363 85.5128C124.234 86.0521 123.988 86.523 123.626 86.9254C123.268 87.3239 122.809 87.6338 122.25 87.8551C121.69 88.0724 121.05 88.1811 120.33 88.1811ZM137.335 79.0352C137.278 78.5079 137.041 78.0974 136.622 77.8036C136.208 77.5098 135.668 77.3629 135.004 77.3629C134.537 77.3629 134.137 77.4334 133.803 77.5742C133.469 77.7151 133.213 77.9062 133.036 78.1477C132.859 78.3892 132.769 78.6649 132.765 78.9748C132.765 79.2324 132.823 79.4557 132.94 79.6449C133.06 79.834 133.223 79.995 133.429 80.1278C133.634 80.2566 133.861 80.3653 134.111 80.4538C134.36 80.5424 134.612 80.6168 134.865 80.6772L136.025 80.967C136.491 81.0756 136.94 81.2225 137.371 81.4077C137.805 81.5928 138.194 81.8262 138.536 82.108C138.882 82.3897 139.156 82.7298 139.357 83.1282C139.558 83.5266 139.659 83.9935 139.659 84.5288C139.659 85.2532 139.474 85.8911 139.103 86.4425C138.733 86.9898 138.198 87.4184 137.498 87.7283C136.801 88.0342 135.958 88.1871 134.968 88.1871C134.006 88.1871 133.171 88.0382 132.463 87.7404C131.758 87.4426 131.207 87.0079 130.809 86.4364C130.414 85.8649 130.201 85.1687 130.169 84.3477H132.372C132.404 84.7783 132.537 85.1365 132.771 85.4222C133.004 85.708 133.308 85.9213 133.682 86.0621C134.061 86.203 134.483 86.2734 134.95 86.2734C135.437 86.2734 135.864 86.201 136.23 86.0561C136.6 85.9072 136.89 85.7019 137.099 85.4403C137.308 85.1747 137.415 84.8648 137.419 84.5107C137.415 84.1887 137.32 83.9231 137.135 83.7138C136.95 83.5005 136.691 83.3234 136.357 83.1825C136.027 83.0376 135.64 82.9089 135.197 82.7962L133.791 82.4339C132.773 82.1723 131.968 81.7759 131.376 81.2447C130.789 80.7094 130.495 79.9991 130.495 79.1136C130.495 78.3852 130.692 77.7473 131.086 77.1999C131.485 76.6526 132.026 76.228 132.71 75.9261C133.394 75.6203 134.169 75.4673 135.034 75.4673C135.912 75.4673 136.681 75.6203 137.341 75.9261C138.005 76.228 138.526 76.6486 138.904 77.1879C139.282 77.7231 139.478 78.3389 139.49 79.0352H137.335ZM143.744 82.5668V88H141.559V75.6364H143.696V80.3029H143.805C144.022 79.7797 144.358 79.3672 144.813 79.0653C145.272 78.7595 145.855 78.6065 146.564 78.6065C147.207 78.6065 147.769 78.7414 148.248 79.011C148.727 79.2807 149.097 79.6751 149.359 80.1942C149.624 80.7134 149.757 81.3473 149.757 82.0959V88H147.572V82.4339C147.572 81.8101 147.411 81.3252 147.089 80.979C146.771 80.6289 146.324 80.4538 145.749 80.4538C145.362 80.4538 145.016 80.5384 144.71 80.7074C144.408 80.8724 144.171 81.1119 143.998 81.4258C143.829 81.7397 143.744 82.12 143.744 82.5668ZM156.09 88.1811C155.16 88.1811 154.357 87.9879 153.681 87.6016C153.009 87.2112 152.492 86.6598 152.13 85.9474C151.767 85.2311 151.586 84.3879 151.586 83.418C151.586 82.4641 151.767 81.627 152.13 80.9066C152.496 80.1822 153.007 79.6187 153.663 79.2163C154.319 78.8098 155.09 78.6065 155.975 78.6065C156.547 78.6065 157.086 78.6991 157.593 78.8842C158.104 79.0653 158.555 79.3471 158.945 79.7294C159.34 80.1117 159.65 80.5987 159.875 81.1903C160.1 81.7779 160.213 82.4782 160.213 83.2912V83.9613H152.613V82.4883H158.118C158.114 82.0697 158.024 81.6974 157.847 81.3714C157.669 81.0414 157.422 80.7818 157.104 80.5927C156.79 80.4035 156.424 80.3089 156.005 80.3089C155.559 80.3089 155.166 80.4176 154.828 80.6349C154.49 80.8482 154.226 81.13 154.037 81.4801C153.852 81.8262 153.758 82.2066 153.754 82.6211V83.907C153.754 84.4463 153.852 84.9091 154.049 85.2955C154.247 85.6778 154.522 85.9716 154.876 86.1768C155.231 86.3781 155.645 86.4787 156.12 86.4787C156.438 86.4787 156.726 86.4344 156.983 86.3459C157.241 86.2533 157.464 86.1185 157.653 85.9414C157.843 85.7643 157.985 85.545 158.082 85.2834L160.122 85.5128C159.994 86.0521 159.748 86.523 159.386 86.9254C159.028 87.3239 158.569 87.6338 158.01 87.8551C157.45 88.0724 156.81 88.1811 156.09 88.1811ZM166.167 88.1811C165.237 88.1811 164.434 87.9879 163.758 87.6016C163.086 87.2112 162.569 86.6598 162.207 85.9474C161.845 85.2311 161.663 84.3879 161.663 83.418C161.663 82.4641 161.845 81.627 162.207 80.9066C162.573 80.1822 163.084 79.6187 163.74 79.2163C164.396 78.8098 165.167 78.6065 166.052 78.6065C166.624 78.6065 167.163 78.6991 167.67 78.8842C168.181 79.0653 168.632 79.3471 169.022 79.7294C169.417 80.1117 169.727 80.5987 169.952 81.1903C170.177 81.7779 170.29 82.4782 170.29 83.2912V83.9613H162.69V82.4883H168.195C168.191 82.0697 168.101 81.6974 167.924 81.3714C167.747 81.0414 167.499 80.7818 167.181 80.5927C166.867 80.4035 166.501 80.3089 166.082 80.3089C165.636 80.3089 165.243 80.4176 164.905 80.6349C164.567 80.8482 164.304 81.13 164.114 81.4801C163.929 81.8262 163.835 82.2066 163.831 82.6211V83.907C163.831 84.4463 163.929 84.9091 164.126 85.2955C164.324 85.6778 164.599 85.9716 164.954 86.1768C165.308 86.3781 165.722 86.4787 166.197 86.4787C166.515 86.4787 166.803 86.4344 167.06 86.3459C167.318 86.2533 167.541 86.1185 167.731 85.9414C167.92 85.7643 168.063 85.545 168.159 85.2834L170.2 85.5128C170.071 86.0521 169.825 86.523 169.463 86.9254C169.105 87.3239 168.646 87.6338 168.087 87.8551C167.527 88.0724 166.887 88.1811 166.167 88.1811ZM176.769 78.7273V80.4176H171.439V78.7273H176.769ZM172.755 76.5057H174.94V85.2109C174.94 85.5047 174.984 85.7301 175.073 85.8871C175.165 86.04 175.286 86.1446 175.435 86.201C175.584 86.2573 175.749 86.2855 175.93 86.2855C176.067 86.2855 176.192 86.2754 176.304 86.2553C176.421 86.2352 176.51 86.2171 176.57 86.201L176.938 87.9094C176.822 87.9497 176.655 87.994 176.437 88.0423C176.224 88.0906 175.962 88.1187 175.652 88.1268C175.105 88.1429 174.612 88.0604 174.173 87.8793C173.735 87.6941 173.387 87.4084 173.129 87.022C172.875 86.6357 172.751 86.1527 172.755 85.5732V76.5057ZM100.904 106.02V97.6648H102.8V106.02H100.904ZM97.6742 102.79V100.895H106.029V102.79H97.6742ZM113.009 108V95.6364H115.249V106.123H120.695V108H113.009ZM122.638 95.6364H125.379L129.05 104.595H129.195L132.865 95.6364H135.606V108H133.457V99.506H133.342L129.925 107.964H128.319L124.902 99.4879H124.788V108H122.638V95.6364ZM144.764 99.0352C144.707 98.5079 144.47 98.0974 144.051 97.8036C143.637 97.5098 143.098 97.3629 142.434 97.3629C141.967 97.3629 141.566 97.4334 141.232 97.5742C140.898 97.7151 140.643 97.9062 140.465 98.1477C140.288 98.3892 140.198 98.6649 140.194 98.9748C140.194 99.2324 140.252 99.4557 140.369 99.6449C140.49 99.834 140.653 99.995 140.858 100.128C141.063 100.257 141.291 100.365 141.54 100.454C141.79 100.542 142.041 100.617 142.295 100.677L143.454 100.967C143.921 101.076 144.369 101.223 144.8 101.408C145.235 101.593 145.623 101.826 145.965 102.108C146.311 102.39 146.585 102.73 146.786 103.128C146.987 103.527 147.088 103.993 147.088 104.529C147.088 105.253 146.903 105.891 146.533 106.442C146.162 106.99 145.627 107.418 144.927 107.728C144.23 108.034 143.387 108.187 142.397 108.187C141.435 108.187 140.6 108.038 139.892 107.74C139.188 107.443 138.636 107.008 138.238 106.436C137.843 105.865 137.63 105.169 137.598 104.348H139.801C139.834 104.778 139.966 105.136 140.2 105.422C140.433 105.708 140.737 105.921 141.111 106.062C141.49 106.203 141.912 106.273 142.379 106.273C142.866 106.273 143.293 106.201 143.659 106.056C144.029 105.907 144.319 105.702 144.528 105.44C144.738 105.175 144.844 104.865 144.848 104.511C144.844 104.189 144.75 103.923 144.565 103.714C144.379 103.5 144.12 103.323 143.786 103.183C143.456 103.038 143.069 102.909 142.627 102.796L141.22 102.434C140.202 102.172 139.397 101.776 138.805 101.245C138.218 100.709 137.924 99.9991 137.924 99.1136C137.924 98.3852 138.121 97.7473 138.516 97.1999C138.914 96.6526 139.455 96.228 140.139 95.9261C140.824 95.6203 141.598 95.4673 142.464 95.4673C143.341 95.4673 144.11 95.6203 144.77 95.9261C145.434 96.228 145.955 96.6486 146.333 97.1879C146.712 97.7231 146.907 98.3389 146.919 99.0352H144.764ZM86.9247 117.514V115.636H96.789V117.514H92.9676V128H90.746V117.514H86.9247ZM97.6312 128V118.727H99.7501V120.273H99.8467C100.016 119.737 100.306 119.325 100.716 119.035C101.131 118.741 101.603 118.594 102.135 118.594C102.255 118.594 102.39 118.6 102.539 118.613C102.692 118.621 102.819 118.635 102.92 118.655V120.665C102.827 120.633 102.68 120.605 102.479 120.581C102.282 120.552 102.09 120.538 101.905 120.538C101.507 120.538 101.149 120.625 100.831 120.798C100.517 120.967 100.269 121.202 100.088 121.504C99.9071 121.806 99.8165 122.154 99.8165 122.549V128H97.6312ZM106.874 128.187C106.286 128.187 105.757 128.083 105.286 127.873C104.819 127.66 104.449 127.346 104.175 126.931C103.906 126.517 103.771 126.006 103.771 125.398C103.771 124.875 103.867 124.442 104.061 124.1C104.254 123.758 104.517 123.484 104.851 123.279C105.185 123.074 105.562 122.919 105.98 122.814C106.403 122.706 106.84 122.627 107.29 122.579C107.834 122.522 108.274 122.472 108.612 122.428C108.95 122.38 109.196 122.307 109.349 122.211C109.506 122.11 109.584 121.955 109.584 121.746V121.71C109.584 121.255 109.449 120.903 109.18 120.653C108.91 120.404 108.522 120.279 108.015 120.279C107.479 120.279 107.055 120.395 106.741 120.629C106.431 120.862 106.222 121.138 106.113 121.456L104.073 121.166C104.234 120.603 104.499 120.132 104.869 119.754C105.24 119.371 105.692 119.085 106.228 118.896C106.763 118.703 107.355 118.607 108.003 118.607C108.449 118.607 108.894 118.659 109.337 118.763C109.779 118.868 110.184 119.041 110.55 119.283C110.916 119.52 111.21 119.844 111.432 120.255C111.657 120.665 111.77 121.178 111.77 121.794V128H109.669V126.726H109.596C109.464 126.984 109.276 127.225 109.035 127.451C108.797 127.672 108.498 127.851 108.135 127.988C107.777 128.121 107.357 128.187 106.874 128.187ZM107.441 126.581C107.88 126.581 108.26 126.495 108.582 126.322C108.904 126.145 109.152 125.911 109.325 125.621C109.502 125.332 109.59 125.016 109.59 124.674V123.581C109.522 123.637 109.405 123.69 109.24 123.738C109.079 123.786 108.898 123.828 108.697 123.865C108.496 123.901 108.296 123.933 108.099 123.961C107.902 123.989 107.731 124.014 107.586 124.034C107.26 124.078 106.968 124.15 106.711 124.251C106.453 124.352 106.25 124.493 106.101 124.674C105.952 124.851 105.878 125.08 105.878 125.362C105.878 125.764 106.025 126.068 106.318 126.273C106.612 126.479 106.986 126.581 107.441 126.581ZM118.012 128.181C117.086 128.181 116.291 127.978 115.627 127.571C114.967 127.165 114.458 126.603 114.1 125.887C113.746 125.167 113.569 124.338 113.569 123.4C113.569 122.458 113.75 121.627 114.112 120.907C114.474 120.182 114.985 119.619 115.645 119.216C116.309 118.81 117.094 118.607 118 118.607C118.752 118.607 119.418 118.745 119.998 119.023C120.582 119.297 121.046 119.685 121.393 120.188C121.739 120.687 121.936 121.271 121.984 121.939H119.895C119.811 121.492 119.61 121.12 119.292 120.822C118.978 120.52 118.557 120.369 118.03 120.369C117.583 120.369 117.191 120.49 116.853 120.732C116.515 120.969 116.251 121.311 116.062 121.758C115.877 122.205 115.784 122.74 115.784 123.364C115.784 123.996 115.877 124.539 116.062 124.994C116.247 125.444 116.507 125.792 116.841 126.038C117.179 126.279 117.575 126.4 118.03 126.4C118.352 126.4 118.64 126.34 118.893 126.219C119.151 126.094 119.366 125.915 119.539 125.682C119.712 125.448 119.831 125.165 119.895 124.831H121.984C121.932 125.487 121.739 126.068 121.405 126.575C121.071 127.078 120.616 127.473 120.04 127.759C119.465 128.04 118.789 128.181 118.012 128.181ZM125.771 125.09L125.765 122.452H126.115L129.447 118.727H132.001L127.902 123.291H127.449L125.771 125.09ZM123.779 128V115.636H125.964V128H123.779ZM129.598 128L126.58 123.78L128.053 122.241L132.212 128H129.598ZM133.457 128V118.727H135.643V128H133.457ZM134.556 117.411C134.21 117.411 133.912 117.297 133.663 117.067C133.413 116.834 133.288 116.554 133.288 116.228C133.288 115.898 133.413 115.618 133.663 115.389C133.912 115.155 134.21 115.039 134.556 115.039C134.906 115.039 135.204 115.155 135.45 115.389C135.699 115.618 135.824 115.898 135.824 116.228C135.824 116.554 135.699 116.834 135.45 117.067C135.204 117.297 134.906 117.411 134.556 117.411ZM140.075 122.567V128H137.89V118.727H139.979V120.303H140.087C140.301 119.784 140.641 119.371 141.108 119.065C141.579 118.759 142.16 118.607 142.852 118.607C143.492 118.607 144.05 118.743 144.525 119.017C145.003 119.291 145.374 119.687 145.635 120.206C145.901 120.725 146.032 121.355 146.028 122.096V128H143.842V122.434C143.842 121.814 143.681 121.329 143.359 120.979C143.041 120.629 142.601 120.454 142.037 120.454C141.655 120.454 141.315 120.538 141.017 120.707C140.723 120.872 140.492 121.112 140.323 121.426C140.158 121.74 140.075 122.12 140.075 122.567ZM152.282 131.67C151.497 131.67 150.823 131.564 150.26 131.35C149.696 131.141 149.243 130.859 148.901 130.505C148.559 130.151 148.322 129.759 148.189 129.328L150.157 128.851C150.246 129.032 150.374 129.211 150.543 129.388C150.712 129.57 150.94 129.719 151.226 129.835C151.515 129.956 151.88 130.016 152.318 130.016C152.938 130.016 153.451 129.865 153.858 129.564C154.264 129.266 154.467 128.775 154.467 128.091V126.334H154.359C154.246 126.559 154.081 126.791 153.864 127.028C153.65 127.266 153.367 127.465 153.012 127.626C152.662 127.787 152.222 127.867 151.69 127.867C150.978 127.867 150.332 127.7 149.753 127.366C149.177 127.028 148.718 126.525 148.376 125.857C148.038 125.185 147.869 124.344 147.869 123.333C147.869 122.315 148.038 121.456 148.376 120.756C148.718 120.051 149.179 119.518 149.759 119.156C150.338 118.79 150.984 118.607 151.696 118.607C152.24 118.607 152.686 118.699 153.037 118.884C153.391 119.065 153.673 119.285 153.882 119.542C154.091 119.796 154.25 120.035 154.359 120.261H154.479V118.727H156.635V128.151C156.635 128.944 156.445 129.6 156.067 130.119C155.689 130.638 155.172 131.027 154.516 131.284C153.86 131.542 153.115 131.67 152.282 131.67ZM152.3 126.153C152.763 126.153 153.157 126.04 153.483 125.815C153.809 125.589 154.057 125.265 154.226 124.843C154.395 124.42 154.479 123.913 154.479 123.321C154.479 122.738 154.395 122.227 154.226 121.788C154.061 121.349 153.815 121.009 153.489 120.768C153.167 120.522 152.771 120.4 152.3 120.4C151.813 120.4 151.407 120.526 151.081 120.78C150.755 121.033 150.509 121.382 150.344 121.824C150.179 122.263 150.097 122.762 150.097 123.321C150.097 123.889 150.179 124.386 150.344 124.812C150.513 125.235 150.761 125.565 151.087 125.803C151.417 126.036 151.821 126.153 152.3 126.153Z" fill="#020817"/>
<g filter="url(#filter2_d_1388_317)">
<circle cx="32.5" cy="97.5" r="22.5" fill="#FF4A4A"/>
<circle cx="32.5" cy="97.5" r="21" stroke="#FFC1C1" stroke-width="3"/>
</g>
<path d="M23.875 88.875V104.208C23.875 104.717 24.0769 105.204 24.4364 105.564C24.7958 105.923 25.2833 106.125 25.7917 106.125H41.125" stroke="white" stroke-width="2" stroke-linecap="round" stroke-linejoin="round"/>
<path d="M38.25 102.292V94.625" stroke="white" stroke-width="2" stroke-linecap="round" stroke-linejoin="round"/>
<path d="M33.458 102.292V90.792" stroke="white" stroke-width="2" stroke-linecap="round" stroke-linejoin="round"/>
<path d="M28.667 102.292V99.417" stroke="white" stroke-width="2" stroke-linecap="round" stroke-linejoin="round"/>
<defs>
<filter id="filter0_d_1388_317" x="104.546" y="0.12793" width="107.617" height="193.018" filterUnits="userSpaceOnUse" color-interpolation-filters="sRGB">
<feFlood flood-opacity="0" result="BackgroundImageFix"/>
<feColorMatrix in="SourceAlpha" type="matrix" values="0 0 0 0 0 0 0 0 0 0 0 0 0 0 0 0 0 0 127 0" result="hardAlpha"/>
<feOffset/>
<feGaussianBlur stdDeviation="5"/>
<feComposite in2="hardAlpha" operator="out"/>
<feColorMatrix type="matrix" values="0 0 0 0 0 0 0 0 0 0 0 0 0 0 0 0 0 0 0.25 0"/>
<feBlend mode="normal" in2="BackgroundImageFix" result="effect1_dropShadow_1388_317"/>
<feBlend mode="normal" in="SourceGraphic" in2="effect1_dropShadow_1388_317" result="shape"/>
</filter>
<filter id="filter1_d_1388_317" x="5" y="74" width="56" height="56" filterUnits="userSpaceOnUse" color-interpolation-filters="sRGB">
<feFlood flood-opacity="0" result="BackgroundImageFix"/>
<feColorMatrix in="SourceAlpha" type="matrix" values="0 0 0 0 0 0 0 0 0 0 0 0 0 0 0 0 0 0 127 0" result="hardAlpha"/>
<feOffset dy="4"/>
<feGaussianBlur stdDeviation="2"/>
<feComposite in2="hardAlpha" operator="out"/>
<feColorMatrix type="matrix" values="0 0 0 0 0 0 0 0 0 0 0 0 0 0 0 0 0 0 0.25 0"/>
<feBlend mode="normal" in2="BackgroundImageFix" result="effect1_dropShadow_1388_317"/>
<feBlend mode="normal" in="SourceGraphic" in2="effect1_dropShadow_1388_317" result="shape"/>
</filter>
<filter id="filter2_d_1388_317" x="0" y="65" width="65" height="65" filterUnits="userSpaceOnUse" color-interpolation-filters="sRGB">
<feFlood flood-opacity="0" result="BackgroundImageFix"/>
<feColorMatrix in="SourceAlpha" type="matrix" values="0 0 0 0 0 0 0 0 0 0 0 0 0 0 0 0 0 0 127 0" result="hardAlpha"/>
<feOffset/>
<feGaussianBlur stdDeviation="5"/>
<feComposite in2="hardAlpha" operator="out"/>
<feColorMatrix type="matrix" values="0 0 0 0 0 0 0 0 0 0 0 0 0 0 0 0 0 0 0.2 0"/>
<feBlend mode="normal" in2="BackgroundImageFix" result="effect1_dropShadow_1388_317"/>
<feBlend mode="normal" in="SourceGraphic" in2="effect1_dropShadow_1388_317" result="shape"/>
</filter>
</defs>
</svg>
