<svg width="129" height="108" viewBox="0 0 129 108" fill="none" xmlns="http://www.w3.org/2000/svg">
<g filter="url(#filter0_d_1557_344)">
<path d="M24.1729 59.5139C24.0133 53.1568 25.1095 46.8315 27.3971 40.9098C29.6846 34.988 33.1173 29.5893 37.4934 25.0307C41.8696 20.4722 47.1009 16.8458 52.88 14.3648C58.659 11.8837 64.8693 10.598 71.1458 10.5831C77.4223 10.5683 83.6384 11.8247 89.4288 14.2784C95.2192 16.7321 100.467 20.3338 104.864 24.8716C109.261 29.4094 112.719 34.7919 115.034 40.7028C117.348 46.6137 118.474 52.9337 118.343 59.2914L116.645 59.2557C116.771 53.1272 115.686 47.0351 113.455 41.3374C111.224 35.6397 107.891 30.4513 103.652 26.0771C99.4137 21.7029 94.355 18.2312 88.7734 15.866C83.1918 13.5007 77.1999 12.2897 71.1497 12.304C65.0996 12.3183 59.1133 13.5576 53.5426 15.9492C47.972 18.3408 42.9293 21.8364 38.711 26.2305C34.4926 30.6247 31.1837 35.8288 28.9787 41.537C26.7737 47.2452 25.717 53.3423 25.8708 59.4702L24.1729 59.5139Z" fill="black"/>
</g>
<path d="M22.9996 58.5C22.9996 71.6282 28.0837 84.2187 37.1334 93.5018C46.1832 102.785 58.4573 108 71.2556 108C84.0539 108 96.3281 102.785 105.378 93.5018C114.428 84.2187 119.512 71.6282 119.512 58.5L115.549 58.5C115.549 70.5502 110.883 82.1068 102.576 90.6276C94.2692 99.1484 83.003 103.935 71.2556 103.935C59.5083 103.935 48.2421 99.1483 39.9354 90.6276C31.6288 82.1068 26.9622 70.5502 26.9622 58.5H22.9996Z" fill="#E1E1E1"/>
<path d="M46.9577 43.0497C46.8985 42.858 46.8168 42.6863 46.7126 42.5348C46.6108 42.3809 46.4877 42.2495 46.3433 42.1406C46.2013 42.0317 46.0379 41.95 45.8532 41.8956C45.6686 41.8388 45.4674 41.8104 45.2496 41.8104C44.8589 41.8104 44.5109 41.9086 44.2055 42.1051C43.9001 42.3016 43.6598 42.5904 43.4846 42.9716C43.3118 43.3504 43.2254 43.812 43.2254 44.3565C43.2254 44.9058 43.3118 45.371 43.4846 45.7521C43.6575 46.1333 43.8978 46.4233 44.2055 46.6222C44.5133 46.8187 44.8708 46.9169 45.278 46.9169C45.6473 46.9169 45.9669 46.8459 46.2368 46.7038C46.509 46.5618 46.7185 46.3606 46.8653 46.1001C47.0121 45.8374 47.0855 45.5296 47.0855 45.1768L47.3838 45.223H45.4094V44.1932H48.3604V45.0668C48.3604 45.6894 48.2278 46.228 47.9626 46.6825C47.6975 47.1371 47.3329 47.4875 46.8689 47.7337C46.4049 47.9775 45.8722 48.0994 45.2709 48.0994C44.6009 48.0994 44.0126 47.9491 43.5059 47.6484C43.0017 47.3454 42.6075 46.9157 42.3234 46.3594C42.0417 45.8007 41.9008 45.1378 41.9008 44.3707C41.9008 43.7836 41.9837 43.2592 42.1494 42.7976C42.3175 42.3359 42.5519 41.9441 42.8525 41.6222C43.1532 41.2978 43.5059 41.0516 43.9108 40.8835C44.3156 40.7131 44.7559 40.6278 45.2318 40.6278C45.6343 40.6278 46.0095 40.687 46.3575 40.8054C46.7055 40.9214 47.0145 41.0871 47.2844 41.3026C47.5566 41.518 47.7803 41.7737 47.9555 42.0696C48.1307 42.3655 48.2455 42.6922 48.3 43.0497H46.9577ZM51.9568 48.1065C51.4241 48.1065 50.9624 47.9893 50.5718 47.755C50.1812 47.5206 49.8782 47.1927 49.6627 46.7713C49.4497 46.3499 49.3431 45.8575 49.3431 45.294C49.3431 44.7306 49.4497 44.237 49.6627 43.8132C49.8782 43.3894 50.1812 43.0604 50.5718 42.826C50.9624 42.5916 51.4241 42.4744 51.9568 42.4744C52.4894 42.4744 52.9511 42.5916 53.3417 42.826C53.7323 43.0604 54.0342 43.3894 54.2472 43.8132C54.4627 44.237 54.5704 44.7306 54.5704 45.294C54.5704 45.8575 54.4627 46.3499 54.2472 46.7713C54.0342 47.1927 53.7323 47.5206 53.3417 47.755C52.9511 47.9893 52.4894 48.1065 51.9568 48.1065ZM51.9639 47.0767C52.2527 47.0767 52.4942 46.9974 52.6883 46.8388C52.8824 46.6778 53.0268 46.4624 53.1215 46.1925C53.2186 45.9226 53.2671 45.6219 53.2671 45.2905C53.2671 44.9567 53.2186 44.6548 53.1215 44.3849C53.0268 44.1127 52.8824 43.8961 52.6883 43.7351C52.4942 43.5741 52.2527 43.4936 51.9639 43.4936C51.6679 43.4936 51.4217 43.5741 51.2252 43.7351C51.0311 43.8961 50.8855 44.1127 50.7884 44.3849C50.6937 44.6548 50.6464 44.9567 50.6464 45.2905C50.6464 45.6219 50.6937 45.9226 50.7884 46.1925C50.8855 46.4624 51.0311 46.6778 51.2252 46.8388C51.4217 46.9974 51.6679 47.0767 51.9639 47.0767ZM58.0407 48.1065C57.5081 48.1065 57.0464 47.9893 56.6558 47.755C56.2652 47.5206 55.9622 47.1927 55.7467 46.7713C55.5336 46.3499 55.4271 45.8575 55.4271 45.294C55.4271 44.7306 55.5336 44.237 55.7467 43.8132C55.9622 43.3894 56.2652 43.0604 56.6558 42.826C57.0464 42.5916 57.5081 42.4744 58.0407 42.4744C58.5734 42.4744 59.0351 42.5916 59.4257 42.826C59.8163 43.0604 60.1182 43.3894 60.3312 43.8132C60.5467 44.237 60.6544 44.7306 60.6544 45.294C60.6544 45.8575 60.5467 46.3499 60.3312 46.7713C60.1182 47.1927 59.8163 47.5206 59.4257 47.755C59.0351 47.9893 58.5734 48.1065 58.0407 48.1065ZM58.0479 47.0767C58.3367 47.0767 58.5782 46.9974 58.7723 46.8388C58.9664 46.6778 59.1108 46.4624 59.2055 46.1925C59.3026 45.9226 59.3511 45.6219 59.3511 45.2905C59.3511 44.9567 59.3026 44.6548 59.2055 44.3849C59.1108 44.1127 58.9664 43.8961 58.7723 43.7351C58.5782 43.5741 58.3367 43.4936 58.0479 43.4936C57.7519 43.4936 57.5057 43.5741 57.3092 43.7351C57.1151 43.8961 56.9695 44.1127 56.8724 44.3849C56.7777 44.6548 56.7304 44.9567 56.7304 45.2905C56.7304 45.6219 56.7777 45.9226 56.8724 46.1925C56.9695 46.4624 57.1151 46.6778 57.3092 46.8388C57.5057 46.9974 57.7519 47.0767 58.0479 47.0767ZM64.1176 50.1591C63.656 50.1591 63.2594 50.0964 62.928 49.9709C62.5966 49.8478 62.3302 49.6821 62.129 49.4737C61.9278 49.2654 61.7881 49.0346 61.71 48.7812L62.8676 48.5007C62.9197 48.6072 62.9955 48.7126 63.0949 48.8168C63.1943 48.9233 63.3281 49.0109 63.4962 49.0795C63.6666 49.1506 63.8809 49.1861 64.1389 49.1861C64.5035 49.1861 64.8054 49.0973 65.0445 48.9197C65.2836 48.7446 65.4031 48.4557 65.4031 48.0533V47.0199H65.3392C65.2729 47.1525 65.1759 47.2886 65.048 47.4283C64.9226 47.5679 64.7557 47.6851 64.5473 47.7798C64.3414 47.8745 64.0821 47.9219 63.7696 47.9219C63.3506 47.9219 62.9706 47.8236 62.6297 47.6271C62.2912 47.4283 62.0213 47.1323 61.82 46.7393C61.6212 46.344 61.5218 45.8492 61.5218 45.255C61.5218 44.656 61.6212 44.1506 61.82 43.7386C62.0213 43.3243 62.2923 43.0107 62.6333 42.7976C62.9742 42.5821 63.3541 42.4744 63.7732 42.4744C64.0928 42.4744 64.3556 42.5289 64.5615 42.6378C64.7699 42.7443 64.9356 42.8733 65.0587 43.0249C65.1818 43.174 65.2753 43.3149 65.3392 43.4474H65.4102V42.5455H66.678V48.0888C66.678 48.5552 66.5667 48.9411 66.3442 49.2464C66.1217 49.5518 65.8174 49.7803 65.4316 49.9318C65.0457 50.0833 64.6077 50.1591 64.1176 50.1591ZM64.1283 46.9134C64.4005 46.9134 64.6325 46.8471 64.8243 46.7145C65.0161 46.5819 65.1617 46.3913 65.2611 46.1428C65.3605 45.8942 65.4102 45.5959 65.4102 45.2479C65.4102 44.9046 65.3605 44.6039 65.2611 44.3459C65.164 44.0878 65.0196 43.8878 64.8279 43.7457C64.6385 43.6013 64.4053 43.5291 64.1283 43.5291C63.8418 43.5291 63.6027 43.6037 63.411 43.7528C63.2192 43.902 63.0748 44.1068 62.9777 44.3672C62.8807 44.6252 62.8321 44.9188 62.8321 45.2479C62.8321 45.5817 62.8807 45.8741 62.9777 46.125C63.0771 46.3736 63.2227 46.5677 63.4145 46.7074C63.6086 46.8447 63.8466 46.9134 64.1283 46.9134ZM69.281 40.7273V48H67.9955V40.7273H69.281ZM73.0177 48.1065C72.4708 48.1065 71.9985 47.9929 71.6008 47.7656C71.2054 47.536 70.9012 47.2116 70.6881 46.7926C70.4751 46.3712 70.3685 45.8752 70.3685 45.3047C70.3685 44.7436 70.4751 44.2512 70.6881 43.8274C70.9036 43.4013 71.2042 43.0698 71.5901 42.8331C71.976 42.594 72.4294 42.4744 72.9502 42.4744C73.2864 42.4744 73.6036 42.5289 73.9019 42.6378C74.2026 42.7443 74.4677 42.91 74.6974 43.1349C74.9294 43.3598 75.1117 43.6463 75.2442 43.9943C75.3768 44.34 75.4431 44.7519 75.4431 45.2301V45.6243H70.9722V44.7578H74.2108C74.2085 44.5116 74.1552 44.2926 74.051 44.1009C73.9469 43.9067 73.8013 43.754 73.6143 43.6428C73.4296 43.5315 73.2142 43.4759 72.968 43.4759C72.7052 43.4759 72.4743 43.5398 72.2755 43.6676C72.0766 43.7931 71.9215 43.9588 71.8103 44.1648C71.7014 44.3684 71.6457 44.5921 71.6434 44.8359V45.5923C71.6434 45.9096 71.7014 46.1818 71.8174 46.4091C71.9334 46.634 72.0956 46.8068 72.3039 46.9276C72.5122 47.0459 72.7561 47.1051 73.0354 47.1051C73.2224 47.1051 73.3917 47.0791 73.5432 47.027C73.6948 46.9725 73.8261 46.8932 73.9374 46.7891C74.0487 46.6849 74.1327 46.5559 74.1895 46.402L75.3898 46.5369C75.3141 46.8542 75.1697 47.1312 74.9566 47.3679C74.7459 47.6023 74.476 47.7846 74.1469 47.9148C73.8179 48.0426 73.4414 48.1065 73.0177 48.1065ZM83.0203 42.7266C82.9872 42.4164 82.8475 42.175 82.6013 42.0021C82.3575 41.8293 82.0402 41.7429 81.6496 41.7429C81.375 41.7429 81.1394 41.7843 80.9429 41.8672C80.7464 41.95 80.5961 42.0625 80.4919 42.2045C80.3878 42.3466 80.3345 42.5088 80.3321 42.6911C80.3321 42.8426 80.3664 42.974 80.4351 43.0852C80.5061 43.1965 80.602 43.2912 80.7227 43.3693C80.8435 43.4451 80.9772 43.509 81.124 43.5611C81.2708 43.6132 81.4188 43.657 81.5679 43.6925L82.2497 43.8629C82.5244 43.9268 82.7883 44.0133 83.0416 44.1222C83.2973 44.2311 83.5258 44.3684 83.727 44.5341C83.9306 44.6998 84.0916 44.8999 84.21 45.1342C84.3283 45.3686 84.3875 45.6432 84.3875 45.9581C84.3875 46.3842 84.2786 46.7595 84.0608 47.0838C83.843 47.4058 83.5281 47.6579 83.1162 47.8402C82.7066 48.0201 82.2107 48.1101 81.6283 48.1101C81.0625 48.1101 80.5712 48.0225 80.1546 47.8473C79.7403 47.6721 79.4159 47.4164 79.1816 47.0803C78.9495 46.7441 78.8241 46.3345 78.8051 45.8516H80.1013C80.1202 46.1049 80.1984 46.3156 80.3357 46.4837C80.473 46.6518 80.6517 46.7772 80.8719 46.8601C81.0944 46.9429 81.343 46.9844 81.6176 46.9844C81.9041 46.9844 82.155 46.9418 82.3705 46.8565C82.5883 46.7689 82.7587 46.6482 82.8818 46.4943C83.0049 46.3381 83.0677 46.1558 83.07 45.9474C83.0677 45.758 83.012 45.6018 82.9031 45.4787C82.7942 45.3532 82.6415 45.2491 82.445 45.1662C82.2509 45.081 82.0236 45.0052 81.7632 44.9389L80.9358 44.7259C80.3369 44.572 79.8634 44.3388 79.5154 44.0263C79.1697 43.7114 78.9969 43.2936 78.9969 42.7727C78.9969 42.3442 79.1129 41.969 79.3449 41.647C79.5793 41.325 79.8977 41.0753 80.3002 40.8977C80.7026 40.7178 81.1584 40.6278 81.6673 40.6278C82.1834 40.6278 82.6356 40.7178 83.0239 40.8977C83.4145 41.0753 83.7211 41.3227 83.9436 41.6399C84.1662 41.9548 84.281 42.317 84.2881 42.7266H83.0203ZM86.7907 44.804V48H85.5052V40.7273H86.7623V43.4723H86.8263C86.9541 43.1645 87.1518 42.9219 87.4193 42.7443C87.6892 42.5644 88.0325 42.4744 88.4491 42.4744C88.8279 42.4744 89.1582 42.5537 89.4399 42.7124C89.7216 42.871 89.9394 43.103 90.0933 43.4084C90.2496 43.7138 90.3277 44.0866 90.3277 44.527V48H89.0422V44.7259C89.0422 44.3589 88.9475 44.0736 88.7581 43.87C88.5711 43.6641 88.3083 43.5611 87.9697 43.5611C87.7425 43.5611 87.5389 43.6108 87.3589 43.7102C87.1814 43.8073 87.0417 43.9482 86.9399 44.1328C86.8405 44.3175 86.7907 44.5412 86.7907 44.804ZM94.0528 48.1065C93.5059 48.1065 93.0336 47.9929 92.6359 47.7656C92.2406 47.536 91.9363 47.2116 91.7233 46.7926C91.5102 46.3712 91.4037 45.8752 91.4037 45.3047C91.4037 44.7436 91.5102 44.2512 91.7233 43.8274C91.9387 43.4013 92.2394 43.0698 92.6253 42.8331C93.0112 42.594 93.4645 42.4744 93.9854 42.4744C94.3215 42.4744 94.6388 42.5289 94.9371 42.6378C95.2377 42.7443 95.5029 42.91 95.7325 43.1349C95.9645 43.3598 96.1468 43.6463 96.2794 43.9943C96.412 44.34 96.4782 44.7519 96.4782 45.2301V45.6243H92.0074V44.7578H95.246C95.2436 44.5116 95.1904 44.2926 95.0862 44.1009C94.982 43.9067 94.8364 43.754 94.6494 43.6428C94.4648 43.5315 94.2493 43.4759 94.0031 43.4759C93.7403 43.4759 93.5095 43.5398 93.3106 43.6676C93.1118 43.7931 92.9567 43.9588 92.8454 44.1648C92.7365 44.3684 92.6809 44.5921 92.6785 44.8359V45.5923C92.6785 45.9096 92.7365 46.1818 92.8525 46.4091C92.9685 46.634 93.1307 46.8068 93.339 46.9276C93.5474 47.0459 93.7912 47.1051 94.0706 47.1051C94.2576 47.1051 94.4269 47.0791 94.5784 47.027C94.7299 46.9725 94.8613 46.8932 94.9726 46.7891C95.0838 46.6849 95.1679 46.5559 95.2247 46.402L96.425 46.5369C96.3492 46.8542 96.2048 47.1312 95.9917 47.3679C95.781 47.6023 95.5112 47.7846 95.1821 47.9148C94.853 48.0426 94.4766 48.1065 94.0528 48.1065ZM99.9806 48.1065C99.4337 48.1065 98.9614 47.9929 98.5637 47.7656C98.1683 47.536 97.8641 47.2116 97.651 46.7926C97.4379 46.3712 97.3314 45.8752 97.3314 45.3047C97.3314 44.7436 97.4379 44.2512 97.651 43.8274C97.8664 43.4013 98.1671 43.0698 98.553 42.8331C98.9389 42.594 99.3923 42.4744 99.9131 42.4744C100.249 42.4744 100.566 42.5289 100.865 42.6378C101.165 42.7443 101.431 42.91 101.66 43.1349C101.892 43.3598 102.075 43.6463 102.207 43.9943C102.34 44.34 102.406 44.7519 102.406 45.2301V45.6243H97.9351V44.7578H101.174C101.171 44.5116 101.118 44.2926 101.014 44.1009C100.91 43.9067 100.764 43.754 100.577 43.6428C100.392 43.5315 100.177 43.4759 99.9308 43.4759C99.6681 43.4759 99.4372 43.5398 99.2384 43.6676C99.0395 43.7931 98.8844 43.9588 98.7732 44.1648C98.6643 44.3684 98.6086 44.5921 98.6063 44.8359V45.5923C98.6063 45.9096 98.6643 46.1818 98.7803 46.4091C98.8963 46.634 99.0584 46.8068 99.2668 46.9276C99.4751 47.0459 99.719 47.1051 99.9983 47.1051C100.185 47.1051 100.355 47.0791 100.506 47.027C100.658 46.9725 100.789 46.8932 100.9 46.7891C101.012 46.6849 101.096 46.5559 101.152 46.402L102.353 46.5369C102.277 46.8542 102.133 47.1312 101.919 47.3679C101.709 47.6023 101.439 47.7846 101.11 47.9148C100.781 48.0426 100.404 48.1065 99.9806 48.1065ZM106.217 42.5455V43.5398H103.082V42.5455H106.217ZM103.856 41.2386H105.141V46.3594C105.141 46.5322 105.167 46.6648 105.219 46.7571C105.274 46.8471 105.345 46.9086 105.432 46.9418C105.52 46.9749 105.617 46.9915 105.724 46.9915C105.804 46.9915 105.878 46.9856 105.944 46.9737C106.012 46.9619 106.065 46.9512 106.1 46.9418L106.317 47.9467C106.248 47.9704 106.15 47.9964 106.022 48.0249C105.896 48.0533 105.743 48.0698 105.56 48.0746C105.238 48.084 104.948 48.0355 104.69 47.929C104.432 47.8201 104.227 47.652 104.076 47.4247C103.927 47.1974 103.853 46.9134 103.856 46.5724V41.2386ZM61.5906 59.8352V54.9205H62.7056V59.8352H61.5906ZM59.6907 57.9354V56.8203H64.6055V57.9354H59.6907ZM68.7115 61V53.7273H70.0289V59.8956H73.2321V61H68.7115ZM74.3755 53.7273H75.9877L78.1468 58.9972H78.2321L80.3912 53.7273H82.0034V61H80.7392V56.0036H80.6717L78.6618 60.9787H77.7172L75.7072 55.9929H75.6397V61H74.3755V53.7273ZM87.3904 55.7266C87.3573 55.4164 87.2176 55.175 86.9714 55.0021C86.7276 54.8293 86.4103 54.7429 86.0197 54.7429C85.7451 54.7429 85.5095 54.7843 85.313 54.8672C85.1165 54.95 84.9662 55.0625 84.862 55.2045C84.7579 55.3466 84.7046 55.5088 84.7022 55.6911C84.7022 55.8426 84.7366 55.974 84.8052 56.0852C84.8762 56.1965 84.9721 56.2912 85.0929 56.3693C85.2136 56.4451 85.3474 56.509 85.4941 56.5611C85.6409 56.6132 85.7889 56.657 85.938 56.6925L86.6199 56.8629C86.8945 56.9268 87.1584 57.0133 87.4118 57.1222C87.6674 57.2311 87.8959 57.3684 88.0971 57.5341C88.3007 57.6998 88.4617 57.8999 88.5801 58.1342C88.6984 58.3686 88.7576 58.6432 88.7576 58.9581C88.7576 59.3842 88.6487 59.7595 88.4309 60.0838C88.2131 60.4058 87.8983 60.6579 87.4863 60.8402C87.0768 61.0201 86.5808 61.1101 85.9984 61.1101C85.4326 61.1101 84.9413 61.0225 84.5247 60.8473C84.1104 60.6721 83.786 60.4164 83.5517 60.0803C83.3197 59.7441 83.1942 59.3345 83.1752 58.8516H84.4714C84.4904 59.1049 84.5685 59.3156 84.7058 59.4837C84.8431 59.6518 85.0218 59.7772 85.242 59.8601C85.4645 59.9429 85.7131 59.9844 85.9877 59.9844C86.2742 59.9844 86.5252 59.9418 86.7406 59.8565C86.9584 59.7689 87.1288 59.6482 87.252 59.4943C87.3751 59.3381 87.4378 59.1558 87.4402 58.9474C87.4378 58.758 87.3822 58.6018 87.2733 58.4787C87.1644 58.3532 87.0117 58.2491 86.8152 58.1662C86.621 58.081 86.3938 58.0052 86.1333 57.9389L85.3059 57.7259C84.707 57.572 84.2335 57.3388 83.8855 57.0263C83.5398 56.7114 83.367 56.2936 83.367 55.7727C83.367 55.3442 83.483 54.969 83.715 54.647C83.9494 54.325 84.2678 54.0753 84.6703 53.8977C85.0727 53.7178 85.5285 53.6278 86.0375 53.6278C86.5536 53.6278 87.0057 53.7178 87.394 53.8977C87.7846 54.0753 88.0912 54.3227 88.3137 54.6399C88.5363 54.9548 88.6511 55.317 88.6582 55.7266H87.3904ZM53.3675 67.8317V66.7273H59.17V67.8317H56.9221V74H55.6153V67.8317H53.3675ZM59.6654 74V68.5455H60.9118V69.4545H60.9687C61.0681 69.1397 61.2385 68.897 61.48 68.7266C61.7239 68.5537 62.002 68.4673 62.3145 68.4673C62.3856 68.4673 62.4649 68.4709 62.5525 68.478C62.6424 68.4827 62.717 68.491 62.7762 68.5028V69.6854C62.7217 69.6664 62.6353 69.6499 62.517 69.6357C62.401 69.6191 62.2885 69.6108 62.1796 69.6108C61.9452 69.6108 61.7345 69.6617 61.5475 69.7635C61.3628 69.8629 61.2172 70.0014 61.1107 70.179C61.0042 70.3565 60.9509 70.5613 60.9509 70.7933V74H59.6654ZM65.1022 74.1101C64.7565 74.1101 64.4452 74.0485 64.1682 73.9254C63.8936 73.8 63.6758 73.6153 63.5148 73.3714C63.3562 73.1276 63.2769 72.8269 63.2769 72.4695C63.2769 72.1617 63.3337 71.9072 63.4474 71.706C63.561 71.5047 63.7161 71.3438 63.9126 71.223C64.109 71.1023 64.3304 71.0111 64.5766 70.9496C64.8252 70.8857 65.0821 70.8395 65.3472 70.8111C65.6668 70.7779 65.926 70.7483 66.1249 70.7223C66.3238 70.6939 66.4682 70.6513 66.5581 70.5945C66.6505 70.5353 66.6966 70.4441 66.6966 70.321V70.2997C66.6966 70.0322 66.6173 69.825 66.4587 69.6783C66.3001 69.5315 66.0716 69.4581 65.7733 69.4581C65.4585 69.4581 65.2087 69.5268 65.0241 69.6641C64.8418 69.8014 64.7187 69.9635 64.6547 70.1506L63.4545 69.9801C63.5492 69.6487 63.7054 69.3717 63.9232 69.1491C64.141 68.9242 64.4073 68.7562 64.7222 68.6449C65.0371 68.5312 65.3851 68.4744 65.7662 68.4744C66.029 68.4744 66.2906 68.5052 66.551 68.5668C66.8115 68.6283 67.0494 68.7301 67.2648 68.8722C67.4803 69.0118 67.6531 69.2024 67.7833 69.4439C67.9159 69.6854 67.9822 69.9872 67.9822 70.3494V74H66.7464V73.2507H66.7037C66.6256 73.4022 66.5155 73.5443 66.3735 73.6768C66.2338 73.8071 66.0574 73.9124 65.8444 73.9929C65.6337 74.071 65.3863 74.1101 65.1022 74.1101ZM65.436 73.1655C65.694 73.1655 65.9178 73.1146 66.1072 73.0128C66.2965 72.9086 66.4421 72.7713 66.5439 72.6009C66.6481 72.4304 66.7002 72.2446 66.7002 72.0433V71.4006C66.6599 71.4337 66.5913 71.4645 66.4942 71.4929C66.3995 71.5213 66.293 71.5462 66.1746 71.5675C66.0563 71.5888 65.9391 71.6077 65.8231 71.6243C65.7071 71.6409 65.6064 71.6551 65.5212 71.6669C65.3295 71.6929 65.1578 71.7356 65.0063 71.7947C64.8548 71.8539 64.7352 71.9368 64.6476 72.0433C64.56 72.1475 64.5162 72.2824 64.5162 72.4482C64.5162 72.6849 64.6027 72.8636 64.7755 72.9844C64.9483 73.1051 65.1685 73.1655 65.436 73.1655ZM71.654 74.1065C71.1095 74.1065 70.642 73.987 70.2513 73.7479C69.8631 73.5088 69.5636 73.1785 69.3529 72.7571C69.1446 72.3333 69.0404 71.8456 69.0404 71.294C69.0404 70.7401 69.1469 70.2512 69.36 69.8274C69.5731 69.4013 69.8737 69.0698 70.262 68.8331C70.6526 68.594 71.1143 68.4744 71.6469 68.4744C72.0896 68.4744 72.4814 68.5561 72.8224 68.7195C73.1656 68.8804 73.4391 69.1089 73.6427 69.4048C73.8463 69.6984 73.9623 70.0417 73.9907 70.4347H72.762C72.7123 70.1719 72.5939 69.9529 72.4069 69.7777C72.2222 69.6001 71.9748 69.5114 71.6647 69.5114C71.4019 69.5114 71.1711 69.5824 70.9722 69.7244C70.7733 69.8641 70.6183 70.0653 70.507 70.3281C70.3981 70.5909 70.3437 70.9058 70.3437 71.2727C70.3437 71.6444 70.3981 71.964 70.507 72.2315C70.6159 72.4967 70.7686 72.7015 70.9651 72.8459C71.164 72.9879 71.3972 73.0589 71.6647 73.0589C71.8541 73.0589 72.0233 73.0234 72.1725 72.9524C72.324 72.879 72.4507 72.7737 72.5525 72.6364C72.6543 72.4991 72.7241 72.3321 72.762 72.1357H73.9907C73.9599 72.5215 73.8463 72.8636 73.6498 73.1619C73.4533 73.4579 73.1858 73.6899 72.8472 73.858C72.5087 74.0237 72.1109 74.1065 71.654 74.1065ZM76.2181 72.2884L76.2146 70.7365H76.4205L78.3808 68.5455H79.8829L77.4717 71.2301H77.2053L76.2181 72.2884ZM75.0463 74V66.7273H76.3318V74H75.0463ZM78.4695 74L76.694 71.5178L77.5605 70.6122L80.0072 74H78.4695ZM80.7396 74V68.5455H82.0251V74H80.7396ZM81.3859 67.7713C81.1823 67.7713 81.0071 67.7038 80.8604 67.5689C80.7136 67.4316 80.6402 67.267 80.6402 67.0753C80.6402 66.8812 80.7136 66.7166 80.8604 66.5817C81.0071 66.4444 81.1823 66.3757 81.3859 66.3757C81.5919 66.3757 81.7671 66.4444 81.9115 66.5817C82.0583 66.7166 82.1317 66.8812 82.1317 67.0753C82.1317 67.267 82.0583 67.4316 81.9115 67.5689C81.7671 67.7038 81.5919 67.7713 81.3859 67.7713ZM84.6325 70.804V74H83.347V68.5455H84.5757V69.4723H84.6396C84.7651 69.1669 84.9652 68.9242 85.2398 68.7443C85.5168 68.5644 85.8589 68.4744 86.2661 68.4744C86.6425 68.4744 86.9704 68.5549 87.2497 68.7159C87.5315 68.8769 87.7493 69.1101 87.9031 69.4155C88.0594 69.7209 88.1363 70.0914 88.134 70.527V74H86.8485V70.7259C86.8485 70.3613 86.7538 70.076 86.5644 69.87C86.3773 69.6641 86.1181 69.5611 85.7867 69.5611C85.5618 69.5611 85.3617 69.6108 85.1865 69.7102C85.0137 69.8073 84.8776 69.9482 84.7781 70.1328C84.6811 70.3175 84.6325 70.5412 84.6325 70.804ZM91.8129 76.1591C91.3513 76.1591 90.9548 76.0964 90.6233 75.9709C90.2919 75.8478 90.0255 75.6821 89.8243 75.4737C89.6231 75.2654 89.4834 75.0346 89.4053 74.7812L90.5629 74.5007C90.615 74.6072 90.6908 74.7126 90.7902 74.8168C90.8896 74.9233 91.0234 75.0109 91.1915 75.0795C91.3619 75.1506 91.5762 75.1861 91.8343 75.1861C92.1988 75.1861 92.5007 75.0973 92.7398 74.9197C92.9789 74.7446 93.0985 74.4557 93.0985 74.0533V73.0199H93.0345C92.9682 73.1525 92.8712 73.2886 92.7433 73.4283C92.6179 73.5679 92.451 73.6851 92.2426 73.7798C92.0367 73.8745 91.7774 73.9219 91.4649 73.9219C91.0459 73.9219 90.6659 73.8236 90.325 73.6271C89.9865 73.4283 89.7166 73.1323 89.5154 72.7393C89.3165 72.344 89.2171 71.8492 89.2171 71.255C89.2171 70.656 89.3165 70.1506 89.5154 69.7386C89.7166 69.3243 89.9877 69.0107 90.3286 68.7976C90.6695 68.5821 91.0494 68.4744 91.4685 68.4744C91.7881 68.4744 92.0509 68.5289 92.2568 68.6378C92.4652 68.7443 92.6309 68.8733 92.754 69.0249C92.8771 69.174 92.9706 69.3149 93.0345 69.4474H93.1056V68.5455H94.3733V74.0888C94.3733 74.5552 94.262 74.9411 94.0395 75.2464C93.817 75.5518 93.5128 75.7803 93.1269 75.9318C92.741 76.0833 92.303 76.1591 91.8129 76.1591ZM91.8236 72.9134C92.0959 72.9134 92.3279 72.8471 92.5196 72.7145C92.7114 72.5819 92.857 72.3913 92.9564 72.1428C93.0558 71.8942 93.1056 71.5959 93.1056 71.2479C93.1056 70.9046 93.0558 70.6039 92.9564 70.3459C92.8593 70.0878 92.7149 69.8878 92.5232 69.7457C92.3338 69.6013 92.1006 69.5291 91.8236 69.5291C91.5371 69.5291 91.298 69.6037 91.1063 69.7528C90.9145 69.902 90.7701 70.1068 90.673 70.3672C90.576 70.6252 90.5274 70.9188 90.5274 71.2479C90.5274 71.5817 90.576 71.8741 90.673 72.125C90.7725 72.3736 90.9181 72.5677 91.1098 72.7074C91.3039 72.8447 91.5419 72.9134 91.8236 72.9134Z" fill="#020817"/>
<g filter="url(#filter1_d_1557_344)">
<ellipse cx="13.2856" cy="13.4031" rx="13.2856" ry="13.4031" transform="matrix(-1 0 0 1 36.5713 44)" fill="white"/>
</g>
<g filter="url(#filter2_d_1557_344)">
<circle cx="23.0092" cy="57.1264" r="12.5102" fill="#FF4A4A"/>
<circle cx="23.0092" cy="57.1264" r="11.0102" stroke="#FFC1C1" stroke-width="3"/>
</g>
<path d="M18.2148 52.332V60.8575C18.2148 61.1401 18.3271 61.4112 18.527 61.6111C18.7268 61.8109 18.9979 61.9232 19.2805 61.9232H27.806" stroke="white" stroke-linecap="round" stroke-linejoin="round"/>
<path d="M26.207 59.792V55.5293" stroke="white" stroke-linecap="round" stroke-linejoin="round"/>
<path d="M23.543 59.7916V53.3975" stroke="white" stroke-linecap="round" stroke-linejoin="round"/>
<path d="M20.8789 59.7919V58.1934" stroke="white" stroke-linecap="round" stroke-linejoin="round"/>
<defs>
<filter id="filter0_d_1557_344" x="14.1572" y="0.583008" width="114.196" height="68.9307" filterUnits="userSpaceOnUse" color-interpolation-filters="sRGB">
<feFlood flood-opacity="0" result="BackgroundImageFix"/>
<feColorMatrix in="SourceAlpha" type="matrix" values="0 0 0 0 0 0 0 0 0 0 0 0 0 0 0 0 0 0 127 0" result="hardAlpha"/>
<feOffset/>
<feGaussianBlur stdDeviation="5"/>
<feComposite in2="hardAlpha" operator="out"/>
<feColorMatrix type="matrix" values="0 0 0 0 0 0 0 0 0 0 0 0 0 0 0 0 0 0 0.25 0"/>
<feBlend mode="normal" in2="BackgroundImageFix" result="effect1_dropShadow_1557_344"/>
<feBlend mode="normal" in="SourceGraphic" in2="effect1_dropShadow_1557_344" result="shape"/>
</filter>
<filter id="filter1_d_1557_344" x="6" y="44" width="34.5713" height="34.8066" filterUnits="userSpaceOnUse" color-interpolation-filters="sRGB">
<feFlood flood-opacity="0" result="BackgroundImageFix"/>
<feColorMatrix in="SourceAlpha" type="matrix" values="0 0 0 0 0 0 0 0 0 0 0 0 0 0 0 0 0 0 127 0" result="hardAlpha"/>
<feOffset dy="4"/>
<feGaussianBlur stdDeviation="2"/>
<feComposite in2="hardAlpha" operator="out"/>
<feColorMatrix type="matrix" values="0 0 0 0 0 0 0 0 0 0 0 0 0 0 0 0 0 0 0.25 0"/>
<feBlend mode="normal" in2="BackgroundImageFix" result="effect1_dropShadow_1557_344"/>
<feBlend mode="normal" in="SourceGraphic" in2="effect1_dropShadow_1557_344" result="shape"/>
</filter>
<filter id="filter2_d_1557_344" x="0.499023" y="34.6162" width="45.0205" height="45.0205" filterUnits="userSpaceOnUse" color-interpolation-filters="sRGB">
<feFlood flood-opacity="0" result="BackgroundImageFix"/>
<feColorMatrix in="SourceAlpha" type="matrix" values="0 0 0 0 0 0 0 0 0 0 0 0 0 0 0 0 0 0 127 0" result="hardAlpha"/>
<feOffset/>
<feGaussianBlur stdDeviation="5"/>
<feComposite in2="hardAlpha" operator="out"/>
<feColorMatrix type="matrix" values="0 0 0 0 0 0 0 0 0 0 0 0 0 0 0 0 0 0 0.2 0"/>
<feBlend mode="normal" in2="BackgroundImageFix" result="effect1_dropShadow_1557_344"/>
<feBlend mode="normal" in="SourceGraphic" in2="effect1_dropShadow_1557_344" result="shape"/>
</filter>
</defs>
</svg>
