<svg width="213" height="194" viewBox="0 0 213 194" fill="none" xmlns="http://www.w3.org/2000/svg">
<g filter="url(#filter0_d_1388_292)">
<path d="M98.4539 183.118C87.0708 183.411 75.7446 181.397 65.1409 177.196C54.5373 172.994 44.8701 166.689 36.7074 158.651C28.5447 150.613 22.0513 141.004 17.6086 130.389C13.1659 119.774 10.8637 108.367 10.8371 96.8385C10.8106 85.3099 13.0603 73.8923 17.454 63.2565C21.8477 52.6207 28.2969 42.9813 36.4224 34.9048C44.548 26.8283 54.186 20.4776 64.7702 16.2259C75.3544 11.9742 86.6712 9.90728 98.0556 10.1466L97.9917 13.2656C87.0178 13.035 76.1091 15.0274 65.9066 19.1257C55.7041 23.2241 46.4136 29.3458 38.5811 37.131C30.7486 44.9163 24.532 54.208 20.2968 64.4603C16.0615 74.7125 13.8929 85.7184 13.9185 96.8312C13.9441 107.944 16.1633 118.94 20.4458 129.172C24.7282 139.404 30.9875 148.666 38.8558 156.414C46.7241 164.162 56.0427 170.24 66.264 174.29C76.4852 178.341 87.403 180.281 98.3756 179.999L98.4539 183.118Z" fill="black"/>
</g>
<path d="M96.6361 185.272C120.144 185.272 142.689 175.934 159.311 159.311C175.934 142.689 185.272 120.144 185.272 96.6361C185.272 73.1284 175.934 50.5834 159.311 33.9609C142.689 17.3384 120.144 8 96.6361 8V15.2784C118.214 15.2784 138.907 23.85 154.165 39.1076C169.422 54.3651 177.994 75.0587 177.994 96.6361C177.994 118.214 169.422 138.907 154.165 154.165C138.907 169.422 118.214 177.994 96.6361 177.994V185.272Z" fill="#E1E1E1"/>
<g filter="url(#filter1_d_1388_292)">
<circle cx="182.5" cy="100.5" r="26.5" fill="white"/>
</g>
<g filter="url(#filter2_d_1388_292)">
<circle cx="182.5" cy="100.5" r="20.5" fill="#FF4A4A"/>
<circle cx="182.5" cy="100.5" r="19" stroke="#FFC1C1" stroke-width="3"/>
</g>
<path d="M173.729 92.6416V106.612C173.729 107.075 173.912 107.519 174.24 107.847C174.567 108.174 175.012 108.358 175.475 108.358H189.445" stroke="white" stroke-width="2" stroke-linecap="round" stroke-linejoin="round"/>
<path d="M187.699 97.8809L183.334 102.247L179.841 98.754L177.222 101.373" stroke="white" stroke-width="2" stroke-linecap="round" stroke-linejoin="round"/>
<path d="M72.9314 61.134C74.178 61.134 75.2717 61.3777 76.2124 61.865C77.1644 62.3523 77.8954 63.0493 78.4054 63.956C78.9267 64.8513 79.1874 65.894 79.1874 67.084C79.1874 68.274 78.9267 69.3167 78.4054 70.212C77.8954 71.096 77.1644 71.7817 76.2124 72.269C75.2717 72.7563 74.178 73 72.9314 73H68.7834V61.134H72.9314ZM72.8464 70.977C74.093 70.977 75.0564 70.637 75.7364 69.957C76.4164 69.277 76.7564 68.3193 76.7564 67.084C76.7564 65.8487 76.4164 64.8853 75.7364 64.194C75.0564 63.4913 74.093 63.14 72.8464 63.14H71.1634V70.977H72.8464ZM80.3569 68.257C80.3569 67.305 80.5439 66.4607 80.9179 65.724C81.3032 64.9873 81.8189 64.4207 82.4649 64.024C83.1222 63.6273 83.8532 63.429 84.6579 63.429C85.3606 63.429 85.9726 63.5707 86.4939 63.854C87.0266 64.1373 87.4516 64.4943 87.7689 64.925V63.582H90.1659V73H87.7689V71.623C87.4629 72.065 87.0379 72.4333 86.4939 72.728C85.9612 73.0113 85.3436 73.153 84.6409 73.153C83.8476 73.153 83.1222 72.949 82.4649 72.541C81.8189 72.133 81.3032 71.5607 80.9179 70.824C80.5439 70.076 80.3569 69.2203 80.3569 68.257ZM87.7689 68.291C87.7689 67.713 87.6556 67.22 87.4289 66.812C87.2022 66.3927 86.8962 66.0753 86.5109 65.86C86.1256 65.6333 85.7119 65.52 85.2699 65.52C84.8279 65.52 84.4199 65.6277 84.0459 65.843C83.6719 66.0583 83.3659 66.3757 83.1279 66.795C82.9012 67.203 82.7879 67.6903 82.7879 68.257C82.7879 68.8237 82.9012 69.3223 83.1279 69.753C83.3659 70.1723 83.6719 70.4953 84.0459 70.722C84.4312 70.9487 84.8392 71.062 85.2699 71.062C85.7119 71.062 86.1256 70.9543 86.5109 70.739C86.8962 70.5123 87.2022 70.195 87.4289 69.787C87.6556 69.3677 87.7689 68.869 87.7689 68.291ZM93.6974 62.46C93.278 62.46 92.9267 62.3297 92.6434 62.069C92.3714 61.797 92.2354 61.4627 92.2354 61.066C92.2354 60.6693 92.3714 60.3407 92.6434 60.08C92.9267 59.808 93.278 59.672 93.6974 59.672C94.1167 59.672 94.4624 59.808 94.7344 60.08C95.0177 60.3407 95.1594 60.6693 95.1594 61.066C95.1594 61.4627 95.0177 61.797 94.7344 62.069C94.4624 62.3297 94.1167 62.46 93.6974 62.46ZM94.8704 63.582V73H92.4904V63.582H94.8704ZM99.6018 60.42V73H97.2218V60.42H99.6018ZM110.963 63.582L105.132 77.454H102.599L104.639 72.762L100.865 63.582H103.534L105.965 70.161L108.43 63.582H110.963ZM114.847 70.501L112.858 75.278H111.328L112.433 70.501H114.847ZM55.5335 81.134L52.2185 93H49.4135L47.1865 84.551L44.8575 93L42.0695 93.017L38.8735 81.134H41.4235L43.5145 90.348L45.9285 81.134H48.5805L50.8585 90.297L52.9665 81.134H55.5335ZM65.8426 88.087C65.8426 88.427 65.8199 88.733 65.7746 89.005H58.8896C58.9462 89.685 59.1842 90.2177 59.6036 90.603C60.0229 90.9883 60.5386 91.181 61.1506 91.181C62.0346 91.181 62.6636 90.8013 63.0376 90.042H65.6046C65.3326 90.9487 64.8112 91.6967 64.0406 92.286C63.2699 92.864 62.3236 93.153 61.2016 93.153C60.2949 93.153 59.4789 92.9547 58.7536 92.558C58.0396 92.15 57.4786 91.5777 57.0706 90.841C56.6739 90.1043 56.4756 89.2543 56.4756 88.291C56.4756 87.3163 56.6739 86.4607 57.0706 85.724C57.4672 84.9873 58.0226 84.4207 58.7366 84.024C59.4506 83.6273 60.2722 83.429 61.2016 83.429C62.0969 83.429 62.8959 83.6217 63.5986 84.007C64.3126 84.3923 64.8622 84.942 65.2476 85.656C65.6442 86.3587 65.8426 87.169 65.8426 88.087ZM63.3776 87.407C63.3662 86.795 63.1452 86.3077 62.7146 85.945C62.2839 85.571 61.7569 85.384 61.1336 85.384C60.5442 85.384 60.0456 85.5653 59.6376 85.928C59.2409 86.2793 58.9972 86.7723 58.9066 87.407H63.3776ZM76.3347 88.087C76.3347 88.427 76.3121 88.733 76.2667 89.005H69.3817C69.4384 89.685 69.6764 90.2177 70.0957 90.603C70.5151 90.9883 71.0307 91.181 71.6427 91.181C72.5267 91.181 73.1557 90.8013 73.5297 90.042H76.0967C75.8247 90.9487 75.3034 91.6967 74.5327 92.286C73.7621 92.864 72.8157 93.153 71.6937 93.153C70.7871 93.153 69.9711 92.9547 69.2457 92.558C68.5317 92.15 67.9707 91.5777 67.5627 90.841C67.1661 90.1043 66.9677 89.2543 66.9677 88.291C66.9677 87.3163 67.1661 86.4607 67.5627 85.724C67.9594 84.9873 68.5147 84.4207 69.2287 84.024C69.9427 83.6273 70.7644 83.429 71.6937 83.429C72.5891 83.429 73.3881 83.6217 74.0907 84.007C74.8047 84.3923 75.3544 84.942 75.7397 85.656C76.1364 86.3587 76.3347 87.169 76.3347 88.087ZM73.8697 87.407C73.8584 86.795 73.6374 86.3077 73.2067 85.945C72.7761 85.571 72.2491 85.384 71.6257 85.384C71.0364 85.384 70.5377 85.5653 70.1297 85.928C69.7331 86.2793 69.4894 86.7723 69.3987 87.407H73.8697ZM83.6479 93L80.4519 88.988V93H78.0719V80.42H80.4519V87.577L83.6139 83.582H86.7079L82.5599 88.308L86.7419 93H83.6479ZM90.3797 80.42V93H87.9997V80.42H90.3797ZM101.741 83.582L95.9101 97.454H93.3771L95.4171 92.762L91.6431 83.582H94.3121L96.7431 90.161L99.2081 83.582H101.741ZM105.625 90.501L103.636 95.278H102.106L103.211 90.501H105.625ZM110.779 88.257C110.779 87.305 110.966 86.4607 111.34 85.724C111.726 84.9873 112.241 84.4207 112.887 84.024C113.545 83.6273 114.276 83.429 115.08 83.429C115.783 83.429 116.395 83.5707 116.916 83.854C117.449 84.1373 117.874 84.4943 118.191 84.925V83.582H120.588V93H118.191V91.623C117.885 92.065 117.46 92.4333 116.916 92.728C116.384 93.0113 115.766 93.153 115.063 93.153C114.27 93.153 113.545 92.949 112.887 92.541C112.241 92.133 111.726 91.5607 111.34 90.824C110.966 90.076 110.779 89.2203 110.779 88.257ZM118.191 88.291C118.191 87.713 118.078 87.22 117.851 86.812C117.625 86.3927 117.319 86.0753 116.933 85.86C116.548 85.6333 116.134 85.52 115.692 85.52C115.25 85.52 114.842 85.6277 114.468 85.843C114.094 86.0583 113.788 86.3757 113.55 86.795C113.324 87.203 113.21 87.6903 113.21 88.257C113.21 88.8237 113.324 89.3223 113.55 89.753C113.788 90.1723 114.094 90.4953 114.468 90.722C114.854 90.9487 115.262 91.062 115.692 91.062C116.134 91.062 116.548 90.9543 116.933 90.739C117.319 90.5123 117.625 90.195 117.851 89.787C118.078 89.3677 118.191 88.869 118.191 88.291ZM128.132 83.446C129.254 83.446 130.16 83.803 130.852 84.517C131.543 85.2197 131.889 86.2057 131.889 87.475V93H129.509V87.798C129.509 87.05 129.322 86.4777 128.948 86.081C128.574 85.673 128.064 85.469 127.418 85.469C126.76 85.469 126.239 85.673 125.854 86.081C125.48 86.4777 125.293 87.05 125.293 87.798V93H122.913V83.582H125.293V84.755C125.61 84.347 126.012 84.0297 126.5 83.803C126.998 83.565 127.542 83.446 128.132 83.446ZM133.54 88.257C133.54 87.305 133.727 86.4607 134.101 85.724C134.486 84.9873 135.008 84.4207 135.665 84.024C136.322 83.6273 137.053 83.429 137.858 83.429C138.47 83.429 139.054 83.565 139.609 83.837C140.164 84.0977 140.606 84.449 140.935 84.891V80.42H143.349V93H140.935V91.606C140.64 92.0707 140.227 92.4447 139.694 92.728C139.161 93.0113 138.544 93.153 137.841 93.153C137.048 93.153 136.322 92.949 135.665 92.541C135.008 92.133 134.486 91.5607 134.101 90.824C133.727 90.076 133.54 89.2203 133.54 88.257ZM140.952 88.291C140.952 87.713 140.839 87.22 140.612 86.812C140.385 86.3927 140.079 86.0753 139.694 85.86C139.309 85.6333 138.895 85.52 138.453 85.52C138.011 85.52 137.603 85.6277 137.229 85.843C136.855 86.0583 136.549 86.3757 136.311 86.795C136.084 87.203 135.971 87.6903 135.971 88.257C135.971 88.8237 136.084 89.3223 136.311 89.753C136.549 90.1723 136.855 90.4953 137.229 90.722C137.614 90.9487 138.022 91.062 138.453 91.062C138.895 91.062 139.309 90.9543 139.694 90.739C140.079 90.5123 140.385 90.195 140.612 89.787C140.839 89.3677 140.952 88.869 140.952 88.291ZM50.4173 104.806C50.4173 105.441 50.2643 106.036 49.9583 106.591C49.6636 107.146 49.1933 107.594 48.5473 107.934C47.9126 108.274 47.108 108.444 46.1333 108.444H44.1443V113H41.7643V101.134H46.1333C47.0513 101.134 47.8333 101.293 48.4793 101.61C49.1253 101.927 49.607 102.364 49.9243 102.919C50.253 103.474 50.4173 104.103 50.4173 104.806ZM46.0313 106.523C46.6886 106.523 47.176 106.376 47.4933 106.081C47.8106 105.775 47.9693 105.35 47.9693 104.806C47.9693 103.65 47.3233 103.072 46.0313 103.072H44.1443V106.523H46.0313ZM54.4871 105.044C54.7931 104.545 55.1897 104.154 55.6771 103.871C56.1757 103.588 56.7424 103.446 57.3771 103.446V105.945H56.7481C56.0001 105.945 55.4334 106.121 55.0481 106.472C54.6741 106.823 54.4871 107.435 54.4871 108.308V113H52.1071V103.582H54.4871V105.044ZM63.1621 113.153C62.2555 113.153 61.4395 112.955 60.7141 112.558C59.9888 112.15 59.4165 111.578 58.9971 110.841C58.5891 110.104 58.3851 109.254 58.3851 108.291C58.3851 107.328 58.5948 106.478 59.0141 105.741C59.4448 105.004 60.0285 104.438 60.7651 104.041C61.5018 103.633 62.3235 103.429 63.2301 103.429C64.1368 103.429 64.9585 103.633 65.6951 104.041C66.4318 104.438 67.0098 105.004 67.4291 105.741C67.8598 106.478 68.0751 107.328 68.0751 108.291C68.0751 109.254 67.8541 110.104 67.4121 110.841C66.9815 111.578 66.3921 112.15 65.6441 112.558C64.9075 112.955 64.0801 113.153 63.1621 113.153ZM63.1621 111.079C63.5928 111.079 63.9951 110.977 64.3691 110.773C64.7545 110.558 65.0605 110.24 65.2871 109.821C65.5138 109.402 65.6271 108.892 65.6271 108.291C65.6271 107.396 65.3891 106.71 64.9131 106.234C64.4485 105.747 63.8761 105.503 63.1961 105.503C62.5161 105.503 61.9438 105.747 61.4791 106.234C61.0258 106.71 60.7991 107.396 60.7991 108.291C60.7991 109.186 61.0201 109.878 61.4621 110.365C61.9155 110.841 62.4821 111.079 63.1621 111.079ZM71.0279 102.46C70.5973 102.46 70.2403 102.33 69.9569 102.069C69.6849 101.797 69.5489 101.463 69.5489 101.066C69.5489 100.669 69.6849 100.341 69.9569 100.08C70.2403 99.808 70.5973 99.672 71.0279 99.672C71.4473 99.672 71.7929 99.808 72.0649 100.08C72.3369 100.341 72.4729 100.669 72.4729 101.066C72.4729 101.463 72.3369 101.797 72.0649 102.069C71.7929 102.33 71.4473 102.46 71.0279 102.46ZM72.2009 114.547C72.2009 115.59 71.9403 116.338 71.4189 116.791C70.9089 117.256 70.1723 117.488 69.2089 117.488H68.1549V115.465H68.8349C69.1976 115.465 69.4526 115.391 69.5999 115.244C69.7473 115.108 69.8209 114.881 69.8209 114.564V103.582H72.2009V114.547ZM83.3074 108.087C83.3074 108.427 83.2847 108.733 83.2394 109.005H76.3544C76.4111 109.685 76.6491 110.218 77.0684 110.603C77.4877 110.988 78.0034 111.181 78.6154 111.181C79.4994 111.181 80.1284 110.801 80.5024 110.042H83.0694C82.7974 110.949 82.2761 111.697 81.5054 112.286C80.7347 112.864 79.7884 113.153 78.6664 113.153C77.7597 113.153 76.9437 112.955 76.2184 112.558C75.5044 112.15 74.9434 111.578 74.5354 110.841C74.1387 110.104 73.9404 109.254 73.9404 108.291C73.9404 107.316 74.1387 106.461 74.5354 105.724C74.9321 104.987 75.4874 104.421 76.2014 104.024C76.9154 103.627 77.7371 103.429 78.6664 103.429C79.5617 103.429 80.3607 103.622 81.0634 104.007C81.7774 104.392 82.3271 104.942 82.7124 105.656C83.1091 106.359 83.3074 107.169 83.3074 108.087ZM80.8424 107.407C80.8311 106.795 80.6101 106.308 80.1794 105.945C79.7487 105.571 79.2217 105.384 78.5984 105.384C78.0091 105.384 77.5104 105.565 77.1024 105.928C76.7057 106.279 76.4621 106.772 76.3714 107.407H80.8424ZM84.4326 108.291C84.4326 107.316 84.6309 106.466 85.0276 105.741C85.4242 105.004 85.9739 104.438 86.6766 104.041C87.3792 103.633 88.1839 103.429 89.0906 103.429C90.2579 103.429 91.2212 103.724 91.9806 104.313C92.7512 104.891 93.2669 105.707 93.5276 106.761H90.9606C90.8246 106.353 90.5922 106.036 90.2636 105.809C89.9462 105.571 89.5496 105.452 89.0736 105.452C88.3936 105.452 87.8552 105.701 87.4586 106.2C87.0619 106.687 86.8636 107.384 86.8636 108.291C86.8636 109.186 87.0619 109.883 87.4586 110.382C87.8552 110.869 88.3936 111.113 89.0736 111.113C90.0369 111.113 90.6659 110.682 90.9606 109.821H93.5276C93.2669 110.841 92.7512 111.651 91.9806 112.252C91.2099 112.853 90.2466 113.153 89.0906 113.153C88.1839 113.153 87.3792 112.955 86.6766 112.558C85.9739 112.15 85.4242 111.583 85.0276 110.858C84.6309 110.121 84.4326 109.266 84.4326 108.291ZM98.0421 105.537V110.093C98.0421 110.41 98.1158 110.643 98.2631 110.79C98.4218 110.926 98.6825 110.994 99.0451 110.994H100.15V113H98.6541C96.6481 113 95.6451 112.025 95.6451 110.076V105.537H94.5231V103.582H95.6451V101.253H98.0421V103.582H100.15V105.537H98.0421ZM109.104 105.928V107.934H101.896V105.928H109.104ZM114.153 103.055V106.03H118.148V107.917H114.153V111.062H118.658V113H111.773V101.117H118.658V103.055H114.153ZM126.04 103.446C127.162 103.446 128.069 103.803 128.76 104.517C129.451 105.22 129.797 106.206 129.797 107.475V113H127.417V107.798C127.417 107.05 127.23 106.478 126.856 106.081C126.482 105.673 125.972 105.469 125.326 105.469C124.669 105.469 124.147 105.673 123.762 106.081C123.388 106.478 123.201 107.05 123.201 107.798V113H120.821V103.582H123.201V104.755C123.518 104.347 123.921 104.03 124.408 103.803C124.907 103.565 125.451 103.446 126.04 103.446ZM131.448 108.257C131.448 107.305 131.635 106.461 132.009 105.724C132.395 104.987 132.916 104.421 133.573 104.024C134.231 103.627 134.962 103.429 135.766 103.429C136.378 103.429 136.962 103.565 137.517 103.837C138.073 104.098 138.515 104.449 138.843 104.891V100.42H141.257V113H138.843V111.606C138.549 112.071 138.135 112.445 137.602 112.728C137.07 113.011 136.452 113.153 135.749 113.153C134.956 113.153 134.231 112.949 133.573 112.541C132.916 112.133 132.395 111.561 132.009 110.824C131.635 110.076 131.448 109.22 131.448 108.257ZM138.86 108.291C138.86 107.713 138.747 107.22 138.52 106.812C138.294 106.393 137.988 106.075 137.602 105.86C137.217 105.633 136.803 105.52 136.361 105.52C135.919 105.52 135.511 105.628 135.137 105.843C134.763 106.058 134.457 106.376 134.219 106.795C133.993 107.203 133.879 107.69 133.879 108.257C133.879 108.824 133.993 109.322 134.219 109.753C134.457 110.172 134.763 110.495 135.137 110.722C135.523 110.949 135.931 111.062 136.361 111.062C136.803 111.062 137.217 110.954 137.602 110.739C137.988 110.512 138.294 110.195 138.52 109.787C138.747 109.368 138.86 108.869 138.86 108.291ZM65.5567 133L62.9387 128.376H61.8167V133H59.4367V121.134H63.8907C64.8087 121.134 65.5907 121.298 66.2367 121.627C66.8827 121.944 67.3643 122.381 67.6817 122.936C68.0103 123.48 68.1747 124.092 68.1747 124.772C68.1747 125.554 67.948 126.262 67.4947 126.897C67.0413 127.52 66.367 127.951 65.4717 128.189L68.3107 133H65.5567ZM61.8167 126.591H63.8057C64.4517 126.591 64.9333 126.438 65.2507 126.132C65.568 125.815 65.7267 125.378 65.7267 124.823C65.7267 124.279 65.568 123.86 65.2507 123.565C64.9333 123.259 64.4517 123.106 63.8057 123.106H61.8167V126.591ZM79.0823 128.087C79.0823 128.427 79.0596 128.733 79.0143 129.005H72.1293C72.186 129.685 72.424 130.218 72.8433 130.603C73.2626 130.988 73.7783 131.181 74.3903 131.181C75.2743 131.181 75.9033 130.801 76.2773 130.042H78.8443C78.5723 130.949 78.051 131.697 77.2803 132.286C76.5096 132.864 75.5633 133.153 74.4413 133.153C73.5346 133.153 72.7186 132.955 71.9933 132.558C71.2793 132.15 70.7183 131.578 70.3103 130.841C69.9136 130.104 69.7153 129.254 69.7153 128.291C69.7153 127.316 69.9136 126.461 70.3103 125.724C70.707 124.987 71.2623 124.421 71.9763 124.024C72.6903 123.627 73.512 123.429 74.4413 123.429C75.3366 123.429 76.1356 123.622 76.8383 124.007C77.5523 124.392 78.102 124.942 78.4873 125.656C78.884 126.359 79.0823 127.169 79.0823 128.087ZM76.6173 127.407C76.606 126.795 76.385 126.308 75.9543 125.945C75.5236 125.571 74.9966 125.384 74.3733 125.384C73.784 125.384 73.2853 125.565 72.8773 125.928C72.4806 126.279 72.237 126.772 72.1463 127.407H76.6173ZM83.1995 124.942C83.5055 124.511 83.9248 124.154 84.4575 123.871C85.0015 123.576 85.6192 123.429 86.3105 123.429C87.1152 123.429 87.8405 123.627 88.4865 124.024C89.1438 124.421 89.6595 124.987 90.0335 125.724C90.4188 126.449 90.6115 127.294 90.6115 128.257C90.6115 129.22 90.4188 130.076 90.0335 130.824C89.6595 131.561 89.1438 132.133 88.4865 132.541C87.8405 132.949 87.1152 133.153 86.3105 133.153C85.6192 133.153 85.0072 133.011 84.4745 132.728C83.9532 132.445 83.5282 132.088 83.1995 131.657V137.488H80.8195V123.582H83.1995V124.942ZM88.1805 128.257C88.1805 127.69 88.0615 127.203 87.8235 126.795C87.5968 126.376 87.2908 126.058 86.9055 125.843C86.5315 125.628 86.1235 125.52 85.6815 125.52C85.2508 125.52 84.8428 125.633 84.4575 125.86C84.0835 126.075 83.7775 126.393 83.5395 126.812C83.3128 127.231 83.1995 127.724 83.1995 128.291C83.1995 128.858 83.3128 129.351 83.5395 129.77C83.7775 130.189 84.0835 130.512 84.4575 130.739C84.8428 130.954 85.2508 131.062 85.6815 131.062C86.1235 131.062 86.5315 130.949 86.9055 130.722C87.2908 130.495 87.5968 130.172 87.8235 129.753C88.0615 129.334 88.1805 128.835 88.1805 128.257ZM96.523 133.153C95.6163 133.153 94.8003 132.955 94.075 132.558C93.3496 132.15 92.7773 131.578 92.358 130.841C91.95 130.104 91.746 129.254 91.746 128.291C91.746 127.328 91.9556 126.478 92.375 125.741C92.8056 125.004 93.3893 124.438 94.126 124.041C94.8626 123.633 95.6843 123.429 96.591 123.429C97.4976 123.429 98.3193 123.633 99.056 124.041C99.7926 124.438 100.371 125.004 100.79 125.741C101.221 126.478 101.436 127.328 101.436 128.291C101.436 129.254 101.215 130.104 100.773 130.841C100.342 131.578 99.753 132.15 99.005 132.558C98.2683 132.955 97.441 133.153 96.523 133.153ZM96.523 131.079C96.9536 131.079 97.356 130.977 97.73 130.773C98.1153 130.558 98.4213 130.24 98.648 129.821C98.8746 129.402 98.988 128.892 98.988 128.291C98.988 127.396 98.75 126.71 98.274 126.234C97.8093 125.747 97.237 125.503 96.557 125.503C95.877 125.503 95.3046 125.747 94.84 126.234C94.3866 126.71 94.16 127.396 94.16 128.291C94.16 129.186 94.381 129.878 94.823 130.365C95.2763 130.841 95.843 131.079 96.523 131.079ZM105.562 125.044C105.868 124.545 106.264 124.154 106.752 123.871C107.25 123.588 107.817 123.446 108.452 123.446V125.945H107.823C107.075 125.945 106.508 126.121 106.123 126.472C105.749 126.823 105.562 127.435 105.562 128.308V133H103.182V123.582H105.562V125.044ZM112.826 125.537V130.093C112.826 130.41 112.9 130.643 113.047 130.79C113.206 130.926 113.466 130.994 113.829 130.994H114.934V133H113.438C111.432 133 110.429 132.025 110.429 130.076V125.537H109.307V123.582H110.429V121.253H112.826V123.582H114.934V125.537H112.826ZM120.25 133.153C119.479 133.153 118.788 133.017 118.176 132.745C117.564 132.462 117.076 132.082 116.714 131.606C116.362 131.13 116.17 130.603 116.136 130.025H118.533C118.578 130.388 118.754 130.688 119.06 130.926C119.377 131.164 119.768 131.283 120.233 131.283C120.686 131.283 121.037 131.192 121.287 131.011C121.547 130.83 121.678 130.597 121.678 130.314C121.678 130.008 121.519 129.781 121.202 129.634C120.896 129.475 120.403 129.305 119.723 129.124C119.02 128.954 118.442 128.778 117.989 128.597C117.547 128.416 117.161 128.138 116.833 127.764C116.515 127.39 116.357 126.886 116.357 126.251C116.357 125.73 116.504 125.254 116.799 124.823C117.105 124.392 117.535 124.052 118.091 123.803C118.657 123.554 119.32 123.429 120.08 123.429C121.202 123.429 122.097 123.712 122.766 124.279C123.434 124.834 123.803 125.588 123.871 126.54H121.593C121.559 126.166 121.4 125.871 121.117 125.656C120.845 125.429 120.476 125.316 120.012 125.316C119.581 125.316 119.247 125.395 119.009 125.554C118.782 125.713 118.669 125.934 118.669 126.217C118.669 126.534 118.827 126.778 119.145 126.948C119.462 127.107 119.955 127.271 120.624 127.441C121.304 127.611 121.865 127.787 122.307 127.968C122.749 128.149 123.128 128.433 123.446 128.818C123.774 129.192 123.944 129.691 123.956 130.314C123.956 130.858 123.803 131.345 123.497 131.776C123.202 132.207 122.771 132.547 122.205 132.796C121.649 133.034 120.998 133.153 120.25 133.153Z" fill="black"/>
<defs>
<filter id="filter0_d_1388_292" x="0.836914" y="0.12793" width="107.617" height="193.018" filterUnits="userSpaceOnUse" color-interpolation-filters="sRGB">
<feFlood flood-opacity="0" result="BackgroundImageFix"/>
<feColorMatrix in="SourceAlpha" type="matrix" values="0 0 0 0 0 0 0 0 0 0 0 0 0 0 0 0 0 0 127 0" result="hardAlpha"/>
<feOffset/>
<feGaussianBlur stdDeviation="5"/>
<feComposite in2="hardAlpha" operator="out"/>
<feColorMatrix type="matrix" values="0 0 0 0 0 0 0 0 0 0 0 0 0 0 0 0 0 0 0.25 0"/>
<feBlend mode="normal" in2="BackgroundImageFix" result="effect1_dropShadow_1388_292"/>
<feBlend mode="normal" in="SourceGraphic" in2="effect1_dropShadow_1388_292" result="shape"/>
</filter>
<filter id="filter1_d_1388_292" x="152" y="74" width="61" height="61" filterUnits="userSpaceOnUse" color-interpolation-filters="sRGB">
<feFlood flood-opacity="0" result="BackgroundImageFix"/>
<feColorMatrix in="SourceAlpha" type="matrix" values="0 0 0 0 0 0 0 0 0 0 0 0 0 0 0 0 0 0 127 0" result="hardAlpha"/>
<feOffset dy="4"/>
<feGaussianBlur stdDeviation="2"/>
<feComposite in2="hardAlpha" operator="out"/>
<feColorMatrix type="matrix" values="0 0 0 0 0 0 0 0 0 0 0 0 0 0 0 0 0 0 0.25 0"/>
<feBlend mode="normal" in2="BackgroundImageFix" result="effect1_dropShadow_1388_292"/>
<feBlend mode="normal" in="SourceGraphic" in2="effect1_dropShadow_1388_292" result="shape"/>
</filter>
<filter id="filter2_d_1388_292" x="152" y="70" width="61" height="61" filterUnits="userSpaceOnUse" color-interpolation-filters="sRGB">
<feFlood flood-opacity="0" result="BackgroundImageFix"/>
<feColorMatrix in="SourceAlpha" type="matrix" values="0 0 0 0 0 0 0 0 0 0 0 0 0 0 0 0 0 0 127 0" result="hardAlpha"/>
<feOffset/>
<feGaussianBlur stdDeviation="5"/>
<feComposite in2="hardAlpha" operator="out"/>
<feColorMatrix type="matrix" values="0 0 0 0 0 0 0 0 0 0 0 0 0 0 0 0 0 0 0.2 0"/>
<feBlend mode="normal" in2="BackgroundImageFix" result="effect1_dropShadow_1388_292"/>
<feBlend mode="normal" in="SourceGraphic" in2="effect1_dropShadow_1388_292" result="shape"/>
</filter>
</defs>
</svg>
