<svg width="129" height="108" viewBox="0 0 129 108" fill="none" xmlns="http://www.w3.org/2000/svg">
<g filter="url(#filter0_d_1443_365)">
<path d="M10.2549 59.5139C10.0954 53.1568 11.1916 46.8315 13.4791 40.9098C15.7666 34.988 19.1993 29.5893 23.5754 25.0307C27.9516 20.4722 33.1829 16.8458 38.962 14.3648C44.7411 11.8837 50.9513 10.598 57.2278 10.5831C63.5043 10.5683 69.7204 11.8247 75.5108 14.2784C81.3012 16.7321 86.5492 20.3338 90.9463 24.8716C95.3434 29.4094 98.8009 34.7919 101.116 40.7028C103.43 46.6137 104.556 52.9337 104.425 59.2914L102.727 59.2557C102.853 53.1272 101.768 47.0351 99.5369 41.3374C97.3056 35.6397 93.9728 30.4513 89.7343 26.0771C85.4958 21.7029 80.4371 18.2312 74.8554 15.866C69.2738 13.5007 63.2819 12.2897 57.2318 12.304C51.1816 12.3183 45.1953 13.5576 39.6247 15.9492C34.054 18.3408 29.0113 21.8364 24.793 26.2305C20.5747 30.6247 17.2658 35.8288 15.0607 41.537C12.8557 47.2452 11.799 53.3423 11.9528 59.4702L10.2549 59.5139Z" fill="black"/>
</g>
<path d="M9.0816 58.5C9.0816 71.6282 14.1657 84.2187 23.2155 93.5018C32.2652 102.785 44.5394 108 57.3377 108C70.136 108 82.4101 102.785 91.4599 93.5018C100.51 84.2187 105.594 71.6282 105.594 58.5L101.631 58.5C101.631 70.5502 96.9645 82.1068 88.6579 90.6276C80.3513 99.1484 69.085 103.935 57.3377 103.935C45.5903 103.935 34.3241 99.1483 26.0175 90.6276C17.7108 82.1068 13.0442 70.5502 13.0442 58.5H9.0816Z" fill="#E1E1E1"/>
<path d="M29.1001 48.9197H30.7123L32.8714 54.1895H32.9566L35.1157 48.9197H36.7279V56.1924H35.4637V51.1959H35.3962L33.3863 56.1711H32.4417L30.4317 51.1853H30.3643V56.1924H29.1001V48.9197ZM41.5823 53.8983V50.7378H42.8678V56.1924H41.6214V55.2229H41.5646C41.4415 55.5283 41.239 55.7781 40.9573 55.9722C40.678 56.1663 40.3335 56.2634 39.9239 56.2634C39.5665 56.2634 39.2504 56.1841 38.9758 56.0255C38.7035 55.8645 38.4905 55.6313 38.3366 55.3259C38.1827 55.0181 38.1058 54.6465 38.1058 54.2108V50.7378H39.3913V54.012C39.3913 54.3576 39.486 54.6323 39.6754 54.8358C39.8647 55.0394 40.1133 55.1412 40.4211 55.1412C40.6105 55.1412 40.794 55.0951 40.9715 55.0028C41.1491 54.9104 41.2947 54.7731 41.4083 54.5908C41.5243 54.4062 41.5823 54.1753 41.5823 53.8983ZM45.4752 48.9197V56.1924H44.1897V48.9197H45.4752ZM49.5209 50.7378V51.7322H46.3852V50.7378H49.5209ZM47.1594 49.431H48.4449V54.5518C48.4449 54.7246 48.4709 54.8572 48.523 54.9495C48.5775 55.0394 48.6485 55.101 48.7361 55.1341C48.8237 55.1673 48.9207 55.1839 49.0273 55.1839C49.1078 55.1839 49.1812 55.1779 49.2474 55.1661C49.3161 55.1543 49.3682 55.1436 49.4037 55.1341L49.6203 56.1391C49.5517 56.1628 49.4534 56.1888 49.3256 56.2172C49.2001 56.2456 49.0462 56.2622 48.8639 56.267C48.5419 56.2764 48.2519 56.2279 47.9939 56.1214C47.7358 56.0125 47.5311 55.8444 47.3795 55.6171C47.2304 55.3898 47.157 55.1057 47.1594 54.7648V49.431ZM50.596 56.1924V50.7378H51.8815V56.1924H50.596ZM51.2423 49.9637C51.0387 49.9637 50.8635 49.8962 50.7167 49.7613C50.5699 49.624 50.4966 49.4594 50.4966 49.2677C50.4966 49.0735 50.5699 48.909 50.7167 48.7741C50.8635 48.6367 51.0387 48.5681 51.2423 48.5681C51.4483 48.5681 51.6234 48.6367 51.7679 48.7741C51.9146 48.909 51.988 49.0735 51.988 49.2677C51.988 49.4594 51.9146 49.624 51.7679 49.7613C51.6234 49.8962 51.4483 49.9637 51.2423 49.9637ZM54.4889 48.9197V56.1924H53.2034V48.9197H54.4889ZM55.8108 56.1924V50.7378H57.0963V56.1924H55.8108ZM56.4571 49.9637C56.2535 49.9637 56.0783 49.8962 55.9316 49.7613C55.7848 49.624 55.7114 49.4594 55.7114 49.2677C55.7114 49.0735 55.7848 48.909 55.9316 48.7741C56.0783 48.6367 56.2535 48.5681 56.4571 48.5681C56.6631 48.5681 56.8383 48.6367 56.9827 48.7741C57.1295 48.909 57.2029 49.0735 57.2029 49.2677C57.2029 49.4594 57.1295 49.624 56.9827 49.7613C56.8383 49.8962 56.6631 49.9637 56.4571 49.9637ZM59.7038 52.9964V56.1924H58.4183V50.7378H59.6469V51.6647H59.7109C59.8363 51.3593 60.0364 51.1166 60.311 50.9367C60.588 50.7568 60.9301 50.6668 61.3373 50.6668C61.7137 50.6668 62.0416 50.7473 62.321 50.9083C62.6027 51.0693 62.8205 51.3025 62.9744 51.6079C63.1306 51.9133 63.2076 52.2838 63.2052 52.7194V56.1924H61.9197V52.9182C61.9197 52.5537 61.825 52.2684 61.6356 52.0624C61.4486 51.8564 61.1893 51.7535 60.8579 51.7535C60.633 51.7535 60.4329 51.8032 60.2577 51.9026C60.0849 51.9997 59.9488 52.1405 59.8494 52.3252C59.7523 52.5099 59.7038 52.7336 59.7038 52.9964ZM66.8842 58.3515C66.4225 58.3515 66.026 58.2887 65.6945 58.1633C65.3631 58.0402 65.0968 57.8744 64.8955 57.6661C64.6943 57.4578 64.5546 57.2269 64.4765 56.9736L65.6342 56.6931C65.6862 56.7996 65.762 56.905 65.8614 57.0091C65.9609 57.1157 66.0946 57.2033 66.2627 57.2719C66.4332 57.343 66.6474 57.3785 66.9055 57.3785C67.2701 57.3785 67.5719 57.2897 67.811 57.1121C68.0501 56.9369 68.1697 56.6481 68.1697 56.2456V55.2123H68.1058C68.0395 55.3448 67.9424 55.481 67.8146 55.6206C67.6891 55.7603 67.5222 55.8775 67.3138 55.9722C67.1079 56.0669 66.8486 56.1143 66.5361 56.1143C66.1171 56.1143 65.7371 56.016 65.3962 55.8195C65.0577 55.6206 64.7878 55.3247 64.5866 54.9317C64.3877 54.5364 64.2883 54.0416 64.2883 53.4474C64.2883 52.8484 64.3877 52.343 64.5866 51.931C64.7878 51.5167 65.0589 51.203 65.3998 50.99C65.7407 50.7745 66.1207 50.6668 66.5397 50.6668C66.8593 50.6668 67.1221 50.7213 67.3281 50.8302C67.5364 50.9367 67.7021 51.0657 67.8252 51.2172C67.9483 51.3664 68.0418 51.5073 68.1058 51.6398H68.1768V50.7378H69.4445V56.2812C69.4445 56.7475 69.3333 57.1334 69.1107 57.4388C68.8882 57.7442 68.584 57.9727 68.1981 58.1242C67.8122 58.2757 67.3742 58.3515 66.8842 58.3515ZM66.8948 55.1057C67.1671 55.1057 67.3991 55.0394 67.5908 54.9069C67.7826 54.7743 67.9282 54.5837 68.0276 54.3351C68.1271 54.0866 68.1768 53.7883 68.1768 53.4403C68.1768 53.097 68.1271 52.7963 68.0276 52.5383C67.9306 52.2802 67.7861 52.0802 67.5944 51.9381C67.405 51.7937 67.1718 51.7215 66.8948 51.7215C66.6084 51.7215 66.3692 51.7961 66.1775 51.9452C65.9857 52.0944 65.8413 52.2992 65.7442 52.5596C65.6472 52.8176 65.5986 53.1112 65.5986 53.4403C65.5986 53.7741 65.6472 54.0664 65.7442 54.3174C65.8437 54.566 65.9893 54.7601 66.181 54.8998C66.3752 55.0371 66.6131 55.1057 66.8948 55.1057ZM74.2386 53.8983V50.7378H75.5241V56.1924H74.2776V55.2229H74.2208C74.0977 55.5283 73.8953 55.7781 73.6136 55.9722C73.3342 56.1663 72.9897 56.2634 72.5802 56.2634C72.2227 56.2634 71.9067 56.1841 71.632 56.0255C71.3598 55.8645 71.1467 55.6313 70.9928 55.3259C70.8389 55.0181 70.762 54.6465 70.762 54.2108V50.7378H72.0475V54.012C72.0475 54.3576 72.1422 54.6323 72.3316 54.8358C72.521 55.0394 72.7696 55.1412 73.0773 55.1412C73.2667 55.1412 73.4502 55.0951 73.6278 55.0028C73.8053 54.9104 73.9509 54.7731 74.0646 54.5908C74.1806 54.4062 74.2386 54.1753 74.2386 53.8983ZM78.4156 56.3025C78.0699 56.3025 77.7586 56.2409 77.4816 56.1178C77.207 55.9923 76.9892 55.8077 76.8282 55.5638C76.6696 55.32 76.5903 55.0193 76.5903 54.6618C76.5903 54.3541 76.6471 54.0996 76.7608 53.8983C76.8744 53.6971 77.0295 53.5361 77.226 53.4154C77.4225 53.2947 77.6438 53.2035 77.89 53.142C78.1386 53.078 78.3955 53.0319 78.6606 53.0035C78.9802 52.9703 79.2395 52.9407 79.4383 52.9147C79.6372 52.8863 79.7816 52.8437 79.8716 52.7868C79.9639 52.7277 80.01 52.6365 80.01 52.5134V52.4921C80.01 52.2246 79.9307 52.0174 79.7721 51.8706C79.6135 51.7239 79.385 51.6505 79.0868 51.6505C78.7719 51.6505 78.5221 51.7191 78.3375 51.8564C78.1552 51.9938 78.0321 52.1559 77.9681 52.343L76.7679 52.1725C76.8626 51.8411 77.0188 51.5641 77.2366 51.3415C77.4544 51.1166 77.7207 50.9485 78.0356 50.8373C78.3505 50.7236 78.6985 50.6668 79.0797 50.6668C79.3424 50.6668 79.604 50.6976 79.8645 50.7591C80.1249 50.8207 80.3628 50.9225 80.5782 51.0645C80.7937 51.2042 80.9665 51.3948 81.0967 51.6363C81.2293 51.8778 81.2956 52.1796 81.2956 52.5418V56.1924H80.0598V55.4431H80.0172C79.939 55.5946 79.8289 55.7367 79.6869 55.8692C79.5472 55.9994 79.3708 56.1048 79.1578 56.1853C78.9471 56.2634 78.6997 56.3025 78.4156 56.3025ZM78.7494 55.3579C79.0074 55.3579 79.2312 55.307 79.4206 55.2052C79.61 55.101 79.7556 54.9637 79.8573 54.7932C79.9615 54.6228 80.0136 54.4369 80.0136 54.2357V53.593C79.9734 53.6261 79.9047 53.6569 79.8076 53.6853C79.7129 53.7137 79.6064 53.7385 79.488 53.7599C79.3697 53.7812 79.2525 53.8001 79.1365 53.8167C79.0205 53.8332 78.9198 53.8474 78.8346 53.8593C78.6429 53.8853 78.4712 53.9279 78.3197 53.9871C78.1682 54.0463 78.0486 54.1292 77.961 54.2357C77.8734 54.3399 77.8297 54.4748 77.8297 54.6405C77.8297 54.8773 77.9161 55.056 78.0889 55.1768C78.2617 55.2975 78.4819 55.3579 78.7494 55.3579ZM83.8737 48.9197V56.1924H82.5882V48.9197H83.8737ZM36.9934 63.0241V61.9197H42.7959V63.0241H40.548V69.1924H39.2412V63.0241H36.9934ZM43.2913 69.1924V63.7378H44.5377V64.6469H44.5946C44.694 64.3321 44.8645 64.0894 45.1059 63.9189C45.3498 63.7461 45.6279 63.6597 45.9404 63.6597C46.0115 63.6597 46.0908 63.6633 46.1784 63.6704C46.2683 63.6751 46.3429 63.6834 46.4021 63.6952V64.8778C46.3476 64.8588 46.2612 64.8422 46.1429 64.828C46.0269 64.8115 45.9144 64.8032 45.8055 64.8032C45.5711 64.8032 45.3604 64.8541 45.1734 64.9559C44.9887 65.0553 44.8431 65.1938 44.7366 65.3714C44.6301 65.5489 44.5768 65.7537 44.5768 65.9857V69.1924H43.2913ZM48.7281 69.3025C48.3824 69.3025 48.0711 69.2409 47.7941 69.1178C47.5195 68.9923 47.3017 68.8077 47.1407 68.5638C46.9821 68.32 46.9028 68.0193 46.9028 67.6618C46.9028 67.3541 46.9596 67.0996 47.0733 66.8983C47.1869 66.6971 47.342 66.5361 47.5385 66.4154C47.735 66.2947 47.9563 66.2035 48.2025 66.142C48.4511 66.078 48.708 66.0319 48.9731 66.0035C49.2927 65.9703 49.552 65.9407 49.7508 65.9147C49.9497 65.8863 50.0941 65.8437 50.1841 65.7868C50.2764 65.7277 50.3225 65.6365 50.3225 65.5134V65.4921C50.3225 65.2246 50.2432 65.0174 50.0846 64.8706C49.926 64.7239 49.6975 64.6505 49.3993 64.6505C49.0844 64.6505 48.8346 64.7191 48.65 64.8564C48.4677 64.9938 48.3446 65.1559 48.2806 65.343L47.0804 65.1725C47.1751 64.8411 47.3313 64.5641 47.5491 64.3415C47.7669 64.1166 48.0332 63.9485 48.3481 63.8373C48.663 63.7236 49.011 63.6668 49.3922 63.6668C49.6549 63.6668 49.9165 63.6976 50.177 63.7591C50.4374 63.8207 50.6753 63.9225 50.8907 64.0645C51.1062 64.2042 51.279 64.3948 51.4092 64.6363C51.5418 64.8778 51.6081 65.1796 51.6081 65.5418V69.1924H50.3723V68.4431H50.3297C50.2515 68.5946 50.1414 68.7367 49.9994 68.8692C49.8597 68.9994 49.6833 69.1048 49.4703 69.1853C49.2596 69.2634 49.0122 69.3025 48.7281 69.3025ZM49.0619 68.3579C49.3199 68.3579 49.5437 68.307 49.7331 68.2052C49.9225 68.101 50.0681 67.9637 50.1698 67.7932C50.274 67.6228 50.3261 67.4369 50.3261 67.2357V66.593C50.2859 66.6261 50.2172 66.6569 50.1201 66.6853C50.0254 66.7137 49.9189 66.7385 49.8005 66.7599C49.6822 66.7812 49.565 66.8001 49.449 66.8167C49.333 66.8332 49.2323 66.8474 49.1471 66.8593C48.9554 66.8853 48.7837 66.9279 48.6322 66.9871C48.4807 67.0463 48.3611 67.1292 48.2735 67.2357C48.1859 67.3399 48.1422 67.4748 48.1422 67.6405C48.1422 67.8773 48.2286 68.056 48.4014 68.1768C48.5742 68.2975 48.7944 68.3579 49.0619 68.3579ZM52.9007 69.1924V63.7378H54.1862V69.1924H52.9007ZM53.547 62.9637C53.3434 62.9637 53.1682 62.8962 53.0214 62.7613C52.8746 62.624 52.8012 62.4594 52.8012 62.2677C52.8012 62.0735 52.8746 61.909 53.0214 61.7741C53.1682 61.6367 53.3434 61.5681 53.547 61.5681C53.7529 61.5681 53.9281 61.6367 54.0725 61.7741C54.2193 61.909 54.2927 62.0735 54.2927 62.2677C54.2927 62.4594 54.2193 62.624 54.0725 62.7613C53.9281 62.8962 53.7529 62.9637 53.547 62.9637ZM56.7936 65.9964V69.1924H55.5081V63.7378H56.7368V64.6647H56.8007C56.9262 64.3593 57.1262 64.1166 57.4009 63.9367C57.6778 63.7568 58.0199 63.6668 58.4271 63.6668C58.8035 63.6668 59.1314 63.7473 59.4108 63.9083C59.6925 64.0693 59.9103 64.3025 60.0642 64.6079C60.2205 64.9133 60.2974 65.2838 60.295 65.7194V69.1924H59.0095V65.9182C59.0095 65.5537 58.9148 65.2684 58.7254 65.0624C58.5384 64.8564 58.2792 64.7535 57.9477 64.7535C57.7228 64.7535 57.5228 64.8032 57.3476 64.9026C57.1748 64.9997 57.0386 65.1405 56.9392 65.3252C56.8421 65.5099 56.7936 65.7336 56.7936 65.9964ZM64.0166 69.2989C63.4697 69.2989 62.9974 69.1853 62.5997 68.958C62.2044 68.7284 61.9001 68.404 61.6871 67.985C61.474 67.5636 61.3675 67.0676 61.3675 66.4971C61.3675 65.936 61.474 65.4436 61.6871 65.0198C61.9025 64.5937 62.2032 64.2622 62.5891 64.0255C62.975 63.7864 63.4283 63.6668 63.9491 63.6668C64.2853 63.6668 64.6026 63.7213 64.9009 63.8302C65.2015 63.9367 65.4667 64.1024 65.6963 64.3273C65.9283 64.5522 66.1106 64.8387 66.2432 65.1867C66.3758 65.5323 66.442 65.9443 66.442 66.4225V66.8167H61.9712V65.9502H65.2098C65.2074 65.704 65.1542 65.485 65.05 65.2932C64.9458 65.0991 64.8002 64.9464 64.6132 64.8351C64.4285 64.7239 64.2131 64.6682 63.9669 64.6682C63.7041 64.6682 63.4733 64.7322 63.2744 64.86C63.0756 64.9855 62.9205 65.1512 62.8092 65.3572C62.7003 65.5608 62.6447 65.7845 62.6423 66.0283V66.7847C62.6423 67.1019 62.7003 67.3742 62.8163 67.6015C62.9323 67.8264 63.0945 67.9992 63.3028 68.1199C63.5112 68.2383 63.755 68.2975 64.0344 68.2975C64.2214 68.2975 64.3907 68.2715 64.5422 68.2194C64.6937 68.1649 64.8251 68.0856 64.9364 67.9814C65.0476 67.8773 65.1317 67.7483 65.1885 67.5944L66.3888 67.7293C66.313 68.0465 66.1686 68.3235 65.9555 68.5603C65.7448 68.7947 65.475 68.9769 65.1459 69.1072C64.8168 69.235 64.4404 69.2989 64.0166 69.2989ZM67.5296 69.1924V63.7378H68.776V64.6469H68.8328C68.9323 64.3321 69.1027 64.0894 69.3442 63.9189C69.5881 63.7461 69.8662 63.6597 70.1787 63.6597C70.2498 63.6597 70.3291 63.6633 70.4167 63.6704C70.5066 63.6751 70.5812 63.6834 70.6404 63.6952V64.8778C70.5859 64.8588 70.4995 64.8422 70.3811 64.828C70.2651 64.8115 70.1527 64.8032 70.0438 64.8032C69.8094 64.8032 69.5987 64.8541 69.4117 64.9559C69.227 65.0553 69.0814 65.1938 68.9749 65.3714C68.8684 65.5489 68.8151 65.7537 68.8151 65.9857V69.1924H67.5296ZM75.8055 65.1796L74.6336 65.3074C74.6005 65.1891 74.5425 65.0778 74.4596 64.9736C74.3791 64.8695 74.2702 64.7854 74.1329 64.7215C73.9956 64.6576 73.8275 64.6256 73.6287 64.6256C73.3611 64.6256 73.1362 64.6836 72.9539 64.7996C72.774 64.9156 72.6852 65.066 72.6876 65.2506C72.6852 65.4092 72.7432 65.5383 72.8616 65.6377C72.9823 65.7371 73.1812 65.8188 73.4582 65.8827L74.3886 66.0816C74.9047 66.1929 75.2882 66.3692 75.5392 66.6107C75.7925 66.8522 75.9203 67.1682 75.9227 67.5589C75.9203 67.9021 75.8197 68.2052 75.6208 68.468C75.4243 68.7284 75.1509 68.932 74.8005 69.0787C74.4502 69.2255 74.0477 69.2989 73.5931 69.2989C72.9255 69.2989 72.3881 69.1592 71.9809 68.8799C71.5737 68.5982 71.3311 68.2064 71.2529 67.7045L72.5065 67.5837C72.5633 67.8299 72.6841 68.0158 72.8687 68.1412C73.0534 68.2667 73.2937 68.3295 73.5896 68.3295C73.895 68.3295 74.14 68.2667 74.3247 68.1412C74.5117 68.0158 74.6052 67.8607 74.6052 67.676C74.6052 67.5198 74.5448 67.3908 74.4241 67.289C74.3057 67.1872 74.1211 67.109 73.8701 67.0546L72.9397 66.8593C72.4165 66.7504 72.0295 66.5669 71.7785 66.3089C71.5276 66.0484 71.4033 65.7194 71.4056 65.3216C71.4033 64.9855 71.4944 64.6943 71.6791 64.4481C71.8661 64.1995 72.1253 64.0077 72.4568 63.8728C72.7906 63.7355 73.1753 63.6668 73.6109 63.6668C74.2501 63.6668 74.7532 63.8029 75.1201 64.0752C75.4895 64.3474 75.7179 64.7156 75.8055 65.1796Z" fill="#020817"/>
<g filter="url(#filter1_d_1443_365)">
<ellipse cx="106.016" cy="55.3332" rx="13.0663" ry="13.4031" transform="rotate(180 106.016 55.3332)" fill="white"/>
</g>
<g filter="url(#filter2_d_1443_365)">
<circle cx="12.4065" cy="12.4065" r="12.4065" transform="matrix(1 0 0 -1 93.5557 68.0186)" fill="#FF4A4A"/>
<circle cx="12.4065" cy="12.4065" r="10.9065" transform="matrix(1 0 0 -1 93.5557 68.0186)" stroke="#FFC1C1" stroke-width="3"/>
</g>
<g clip-path="url(#clip0_1443_365)">
<path d="M105.666 48.7179C109.337 48.7179 112.312 51.8038 112.312 55.6104C112.312 59.417 109.337 62.5029 105.666 62.5029C101.995 62.5029 99.0195 59.417 99.0195 55.6104C99.0195 51.8038 101.995 48.7179 105.666 48.7179Z" stroke="white" stroke-linecap="round" stroke-linejoin="round"/>
<path d="M105.666 62.5029C103.96 60.6446 103.008 58.1767 103.008 55.6104C103.008 53.0442 103.96 50.5762 105.666 48.7179C107.373 50.5762 108.325 53.0442 108.325 55.6104C108.325 58.1767 107.373 60.6446 105.666 62.5029Z" stroke="white" stroke-linecap="round" stroke-linejoin="round"/>
<path d="M99.0195 55.6104H112.312" stroke="white" stroke-linecap="round" stroke-linejoin="round"/>
</g>
<defs>
<filter id="filter0_d_1443_365" x="0.239258" y="0.583008" width="114.196" height="68.9307" filterUnits="userSpaceOnUse" color-interpolation-filters="sRGB">
<feFlood flood-opacity="0" result="BackgroundImageFix"/>
<feColorMatrix in="SourceAlpha" type="matrix" values="0 0 0 0 0 0 0 0 0 0 0 0 0 0 0 0 0 0 127 0" result="hardAlpha"/>
<feOffset/>
<feGaussianBlur stdDeviation="5"/>
<feComposite in2="hardAlpha" operator="out"/>
<feColorMatrix type="matrix" values="0 0 0 0 0 0 0 0 0 0 0 0 0 0 0 0 0 0 0.25 0"/>
<feBlend mode="normal" in2="BackgroundImageFix" result="effect1_dropShadow_1443_365"/>
<feBlend mode="normal" in="SourceGraphic" in2="effect1_dropShadow_1443_365" result="shape"/>
</filter>
<filter id="filter1_d_1443_365" x="88.9492" y="41.9297" width="34.1328" height="34.8066" filterUnits="userSpaceOnUse" color-interpolation-filters="sRGB">
<feFlood flood-opacity="0" result="BackgroundImageFix"/>
<feColorMatrix in="SourceAlpha" type="matrix" values="0 0 0 0 0 0 0 0 0 0 0 0 0 0 0 0 0 0 127 0" result="hardAlpha"/>
<feOffset dy="4"/>
<feGaussianBlur stdDeviation="2"/>
<feComposite in2="hardAlpha" operator="out"/>
<feColorMatrix type="matrix" values="0 0 0 0 0 0 0 0 0 0 0 0 0 0 0 0 0 0 0.25 0"/>
<feBlend mode="normal" in2="BackgroundImageFix" result="effect1_dropShadow_1443_365"/>
<feBlend mode="normal" in="SourceGraphic" in2="effect1_dropShadow_1443_365" result="shape"/>
</filter>
<filter id="filter2_d_1443_365" x="83.5557" y="33.2051" width="44.8135" height="44.8135" filterUnits="userSpaceOnUse" color-interpolation-filters="sRGB">
<feFlood flood-opacity="0" result="BackgroundImageFix"/>
<feColorMatrix in="SourceAlpha" type="matrix" values="0 0 0 0 0 0 0 0 0 0 0 0 0 0 0 0 0 0 127 0" result="hardAlpha"/>
<feOffset/>
<feGaussianBlur stdDeviation="5"/>
<feComposite in2="hardAlpha" operator="out"/>
<feColorMatrix type="matrix" values="0 0 0 0 0 0 0 0 0 0 0 0 0 0 0 0 0 0 0.2 0"/>
<feBlend mode="normal" in2="BackgroundImageFix" result="effect1_dropShadow_1443_365"/>
<feBlend mode="normal" in="SourceGraphic" in2="effect1_dropShadow_1443_365" result="shape"/>
</filter>
<clipPath id="clip0_1443_365">
<rect width="15.9513" height="16.542" fill="white" transform="matrix(1 0 0 -1 97.6904 63.8818)"/>
</clipPath>
</defs>
</svg>
