<svg width="212" height="194" viewBox="0 0 212 194" fill="none" xmlns="http://www.w3.org/2000/svg">
<g filter="url(#filter0_d_1388_279)">
<path d="M98.4539 183.118C87.0708 183.411 75.7446 181.397 65.1409 177.196C54.5373 172.994 44.8701 166.689 36.7074 158.651C28.5447 150.613 22.0513 141.004 17.6086 130.389C13.1659 119.774 10.8637 108.367 10.8371 96.8385C10.8106 85.3099 13.0603 73.8923 17.454 63.2565C21.8477 52.6207 28.2969 42.9813 36.4224 34.9048C44.548 26.8283 54.186 20.4776 64.7702 16.2259C75.3544 11.9742 86.6712 9.90728 98.0556 10.1466L97.9917 13.2656C87.0178 13.035 76.1091 15.0274 65.9066 19.1257C55.7041 23.2241 46.4136 29.3458 38.5811 37.131C30.7486 44.9163 24.532 54.208 20.2968 64.4603C16.0615 74.7125 13.8929 85.7184 13.9185 96.8312C13.9441 107.944 16.1633 118.94 20.4458 129.172C24.7282 139.404 30.9875 148.666 38.8558 156.414C46.7241 164.162 56.0427 170.24 66.264 174.29C76.4852 178.341 87.403 180.281 98.3756 179.999L98.4539 183.118Z" fill="black"/>
</g>
<path d="M96.6361 185.272C120.144 185.272 142.689 175.934 159.311 159.311C175.934 142.689 185.272 120.144 185.272 96.6361C185.272 73.1284 175.934 50.5834 159.311 33.9609C142.689 17.3384 120.144 8 96.6361 8V15.2784C118.214 15.2784 138.907 23.85 154.165 39.1076C169.422 54.3651 177.994 75.0587 177.994 96.6361C177.994 118.214 169.422 138.907 154.165 154.165C138.907 169.422 118.214 177.994 96.6361 177.994V185.272Z" fill="#E1E1E1"/>
<g filter="url(#filter1_d_1388_279)">
<circle cx="179.5" cy="97.5" r="26.5" fill="white"/>
</g>
<g filter="url(#filter2_d_1388_279)">
<circle cx="179.5" cy="97.5" r="22.5" fill="#FF4A4A"/>
<circle cx="179.5" cy="97.5" r="21" stroke="#FFC1C1" stroke-width="3"/>
</g>
<path d="M182.375 87.917H173.75C173.241 87.917 172.754 88.1189 172.394 88.4784C172.035 88.8378 171.833 89.3253 171.833 89.8337V105.167C171.833 105.675 172.035 106.163 172.394 106.522C172.754 106.882 173.241 107.084 173.75 107.084H185.25C185.758 107.084 186.246 106.882 186.605 106.522C186.964 106.163 187.166 105.675 187.166 105.167V92.7087L182.375 87.917Z" stroke="white" stroke-width="2" stroke-linecap="round" stroke-linejoin="round"/>
<path d="M181.417 87.917V91.7503C181.417 92.2587 181.619 92.7462 181.978 93.1056C182.338 93.4651 182.825 93.667 183.334 93.667H187.167" stroke="white" stroke-width="2" stroke-linecap="round" stroke-linejoin="round"/>
<path d="M176.625 100.375L178.542 102.291L182.375 98.458" stroke="white" stroke-width="2" stroke-linecap="round" stroke-linejoin="round"/>
<path d="M56.9949 69.6364V82H55.0027L49.177 73.5785H49.0744V82H46.8347V69.6364H48.839L54.6586 78.0639H54.7672V69.6364H56.9949ZM66.1544 73.0352C66.098 72.5079 65.8606 72.0974 65.442 71.8036C65.0275 71.5098 64.4882 71.3629 63.8241 71.3629C63.3573 71.3629 62.9568 71.4334 62.6228 71.5742C62.2887 71.7151 62.0332 71.9062 61.8561 72.1477C61.679 72.3892 61.5885 72.6649 61.5844 72.9748C61.5844 73.2324 61.6428 73.4557 61.7595 73.6449C61.8802 73.834 62.0432 73.995 62.2485 74.1278C62.4537 74.2566 62.6811 74.3653 62.9307 74.4538C63.1802 74.5424 63.4317 74.6168 63.6853 74.6772L64.8444 74.967C65.3112 75.0756 65.76 75.2225 66.1906 75.4077C66.6253 75.5928 67.0136 75.8262 67.3557 76.108C67.7019 76.3897 67.9755 76.7298 68.1768 77.1282C68.378 77.5266 68.4786 77.9935 68.4786 78.5288C68.4786 79.2532 68.2935 79.8911 67.9232 80.4425C67.5529 80.9898 67.0177 81.4184 66.3174 81.7283C65.6211 82.0342 64.778 82.1871 63.7879 82.1871C62.826 82.1871 61.9909 82.0382 61.2826 81.7404C60.5783 81.4426 60.0269 81.0079 59.6285 80.4364C59.234 79.8649 59.0207 79.1687 58.9885 78.3477H61.192C61.2242 78.7783 61.357 79.1365 61.5905 79.4222C61.8239 79.708 62.1278 79.9213 62.502 80.0621C62.8804 80.203 63.3029 80.2734 63.7698 80.2734C64.2568 80.2734 64.6834 80.201 65.0496 80.0561C65.4199 79.9072 65.7097 79.7019 65.9189 79.4403C66.1282 79.1747 66.2349 78.8648 66.2389 78.5107C66.2349 78.1887 66.1403 77.9231 65.9552 77.7138C65.77 77.5005 65.5104 77.3234 65.1764 77.1825C64.8464 77.0376 64.46 76.9089 64.0173 76.7962L62.6107 76.4339C61.5925 76.1723 60.7876 75.7759 60.1959 75.2447C59.6083 74.7094 59.3145 73.9991 59.3145 73.1136C59.3145 72.3852 59.5117 71.7473 59.9062 71.1999C60.3046 70.6526 60.8459 70.228 61.5301 69.9261C62.2143 69.6203 62.989 69.4673 63.8543 69.4673C64.7317 69.4673 65.5004 69.6203 66.1604 69.9261C66.8245 70.228 67.3457 70.6486 67.724 71.1879C68.1023 71.7231 68.2975 72.3389 68.3096 73.0352H66.1544ZM75.0815 77.8466H77.1099L78.3113 79.4041L79.1685 80.4183L81.2271 83.0625H79.0538L77.6532 81.2876L77.0556 80.4425L75.0815 77.8466ZM81.5229 75.8182C81.5229 77.1503 81.2734 78.2913 80.7743 79.2411C80.2793 80.1869 79.6032 80.9113 78.7459 81.4144C77.8927 81.9175 76.9248 82.169 75.8422 82.169C74.7595 82.169 73.7896 81.9175 72.9324 81.4144C72.0791 80.9073 71.403 80.1809 70.9039 79.2351C70.4089 78.2853 70.1614 77.1463 70.1614 75.8182C70.1614 74.486 70.4089 73.3471 70.9039 72.4013C71.403 71.4515 72.0791 70.725 72.9324 70.2219C73.7896 69.7189 74.7595 69.4673 75.8422 69.4673C76.9248 69.4673 77.8927 69.7189 78.7459 70.2219C79.6032 70.725 80.2793 71.4515 80.7743 72.4013C81.2734 73.3471 81.5229 74.486 81.5229 75.8182ZM79.2711 75.8182C79.2711 74.8804 79.1242 74.0896 78.8304 73.4457C78.5407 72.7977 78.1382 72.3087 77.623 71.9787C77.1079 71.6446 76.5143 71.4776 75.8422 71.4776C75.17 71.4776 74.5764 71.6446 74.0613 71.9787C73.5461 72.3087 73.1416 72.7977 72.8478 73.4457C72.5581 74.0896 72.4132 74.8804 72.4132 75.8182C72.4132 76.7559 72.5581 77.5488 72.8478 78.1967C73.1416 78.8407 73.5461 79.3297 74.0613 79.6637C74.5764 79.9937 75.17 80.1587 75.8422 80.1587C76.5143 80.1587 77.1079 79.9937 77.623 79.6637C78.1382 79.3297 78.5407 78.8407 78.8304 78.1967C79.1242 77.5488 79.2711 76.7559 79.2711 75.8182ZM83.657 82V69.6364H91.5774V71.5138H85.8967V74.8704H91.0341V76.7479H85.8967V82H83.657ZM95.4063 80.3097L95.3279 80.9737C95.2715 81.4808 95.1709 81.996 95.026 82.5192C94.8852 83.0464 94.7362 83.5314 94.5793 83.9741C94.4223 84.4168 94.2955 84.7649 94.199 85.0185H92.7259C92.7823 84.773 92.8588 84.4389 92.9553 84.0163C93.056 83.5938 93.1526 83.1188 93.2451 82.5916C93.3377 82.0644 93.4001 81.5291 93.4323 80.9858L93.4745 80.3097H95.4063ZM111.946 69.6364V82H109.954L104.128 73.5785H104.026V82H101.786V69.6364H103.79L109.61 78.0639H109.718V69.6364H111.946ZM114.386 82V69.6364H122.428V71.5138H116.626V74.8704H122.011V76.7479H116.626V80.1225H122.476V82H114.386ZM124.713 82V69.6364H129.349C130.299 69.6364 131.096 69.8134 131.74 70.1676C132.388 70.5218 132.877 71.0088 133.207 71.6286C133.541 72.2443 133.708 72.9446 133.708 73.7294C133.708 74.5223 133.541 75.2266 133.207 75.8423C132.873 76.4581 132.38 76.9431 131.728 77.2972C131.076 77.6474 130.273 77.8224 129.319 77.8224H126.246V75.9812H129.017C129.572 75.9812 130.027 75.8846 130.381 75.6914C130.735 75.4982 130.997 75.2326 131.166 74.8945C131.339 74.5565 131.426 74.1681 131.426 73.7294C131.426 73.2907 131.339 72.9044 131.166 72.5703C130.997 72.2363 130.733 71.9767 130.375 71.7915C130.021 71.6024 129.564 71.5078 129.005 71.5078H126.952V82H124.713ZM137.441 80.3097L137.363 80.9737C137.307 81.4808 137.206 81.996 137.061 82.5192C136.92 83.0464 136.771 83.5314 136.614 83.9741C136.457 84.4168 136.331 84.7649 136.234 85.0185H134.761C134.817 84.773 134.894 84.4389 134.991 84.0163C135.091 83.5938 135.188 83.1188 135.28 82.5916C135.373 82.0644 135.435 81.5291 135.467 80.9858L135.51 80.3097H137.441ZM82.1379 89.6364V102H80.1457L74.3201 93.5785H74.2175V102H71.9778V89.6364H73.982L79.8016 98.0639H79.9103V89.6364H82.1379ZM87.1501 102.187C86.5625 102.187 86.0332 102.083 85.5624 101.873C85.0955 101.66 84.7252 101.346 84.4516 100.931C84.1819 100.517 84.0471 100.006 84.0471 99.3981C84.0471 98.8749 84.1437 98.4422 84.3369 98.1001C84.5301 97.758 84.7937 97.4844 85.1277 97.2791C85.4618 97.0739 85.8381 96.9189 86.2566 96.8143C86.6792 96.7056 87.1159 96.6271 87.5666 96.5788C88.11 96.5225 88.5506 96.4722 88.8887 96.4279C89.2268 96.3796 89.4723 96.3072 89.6252 96.2106C89.7822 96.11 89.8607 95.955 89.8607 95.7457V95.7095C89.8607 95.2547 89.7258 94.9026 89.4562 94.6531C89.1865 94.4035 88.7982 94.2788 88.2911 94.2788C87.7558 94.2788 87.3312 94.3955 87.0173 94.6289C86.7074 94.8623 86.4981 95.138 86.3894 95.456L84.3489 95.1662C84.5099 94.6027 84.7756 94.1319 85.1458 93.7536C85.5161 93.3712 85.9689 93.0855 86.5041 92.8963C87.0394 92.7031 87.631 92.6065 88.279 92.6065C88.7257 92.6065 89.1704 92.6589 89.6131 92.7635C90.0559 92.8681 90.4603 93.0412 90.8266 93.2827C91.1928 93.5201 91.4866 93.8441 91.708 94.2546C91.9333 94.6651 92.046 95.1783 92.046 95.794V102H89.9452V100.726H89.8727C89.7399 100.984 89.5528 101.225 89.3113 101.451C89.0738 101.672 88.774 101.851 88.4118 101.988C88.0536 102.121 87.633 102.187 87.1501 102.187ZM87.7176 100.581C88.1562 100.581 88.5366 100.495 88.8585 100.322C89.1805 100.145 89.428 99.9112 89.6011 99.6214C89.7782 99.3317 89.8667 99.0157 89.8667 98.6737V97.581C89.7983 97.6373 89.6816 97.6896 89.5166 97.7379C89.3556 97.7862 89.1745 97.8285 88.9732 97.8647C88.772 97.9009 88.5728 97.9331 88.3756 97.9613C88.1784 97.9895 88.0073 98.0136 87.8624 98.0337C87.5364 98.078 87.2447 98.1504 86.9871 98.2511C86.7295 98.3517 86.5263 98.4925 86.3774 98.6737C86.2284 98.8507 86.154 99.0801 86.154 99.3619C86.154 99.7643 86.3009 100.068 86.5947 100.273C86.8885 100.479 87.2628 100.581 87.7176 100.581ZM96.9118 102.187C96.3242 102.187 95.795 102.083 95.3241 101.873C94.8572 101.66 94.487 101.346 94.2133 100.931C93.9436 100.517 93.8088 100.006 93.8088 99.3981C93.8088 98.8749 93.9054 98.4422 94.0986 98.1001C94.2918 97.758 94.5554 97.4844 94.8894 97.2791C95.2235 97.0739 95.5998 96.9189 96.0183 96.8143C96.4409 96.7056 96.8776 96.6271 97.3283 96.5788C97.8717 96.5225 98.3124 96.4722 98.6504 96.4279C98.9885 96.3796 99.234 96.3072 99.3869 96.2106C99.5439 96.11 99.6224 95.955 99.6224 95.7457V95.7095C99.6224 95.2547 99.4876 94.9026 99.2179 94.6531C98.9483 94.4035 98.5599 94.2788 98.0528 94.2788C97.5175 94.2788 97.0929 94.3955 96.779 94.6289C96.4691 94.8623 96.2598 95.138 96.1511 95.456L94.1107 95.1662C94.2716 94.6027 94.5373 94.1319 94.9075 93.7536C95.2778 93.3712 95.7306 93.0855 96.2658 92.8963C96.8011 92.7031 97.3927 92.6065 98.0407 92.6065C98.4874 92.6065 98.9322 92.6589 99.3749 92.7635C99.8176 92.8681 100.222 93.0412 100.588 93.2827C100.955 93.5201 101.248 93.8441 101.47 94.2546C101.695 94.6651 101.808 95.1783 101.808 95.794V102H99.7069V100.726H99.6345C99.5016 100.984 99.3145 101.225 99.073 101.451C98.8356 101.672 98.5357 101.851 98.1735 101.988C97.8153 102.121 97.3948 102.187 96.9118 102.187ZM97.4793 100.581C97.918 100.581 98.2983 100.495 98.6203 100.322C98.9422 100.145 99.1897 99.9112 99.3628 99.6214C99.5399 99.3317 99.6284 99.0157 99.6284 98.6737V97.581C99.56 97.6373 99.4433 97.6896 99.2783 97.7379C99.1173 97.7862 98.9362 97.8285 98.735 97.8647C98.5337 97.9009 98.3345 97.9331 98.1373 97.9613C97.9401 97.9895 97.769 98.0136 97.6242 98.0337C97.2982 98.078 97.0064 98.1504 96.7488 98.2511C96.4912 98.3517 96.288 98.4925 96.1391 98.6737C95.9902 98.8507 95.9157 99.0801 95.9157 99.3619C95.9157 99.7643 96.0626 100.068 96.3564 100.273C96.6502 100.479 97.0245 100.581 97.4793 100.581ZM106.191 96.5668V102H104.005V92.7273H106.094V94.3029H106.203C106.416 93.7837 106.756 93.3712 107.223 93.0653C107.694 92.7595 108.275 92.6065 108.968 92.6065C109.607 92.6065 110.165 92.7434 110.64 93.017C111.119 93.2907 111.489 93.6871 111.751 94.2063C112.016 94.7255 112.147 95.3554 112.143 96.0959V102H109.958V96.4339C109.958 95.8142 109.797 95.3292 109.475 94.979C109.157 94.6289 108.716 94.4538 108.153 94.4538C107.77 94.4538 107.43 94.5384 107.132 94.7074C106.839 94.8724 106.607 95.1119 106.438 95.4258C106.273 95.7397 106.191 96.12 106.191 96.5668ZM47.8557 109.636H50.5965L54.2669 118.595H54.4118L58.0823 109.636H60.823V122H58.6739V113.506H58.5592L55.1423 121.964H53.5364L50.1195 113.488H50.0048V122H47.8557V109.636ZM69.0755 118.1V112.727H71.2609V122H69.1419V120.352H69.0453C68.836 120.871 68.4919 121.296 68.013 121.626C67.5381 121.956 66.9525 122.121 66.2563 122.121C65.6485 122.121 65.1113 121.986 64.6444 121.716C64.1816 121.443 63.8194 121.046 63.5578 120.527C63.2962 120.004 63.1653 119.372 63.1653 118.631V112.727H65.3507V118.293C65.3507 118.881 65.5117 119.348 65.8337 119.694C66.1556 120.04 66.5782 120.213 67.1014 120.213C67.4234 120.213 67.7353 120.135 68.0372 119.978C68.339 119.821 68.5865 119.587 68.7797 119.277C68.9769 118.963 69.0755 118.571 69.0755 118.1ZM76.9492 122.163C76.2207 122.163 75.5687 121.976 74.9932 121.602C74.4177 121.227 73.9629 120.684 73.6289 119.972C73.2948 119.259 73.1278 118.394 73.1278 117.376C73.1278 116.345 73.2968 115.476 73.6349 114.768C73.977 114.055 74.4378 113.518 75.0174 113.156C75.5969 112.79 76.2429 112.607 76.9552 112.607C77.4985 112.607 77.9453 112.699 78.2954 112.884C78.6456 113.065 78.9233 113.285 79.1285 113.542C79.3338 113.796 79.4927 114.035 79.6054 114.261H79.696V109.636H81.8874V122H79.7382V120.539H79.6054C79.4927 120.764 79.3297 121.004 79.1164 121.257C78.9031 121.507 78.6214 121.72 78.2713 121.897C77.9211 122.074 77.4804 122.163 76.9492 122.163ZM77.5589 120.37C78.0217 120.37 78.4161 120.245 78.7421 119.996C79.0681 119.742 79.3157 119.39 79.4847 118.939C79.6537 118.489 79.7382 117.963 79.7382 117.364C79.7382 116.764 79.6537 116.243 79.4847 115.8C79.3197 115.357 79.0742 115.013 78.7482 114.768C78.4262 114.522 78.0298 114.4 77.5589 114.4C77.0719 114.4 76.6654 114.526 76.3394 114.78C76.0135 115.033 75.7679 115.384 75.6029 115.83C75.4379 116.277 75.3554 116.788 75.3554 117.364C75.3554 117.943 75.4379 118.46 75.6029 118.915C75.772 119.366 76.0195 119.722 76.3455 119.984C76.6755 120.241 77.08 120.37 77.5589 120.37ZM86.4015 116.567V122H84.2161V109.636H86.3532V114.303H86.4619C86.6792 113.78 87.0153 113.367 87.47 113.065C87.9288 112.759 88.5124 112.607 89.2207 112.607C89.8647 112.607 90.4261 112.741 90.9051 113.011C91.384 113.281 91.7542 113.675 92.0158 114.194C92.2815 114.713 92.4143 115.347 92.4143 116.096V122H90.2289V116.434C90.2289 115.81 90.0679 115.325 89.746 114.979C89.428 114.629 88.9813 114.454 88.4058 114.454C88.0194 114.454 87.6733 114.538 87.3674 114.707C87.0656 114.872 86.8281 115.112 86.6551 115.426C86.486 115.74 86.4015 116.12 86.4015 116.567ZM97.3102 122.187C96.7226 122.187 96.1934 122.083 95.7225 121.873C95.2557 121.66 94.8854 121.346 94.6117 120.931C94.3421 120.517 94.2073 120.006 94.2073 119.398C94.2073 118.875 94.3038 118.442 94.497 118.1C94.6902 117.758 94.9538 117.484 95.2879 117.279C95.6219 117.074 95.9982 116.919 96.4168 116.814C96.8394 116.706 97.276 116.627 97.7268 116.579C98.2701 116.522 98.7108 116.472 99.0489 116.428C99.3869 116.38 99.6324 116.307 99.7854 116.211C99.9423 116.11 100.021 115.955 100.021 115.746V115.71C100.021 115.255 99.886 114.903 99.6163 114.653C99.3467 114.404 98.9583 114.279 98.4512 114.279C97.9159 114.279 97.4913 114.395 97.1774 114.629C96.8675 114.862 96.6582 115.138 96.5496 115.456L94.5091 115.166C94.6701 114.603 94.9357 114.132 95.306 113.754C95.6762 113.371 96.129 113.085 96.6643 112.896C97.1996 112.703 97.7912 112.607 98.4391 112.607C98.8859 112.607 99.3306 112.659 99.7733 112.763C100.216 112.868 100.62 113.041 100.987 113.283C101.353 113.52 101.647 113.844 101.868 114.255C102.093 114.665 102.206 115.178 102.206 115.794V122H100.105V120.726H100.033C99.9001 120.984 99.7129 121.225 99.4715 121.451C99.234 121.672 98.9342 121.851 98.572 121.988C98.2138 122.121 97.7932 122.187 97.3102 122.187ZM97.8777 120.581C98.3164 120.581 98.6967 120.495 99.0187 120.322C99.3407 120.145 99.5882 119.911 99.7612 119.621C99.9383 119.332 100.027 119.016 100.027 118.674V117.581C99.9584 117.637 99.8417 117.69 99.6767 117.738C99.5157 117.786 99.3346 117.828 99.1334 117.865C98.9322 117.901 98.7329 117.933 98.5357 117.961C98.3385 117.989 98.1675 118.014 98.0226 118.034C97.6966 118.078 97.4048 118.15 97.1472 118.251C96.8897 118.352 96.6864 118.493 96.5375 118.674C96.3886 118.851 96.3141 119.08 96.3141 119.362C96.3141 119.764 96.461 120.068 96.7548 120.273C97.0486 120.479 97.4229 120.581 97.8777 120.581ZM106.589 109.636V122H104.404V109.636H106.589ZM117.119 112.727L113.817 122H111.402L108.1 112.727H110.43L112.561 119.615H112.658L114.795 112.727H117.119ZM121.034 122.187C120.446 122.187 119.917 122.083 119.446 121.873C118.979 121.66 118.609 121.346 118.335 120.931C118.066 120.517 117.931 120.006 117.931 119.398C117.931 118.875 118.027 118.442 118.221 118.1C118.414 117.758 118.677 117.484 119.011 117.279C119.346 117.074 119.722 116.919 120.14 116.814C120.563 116.706 121 116.627 121.45 116.579C121.994 116.522 122.434 116.472 122.773 116.428C123.111 116.38 123.356 116.307 123.509 116.211C123.666 116.11 123.744 115.955 123.744 115.746V115.71C123.744 115.255 123.61 114.903 123.34 114.653C123.07 114.404 122.682 114.279 122.175 114.279C121.64 114.279 121.215 114.395 120.901 114.629C120.591 114.862 120.382 115.138 120.273 115.456L118.233 115.166C118.394 114.603 118.659 114.132 119.03 113.754C119.4 113.371 119.853 113.085 120.388 112.896C120.923 112.703 121.515 112.607 122.163 112.607C122.61 112.607 123.054 112.659 123.497 112.763C123.94 112.868 124.344 113.041 124.71 113.283C125.077 113.52 125.37 113.844 125.592 114.255C125.817 114.665 125.93 115.178 125.93 115.794V122H123.829V120.726H123.757C123.624 120.984 123.437 121.225 123.195 121.451C122.958 121.672 122.658 121.851 122.296 121.988C121.937 122.121 121.517 122.187 121.034 122.187ZM121.601 120.581C122.04 120.581 122.42 120.495 122.742 120.322C123.064 120.145 123.312 119.911 123.485 119.621C123.662 119.332 123.75 119.016 123.75 118.674V117.581C123.682 117.637 123.565 117.69 123.4 117.738C123.239 117.786 123.058 117.828 122.857 117.865C122.656 117.901 122.457 117.933 122.259 117.961C122.062 117.989 121.891 118.014 121.746 118.034C121.42 118.078 121.128 118.15 120.871 118.251C120.613 118.352 120.41 118.493 120.261 118.674C120.112 118.851 120.038 119.08 120.038 119.362C120.038 119.764 120.185 120.068 120.478 120.273C120.772 120.479 121.147 120.581 121.601 120.581ZM130.313 116.567V122H128.127V112.727H130.216V114.303H130.325C130.538 113.784 130.878 113.371 131.345 113.065C131.816 112.759 132.397 112.607 133.09 112.607C133.73 112.607 134.287 112.743 134.762 113.017C135.241 113.291 135.611 113.687 135.873 114.206C136.138 114.725 136.269 115.355 136.265 116.096V122H134.08V116.434C134.08 115.814 133.919 115.329 133.597 114.979C133.279 114.629 132.838 114.454 132.275 114.454C131.892 114.454 131.552 114.538 131.254 114.707C130.961 114.872 130.729 115.112 130.56 115.426C130.395 115.74 130.313 116.12 130.313 116.567ZM61.6508 133.808H59.393C59.3286 133.438 59.2099 133.11 59.0368 132.824C58.8638 132.534 58.6485 132.289 58.3909 132.087C58.1333 131.886 57.8395 131.735 57.5095 131.635C57.1835 131.53 56.8314 131.478 56.453 131.478C55.7809 131.478 55.1853 131.647 54.6661 131.985C54.1469 132.319 53.7404 132.81 53.4466 133.458C53.1528 134.102 53.0059 134.888 53.0059 135.818C53.0059 136.764 53.1528 137.561 53.4466 138.209C53.7445 138.853 54.151 139.34 54.6661 139.67C55.1853 139.996 55.7789 140.159 56.447 140.159C56.8173 140.159 57.1634 140.11 57.4854 140.014C57.8113 139.913 58.1031 139.766 58.3607 139.573C58.6223 139.38 58.8416 139.143 59.0187 138.861C59.1998 138.579 59.3246 138.257 59.393 137.895L61.6508 137.907C61.5663 138.495 61.3832 139.046 61.1015 139.561C60.8238 140.076 60.4595 140.531 60.0088 140.925C59.558 141.316 59.0308 141.622 58.4271 141.843C57.8234 142.06 57.1533 142.169 56.4168 142.169C55.3302 142.169 54.3602 141.917 53.507 141.414C52.6538 140.911 51.9817 140.185 51.4907 139.235C50.9997 138.285 50.7542 137.146 50.7542 135.818C50.7542 134.486 51.0017 133.347 51.4967 132.401C51.9917 131.451 52.6659 130.725 53.5191 130.222C54.3723 129.719 55.3382 129.467 56.4168 129.467C57.105 129.467 57.7449 129.564 58.3366 129.757C58.9282 129.95 59.4554 130.234 59.9182 130.608C60.3811 130.979 60.7614 131.433 61.0592 131.973C61.3611 132.508 61.5583 133.12 61.6508 133.808ZM67.65 142.181C66.7445 142.181 65.9597 141.982 65.2956 141.583C64.6316 141.185 64.1164 140.628 63.7502 139.911C63.388 139.195 63.2069 138.358 63.2069 137.4C63.2069 136.442 63.388 135.603 63.7502 134.882C64.1164 134.162 64.6316 133.603 65.2956 133.204C65.9597 132.806 66.7445 132.607 67.65 132.607C68.5556 132.607 69.3404 132.806 70.0044 133.204C70.6685 133.603 71.1816 134.162 71.5439 134.882C71.9101 135.603 72.0932 136.442 72.0932 137.4C72.0932 138.358 71.9101 139.195 71.5439 139.911C71.1816 140.628 70.6685 141.185 70.0044 141.583C69.3404 141.982 68.5556 142.181 67.65 142.181ZM67.6621 140.43C68.1531 140.43 68.5636 140.296 68.8936 140.026C69.2237 139.752 69.4692 139.386 69.6301 138.927C69.7952 138.468 69.8777 137.957 69.8777 137.394C69.8777 136.826 69.7952 136.313 69.6301 135.854C69.4692 135.392 69.2237 135.023 68.8936 134.75C68.5636 134.476 68.1531 134.339 67.6621 134.339C67.159 134.339 66.7405 134.476 66.4064 134.75C66.0764 135.023 65.8289 135.392 65.6639 135.854C65.5029 136.313 65.4224 136.826 65.4224 137.394C65.4224 137.957 65.5029 138.468 65.6639 138.927C65.8289 139.386 66.0764 139.752 66.4064 140.026C66.7405 140.296 67.159 140.43 67.6621 140.43ZM73.9481 142V132.727H76.0368V134.303H76.1455C76.3387 133.772 76.6586 133.357 77.1054 133.059C77.5521 132.757 78.0854 132.607 78.7052 132.607C79.333 132.607 79.8622 132.759 80.2929 133.065C80.7275 133.367 81.0334 133.78 81.2105 134.303H81.3071C81.5123 133.788 81.8585 133.377 82.3454 133.071C82.8364 132.761 83.418 132.607 84.0901 132.607C84.9433 132.607 85.6396 132.876 86.1789 133.415C86.7182 133.955 86.9878 134.742 86.9878 135.776V142H84.7964V136.114C84.7964 135.538 84.6435 135.118 84.3376 134.852C84.0318 134.583 83.6575 134.448 83.2148 134.448C82.6875 134.448 82.275 134.613 81.9772 134.943C81.6834 135.269 81.5365 135.693 81.5365 136.217V142H79.3934V136.023C79.3934 135.545 79.2485 135.162 78.9587 134.876C78.673 134.591 78.2987 134.448 77.8358 134.448C77.5219 134.448 77.2362 134.528 76.9786 134.689C76.721 134.846 76.5158 135.07 76.3628 135.359C76.2099 135.645 76.1334 135.979 76.1334 136.362V142H73.9481ZM89.2049 145.477V132.727H91.354V134.261H91.4808C91.5935 134.035 91.7525 133.796 91.9577 133.542C92.163 133.285 92.4407 133.065 92.7908 132.884C93.141 132.699 93.5877 132.607 94.131 132.607C94.8474 132.607 95.4934 132.79 96.0689 133.156C96.6484 133.518 97.1072 134.055 97.4453 134.768C97.7874 135.476 97.9585 136.345 97.9585 137.376C97.9585 138.394 97.7914 139.259 97.4574 139.972C97.1233 140.684 96.6686 141.227 96.093 141.602C95.5175 141.976 94.8655 142.163 94.1371 142.163C93.6058 142.163 93.1651 142.074 92.815 141.897C92.4648 141.72 92.1831 141.507 91.9698 141.257C91.7605 141.004 91.5975 140.764 91.4808 140.539H91.3903V145.477H89.2049ZM91.348 137.364C91.348 137.963 91.4325 138.489 91.6016 138.939C91.7746 139.39 92.0221 139.742 92.3441 139.996C92.6701 140.245 93.0645 140.37 93.5273 140.37C94.0103 140.37 94.4148 140.241 94.7408 139.984C95.0668 139.722 95.3123 139.366 95.4773 138.915C95.6463 138.46 95.7308 137.943 95.7308 137.364C95.7308 136.788 95.6483 136.277 95.4833 135.83C95.3183 135.384 95.0728 135.033 94.7468 134.78C94.4208 134.526 94.0143 134.4 93.5273 134.4C93.0605 134.4 92.6641 134.522 92.3381 134.768C92.0121 135.013 91.7646 135.357 91.5955 135.8C91.4305 136.243 91.348 136.764 91.348 137.364ZM102.015 129.636V142H99.8299V129.636H102.015ZM104.263 142V132.727H106.448V142H104.263ZM105.361 131.411C105.015 131.411 104.717 131.297 104.468 131.067C104.218 130.834 104.093 130.554 104.093 130.228C104.093 129.898 104.218 129.618 104.468 129.389C104.717 129.155 105.015 129.039 105.361 129.039C105.711 129.039 106.009 129.155 106.255 129.389C106.504 129.618 106.629 129.898 106.629 130.228C106.629 130.554 106.504 130.834 106.255 131.067C106.009 131.297 105.711 131.411 105.361 131.411ZM111.363 142.187C110.776 142.187 110.247 142.083 109.776 141.873C109.309 141.66 108.939 141.346 108.665 140.931C108.395 140.517 108.26 140.006 108.26 139.398C108.26 138.875 108.357 138.442 108.55 138.1C108.743 137.758 109.007 137.484 109.341 137.279C109.675 137.074 110.051 136.919 110.47 136.814C110.893 136.706 111.329 136.627 111.78 136.579C112.323 136.522 112.764 136.472 113.102 136.428C113.44 136.38 113.686 136.307 113.839 136.211C113.996 136.11 114.074 135.955 114.074 135.746V135.71C114.074 135.255 113.939 134.903 113.67 134.653C113.4 134.404 113.012 134.279 112.504 134.279C111.969 134.279 111.545 134.395 111.231 134.629C110.921 134.862 110.711 135.138 110.603 135.456L108.562 135.166C108.723 134.603 108.989 134.132 109.359 133.754C109.729 133.371 110.182 133.085 110.718 132.896C111.253 132.703 111.844 132.607 112.492 132.607C112.939 132.607 113.384 132.659 113.827 132.763C114.269 132.868 114.674 133.041 115.04 133.283C115.406 133.52 115.7 133.844 115.921 134.255C116.147 134.665 116.259 135.178 116.259 135.794V142H114.159V140.726H114.086C113.953 140.984 113.766 141.225 113.525 141.451C113.287 141.672 112.987 141.851 112.625 141.988C112.267 142.121 111.846 142.187 111.363 142.187ZM111.931 140.581C112.37 140.581 112.75 140.495 113.072 140.322C113.394 140.145 113.641 139.911 113.814 139.621C113.992 139.332 114.08 139.016 114.08 138.674V137.581C114.012 137.637 113.895 137.69 113.73 137.738C113.569 137.786 113.388 137.828 113.187 137.865C112.985 137.901 112.786 137.933 112.589 137.961C112.392 137.989 112.221 138.014 112.076 138.034C111.75 138.078 111.458 138.15 111.2 138.251C110.943 138.352 110.74 138.493 110.591 138.674C110.442 138.851 110.367 139.08 110.367 139.362C110.367 139.764 110.514 140.068 110.808 140.273C111.102 140.479 111.476 140.581 111.931 140.581ZM120.642 136.567V142H118.457V132.727H120.546V134.303H120.654C120.868 133.784 121.208 133.371 121.675 133.065C122.145 132.759 122.727 132.607 123.419 132.607C124.059 132.607 124.617 132.743 125.091 133.017C125.57 133.291 125.941 133.687 126.202 134.206C126.468 134.725 126.599 135.355 126.595 136.096V142H124.409V136.434C124.409 135.814 124.248 135.329 123.926 134.979C123.608 134.629 123.168 134.454 122.604 134.454C122.222 134.454 121.882 134.538 121.584 134.707C121.29 134.872 121.059 135.112 120.89 135.426C120.725 135.74 120.642 136.12 120.642 136.567ZM133.447 132.727V134.418H128.116V132.727H133.447ZM129.432 130.506H131.617V139.211C131.617 139.505 131.662 139.73 131.75 139.887C131.843 140.04 131.963 140.145 132.112 140.201C132.261 140.257 132.426 140.286 132.607 140.286C132.744 140.286 132.869 140.275 132.982 140.255C133.098 140.235 133.187 140.217 133.247 140.201L133.616 141.909C133.499 141.95 133.332 141.994 133.115 142.042C132.901 142.091 132.64 142.119 132.33 142.127C131.782 142.143 131.289 142.06 130.851 141.879C130.412 141.694 130.064 141.408 129.806 141.022C129.553 140.636 129.428 140.153 129.432 139.573V130.506Z" fill="#020817"/>
<defs>
<filter id="filter0_d_1388_279" x="0.836914" y="0.12793" width="107.617" height="193.018" filterUnits="userSpaceOnUse" color-interpolation-filters="sRGB">
<feFlood flood-opacity="0" result="BackgroundImageFix"/>
<feColorMatrix in="SourceAlpha" type="matrix" values="0 0 0 0 0 0 0 0 0 0 0 0 0 0 0 0 0 0 127 0" result="hardAlpha"/>
<feOffset/>
<feGaussianBlur stdDeviation="5"/>
<feComposite in2="hardAlpha" operator="out"/>
<feColorMatrix type="matrix" values="0 0 0 0 0 0 0 0 0 0 0 0 0 0 0 0 0 0 0.25 0"/>
<feBlend mode="normal" in2="BackgroundImageFix" result="effect1_dropShadow_1388_279"/>
<feBlend mode="normal" in="SourceGraphic" in2="effect1_dropShadow_1388_279" result="shape"/>
</filter>
<filter id="filter1_d_1388_279" x="149" y="71" width="61" height="61" filterUnits="userSpaceOnUse" color-interpolation-filters="sRGB">
<feFlood flood-opacity="0" result="BackgroundImageFix"/>
<feColorMatrix in="SourceAlpha" type="matrix" values="0 0 0 0 0 0 0 0 0 0 0 0 0 0 0 0 0 0 127 0" result="hardAlpha"/>
<feOffset dy="4"/>
<feGaussianBlur stdDeviation="2"/>
<feComposite in2="hardAlpha" operator="out"/>
<feColorMatrix type="matrix" values="0 0 0 0 0 0 0 0 0 0 0 0 0 0 0 0 0 0 0.25 0"/>
<feBlend mode="normal" in2="BackgroundImageFix" result="effect1_dropShadow_1388_279"/>
<feBlend mode="normal" in="SourceGraphic" in2="effect1_dropShadow_1388_279" result="shape"/>
</filter>
<filter id="filter2_d_1388_279" x="147" y="65" width="65" height="65" filterUnits="userSpaceOnUse" color-interpolation-filters="sRGB">
<feFlood flood-opacity="0" result="BackgroundImageFix"/>
<feColorMatrix in="SourceAlpha" type="matrix" values="0 0 0 0 0 0 0 0 0 0 0 0 0 0 0 0 0 0 127 0" result="hardAlpha"/>
<feOffset/>
<feGaussianBlur stdDeviation="5"/>
<feComposite in2="hardAlpha" operator="out"/>
<feColorMatrix type="matrix" values="0 0 0 0 0 0 0 0 0 0 0 0 0 0 0 0 0 0 0.2 0"/>
<feBlend mode="normal" in2="BackgroundImageFix" result="effect1_dropShadow_1388_279"/>
<feBlend mode="normal" in="SourceGraphic" in2="effect1_dropShadow_1388_279" result="shape"/>
</filter>
</defs>
</svg>
